<svg width="39" height="44" viewBox="0 0 39 44" fill="none" xmlns="http://www.w3.org/2000/svg">
<path fill-rule="evenodd" clip-rule="evenodd" d="M34.2436 0.655762C35.4281 0.655762 36.5641 1.13235 37.4017 1.98069C38.2392 2.82902 38.7098 3.97961 38.7098 5.17934V44.4323L34.0275 40.2735L31.4342 37.7928L28.6248 35.1663L29.7774 39.2521H5.14134C4.54872 39.2521 3.962 39.1328 3.41539 38.9009C2.86878 38.669 2.3732 38.3293 1.95752 37.9014C1.54184 37.4736 1.21437 36.9663 0.99421 36.409C0.774047 35.8518 0.665583 35.2557 0.675142 34.6555V5.17934C0.675142 3.97961 1.14569 2.82902 1.98326 1.98069C2.82083 1.13235 3.95683 0.655762 5.14134 0.655762L34.2436 0.655762ZM25.8875 29.4023C27.1785 29.4322 28.4572 29.1421 29.6123 28.5571C30.7673 27.9722 31.7637 27.1102 32.5147 26.0461C32.443 21.5851 31.3845 17.197 29.4172 13.205C27.5708 11.7822 25.3258 10.9902 23.0061 10.9432V11.308C24.9854 11.8211 26.8296 12.7675 28.4087 14.0806C26.3811 12.9483 24.1541 12.2295 21.8535 11.9647C20.397 11.7427 18.9159 11.7427 17.4594 11.9647H17.0992C15.3816 12.1636 13.7048 12.6313 12.1288 13.351L10.8321 14.0076C12.5109 12.6066 14.4811 11.6089 16.5949 11.0892C14.3727 11.1868 12.2345 11.9767 10.4719 13.351C8.45838 17.329 7.37397 21.7223 7.30239 26.1921C8.0534 27.2561 9.0498 28.1181 10.2048 28.7031C11.3599 29.288 12.6386 29.5782 13.9296 29.5483C13.9296 29.5483 14.7941 28.5998 15.4424 27.7242C13.9056 27.3713 12.5484 26.4635 11.6245 25.1706L12.2008 25.5354C12.707 25.8251 13.2373 26.0692 13.7856 26.265C14.8299 26.6966 15.9165 27.0146 17.0272 27.2135C18.8819 27.587 20.7911 27.587 22.6459 27.2135C23.727 26.9887 24.7873 26.6714 25.8155 26.265C26.6738 25.9128 27.4945 25.4727 28.2647 24.9517C27.317 26.2672 25.9381 27.1983 24.3748 27.5783L25.8875 29.4023ZM15.8026 19.1149C15.3113 19.0708 14.8183 19.178 14.3881 19.4224C13.958 19.6668 13.6107 20.0371 13.3918 20.4847C13.1729 20.9324 13.0925 21.4365 13.1611 21.9312C13.2298 22.4259 13.4443 22.8881 13.7766 23.2572C14.1089 23.6264 14.5435 23.8853 15.0235 24.0001C15.5036 24.1149 16.0066 24.0803 16.4669 23.9007C16.9271 23.7212 17.3231 23.405 17.603 22.9937C17.8829 22.5824 18.0337 22.0951 18.0357 21.5955C18.0555 20.969 17.8333 20.3593 17.4163 19.896C16.9993 19.4328 16.4204 19.1525 15.8026 19.1149ZM23.7264 19.1149C23.4235 19.1334 23.1272 19.2124 22.8545 19.3472C22.5818 19.4821 22.338 19.6701 22.1373 19.9006C21.9365 20.1311 21.7826 20.3995 21.6845 20.6903C21.5863 20.9812 21.5459 21.2888 21.5654 21.5955C21.5455 22.2028 21.7601 22.7939 22.1636 23.2435C22.5671 23.6931 23.1277 23.9656 23.7264 24.0032C24.0292 23.9938 24.3272 23.924 24.6033 23.7979C24.8794 23.6718 25.1283 23.4917 25.3357 23.2681C25.543 23.0445 25.7049 22.7817 25.8119 22.4947C25.919 22.2077 25.9691 21.9022 25.9595 21.5955C25.9792 21.2769 25.9342 20.9575 25.8272 20.6572C25.7202 20.3569 25.5536 20.0819 25.3375 19.8495C25.1215 19.617 24.8606 19.4318 24.5711 19.3055C24.2816 19.1791 23.9696 19.1142 23.6544 19.1149H23.7264Z" fill="#FFFDF0"/>
</svg>
