<svg width="39" height="39" viewBox="0 0 39 39" fill="none" xmlns="http://www.w3.org/2000/svg">
<path d="M19.4085 3.66875H27.1163C28.1666 3.57866 29.2237 3.72314 30.2129 4.092C31.2021 4.46086 32.0993 5.04512 32.8412 5.80353C33.5832 6.56195 34.1517 7.47604 34.5068 8.48131C34.8618 9.48658 34.9947 10.5585 34.8961 11.6215C34.8961 13.5914 34.8961 14.2481 34.8961 19.3553C34.8961 24.4626 34.8961 25.1192 34.8961 27.1622C34.9835 28.2193 34.8423 29.2831 34.4823 30.2793C34.1222 31.2756 33.552 32.1803 32.8114 32.9304C32.0707 33.6806 31.1775 34.2581 30.1939 34.6228C29.2103 34.9875 28.16 35.1305 27.1163 35.0419C25.0993 35.0419 24.523 35.0419 19.4085 35.0419C14.294 35.0419 13.7897 35.0419 11.7727 35.0419C10.729 35.1305 9.67871 34.9875 8.69512 34.6228C7.71153 34.2581 6.81829 33.6806 6.07765 32.9304C5.33701 32.1803 4.7668 31.2756 4.40676 30.2793C4.04671 29.2831 3.90548 28.2193 3.99293 27.1622C3.99293 25.1192 3.99293 24.5356 3.99293 19.3553C3.99293 14.1751 3.99293 13.5914 3.99293 11.6215C3.90548 10.5643 4.04671 9.50054 4.40676 8.50432C4.7668 7.50809 5.33701 6.60337 6.07765 5.85321C6.81829 5.10306 7.71153 4.52552 8.69512 4.16085C9.67871 3.79617 10.729 3.65314 11.7727 3.74171L19.4085 3.66875ZM19.4085 0.166632C14.294 0.166632 13.6457 0.166632 11.6287 0.166632C10.1564 0.0829597 8.68313 0.313818 7.30461 0.844222C5.9261 1.37463 4.67312 2.19272 3.627 3.24539C2.58089 4.29806 1.76503 5.56179 1.23239 6.95453C0.699746 8.34727 0.462223 9.8379 0.53524 11.3296C0.53524 13.4455 0.53524 14.1022 0.53524 19.2824C0.53524 24.4626 0.53524 25.1922 0.53524 27.2351C0.463114 28.73 0.700685 30.2236 1.23266 31.6199C1.76464 33.0162 2.57925 34.2842 3.62412 35.3425C4.66898 36.4008 5.92096 37.2259 7.29954 37.7647C8.67812 38.3035 10.1528 38.5441 11.6287 38.4711H27.2604C28.7236 38.5427 30.1856 38.3059 31.5539 37.7759C32.9223 37.2458 34.1671 36.434 35.2097 35.3916C36.2524 34.3493 37.0701 33.0992 37.6113 31.7203C38.1525 30.3415 38.4053 28.8639 38.3538 27.381C38.3538 25.3381 38.3538 24.6815 38.3538 19.4283C38.3538 14.1751 38.3538 13.5914 38.3538 11.4756C38.4268 9.98382 38.1893 8.49319 37.6566 7.10045C37.124 5.70771 36.3081 4.44399 35.262 3.39131C34.2159 2.33864 32.9629 1.52055 31.5844 0.990144C30.2059 0.45974 28.7327 0.228881 27.2604 0.312553C25.2434 0.239593 24.595 0.166632 19.4085 0.166632ZM19.4085 9.57858C17.4678 9.57864 15.5709 10.1625 13.9583 11.2561C12.3457 12.3496 11.0901 13.9037 10.3507 15.7211C9.61141 17.5384 9.42166 19.5373 9.80554 21.4641C10.1894 23.3908 11.1297 25.1587 12.507 26.5435C13.8843 27.9283 15.6367 28.8675 17.5418 29.2421C19.4469 29.6167 21.4189 29.4097 23.2078 28.6475C24.9966 27.8853 26.5216 26.6021 27.5894 24.9608C28.6571 23.3194 29.2196 21.3939 29.2053 19.4283C29.2053 18.1287 28.9514 16.8419 28.4582 15.642C27.965 14.4422 27.2422 13.3532 26.3316 12.4376C25.4209 11.522 24.3403 10.798 23.1521 10.3073C21.9639 9.81662 20.6916 9.56896 19.4085 9.57858ZM19.4085 25.8489C18.1547 25.8489 16.9291 25.4723 15.8867 24.7668C14.8442 24.0613 14.0317 23.0585 13.5519 21.8853C13.0721 20.7121 12.9466 19.4212 13.1912 18.1757C13.4358 16.9302 14.0395 15.7862 14.9261 14.8883C15.8126 13.9904 16.9421 13.3789 18.1718 13.1311C19.4015 12.8834 20.6761 13.0105 21.8344 13.4965C22.9927 13.9824 23.9827 14.8054 24.6793 15.8612C25.3758 16.9171 25.7476 18.1584 25.7476 19.4283C25.7573 20.2742 25.5999 21.1135 25.2847 21.8969C24.9696 22.6803 24.503 23.392 23.9124 23.9901C23.3219 24.5883 22.6192 25.0608 21.8457 25.38C21.0723 25.6992 20.2436 25.8586 19.4085 25.8489ZM29.5655 6.95199C29.033 7.04847 28.5509 7.33157 28.2037 7.75173C27.8565 8.17189 27.6662 8.70235 27.6662 9.25026C27.6662 9.79817 27.8565 10.3286 28.2037 10.7488C28.5509 11.169 29.033 11.452 29.5655 11.5485C29.8973 11.6086 30.2381 11.5943 30.5639 11.5066C30.8896 11.4188 31.1924 11.2598 31.4509 11.0406C31.7094 10.8215 31.9173 10.5476 32.0599 10.2383C32.2026 9.92894 32.2765 9.59168 32.2765 9.25026C32.2765 8.90884 32.2026 8.57158 32.0599 8.26224C31.9173 7.95291 31.7094 7.67902 31.4509 7.45988C31.1924 7.24075 30.8896 7.0817 30.5639 6.99395C30.2381 6.9062 29.8973 6.89187 29.5655 6.95199Z" fill="#FFFDF0"/>
</svg>
