<svg width="390" height="34" viewBox="0 0 390 34" fill="none" xmlns="http://www.w3.org/2000/svg">
<path d="M25.5073 21.1278H29.5771C29.0684 24.852 27.1653 28.2438 24.2527 30.6176C21.3401 32.9913 17.6354 34.1698 13.8876 33.9146C10.1399 33.6595 6.62881 31.9898 4.06437 29.2432C1.49993 26.4966 0.0734863 22.878 0.0734863 19.1192C0.0734863 15.3604 1.49993 11.7418 4.06437 8.99522C6.62881 6.24861 10.1399 4.57892 13.8876 4.32378C17.6354 4.06863 21.3401 5.24708 24.2527 7.62081C27.1653 9.99454 29.0684 13.3864 29.5771 17.1106H25.5073C25.0072 14.4496 23.5324 12.0712 21.3717 10.4412C19.2109 8.81126 16.52 8.04711 13.8257 8.29841C11.1315 8.54972 8.62799 9.79838 6.80555 11.7999C4.98312 13.8014 3.973 16.4115 3.973 19.1192C3.973 21.8269 4.98312 24.437 6.80555 26.4385C8.62799 28.44 11.1315 29.6887 13.8257 29.94C16.52 30.1913 19.2109 29.4271 21.3717 27.7972C23.5324 26.1672 25.0072 23.7888 25.5073 21.1278Z" fill="#FFFAE3"/>
<path d="M62.0883 19.1152C62.0961 22.0575 61.2309 24.9359 59.6023 27.3856C57.9737 29.8354 55.6551 31.7463 52.9402 32.8763C50.2253 34.0062 47.2362 34.3043 44.3518 33.7328C41.4674 33.1613 38.8175 31.7458 36.7378 29.6659C34.658 27.5859 33.2421 24.935 32.6694 22.0491C32.0967 19.1632 32.393 16.1721 33.5208 13.4548C34.6486 10.7375 36.557 8.41637 39.0044 6.78545C41.4517 5.15453 44.3278 4.28725 47.2682 4.29349C51.1948 4.30182 54.9583 5.86582 57.7356 8.6434C60.5129 11.421 62.0779 15.1861 62.0883 19.1152ZM58.0658 19.1152C58.058 16.9724 57.4154 14.88 56.2194 13.1025C55.0233 11.3251 53.3275 9.94234 51.3462 9.12916C49.3649 8.31599 47.1872 8.10888 45.0883 8.534C42.9894 8.95913 41.0635 9.9974 39.5543 11.5176C38.045 13.0377 37.02 14.9716 36.6089 17.0745C36.1978 19.1775 36.4191 21.3553 37.2447 23.3325C38.0703 25.3096 39.4632 26.9975 41.2474 28.1826C43.0315 29.3678 45.1267 29.997 47.2682 29.9908C48.6924 29.9919 50.1028 29.7108 51.4179 29.1637C52.7331 28.6167 53.927 27.8145 54.9308 26.8035C55.9346 25.7924 56.7284 24.5925 57.2665 23.273C57.8045 21.9534 58.0762 20.5403 58.0658 19.1152Z" fill="#FFFAE3"/>
<path d="M94.4812 4.56201V19.1154C94.4717 22.8778 93.0371 26.4967 90.4667 29.2426C87.8963 31.9886 84.3811 33.6574 80.6298 33.9126C76.8785 34.1679 73.1699 32.9906 70.2517 30.6181C67.3334 28.2457 65.4225 24.8544 64.9041 21.1279H68.9739C69.4668 23.7901 70.9371 26.1715 73.0958 27.8039C75.2545 29.4362 77.9453 30.2015 80.6393 29.9493C83.3333 29.697 85.8355 28.4455 87.654 26.4407C89.4726 24.4359 90.4758 21.8229 90.4666 19.1154V8.63443H78.0836C76.8366 11.0645 74.9498 13.1076 72.6271 14.543C70.3044 15.9784 67.6339 16.7517 64.9041 16.7793V12.7069C67.3014 12.713 69.6315 11.9136 71.5207 10.4368C73.4099 8.95991 74.7489 6.89112 75.3231 4.56201H94.4812Z" fill="#FFFAE3"/>
<path d="M131.977 33.7315V14.79C131.97 13.0192 131.26 11.3238 130.003 10.0768C128.747 8.82983 127.047 8.1334 125.277 8.14073C123.507 8.14806 121.813 8.85854 120.567 10.1159C119.32 11.3732 118.625 13.0744 118.632 14.8452V33.7315H114.609V14.79C114.602 13.0254 113.894 11.3361 112.642 10.0936C111.39 8.85101 109.696 8.15708 107.933 8.16441C106.169 8.17173 104.481 8.87972 103.239 10.1326C101.998 11.3855 101.304 13.0807 101.311 14.8452V33.7315H97.2969V14.79C97.3033 12.5344 98.0239 10.3388 99.3552 8.5186C100.686 6.69838 102.56 5.34712 104.707 4.65887C106.853 3.97061 109.163 3.98077 111.303 4.68788C113.444 5.39499 115.305 6.76267 116.621 8.59454C117.942 6.75555 119.812 5.38342 121.962 4.67563C124.112 3.96784 126.431 3.96088 128.586 4.65576C130.74 5.35063 132.618 6.71151 133.951 8.54253C135.283 10.3736 136 12.5803 136 14.8452V33.7315H131.977Z" fill="#FFFAE3"/>
<path d="M140.819 5.4299C140.461 5.43413 140.106 5.3668 139.775 5.23186C139.444 5.09692 139.143 4.8971 138.891 4.64414C138.638 4.39119 138.438 4.09021 138.303 3.7589C138.168 3.4276 138.101 3.07265 138.105 2.71495C138.105 1.9949 138.391 1.30434 138.9 0.79519C139.409 0.286038 140.099 0 140.819 0C141.538 0 142.228 0.286038 142.737 0.79519C143.246 1.30434 143.532 1.9949 143.532 2.71495C143.535 3.07236 143.467 3.42682 143.332 3.75764C143.196 4.08846 142.997 4.38901 142.744 4.64175C142.492 4.89448 142.191 5.09435 141.861 5.22967C141.53 5.36499 141.176 5.43306 140.819 5.4299ZM142.822 8.74466V33.7317H138.815V8.74466H142.822Z" fill="#FFFAE3"/>
<path d="M171.153 21.1278H175.223C174.714 24.852 172.811 28.2438 169.898 30.6176C166.986 32.9913 163.281 34.1698 159.533 33.9146C155.786 33.6595 152.274 31.9898 149.71 29.2432C147.146 26.4966 145.719 22.878 145.719 19.1192C145.719 15.3604 147.146 11.7418 149.71 8.99522C152.274 6.24861 155.786 4.57892 159.533 4.32378C163.281 4.06863 166.986 5.24708 169.898 7.62081C172.811 9.99454 174.714 13.3864 175.223 17.1106H171.153C170.653 14.4496 169.178 12.0712 167.017 10.4412C164.857 8.81126 162.166 8.04711 159.471 8.29841C156.777 8.54972 154.274 9.79838 152.451 11.7999C150.629 13.8014 149.619 16.4115 149.619 19.1192C149.619 21.8269 150.629 24.437 152.451 26.4385C154.274 28.44 156.777 29.6887 159.471 29.94C162.166 30.1913 164.857 29.4271 167.017 27.7972C169.178 26.1672 170.653 23.7888 171.153 21.1278Z" fill="#FFFAE3"/>
<path d="M214.241 21.1278H218.311C217.802 24.852 215.899 28.2438 212.986 30.6176C210.074 32.9913 206.369 34.1698 202.621 33.9146C198.874 33.6595 195.362 31.9898 192.798 29.2432C190.234 26.4966 188.807 22.878 188.807 19.1192C188.807 15.3604 190.234 11.7418 192.798 8.99522C195.362 6.24861 198.874 4.57892 202.621 4.32378C206.369 4.06863 210.074 5.24708 212.986 7.62081C215.899 9.99454 217.802 13.3864 218.311 17.1106H214.241C213.741 14.4496 212.266 12.0712 210.105 10.4412C207.945 8.81126 205.254 8.04711 202.559 8.29841C199.865 8.54972 197.362 9.79838 195.539 11.7999C193.717 13.8014 192.707 16.4115 192.707 19.1192C192.707 21.8269 193.717 24.437 195.539 26.4385C197.362 28.44 199.865 29.6887 202.559 29.94C205.254 30.1913 207.945 29.4271 210.105 27.7972C212.266 26.1672 213.741 23.7888 214.241 21.1278Z" fill="#FFFAE3"/>
<path d="M235.947 4.23828V8.25546C233.079 8.27624 230.336 9.42856 228.312 11.462C226.289 13.4955 225.149 16.2458 225.141 19.1153V33.7318H221.126V19.1153C221.129 15.1785 222.689 11.4028 225.467 8.61465C228.244 5.82648 232.012 4.25289 235.947 4.23828Z" fill="#FFFAE3"/>
<path d="M240.766 5.42989C240.409 5.43306 240.055 5.36495 239.725 5.22954C239.395 5.09412 239.095 4.89413 238.843 4.64129C238.591 4.38844 238.392 4.08782 238.258 3.75704C238.123 3.42626 238.056 3.07197 238.06 2.71494C238.06 2.17764 238.22 1.65242 238.518 1.20578C238.817 0.759136 239.241 0.411161 239.737 0.205907C240.233 0.00065261 240.779 -0.0526496 241.306 0.0527486C241.832 0.158147 242.316 0.417505 242.695 0.797988C243.074 1.17847 243.332 1.66297 243.436 2.19013C243.539 2.7173 243.485 3.26343 243.278 3.75938C243.071 4.25534 242.722 4.67881 242.275 4.97618C241.828 5.27355 241.303 5.43145 240.766 5.42989ZM242.777 8.74465V33.7317H238.762V8.74465H242.777Z" fill="#FFFAE3"/>
<path d="M245.601 0.331543H249.615V13.0934H275.178V17.1106H249.615V19.1152C249.606 21.8227 250.609 24.4357 252.428 26.4405C254.246 28.4453 256.748 29.6968 259.442 29.9491C262.136 30.2013 264.827 29.4361 266.986 27.8037C269.145 26.1713 270.615 23.7899 271.108 21.1277H275.178C274.659 24.8542 272.748 28.2455 269.83 30.6179C266.912 32.9904 263.203 34.1677 259.452 33.9124C255.701 33.6572 252.185 31.9884 249.615 29.2424C247.045 26.4965 245.61 22.8776 245.601 19.1152V0.331543Z" fill="#FFFAE3"/>
<path d="M277.993 0.331543H282.008V13.0934H307.602V17.1106H282.008V19.1152C281.999 21.8227 283.002 24.4357 284.821 26.4405C286.639 28.4453 289.141 29.6968 291.835 29.9491C294.529 30.2013 297.22 29.4361 299.379 27.8037C301.537 26.1713 303.008 23.7899 303.501 21.1277H307.602C307.097 24.866 305.19 28.2724 302.269 30.6569C299.348 33.0413 295.63 34.2256 291.869 33.9697C288.108 33.7138 284.584 32.037 282.012 29.2789C279.44 26.5208 278.012 22.8875 278.017 19.1152L277.993 0.331543Z" fill="#FFFAE3"/>
<path d="M323.148 29.7616C323.846 29.8902 324.552 29.9641 325.262 29.9826C327.787 29.9719 330.229 29.0824 332.171 27.4668C334.112 25.8511 335.431 23.6099 335.902 21.1275H339.94C339.46 24.7146 337.688 28.0032 334.956 30.3759C332.225 32.7487 328.723 34.0426 325.106 34.0149C321.489 33.9872 318.007 32.6398 315.312 30.2254C312.618 27.811 310.896 24.4958 310.471 20.9016C310.046 17.3075 310.946 13.6816 313.002 10.7044C315.059 7.7271 318.13 5.6031 321.641 4.73094C325.151 3.85879 328.859 4.29842 332.068 5.96735C335.278 7.63627 337.768 10.4198 339.072 13.7955L323.148 29.7616ZM319.204 28.0806L334.245 13.0379C333.243 11.5855 331.905 10.3966 330.345 9.57222C328.785 8.74783 327.049 8.31225 325.285 8.30248C322.978 8.3031 320.731 9.04335 318.875 10.4147C317.019 11.7861 315.65 13.7165 314.97 15.9229C314.29 18.1293 314.334 20.4956 315.096 22.675C315.858 24.8544 317.298 26.7323 319.204 28.0332V28.0806Z" fill="#FFFAE3"/>
<path d="M357.607 4.23828V8.25546C354.74 8.27624 351.996 9.42856 349.973 11.462C347.95 13.4955 346.81 16.2458 346.802 19.1153V33.7318H342.787V19.1153C342.789 15.1785 344.35 11.4028 347.127 8.61465C349.905 5.82648 353.673 4.25289 357.607 4.23828Z" fill="#FFFAE3"/>
<path d="M390 4.56201V19.1154C389.952 22.8505 388.5 26.4306 385.934 29.1435C383.368 31.8564 379.875 33.5035 376.151 33.7572C372.426 34.0108 368.743 32.8524 365.833 30.5123C362.923 28.1723 361 24.8221 360.447 21.1279H364.516C365.009 23.7901 366.48 26.1715 368.638 27.8039C370.797 29.4362 373.488 30.2015 376.182 29.9493C378.876 29.697 381.378 28.4455 383.197 26.4407C385.015 24.4359 386.018 21.8229 386.009 19.1154V8.63443H373.61C372.365 11.0622 370.48 13.1037 368.161 14.539C365.841 15.9742 363.174 16.7488 360.447 16.7793V12.7069C362.84 12.7077 365.164 11.9059 367.049 10.4295C368.933 8.95301 370.269 6.88718 370.842 4.56201H390Z" fill="#FFFAE3"/>
</svg>
