<svg width="40" height="34" viewBox="0 0 40 34" fill="none" xmlns="http://www.w3.org/2000/svg">
<path d="M39.8621 4.63872C38.3728 5.30516 36.7954 5.7476 35.1798 5.95201C36.9009 4.92437 38.1843 3.28649 38.7816 1.35548C37.1784 2.31135 35.4235 2.97791 33.595 3.32542C32.3622 2.07483 30.7681 1.25446 29.0439 0.983281C27.3198 0.7121 25.5551 1.0042 24.0059 1.81722C22.4567 2.63025 21.2034 3.92193 20.4278 5.50499C19.6521 7.08804 19.3945 8.88016 19.6922 10.6215C16.4611 10.4862 13.2934 9.67014 10.3911 8.22548C7.48879 6.78081 4.91569 4.73923 2.83597 2.23101C1.8408 4.05904 1.54775 6.19509 2.01313 8.22868C2.47852 10.2623 3.6695 12.0499 5.35721 13.2481C4.0747 13.1769 2.82206 12.8286 1.68341 12.2266C1.64402 14.1705 2.27817 16.0668 3.4757 17.5863C4.67323 19.1058 6.35846 20.1523 8.23862 20.5442C7.02725 20.802 5.77619 20.802 4.56482 20.5442C5.07891 22.1953 6.09312 23.6406 7.46365 24.6751C8.83418 25.7097 10.4915 26.281 12.2006 26.3081C8.77486 29.0352 4.42972 30.2927 0.0986328 29.8102C3.689 32.2336 7.87555 33.5946 12.1877 33.7404C16.4999 33.8862 20.7667 32.811 24.5086 30.6355C28.2506 28.46 31.3193 25.2706 33.3698 21.4257C35.4204 17.5808 36.3715 13.2328 36.1163 8.87045C37.6024 7.69563 38.8707 6.2628 39.8621 4.63872Z" fill="#FFFDF0"/>
</svg>
