<svg width="260" height="66" viewBox="0 0 260 66" fill="none" xmlns="http://www.w3.org/2000/svg">
<g clip-path="url(#clip0_997:1022)">
<path d="M248.794 51.4904V14.5096C248.794 14.5096 250.448 1.2055 232.107 1.2055H240.526C244.642 0.801591 248.753 2.02146 251.982 4.60503C255.212 7.1886 257.304 10.9315 257.814 15.0357V50.9643C257.304 55.0685 255.212 58.8114 251.982 61.395C248.753 63.9785 244.642 65.1984 240.526 64.7945H231C231 64.7945 248.794 63.9677 248.794 51.4904Z" fill="#EF53F4"/>
<path d="M248.794 14.5096V51.4904C248.794 63.9677 232.558 64.4187 232.558 64.4187H27.2094C8.86936 64.4187 10.523 51.1146 10.523 51.1146V14.1338C10.523 1.65648 26.7585 1.2055 26.7585 1.2055H232.107C250.447 1.2055 248.794 14.5096 248.794 14.5096Z" fill="#E239E2"/>
<path d="M10.523 51.1146C10.523 51.1146 8.86939 64.4187 27.2095 64.4187H18.4904C14.4314 64.8301 10.37 63.6615 7.15038 61.1558C3.93075 58.6501 1.80057 55 1.20264 50.9643V15.0357C1.71208 10.9315 3.8046 7.1886 7.03406 4.60503C10.2635 2.02146 14.3745 0.801591 18.4904 1.2055H26.7585C26.7585 1.2055 10.523 1.65649 10.523 14.1338V51.1146Z" fill="#CC18C3"/>
<path d="M232.107 1.2055H240.526C244.642 0.801591 248.753 2.02146 251.982 4.60503C255.212 7.1886 257.304 10.9315 257.814 15.0357V50.9643C257.304 55.0685 255.212 58.8114 251.982 61.395C248.753 63.9785 244.642 65.1984 240.526 64.7945H18.4904C14.3745 65.1984 10.2635 63.9785 7.03406 61.395C3.8046 58.8114 1.71208 55.0685 1.20264 50.9643V15.0357C1.71208 10.9315 3.8046 7.1886 7.03406 4.60503C10.2635 2.02146 14.3745 0.801591 18.4904 1.2055H232.107Z" stroke="black" stroke-width="3.19972" stroke-linecap="round" stroke-linejoin="round"/>
<path d="M41.604 43.32C39.7053 43.32 38.0733 43.0107 36.708 42.392C35.3427 41.752 34.276 40.7813 33.508 39.48C32.74 38.1573 32.324 36.5147 32.26 34.552C32.2387 33.6347 32.228 32.728 32.228 31.832C32.228 30.936 32.2387 30.0187 32.26 29.08C32.324 27.1387 32.7507 25.5173 33.54 24.216C34.3293 22.9147 35.4067 21.9333 36.772 21.272C38.1587 20.6107 39.7693 20.28 41.604 20.28C43.4387 20.28 45.0493 20.6107 46.436 21.272C47.8227 21.9333 48.9107 22.9147 49.7 24.216C50.4893 25.5173 50.916 27.1387 50.98 29.08C51.0227 30.0187 51.044 30.936 51.044 31.832C51.044 32.728 51.0227 33.6347 50.98 34.552C50.916 36.5147 50.5 38.1573 49.732 39.48C48.964 40.7813 47.8867 41.752 46.5 42.392C45.1347 43.0107 43.5027 43.32 41.604 43.32ZM41.604 39.64C42.9907 39.64 44.1213 39.2347 44.996 38.424C45.8707 37.592 46.34 36.248 46.404 34.392C46.4467 33.4533 46.468 32.5893 46.468 31.8C46.468 30.9893 46.4467 30.1253 46.404 29.208C46.3613 27.9707 46.1267 26.968 45.7 26.2C45.2947 25.4107 44.74 24.8453 44.036 24.504C43.332 24.1413 42.5213 23.96 41.604 23.96C40.708 23.96 39.908 24.1413 39.204 24.504C38.5 24.8453 37.9347 25.4107 37.508 26.2C37.1027 26.968 36.8787 27.9707 36.836 29.208C36.8147 30.1253 36.804 30.9893 36.804 31.8C36.804 32.5893 36.8147 33.4533 36.836 34.392C36.9 36.248 37.3693 37.592 38.244 38.424C39.1187 39.2347 40.2387 39.64 41.604 39.64ZM61.038 43.32C59.7367 43.32 58.606 43.032 57.646 42.456C56.7073 41.8587 55.982 41.0267 55.47 39.96C54.958 38.872 54.702 37.592 54.702 36.12V27.128C54.702 26.9147 54.7767 26.7333 54.926 26.584C55.0753 26.4347 55.2567 26.36 55.47 26.36H58.286C58.5207 26.36 58.702 26.4347 58.83 26.584C58.9793 26.7333 59.054 26.9147 59.054 27.128V35.928C59.054 38.5733 60.2167 39.896 62.542 39.896C63.6513 39.896 64.526 39.544 65.166 38.84C65.8273 38.136 66.158 37.1653 66.158 35.928V27.128C66.158 26.9147 66.2327 26.7333 66.382 26.584C66.5313 26.4347 66.7127 26.36 66.926 26.36H69.742C69.9553 26.36 70.1367 26.4347 70.286 26.584C70.4353 26.7333 70.51 26.9147 70.51 27.128V42.232C70.51 42.4453 70.4353 42.6267 70.286 42.776C70.1367 42.9253 69.9553 43 69.742 43H67.15C66.9153 43 66.7233 42.9253 66.574 42.776C66.446 42.6267 66.382 42.4453 66.382 42.232V40.92C65.806 41.6667 65.0913 42.2533 64.238 42.68C63.3847 43.1067 62.318 43.32 61.038 43.32ZM75.505 43C75.2917 43 75.1103 42.9253 74.961 42.776C74.8117 42.6267 74.737 42.4453 74.737 42.232V27.16C74.737 26.9253 74.8117 26.7333 74.961 26.584C75.1103 26.4347 75.2917 26.36 75.505 26.36H78.097C78.3103 26.36 78.4917 26.4347 78.641 26.584C78.8117 26.7333 78.897 26.9253 78.897 27.16V28.472C79.3877 27.7893 80.017 27.2667 80.785 26.904C81.5743 26.5413 82.481 26.36 83.505 26.36H84.817C85.0517 26.36 85.233 26.4347 85.361 26.584C85.5103 26.7333 85.585 26.9147 85.585 27.128V29.432C85.585 29.6453 85.5103 29.8267 85.361 29.976C85.233 30.1253 85.0517 30.2 84.817 30.2H82.321C81.297 30.2 80.497 30.488 79.921 31.064C79.3663 31.64 79.089 32.4293 79.089 33.432V42.232C79.089 42.4453 79.0143 42.6267 78.865 42.776C78.7157 42.9253 78.5237 43 78.289 43H75.505ZM95.8578 43C95.6444 43 95.4631 42.9253 95.3138 42.776C95.1644 42.6267 95.0898 42.4453 95.0898 42.232V21.4C95.0898 21.1653 95.1644 20.9733 95.3138 20.824C95.4631 20.6747 95.6444 20.6 95.8578 20.6H104.434C106.098 20.6 107.548 20.8667 108.786 21.4C110.023 21.912 110.983 22.7013 111.666 23.768C112.348 24.8133 112.69 26.1253 112.69 27.704C112.69 29.304 112.348 30.6267 111.666 31.672C110.983 32.696 110.023 33.464 108.786 33.976C107.548 34.488 106.098 34.744 104.434 34.744H99.6658V42.232C99.6658 42.4453 99.5911 42.6267 99.4418 42.776C99.3138 42.9253 99.1324 43 98.8978 43H95.8578ZM99.6018 31.192H104.274C105.511 31.192 106.46 30.904 107.122 30.328C107.783 29.7307 108.114 28.856 108.114 27.704C108.114 26.6373 107.804 25.784 107.186 25.144C106.567 24.4827 105.596 24.152 104.274 24.152H99.6018V31.192ZM120.288 43.32C119.178 43.32 118.176 43.1067 117.28 42.68C116.384 42.232 115.669 41.6453 115.136 40.92C114.624 40.1733 114.368 39.3413 114.368 38.424C114.368 36.9307 114.965 35.7467 116.16 34.872C117.376 33.976 118.976 33.3787 120.96 33.08L125.344 32.44V31.768C125.344 30.872 125.12 30.1787 124.672 29.688C124.224 29.1973 123.456 28.952 122.368 28.952C121.6 28.952 120.97 29.112 120.48 29.432C120.01 29.7307 119.658 30.136 119.424 30.648C119.253 30.9253 119.008 31.064 118.688 31.064H116.16C115.925 31.064 115.744 31 115.616 30.872C115.509 30.744 115.456 30.5733 115.456 30.36C115.477 30.0187 115.616 29.6027 115.872 29.112C116.128 28.6213 116.533 28.152 117.088 27.704C117.642 27.2347 118.357 26.84 119.232 26.52C120.106 26.2 121.162 26.04 122.4 26.04C123.744 26.04 124.874 26.2107 125.792 26.552C126.73 26.872 127.477 27.3093 128.032 27.864C128.586 28.4187 128.992 29.0693 129.248 29.816C129.504 30.5627 129.632 31.352 129.632 32.184V42.232C129.632 42.4453 129.557 42.6267 129.408 42.776C129.258 42.9253 129.077 43 128.864 43H126.272C126.037 43 125.845 42.9253 125.696 42.776C125.568 42.6267 125.504 42.4453 125.504 42.232V40.984C125.226 41.3893 124.853 41.7733 124.384 42.136C123.914 42.4773 123.338 42.7653 122.656 43C121.994 43.2133 121.205 43.32 120.288 43.32ZM121.376 40.28C122.122 40.28 122.794 40.12 123.392 39.8C124.01 39.48 124.49 38.9893 124.832 38.328C125.194 37.6453 125.376 36.792 125.376 35.768V35.096L122.176 35.608C120.917 35.8 119.978 36.1093 119.36 36.536C118.741 36.9627 118.432 37.4853 118.432 38.104C118.432 38.5733 118.57 38.9787 118.848 39.32C119.146 39.64 119.52 39.8853 119.968 40.056C120.416 40.2053 120.885 40.28 121.376 40.28ZM134.505 43C134.292 43 134.11 42.9253 133.961 42.776C133.812 42.6267 133.737 42.4453 133.737 42.232V27.16C133.737 26.9253 133.812 26.7333 133.961 26.584C134.11 26.4347 134.292 26.36 134.505 26.36H137.097C137.31 26.36 137.492 26.4347 137.641 26.584C137.812 26.7333 137.897 26.9253 137.897 27.16V28.472C138.388 27.7893 139.017 27.2667 139.785 26.904C140.574 26.5413 141.481 26.36 142.505 26.36H143.817C144.052 26.36 144.233 26.4347 144.361 26.584C144.51 26.7333 144.585 26.9147 144.585 27.128V29.432C144.585 29.6453 144.51 29.8267 144.361 29.976C144.233 30.1253 144.052 30.2 143.817 30.2H141.321C140.297 30.2 139.497 30.488 138.921 31.064C138.366 31.64 138.089 32.4293 138.089 33.432V42.232C138.089 42.4453 138.014 42.6267 137.865 42.776C137.716 42.9253 137.524 43 137.289 43H134.505ZM154.601 43C153.321 43 152.243 42.776 151.369 42.328C150.494 41.88 149.843 41.2187 149.417 40.344C148.99 39.448 148.777 38.3387 148.777 37.016V29.752H146.249C146.035 29.752 145.854 29.6773 145.705 29.528C145.555 29.3787 145.481 29.1973 145.481 28.984V27.128C145.481 26.9147 145.555 26.7333 145.705 26.584C145.854 26.4347 146.035 26.36 146.249 26.36H148.777V21.048C148.777 20.8347 148.841 20.6533 148.969 20.504C149.118 20.3547 149.31 20.28 149.545 20.28H152.137C152.35 20.28 152.531 20.3547 152.681 20.504C152.83 20.6533 152.905 20.8347 152.905 21.048V26.36H156.905C157.118 26.36 157.299 26.4347 157.449 26.584C157.598 26.7333 157.673 26.9147 157.673 27.128V28.984C157.673 29.1973 157.598 29.3787 157.449 29.528C157.299 29.6773 157.118 29.752 156.905 29.752H152.905V36.696C152.905 37.5707 153.054 38.2533 153.353 38.744C153.673 39.2347 154.217 39.48 154.985 39.48H157.193C157.406 39.48 157.587 39.5547 157.737 39.704C157.886 39.8533 157.961 40.0347 157.961 40.248V42.232C157.961 42.4453 157.886 42.6267 157.737 42.776C157.587 42.9253 157.406 43 157.193 43H154.601ZM161.568 43C161.354 43 161.173 42.9253 161.024 42.776C160.874 42.6267 160.799 42.4453 160.799 42.232V27.128C160.799 26.9147 160.874 26.7333 161.024 26.584C161.173 26.4347 161.354 26.36 161.568 26.36H164.192C164.405 26.36 164.586 26.4347 164.736 26.584C164.885 26.7333 164.96 26.9147 164.96 27.128V28.44C165.514 27.7573 166.218 27.192 167.072 26.744C167.946 26.2747 169.024 26.04 170.304 26.04C171.605 26.04 172.736 26.3387 173.696 26.936C174.656 27.512 175.392 28.3333 175.904 29.4C176.437 30.4667 176.704 31.7467 176.704 33.24V42.232C176.704 42.4453 176.629 42.6267 176.48 42.776C176.33 42.9253 176.149 43 175.936 43H173.12C172.906 43 172.725 42.9253 172.576 42.776C172.426 42.6267 172.352 42.4453 172.352 42.232V33.432C172.352 32.1947 172.042 31.224 171.424 30.52C170.826 29.816 169.952 29.464 168.8 29.464C167.69 29.464 166.805 29.816 166.144 30.52C165.482 31.224 165.152 32.1947 165.152 33.432V42.232C165.152 42.4453 165.077 42.6267 164.928 42.776C164.778 42.9253 164.597 43 164.384 43H161.568ZM187.936 43.32C185.568 43.32 183.691 42.6373 182.304 41.272C180.918 39.9067 180.171 37.9653 180.064 35.448C180.043 35.2347 180.032 34.968 180.032 34.648C180.032 34.3067 180.043 34.04 180.064 33.848C180.15 32.248 180.512 30.8613 181.152 29.688C181.814 28.5147 182.72 27.6187 183.872 27C185.024 26.36 186.379 26.04 187.936 26.04C189.664 26.04 191.115 26.4027 192.288 27.128C193.462 27.832 194.347 28.824 194.944 30.104C195.542 31.3627 195.84 32.824 195.84 34.488V35.16C195.84 35.3733 195.766 35.5547 195.616 35.704C195.467 35.8533 195.275 35.928 195.04 35.928H184.416C184.416 35.928 184.416 35.96 184.416 36.024C184.416 36.088 184.416 36.1413 184.416 36.184C184.438 36.9307 184.576 37.624 184.832 38.264C185.11 38.8827 185.504 39.384 186.016 39.768C186.55 40.152 187.179 40.344 187.904 40.344C188.502 40.344 189.003 40.2587 189.408 40.088C189.814 39.896 190.144 39.6827 190.4 39.448C190.656 39.2133 190.838 39.0213 190.944 38.872C191.136 38.616 191.286 38.4667 191.392 38.424C191.52 38.36 191.702 38.328 191.936 38.328H194.688C194.902 38.328 195.072 38.392 195.2 38.52C195.35 38.648 195.414 38.808 195.392 39C195.371 39.3413 195.19 39.7573 194.848 40.248C194.528 40.7387 194.059 41.2187 193.44 41.688C192.822 42.1573 192.043 42.552 191.104 42.872C190.187 43.1707 189.131 43.32 187.936 43.32ZM184.416 33.24H191.488V33.144C191.488 32.312 191.35 31.5867 191.072 30.968C190.795 30.3493 190.39 29.8587 189.856 29.496C189.323 29.1333 188.683 28.952 187.936 28.952C187.19 28.952 186.55 29.1333 186.016 29.496C185.483 29.8587 185.078 30.3493 184.8 30.968C184.544 31.5867 184.416 32.312 184.416 33.144V33.24ZM200.005 43C199.792 43 199.61 42.9253 199.461 42.776C199.312 42.6267 199.237 42.4453 199.237 42.232V27.16C199.237 26.9253 199.312 26.7333 199.461 26.584C199.61 26.4347 199.792 26.36 200.005 26.36H202.597C202.81 26.36 202.992 26.4347 203.141 26.584C203.312 26.7333 203.397 26.9253 203.397 27.16V28.472C203.888 27.7893 204.517 27.2667 205.285 26.904C206.074 26.5413 206.981 26.36 208.005 26.36H209.317C209.552 26.36 209.733 26.4347 209.861 26.584C210.01 26.7333 210.085 26.9147 210.085 27.128V29.432C210.085 29.6453 210.01 29.8267 209.861 29.976C209.733 30.1253 209.552 30.2 209.317 30.2H206.821C205.797 30.2 204.997 30.488 204.421 31.064C203.866 31.64 203.589 32.4293 203.589 33.432V42.232C203.589 42.4453 203.514 42.6267 203.365 42.776C203.216 42.9253 203.024 43 202.789 43H200.005ZM218.885 43.32C217.605 43.32 216.506 43.1707 215.589 42.872C214.693 42.5733 213.957 42.2 213.381 41.752C212.805 41.304 212.378 40.856 212.101 40.408C211.823 39.96 211.674 39.5867 211.653 39.288C211.631 39.0533 211.695 38.872 211.845 38.744C212.015 38.5947 212.197 38.52 212.389 38.52H214.917C215.002 38.52 215.077 38.5307 215.141 38.552C215.205 38.5733 215.29 38.6373 215.397 38.744C215.674 38.9787 215.962 39.224 216.261 39.48C216.581 39.736 216.954 39.96 217.381 40.152C217.807 40.3227 218.341 40.408 218.981 40.408C219.813 40.408 220.506 40.248 221.061 39.928C221.637 39.5867 221.925 39.1067 221.925 38.488C221.925 38.04 221.797 37.6773 221.541 37.4C221.306 37.1227 220.858 36.8773 220.197 36.664C219.535 36.4293 218.597 36.184 217.381 35.928C216.186 35.6507 215.194 35.2987 214.405 34.872C213.615 34.4453 213.029 33.912 212.645 33.272C212.261 32.632 212.069 31.8853 212.069 31.032C212.069 30.2 212.314 29.4107 212.805 28.664C213.317 27.896 214.063 27.2667 215.045 26.776C216.047 26.2853 217.285 26.04 218.757 26.04C219.909 26.04 220.911 26.1893 221.765 26.488C222.618 26.7653 223.322 27.1173 223.877 27.544C224.453 27.9707 224.89 28.408 225.189 28.856C225.487 29.2827 225.647 29.656 225.669 29.976C225.69 30.2107 225.626 30.4027 225.477 30.552C225.327 30.68 225.157 30.744 224.965 30.744H222.597C222.49 30.744 222.394 30.7227 222.309 30.68C222.223 30.6373 222.138 30.584 222.053 30.52C221.818 30.3067 221.562 30.0827 221.285 29.848C221.007 29.6133 220.666 29.4107 220.261 29.24C219.877 29.048 219.365 28.952 218.725 28.952C217.914 28.952 217.295 29.1333 216.869 29.496C216.442 29.8373 216.229 30.2747 216.229 30.808C216.229 31.1707 216.325 31.4907 216.517 31.768C216.73 32.024 217.146 32.2693 217.765 32.504C218.383 32.7387 219.322 32.984 220.581 33.24C222.01 33.496 223.141 33.88 223.973 34.392C224.826 34.8827 225.423 35.4587 225.765 36.12C226.127 36.76 226.309 37.4747 226.309 38.264C226.309 39.224 226.021 40.088 225.445 40.856C224.89 41.624 224.058 42.232 222.949 42.68C221.861 43.1067 220.506 43.32 218.885 43.32Z" fill="#FFF8D4"/>
</g>
<defs>
<clipPath id="clip0_997:1022">
<rect width="259.016" height="66" fill="white"/>
</clipPath>
</defs>
</svg>
