<svg xmlns="http://www.w3.org/2000/svg" xmlns:xlink="http://www.w3.org/1999/xlink" width="2880" height="8717.81" viewBox="0 0 2880 8717.81"><defs><clipPath id="a"><rect x="-6" width="2886" height="8718" fill="none"/></clipPath><clipPath id="b"><rect x="-3.33" y="3.22" width="2886" height="9387.91" transform="translate(2879.33 9394.34) rotate(-180)" fill="none"/></clipPath><clipPath id="c"><rect x="-3.33" y="6709.67" width="2886" height="2681.45" fill="none"/></clipPath></defs><rect x="-6" width="2889" height="8718" fill="#431272"/><g clip-path="url(#a)"><g clip-path="url(#b)"><path d="M2462.49,3983a112.17,112.17,0,0,1,33.4,174.31,112.33,112.33,0,1,1-33.4-174.31ZM-3.32,5014.68V5506.2a11.77,11.77,0,1,1,0,10.37v950.85c66.51-40.95,122.48-103.59,152.44-198.11C264.64,5904.57-109,5675.68,86,5510.91c322.54-272.5,1612.75,115.14,2194,116.51a327.62,327.62,0,0,1,176.49-51.23,337.53,337.53,0,0,1,34,1.72,329.62,329.62,0,0,1,41.33-5.69c20.31-17.72,32.15-40.27,34.38-68.39,22.45-285.48-641.9-291.14-712.5-618.25-60.87-282,792.31-241.9,1028.95-225.45V4025.55c-102.26-19.2-201.78-57.54-262.68-83.88-67.28-29.1-140.71-42.43-213.69-35.2-63.36,6.25-133.4,26.55-182.93,78.67a14.3,14.3,0,0,1-8.9,10c-17.67,21.1-32.19,46.85-42.11,78.22-72.29,228.3,227.29,332,39.52,474.73C1940,4754.62,679.37,4299.09,659.42,4552.45c-10.27,130.67,209.33,167.68,345.4,258.2a11.79,11.79,0,1,1,19,13.42c40.68,30.7,71.29,67.56,81.62,115.38,28.63,132.74-266.27,151.46-477.28,148.2a1385.51,1385.51,0,0,1-312.48-41C226.28,5024.51,98.08,5000.84-3.32,5014.68ZM10.93,5118a4.8,4.8,0,1,1,4.78,4.77A4.78,4.78,0,0,1,10.93,5118Zm0,1026.6a4.8,4.8,0,1,1,4.78,4.8A4.8,4.8,0,0,1,10.93,6144.6Zm3-145.18a4.8,4.8,0,1,1,4.78,4.8A4.8,4.8,0,0,1,13.9,5999.42ZM18,5435a9.61,9.61,0,1,1,9.59,9.57A9.6,9.6,0,0,1,18,5435Zm189.82-340.26a4.8,4.8,0,1,1,4.81,4.8A4.8,4.8,0,0,1,207.82,5094.77Zm31.74,159.52a4.8,4.8,0,1,1,4.78,4.77A4.78,4.78,0,0,1,239.56,5254.29Zm16,32.59a9.61,9.61,0,1,1,9.59,9.57A9.6,9.6,0,0,1,255.53,5286.88Zm47.8-57.71a5.94,5.94,0,1,1,5.94,5.92A5.93,5.93,0,0,1,303.33,5229.17ZM333.56,5389a14.4,14.4,0,1,1,14.4,14.37A14.38,14.38,0,0,1,333.56,5389Zm260.69-184.15a31.52,31.52,0,1,1,31.53,31.47A31.5,31.5,0,0,1,594.25,5204.81Zm534.21-482.49a11.79,11.79,0,1,1,11.78,11.76A11.76,11.76,0,0,1,1128.46,4722.32Zm873.46,591.5a11.8,11.8,0,1,1,11.81,11.76A11.79,11.79,0,0,1,2001.92,5313.82Zm187.17-716a11.8,11.8,0,1,1,11.82,11.79A11.79,11.79,0,0,1,2189.09,4597.79ZM2322,4460.6a11.8,11.8,0,1,1,11.82,11.8A11.79,11.79,0,0,1,2322,4460.6Zm72.45,903.88a23,23,0,1,1,32.48,0A22.92,22.92,0,0,1,2394.47,5364.48Z" fill="#431272"/><path d="M1319.93,8721.28c-53.53,22-126.27,17.93-204.57,0-222.33-50.93-489.49-214-489.49-214s-250.33-150.7-312.18,229c-59.41,364.5-298,414.55-317,418v1649h2886V7518.94c-372.75-26.81-396.59,132.21-396.59,132.21-69.62,246.52,403.6,277.9,282.31,488.56-122.86,213.49-1095.32-262.6-1352-387.94-60.72-29.63-126.16-48.8-193.47-54.9-132.87-12-331,3.53-390.44,187.35-92.07,284.65,689.49,580.47,548,788.92C1365.27,8695.51,1344.67,8711.18,1319.93,8721.28Z" fill="#3e125b"/><path d="M-3.32,7615.86V9154.2c19-3.4,257.6-53.45,317-418,61.85-379.68,312.18-229,312.18-229s267.16,163.08,489.49,214h204.57c24.74-10.1,45.34-25.77,60.55-48.14,141.5-208.45-640.06-504.27-548-788.92,59.47-183.82,257.57-199.38,390.44-187.35,67.31,6.1,132.75,25.27,193.47,54.9,256.68,125.34,1229.14,601.43,1352,387.94,121.29-210.66-351.93-242-282.31-488.56,0,0,23.84-159,396.59-132.21V6579.51c-225.62-119.56-774.17-384-898.61-200.68-157.66,232.26,713.25,561.92,610.63,879.08-66.27,204.83-287,222.16-435.06,208.77-75-6.79-147.93-28.15-215.59-61.19C1658,7265.85,574.41,6735.36,437.48,6973.2,302.35,7208,829.67,7242.91,752.09,7517.64,752.09,7517.64,713.31,7776.34-3.32,7615.86ZM2494.17,6500.34a9.62,9.62,0,1,1,9.62,9.57A9.6,9.6,0,0,1,2494.17,6500.34Zm215.62,118.46a11.8,11.8,0,1,1,11.78,11.79A11.79,11.79,0,0,1,2709.79,6618.8Zm22.53-76.36a9.61,9.61,0,1,1,9.62,9.57A9.61,9.61,0,0,1,2732.32,6542.44Z" fill="#431272"/><path d="M-3.32,6543.21v74.55c317.82-104.68,955.56-33.78,1238.66,56.92,109.6,35.11,262.15.26,283-112.68,13.42-72.42-51.57-175.12-205.19-206.73C962,6283,926.55,6164.07,970.05,6067.63c53.89-119.53,369.33-139.92,831.45,50.93,64.61,26.69,119.33,45.33,165.65,57.66,105.52,28.09,178.09-104,97.24-177.31-80.68-73.09-60.31-136.06-60.31-136.06s3.27-122.28,175.81-136a329.54,329.54,0,0,1,100.17-99.43c-581.29-1.37-1871.5-389-2194-116.51-195.07,164.77,178.62,393.66,63.1,758.4-30,94.52-85.93,157.16-152.44,198.11v65.42a11.77,11.77,0,1,1,0,10.37ZM18,6461.64a9.61,9.61,0,1,1,9.59,9.6A9.6,9.6,0,0,1,18,6461.64ZM207.82,6121.4a4.8,4.8,0,1,1,4.81,4.77A4.78,4.78,0,0,1,207.82,6121.4Zm31.74,159.5a4.8,4.8,0,1,1,4.78,4.8A4.79,4.79,0,0,1,239.56,6280.9Zm16,32.59a9.61,9.61,0,1,1,9.59,9.6A9.6,9.6,0,0,1,255.53,6313.49Zm30.76-390.81a9.61,9.61,0,1,1,9.59,9.57A9.58,9.58,0,0,1,286.29,5922.68Zm17,333.09a5.94,5.94,0,1,1,5.94,5.93A5.94,5.94,0,0,1,303.33,6255.77Zm30.23,159.83A14.4,14.4,0,1,1,348,6430,14.38,14.38,0,0,1,333.56,6415.6Zm216.92-96.12a23,23,0,1,1,32.49,0A22.95,22.95,0,0,1,550.48,6319.48Zm.42,64.12a11.8,11.8,0,1,1,11.79,11.76A11.77,11.77,0,0,1,550.9,6383.6Zm5.64-520.75a15.75,15.75,0,1,1,15.77,15.74A15.74,15.74,0,0,1,556.54,5862.85Zm15.77-393.8a11.79,11.79,0,1,1,11.78,11.79A11.77,11.77,0,0,1,572.31,5469.05Zm105.13,430.58a11.79,11.79,0,1,1,11.79,11.76A11.77,11.77,0,0,1,677.44,5899.63Zm9.89,280.11a14.4,14.4,0,1,1,14.4,14.4A14.38,14.38,0,0,1,687.33,6179.74Zm25.24,192.09a11.8,11.8,0,1,1,11.82,11.77A11.79,11.79,0,0,1,712.57,6371.83Zm26.87-245.72a4.8,4.8,0,1,1,4.81,4.8A4.81,4.81,0,0,1,739.44,6126.11Zm16.45-388.38a11.8,11.8,0,1,1,11.82,11.79A11.79,11.79,0,0,1,755.89,5737.73Zm136.58,607.55a14.42,14.42,0,1,1,14.4,14.37A14.4,14.4,0,0,1,892.47,6345.28Zm1043.8-558.4a11.8,11.8,0,1,1,11.79,11.77A11.79,11.79,0,0,1,1936.27,5786.88Z" fill="#4623b0"/><path d="M-3.32,6532.84v10.37a11.8,11.8,0,1,0,0-10.37Z" fill="#4623b0"/><path d="M-3.32,5506.2v10.37a11.76,11.76,0,1,0,0-10.37Z" fill="#48ffc4"/><path d="M605.15,4635.77a166.15,166.15,0,0,1-25.51,32.74,163.62,163.62,0,0,1-23,19.14c-14,30.94-37.47,59.18-73.07,82.94C355,4856.43,144.45,4782-3.32,4708.66v306c101.4-13.84,229.6,9.83,319,32a1385.51,1385.51,0,0,0,312.48,41c211,3.26,505.91-15.46,477.28-148.2-10.33-47.82-40.94-84.68-81.62-115.38a11.82,11.82,0,0,1-20.13-8.36,11.67,11.67,0,0,1,1.16-5.06c-136.07-90.52-355.67-127.53-345.4-258.2,20-253.36,1280.59,202.17,1552.47-4.41,187.77-142.7-111.81-246.43-39.52-474.73,9.92-31.37,24.44-57.12,42.11-78.22a13.9,13.9,0,0,1-5.08.95,14.39,14.39,0,1,1,14.43-14.4,13.54,13.54,0,0,1-.45,3.5c49.53-52.12,119.57-72.42,182.93-78.67,73-7.23,146.41,6.1,213.69,35.2,60.9,26.34,160.42,64.68,262.68,83.88V3164.9c-104.51,173.9-302.67,286.49-523.87,266.58l-6-.54c-201.07-18.66-204.4,107.09-204.4,107.09s-16.18,49.95,47.87,108c63.71,57.8,6.65,163-76.58,141-36.9-9.77-80.55-24.62-132.15-45.92-367-151.56-617.41-135.38-660.19-40.48-34.53,76.6-6.39,171,272.45,228.42,122,25.09,173.57,106.63,162.94,164.15-16.6,89.68-137.74,117.36-224.73,89.48-126.31-40.45-341.69-102.61-551-140.6a14.34,14.34,0,0,1-5.85,1.25,14.2,14.2,0,0,1-10-4.09c-252-44.33-491.63-51.85-551.93,57.81,0,0-41.87,70.63,4.63,148.09,16.42,27.34,55.46,83.14,89.61,150.13A163.9,163.9,0,0,1,578,4434a11.74,11.74,0,0,1,8.49,8.83c.8.91,1.6,1.8,2.35,2.72a10.36,10.36,0,0,1,4.15,1.6,23.26,23.26,0,0,1,2.23-2.55A26.89,26.89,0,1,1,616,4490.35a164.7,164.7,0,0,1-10.81,145.33S605.15,4635.74,605.15,4635.77Zm-591.25,337a4.8,4.8,0,1,1,4.78,4.77A4.78,4.78,0,0,1,13.9,4972.81ZM286.29,4896a9.61,9.61,0,1,1,9.59,9.6A9.58,9.58,0,0,1,286.29,4896Zm264.64-551.5a11.8,11.8,0,1,1,11.79,11.8A11.78,11.78,0,0,1,550.93,4344.54Zm12.17-312.11a11.81,11.81,0,1,1,11.79,11.76A11.8,11.8,0,0,1,563.1,4032.43Zm80.11,61a31.53,31.53,0,1,1,31.53,31.47A31.51,31.51,0,0,1,643.21,4093.4ZM770.73,4321a11.81,11.81,0,1,1,11.79,11.79A11.79,11.79,0,0,1,770.73,4321ZM1103.66,4340a11.79,11.79,0,1,1,11.79,11.79A11.79,11.79,0,0,1,1103.66,4340Zm35.81-149.1a4.8,4.8,0,1,1,4.78,4.77A4.78,4.78,0,0,1,1139.47,4190.94Zm114-20.5a9.61,9.61,0,1,1,9.62,9.6A9.61,9.61,0,0,1,1253.49,4170.44Zm37.47-53.33a4.8,4.8,0,1,1,4.81,4.8A4.8,4.8,0,0,1,1291,4117.11Zm30.82,14.81a9.61,9.61,0,1,1,9.62,9.6A9.61,9.61,0,0,1,1321.78,4131.92Zm18.35,107.79a23.11,23.11,0,1,1,23.12,23.06A23.11,23.11,0,0,1,1340.13,4239.71Zm138.48-53.33a14.42,14.42,0,1,1,14.43,14.4A14.38,14.38,0,0,1,1478.61,4186.38Zm94.15,98.7a23.06,23.06,0,0,1,18.61-38.46c87.56,5.21,157-9.48,191.78-19.11a23.09,23.09,0,0,1,28.86,18.28l.5,2.84a23.11,23.11,0,0,1-15,25.87c-78.36,27.61-169.83,22.37-210,18.1A22.89,22.89,0,0,1,1572.76,4285.08Zm220-477.25a9.62,9.62,0,1,1,9.62,9.57A9.61,9.61,0,0,1,1792.71,3807.83Zm90.83,211.85a11.8,11.8,0,1,1,11.81,11.8A11.79,11.79,0,0,1,1883.54,4019.68ZM1908.33,4402a11.8,11.8,0,1,1,11.82,11.76A11.79,11.79,0,0,1,1908.33,4402Zm100-475.68a11.8,11.8,0,1,1,11.79,11.79A11.78,11.78,0,0,1,2008.33,3926.29Zm22.53-76.35a9.61,9.61,0,1,1,9.62,9.6A9.61,9.61,0,0,1,2030.86,3849.94Zm36,478.34a11.81,11.81,0,1,1,11.79,11.76A11.79,11.79,0,0,1,2066.85,4328.28Zm39.1,53a11.79,11.79,0,1,1,11.79,11.77A11.78,11.78,0,0,1,2106,4381.25Zm114.73-871.58a4.81,4.81,0,1,1,4.81,4.8A4.8,4.8,0,0,1,2220.68,3509.67Zm31.74,159.53a4.81,4.81,0,1,1,4.81,4.8A4.8,4.8,0,0,1,2252.42,3669.2Zm16,32.59a9.61,9.61,0,1,1,9.62,9.6A9.6,9.6,0,0,1,2268.4,3701.79Zm47.83-57.72a5.93,5.93,0,1,1,5.94,5.93A5.93,5.93,0,0,1,2316.23,3644.07Zm30.19,159.79a14.42,14.42,0,1,1,14.4,14.4A14.38,14.38,0,0,1,2346.42,3803.86Zm426.11-302.1a11.8,11.8,0,1,1,11.78,11.76A11.76,11.76,0,0,1,2772.53,3501.76Zm22.53-76.39a9.61,9.61,0,1,1,9.62,9.6A9.61,9.61,0,0,1,2795.06,3425.37Z" fill="#3e125b"/><path d="M2303.28,1464.37l0,0a257.7,257.7,0,0,1-187.11-159.09c-109-33.24-213.51-41.33-258.17,24.48-111.19,163.82,503.06,396.32,430.7,620-46.73,144.47-202.43,156.71-306.89,147.26-52.88-4.8-104.33-19.85-152-43.14C1628,1955.36,863.7,1581.2,767.14,1749,671.8,1914.53,1043.75,1939.21,989,2133c0,0-17.07,113.95-273.66,105.89q1,12.54,1,25.34c0,171.79-139.55,311-311.7,311a311.39,311.39,0,0,1-95.22-14.81,309.38,309.38,0,0,1-126-47.09c2.85,15.38,6.2,31.44,10.15,48.24,70.73,301.27-75,342.07-196.91,329.19v112.06a4.77,4.77,0,0,1,2.94,4.41,4.77,4.77,0,0,1-2.94,4.41v451.29a9.6,9.6,0,1,1,0,13v298.37c59.29-61.9,116.84-160,142-314.72,61.88-379.71,312.21-229,312.21-229s281.68,171.94,507.25,217.8a14.4,14.4,0,1,1,8.34,1.66c103.77,19.8,194.6,11.77,239-53.63,141.48-208.41-640.08-504.26-548-788.88C717,2423.77,915.12,2408.22,1048,2420.25c67.28,6.1,132.75,25.24,193.44,54.9,133,64.92,457.9,223.91,757.37,332.45a15.75,15.75,0,1,1,28.74,10.28c267.46,94.55,508.7,144.56,565.92,45.21,121.29-210.66-351.94-242-282.34-488.59,0,0,30.88-205.9,571.56-109.57V1132.4c-48,37-90.89,102.75-100.86,219-25.12,292.06-330.76,108.68-330.76,108.68s-2.91-1.78-8.38-5a257.16,257.16,0,0,1-86.22,14.79A260.2,260.2,0,0,1,2303.28,1464.37ZM183.94,3129.23a4.8,4.8,0,1,1,4.78,4.77A4.78,4.78,0,0,1,183.94,3129.23Zm78.45-198.73a9.61,9.61,0,1,1,9.62,9.57A9.61,9.61,0,0,1,262.39,2930.5Zm483.08,339.76a14.42,14.42,0,1,1,14.43,14.37A14.43,14.43,0,0,1,745.47,3270.26Zm52.13-53.66a4.8,4.8,0,1,1,4.78,4.8A4.8,4.8,0,0,1,797.6,3216.6Zm69.51-1405.09a11.23,11.23,0,1,1,11.23,11.2A11.2,11.2,0,0,1,867.11,1811.51Zm143,1616.71a11.79,11.79,0,1,1,11.78,11.76A11.78,11.78,0,0,1,1010.08,3428.22Zm45.1-1636.45a11.22,11.22,0,1,1,11.22,11.2A11.2,11.2,0,0,1,1055.18,1791.77Zm724.23,772.92a11.8,11.8,0,1,1,11.82,11.76A11.79,11.79,0,0,1,1779.41,2564.69Zm200.24-83.85a31.52,31.52,0,1,1,31.5,31.47A31.5,31.5,0,0,1,1979.65,2480.84Zm311.61-729.63a25.59,25.59,0,1,1,36.22,0A25.51,25.51,0,0,1,2291.26,1751.21Zm43.29,851.17a11.8,11.8,0,1,1,11.82,11.79A11.79,11.79,0,0,1,2334.55,2602.38Z" fill="#3e125b"/><path d="M-3.32,3462.94v13a9.52,9.52,0,0,0,7,3.08,9.6,9.6,0,1,0-7-16.12Z" fill="#3e125b"/><path d="M-3.32,839.83V1875.09c86.61,59.11,185.27,80.39,276.78,76.54a311.15,311.15,0,0,1,79.66-10.29c.66,0,1.28,0,1.93,0,173.08-36.68,292.29-160.86,196.86-266.63a11.2,11.2,0,0,1-11.22-11.2c0-.42,0-.8,0-1.22-72.56-81.24-130.61-156.32-119.38-247.26,13.8-111.82,106-198.66,218.76-203.61,238.42-10.46,418.77,100.2,598.16,157.66,77.29,24.77,246.29,75.94,336.64-24.27,44.39-49.21,9.62-164.09-150.17-202.16C1260,1103.42,1221.86,1005,1252.54,937c38-84.33,260.48-98.7,586.43,35.91,45.61,18.84,84.2,32,116.89,40.68,74.38,19.79,126.16-73.16,69-124.62-57.49-51.76-43-96.42-43-96.42s3-111.7,181.57-95.11S2476,662.68,2476,662.68,2754.24,595.33,2749.37,221c-1.16-89.54,18.26-161,48.48-217.81H1942.09a30,30,0,1,1-46.35,0h-77.55c-3.36,10.93-3.83,22.93-1,36.12,42.48,196.8,442.19,200.21,428.68,372C2226.71,654.83,1015,217,753.63,415.57c-180.46,137.12,107.48,236.86,38,456.29-29.55,93.28-101.25,135-173.94,152-92.54,21.78-189.9,3.56-271.2-45.63C260.9,926.47,115.42,849.17-3.32,839.83Zm53.21,111a11.8,11.8,0,1,1,11.78,11.76A11.79,11.79,0,0,1,49.89,950.8Zm22.53-76.39A9.61,9.61,0,1,1,82,884,9.61,9.61,0,0,1,72.42,874.41Zm626.46,295.14a11.23,11.23,0,1,1,11.22,11.2A11.21,11.21,0,0,1,698.88,1169.55Zm118.77-88.89a11.22,11.22,0,1,1,11.22,11.2A11.2,11.2,0,0,1,817.65,1080.66ZM966.1,695.48a11.23,11.23,0,1,1,11.23,11.2A11.2,11.2,0,0,1,966.1,695.48Zm534.63-108.33A11.24,11.24,0,1,1,1512,598.38,11.24,11.24,0,0,1,1500.73,587.15Zm118.58,197.22a11.23,11.23,0,1,1,11.23,11.2A11.2,11.2,0,0,1,1619.31,784.37Zm118.56-118.32a11.24,11.24,0,1,1,11.25,11.2A11.25,11.25,0,0,1,1737.87,666.05Zm496.62-528.14a7.35,7.35,0,1,1,7.33,7.34A7.3,7.3,0,0,1,2234.49,137.91Zm92.31,409.8a11.23,11.23,0,1,1,11.22,11.2A11.21,11.21,0,0,1,2326.8,547.71Zm352.88-406a14.42,14.42,0,1,1,14.4,14.4A14.38,14.38,0,0,1,2679.68,141.7Zm47.15,159.82a5.94,5.94,0,1,1,5.94,5.9A5.92,5.92,0,0,1,2726.83,301.52Z" fill="#300b44"/><path d="M1817.21,39.33c-2.85-13.19-2.38-25.19,1-36.12H827.09c-55.17,155.35-203.71,266.61-378.3,266.61a404.14,404.14,0,0,1-41.39-2.11C251,251.71,121.26,146.11,70.49,3.21H-3.32V839.83c118.74,9.34,264.22,86.64,349.79,138.43,81.3,49.19,178.66,67.41,271.2,45.63,72.69-17.07,144.39-58.75,173.94-152,69.5-219.44-218.44-319.17-38-456.29C1015,217,2226.71,654.82,2245.89,411.3,2259.4,239.54,1859.69,236.13,1817.21,39.33ZM70.17,562.17a4.8,4.8,0,1,1,4.81-4.8A4.8,4.8,0,0,1,70.17,562.17Zm3-145.18a4.8,4.8,0,1,1,4.81-4.8A4.8,4.8,0,0,1,73.14,417Zm193.91,122a4.79,4.79,0,1,1,4.81-4.8A4.8,4.8,0,0,1,267.05,538.94Zm31.74,159.53a4.8,4.8,0,1,1,4.81-4.8A4.8,4.8,0,0,1,298.79,698.47Zm20.78,37.39a9.6,9.6,0,1,1,9.59-9.6A9.61,9.61,0,0,1,319.57,735.86ZM350.3,345a9.59,9.59,0,1,1,9.62-9.57A9.6,9.6,0,0,1,350.3,345Zm13.42,329.45a5.93,5.93,0,1,1,5.91-5.93A5.91,5.91,0,0,1,363.72,674.47Zm38.66,168.27a14.39,14.39,0,1,1,14.43-14.37A14.38,14.38,0,0,1,402.38,842.74Zm149.17-62.26a11.2,11.2,0,1,1,11.26-11.2A11.2,11.2,0,0,1,551.55,780.48Zm63.39-102.37a21.83,21.83,0,1,1,0-30.84A21.85,21.85,0,0,1,614.94,678.11ZM700,817.34a11.2,11.2,0,1,1-11.22,11.2A11.23,11.23,0,0,1,700,817.34Zm336.7-564a8.09,8.09,0,1,1,8.1-8.08A8.12,8.12,0,0,1,1036.71,253.31Zm121.88-115.4a7.09,7.09,0,1,1,7.1-7.08A7.08,7.08,0,0,1,1158.59,137.91Zm148.46,29.63a11.2,11.2,0,1,1,11.22-11.2A11.22,11.22,0,0,1,1307.05,167.54Zm406.33-58.08a7.44,7.44,0,1,1,7.45-7.43A7.43,7.43,0,0,1,1713.38,109.46Zm216.18,232.65a7.5,7.5,0,1,1,7.51-7.49A7.5,7.5,0,0,1,1929.56,342.11Z" fill="#4623b0"/><path d="M843.42-57.89a391.58,391.58,0,0,1-16.33,61.1H1895.74a30,30,0,0,1,46.35,0h855.76A384.08,384.08,0,0,1,2882.68-104v-972.8H-3.32V-352C69.07-456.55,190.06-525.09,327.06-525.09A408,408,0,0,1,368.48-523a402.57,402.57,0,0,1,80.31-8C670.41-531,850-351.75,850-130.6A399.37,399.37,0,0,1,843.42-57.89Z" fill="#300b44"/><path d="M15.71,5113.2a4.79,4.79,0,1,0,4.81,4.8A4.78,4.78,0,0,0,15.71,5113.2Z" fill="#3e125b"/><path d="M15.71,6139.8a4.8,4.8,0,1,0,4.81,4.8A4.8,4.8,0,0,0,15.71,6139.8Z" fill="#eb29ff"/><path d="M18.68,4968a4.79,4.79,0,1,0,4.81,4.8A4.78,4.78,0,0,0,18.68,4968Z" fill="#ffc257"/><path d="M18.68,5994.62a4.8,4.8,0,1,0,4.81,4.8A4.8,4.8,0,0,0,18.68,5994.62Z" fill="#ffc257"/><path d="M27.59,5425.43a9.59,9.59,0,1,0,9.62,9.6A9.6,9.6,0,0,0,27.59,5425.43Z" fill="#ffc257"/><path d="M27.59,6452a9.6,9.6,0,1,0,9.62,9.6A9.6,9.6,0,0,0,27.59,6452Z" fill="#ffc257"/><path d="M61.67,939a11.78,11.78,0,1,0,11.82,11.8A11.79,11.79,0,0,0,61.67,939Z" fill="#ff8a50"/><path d="M72.63,3961a9.6,9.6,0,1,0,9.62,9.6A9.6,9.6,0,0,0,72.63,3961Z" fill="#4623b0"/><ellipse cx="70.17" cy="557.37" rx="4.81" ry="4.8" fill="#48ffc4"/><path d="M368.48-523C185.37-485.86,47.54-324.29,47.54-130.6A398.75,398.75,0,0,0,70.49,3.21C121.26,146.11,251,251.71,407.4,267.71,548.23,239.15,662.27,137,707.4,3.21a394.45,394.45,0,0,0,18.23-81.54,398.41,398.41,0,0,0,2.67-46.34C728.3-331.87,570.61-502.3,368.48-523Z" fill="#cc18c3"/><ellipse cx="73.14" cy="412.19" rx="4.81" ry="4.8" fill="#ff8a50"/><path d="M82,864.81a9.6,9.6,0,1,0,9.59,9.6A9.61,9.61,0,0,0,82,864.81Z" fill="#eb29ff"/><ellipse cx="81.54" cy="4432.78" rx="4.81" ry="4.8" fill="#ff8a50"/><ellipse cx="84.51" cy="4287.6" rx="4.81" ry="4.8" fill="#4623b0"/><path d="M93,3882.41a11.78,11.78,0,1,0,11.79,11.79A11.8,11.8,0,0,0,93,3882.41Z" fill="#ff8a50"/><path d="M133.82,6724.66a9.59,9.59,0,1,0,9.62,9.57A9.58,9.58,0,0,0,133.82,6724.66Z" fill="#ffc257"/><path d="M142.73,7191.68a4.79,4.79,0,1,0,4.81,4.77A4.8,4.8,0,0,0,142.73,7191.68Z" fill="#ffc257"/><path d="M145.7,7046.5a4.79,4.79,0,1,0,4.81,4.77A4.8,4.8,0,0,0,145.7,7046.5Z" fill="#6d1370"/><path d="M154.19,6646.11A11.77,11.77,0,1,0,166,6657.88,11.77,11.77,0,0,0,154.19,6646.11Z" fill="#eb29ff"/><path d="M186.08,4180.45a23.06,23.06,0,1,0,23.13,23.06A23.09,23.09,0,0,0,186.08,4180.45Z" fill="#ff8a50"/><path d="M664.41,2235.86c-6.89-131.32-95.43-241.06-215.89-279.64a309,309,0,0,0-43.82-3.08c-172.15,0-311.7,139.26-311.7,311a311.43,311.43,0,0,0,216.48,296.23,310.92,310.92,0,0,0,43.64,3.06c172.16,0,311.73-139.26,311.73-311.06C664.85,2246.85,664.71,2241.34,664.41,2235.86Z" fill="#006d2c"/><path d="M309.48,2560.43a311.38,311.38,0,0,1-131.92-83.26c1.6,11.61,3.56,23.64,5.88,36.17A309.38,309.38,0,0,0,309.48,2560.43Z" fill="#3e125b"/><path d="M188.72,3124.43a4.79,4.79,0,1,0,4.81,4.8A4.78,4.78,0,0,0,188.72,3124.43Z" fill="#ff4808"/><ellipse cx="200.3" cy="4492.04" rx="4.81" ry="4.8" fill="#48ffc4"/><path d="M212.63,5090a4.8,4.8,0,1,0,4.78,4.8A4.8,4.8,0,0,0,212.63,5090Z" fill="#ffc257"/><path d="M212.63,6116.6a4.79,4.79,0,1,0,4.78,4.8A4.78,4.78,0,0,0,212.63,6116.6Z" fill="#ff4808"/><ellipse cx="220.46" cy="3288.72" rx="4.81" ry="4.8" fill="#3e125b"/><ellipse cx="224.06" cy="4503.89" rx="4.81" ry="4.8" fill="#4623b0"/><path d="M247.28,6944.13a23.07,23.07,0,1,0,23.12,23.05A23.08,23.08,0,0,0,247.28,6944.13Z" fill="#48ffc4"/><path d="M241.25,3311.71a9.6,9.6,0,1,0,9.62,9.6A9.58,9.58,0,0,0,241.25,3311.71Z" fill="#48ffc4"/><path d="M244.34,5249.49a4.79,4.79,0,1,0,4.81,4.8A4.78,4.78,0,0,0,244.34,5249.49Z" fill="#3e125b"/><path d="M244.34,6276.1a4.8,4.8,0,1,0,4.81,4.8A4.79,4.79,0,0,0,244.34,6276.1Z" fill="#eb29ff"/><path d="M265.12,5277.28a9.59,9.59,0,1,0,9.62,9.6A9.6,9.6,0,0,0,265.12,5277.28Z" fill="#eb29ff"/><path d="M265.12,6303.89a9.6,9.6,0,1,0,9.62,9.6A9.6,9.6,0,0,0,265.12,6303.89Z" fill="#eb29ff"/><path d="M261.5,7250.94a4.79,4.79,0,1,0,4.81,4.77A4.8,4.8,0,0,0,261.5,7250.94Z" fill="#48ffc4"/><path d="M272,2920.9a9.59,9.59,0,1,0,9.59,9.6A9.61,9.61,0,0,0,272,2920.9Z" fill="#48ffc4"/><path d="M267.05,529.37a4.79,4.79,0,1,0,4.81,4.77A4.8,4.8,0,0,0,267.05,529.37Z" fill="#eb29ff"/><ellipse cx="285.4" cy="3263.6" rx="5.94" ry="5.93" fill="#ff8a50"/><path d="M285.25,7262.8a4.79,4.79,0,1,0,4.81,4.77A4.8,4.8,0,0,0,285.25,7262.8Z" fill="#6d1370"/><path d="M295.88,4886.47a9.59,9.59,0,1,0,9.62,9.57A9.58,9.58,0,0,0,295.88,4886.47Z" fill="#48ffc4"/><path d="M295.88,5913.08a9.59,9.59,0,1,0,9.62,9.6A9.58,9.58,0,0,0,295.88,5913.08Z" fill="#ffc257"/><ellipse cx="298.79" cy="693.67" rx="4.81" ry="4.8" fill="#ff3364"/><ellipse cx="309.27" cy="5229.17" rx="5.94" ry="5.93" fill="#ff4808"/><ellipse cx="309.27" cy="6255.77" rx="5.94" ry="5.93" fill="#ff4808"/><path d="M319.57,716.66a9.6,9.6,0,1,0,9.59,9.6A9.61,9.61,0,0,0,319.57,716.66Z" fill="#ff3364"/><path d="M324.09,3409a14.39,14.39,0,1,0,14.4,14.4A14.41,14.41,0,0,0,324.09,3409Z" fill="#eb29ff"/><path d="M341.57,7175.12a11.78,11.78,0,1,0,11.79,11.76A11.79,11.79,0,0,0,341.57,7175.12Z" fill="#ffc257"/><ellipse cx="347.96" cy="5388.96" rx="14.4" ry="14.37" fill="#ffc257"/><path d="M348,6401.2a14.39,14.39,0,1,0,14.4,14.4A14.38,14.38,0,0,0,348,6401.2Z" fill="#ffc257"/><path d="M350.3,325.85a9.59,9.59,0,1,0,9.62,9.6A9.6,9.6,0,0,0,350.3,325.85Z" fill="#48ffc4"/><path d="M353.12,1941.34a311.15,311.15,0,0,0-79.66,10.29,495.3,495.3,0,0,0,81.59-10.26C354.4,1941.34,353.78,1941.34,353.12,1941.34Z" fill="#431272"/><path d="M363.72,662.62a5.93,5.93,0,1,0,5.91,5.92A5.92,5.92,0,0,0,363.72,662.62Z" fill="#eb29ff"/><path d="M372,6766.77a9.59,9.59,0,1,0,9.62,9.6A9.6,9.6,0,0,0,372,6766.77Z" fill="#eb29ff"/><path d="M402.38,814a14.39,14.39,0,1,0,14.43,14.4A14.39,14.39,0,0,0,402.38,814Z" fill="#ff8a50"/><path d="M2311.12,2374.5c-69.59,246.55,403.63,277.92,282.34,488.59-57.22,99.35-298.46,49.33-565.92-45.21a15.78,15.78,0,0,1-28.83-8.8,11.77,11.77,0,0,1,.09-1.48c-299.47-108.54-624.41-267.53-757.37-332.45-60.69-29.66-126.16-48.8-193.44-54.9-132.87-12-331,3.52-390.44,187.35-92.1,284.62,689.46,580.47,548,788.88-44.41,65.4-135.24,73.43-239,53.63-.51,0-1,.06-1.49.06a14.51,14.51,0,0,1-6.8-1.69s0,0-.05,0c-225.57-45.86-507.25-217.8-507.25-217.8s-250.33-150.73-312.21,229c-25.2,154.75-82.75,252.82-142,314.72v934.31C144.45,4782,355,4856.43,483.56,4770.59c35.6-23.77,59-52,73.07-82.94C588.79,4617,572.19,4532.4,540.89,4455c-8.31-20.59-17.69-40.65-27.46-59.79-34.15-67-73.19-122.79-89.61-150.13-46.5-77.46-4.63-148.09-4.63-148.09,60.3-109.66,299.94-102.14,551.93-57.81a14.19,14.19,0,0,1-4.36-10.28A14.4,14.4,0,1,1,987,4042.05c209.29,38,424.67,100.15,551,140.6,87,27.88,208.13.2,224.73-89.48,10.63-57.52-41-139.06-162.94-164.15-278.84-57.42-307-151.82-272.45-228.42,42.78-94.9,293.23-111.08,660.19,40.48,51.6,21.3,95.25,36.14,132.15,45.92,83.23,22.08,140.29-83.17,76.58-141-64.05-58-47.87-108-47.87-108s3.33-125.74,204.4-107.08l6,.54c221.2,19.91,419.36-92.68,523.87-266.58v-900C2342,2168.6,2311.12,2374.5,2311.12,2374.5ZM1087.51,2726.91a11.78,11.78,0,1,1,11.82-11.76A11.79,11.79,0,0,1,1087.51,2726.91ZM63,3970.56a9.61,9.61,0,1,1,9.59,9.6A9.6,9.6,0,0,1,63,3970.56Zm18.5,467a4.8,4.8,0,1,1,4.81-4.8A4.82,4.82,0,0,1,81.54,4437.58Zm3-145.18a4.8,4.8,0,1,1,4.81-4.8A4.82,4.82,0,0,1,84.51,4292.4ZM93,3906a11.78,11.78,0,1,1,11.79-11.77A11.8,11.8,0,0,1,93,3906ZM324.09,3409a14.39,14.39,0,1,1-14.43,14.4A14.39,14.39,0,0,1,324.09,3409ZM200.3,4496.84a4.8,4.8,0,1,1,4.81-4.8A4.82,4.82,0,0,1,200.3,4496.84Zm-14.22-270.28a23.06,23.06,0,1,1,23.13-23.05A23.08,23.08,0,0,1,186.08,4226.56Zm29.57-937.84a4.81,4.81,0,1,1,4.81,4.8A4.82,4.82,0,0,1,215.65,3288.72Zm8.41,1220a4.8,4.8,0,1,1,4.81-4.8A4.82,4.82,0,0,1,224.06,4508.69Zm17.19-1177.78a9.6,9.6,0,1,1,9.62-9.6A9.57,9.57,0,0,1,241.25,3330.91Zm44.15-61.39a5.93,5.93,0,1,1,5.94-5.92A5.91,5.91,0,0,1,285.4,3269.52Zm262.8,139.82a4.8,4.8,0,1,1,4.81-4.8A4.82,4.82,0,0,1,548.2,3409.34Zm72.65,528.74a11.78,11.78,0,1,1,11.79-11.79A11.79,11.79,0,0,1,620.85,3938.08Zm0-452.2a11.78,11.78,0,1,1,11.79-11.8A11.8,11.8,0,0,1,620.85,3485.88ZM641.13,3410a23,23,0,1,1,0-32.42A23.06,23.06,0,0,1,641.13,3410Zm44.54,308.94a9.59,9.59,0,1,1,9.62-9.6A9.59,9.59,0,0,1,685.67,3718.91Zm56.41,14.82a9.59,9.59,0,1,1,9.62-9.6A9.61,9.61,0,0,1,742.08,3733.73Zm23.76-31.47a4.79,4.79,0,1,1,4.8-4.8A4.78,4.78,0,0,1,765.84,3702.26Zm16.68-228.18a11.78,11.78,0,1,1,11.82-11.76A11.79,11.79,0,0,1,782.52,3474.08Zm27,309.9a4.8,4.8,0,1,1,4.78-4.8A4.78,4.78,0,0,1,809.54,3784Zm56.35,60.71a11.78,11.78,0,1,1,11.79-11.79A11.79,11.79,0,0,1,865.89,3844.69ZM926,4007.63a4.81,4.81,0,1,1,4.78-4.81A4.81,4.81,0,0,1,926,4007.63ZM939.71,3751a9.59,9.59,0,1,1,9.59-9.57A9.59,9.59,0,0,1,939.71,3751Zm241.71-27.55a9.59,9.59,0,1,1-9.62,9.57A9.58,9.58,0,0,1,1181.42,3723.48Zm-117.13,279.46a9.59,9.59,0,1,1,9.62-9.57A9.6,9.6,0,0,1,1064.29,4002.94Zm57.75-201a9.59,9.59,0,1,1,9.59-9.6A9.61,9.61,0,0,1,1122,3801.91ZM1177.68,4066a14.39,14.39,0,1,1,14.4-14.4A14.42,14.42,0,0,1,1177.68,4066Zm34.62-1463.62a11.77,11.77,0,1,1,11.79-11.76A11.76,11.76,0,0,1,1212.3,2602.38Zm414.49,1450a9.59,9.59,0,1,1-9.61,9.57A9.58,9.58,0,0,1,1626.79,4052.37Zm-142.66,87.73a4.8,4.8,0,1,1-4.81,4.8A4.8,4.8,0,0,1,1484.13,4140.1Zm-124.56-206.25a9.59,9.59,0,1,1-9.62,9.57A9.57,9.57,0,0,1,1359.57,3933.85Zm-29.69-250.46a9.59,9.59,0,1,1,9.59-9.6A9.61,9.61,0,0,1,1329.88,3683.39Zm2-434.55a9.59,9.59,0,1,1,9.59-9.57A9.61,9.61,0,0,1,1331.9,3248.84Zm580.91,74.81a4.8,4.8,0,1,1-4.81,4.8A4.83,4.83,0,0,1,1912.81,3323.65Zm-333.08-417.42a4.8,4.8,0,1,1-4.81,4.8A4.82,4.82,0,0,1,1579.73,2906.23Zm-211.46-272.71a11.78,11.78,0,1,1,11.82-11.76A11.79,11.79,0,0,1,1368.27,2633.52Zm26,642a9.59,9.59,0,1,1,9.59-9.57A9.61,9.61,0,0,1,1394.25,3275.51Zm26.81,117.24a9.6,9.6,0,1,1,9.62-9.6A9.61,9.61,0,0,1,1421.06,3392.75Zm74.56-63.85a26.65,26.65,0,1,1,26.69-26.67A26.67,26.67,0,0,1,1495.62,3328.9Zm31.2,63.61a4.8,4.8,0,1,1,4.81-4.8A4.8,4.8,0,0,1,1526.82,3392.51Zm36.76,102.11a4.8,4.8,0,1,1,4.81-4.8A4.83,4.83,0,0,1,1563.58,3494.62Zm20-168.45a11.78,11.78,0,1,1,11.79-11.76A11.78,11.78,0,0,1,1583.59,3326.17Zm8-85.54a9.59,9.59,0,1,1,9.62-9.6A9.58,9.58,0,0,1,1591.61,3240.63Zm30.23,143a4.8,4.8,0,1,1,4.81-4.79A4.79,4.79,0,0,1,1621.84,3383.62ZM1680.68,2971a9.59,9.59,0,1,1,9.62-9.6A9.58,9.58,0,0,1,1680.68,2971Zm27.5,562.37a11.78,11.78,0,1,1,11.79-11.76A11.79,11.79,0,0,1,1708.18,3533.37Zm124.55-124.32a11.77,11.77,0,1,1,11.82-11.77A11.79,11.79,0,0,1,1832.73,3409.05Zm56.33-87.65a4.8,4.8,0,1,1,4.81-4.8A4.8,4.8,0,0,1,1889.06,3321.4ZM1927,3640a23.07,23.07,0,1,1,23.1-23.05A23.09,23.09,0,0,1,1927,3640Zm101.58-102.34a4.8,4.8,0,1,1,4.81-4.8A4.8,4.8,0,0,1,2028.61,3537.7Zm3-145.19a4.8,4.8,0,1,1,4.81-4.8A4.8,4.8,0,0,1,2031.58,3392.51Zm185.12-491.58a4.79,4.79,0,1,1,4.81-4.77A4.77,4.77,0,0,1,2216.7,2900.93Zm92.05,419.61a9.59,9.59,0,1,1,9.62-9.57A9.59,9.59,0,0,1,2308.75,3320.54ZM2677,2899.12a4.79,4.79,0,1,1-4.81,4.77A4.8,4.8,0,0,1,2677,2899.12Zm-23.75-2.28a4.79,4.79,0,1,1,4.8-4.8A4.78,4.78,0,0,1,2653.26,2896.84Zm38,318.67a23.07,23.07,0,1,1,23.1-23.09A23.11,23.11,0,0,1,2691.23,3215.51Zm101.57-102.37a4.79,4.79,0,1,1,4.81-4.8A4.79,4.79,0,0,1,2792.8,3113.14Zm3-145.19a4.79,4.79,0,1,1,4.81-4.8A4.78,4.78,0,0,1,2795.77,2968Z" fill="#4623b0"/><path d="M2797.85,3.21C2767.63,60,2748.21,131.48,2749.37,221,2754.24,595.33,2476,662.68,2476,662.68S2342,714,2163.44,697.46s-181.57,95.11-181.57,95.11-14.46,44.65,43,96.42c57.12,51.46,5.34,144.41-69,124.62-32.69-8.68-71.28-21.84-116.89-40.68C1513,838.32,1290.54,852.69,1252.54,937c-30.68,68,7.45,166.4,172.21,205.66,159.79,38.07,194.56,153,150.17,202.16-90.35,100.21-259.35,49-336.64,24.27-179.39-57.46-359.74-168.12-598.16-157.66-112.77,5-205,91.79-218.76,203.61-11.23,90.94,46.82,166,119.38,247.26a11.23,11.23,0,1,1,11.17,12.42c95.43,105.77-23.78,230-196.86,266.63a494.23,494.23,0,0,1-81.59,10.25C182,1955.48,83.29,1934.2-3.32,1875.09V2890.77c121.94,12.88,267.64-27.92,196.91-329.19-4-16.8-7.3-32.86-10.15-48.24-2.32-12.53-4.28-24.56-5.88-36.17a309.54,309.54,0,0,1-84.56-213c0-171.79,139.55-311,311.7-311a309,309,0,0,1,43.82,3.08c143.17,20.09,255.11,137.24,266.84,282.63C972,2246.91,989,2133,989,2133c54.73-193.75-317.22-218.43-221.88-384,96.56-167.76,860.84,206.4,1062.6,304.92,47.71,23.29,99.16,38.34,152,43.14,104.45,9.45,260.15-2.79,306.89-147.26,72.35-223.71-541.9-456.21-430.71-620,44.66-65.81,149.14-57.72,258.17-24.48A255.49,255.49,0,0,1,2099,1212.9c0-119.7,82-220.33,193.05-248.86l.09,0a258.84,258.84,0,0,1,64.34-8.09c142.22,0,257.51,115.05,257.51,257,0,111.73-71.46,206.81-171.29,242.16,5.47,3.23,8.38,5,8.38,5s305.64,183.38,330.76-108.68c10-116.24,52.85-182,100.86-219V3.21ZM581.93,1325.58a29.94,29.94,0,1,1,30-29.95A30,30,0,0,1,581.93,1325.58Zm28.8,43.53a11.2,11.2,0,1,1,11.22-11.2A11.23,11.23,0,0,1,610.73,1369.11Zm138.8,187.32a11.2,11.2,0,1,1,11.23-11.2A11.21,11.21,0,0,1,749.53,1556.43Zm1059.15-286.79a11.2,11.2,0,1,1,11.23-11.2A11.21,11.21,0,0,1,1808.68,1269.64Zm174.47,499.73a11.2,11.2,0,1,1-11.22,11.2A11.2,11.2,0,0,1,1983.15,1769.37Zm-55.7-588.62a11.2,11.2,0,1,1,11.22-11.2A11.2,11.2,0,0,1,1927.45,1180.75Zm370.9-351.58a29.95,29.95,0,1,1,30-30A30,30,0,0,1,2298.35,829.17Zm447.81-184.95a9.6,9.6,0,1,1,9.62-9.6A9.58,9.58,0,0,1,2746.16,644.22Zm30.76-390.85a9.59,9.59,0,1,1,9.59-9.57A9.59,9.59,0,0,1,2776.92,253.37Zm20.78,27.8a4.79,4.79,0,1,1,4.81-4.77A4.78,4.78,0,0,1,2797.7,281.17Zm31.74,159.52a4.8,4.8,0,1,1,4.78-4.8A4.78,4.78,0,0,1,2829.44,440.69Z" fill="#431272"/><path d="M513.43,4395.24c9.77,19.14,19.15,39.2,27.46,59.79A239.89,239.89,0,0,1,562,4473.88c59.51,59.37,58.41,118.37,43.17,161.8A164.7,164.7,0,0,0,616,4490.35a26.87,26.87,0,0,1-20.81-7.79,26.4,26.4,0,0,1-7.33-13.75c-.39,0-.75.06-1.13.06a11.79,11.79,0,0,1-11.82-11.76,11.78,11.78,0,1,1,0-23.56,11.42,11.42,0,0,1,3.06.42A163.9,163.9,0,0,0,513.43,4395.24Z" fill="#3e125b"/><path d="M540.74,1662.32c0,.42,0,.8,0,1.22a11.2,11.2,0,0,0,11.22,11.2C548.17,1670.59,544.43,1666.44,540.74,1662.32Z" fill="#eb29ff"/><path d="M551.55,758.08a11.2,11.2,0,1,0,11.26,11.2A11.21,11.21,0,0,0,551.55,758.08Z" fill="#d09aff"/><path d="M551.91,1652.34a11.2,11.2,0,0,0-11.17,10c3.69,4.12,7.43,8.27,11.17,12.42a11.2,11.2,0,1,0,0-22.4Z" fill="#eb29ff"/><ellipse cx="548.2" cy="3404.54" rx="4.81" ry="4.8" fill="#4623b0"/><path d="M550.48,6287a23,23,0,1,0,32.49,0A22.95,22.95,0,0,0,550.48,6287Z" fill="#c11aff"/><path d="M562.69,6371.83a11.77,11.77,0,1,0,11.81,11.77A11.77,11.77,0,0,0,562.69,6371.83Z" fill="#ffb522"/><path d="M562.72,4332.78a11.78,11.78,0,1,0,11.81,11.76A11.78,11.78,0,0,0,562.72,4332.78Z" fill="#a9f4ff"/><path d="M562,4473.88A239.89,239.89,0,0,0,540.89,4455c31.3,77.37,47.9,162,15.74,232.62a163.62,163.62,0,0,0,23-19.14,166.15,166.15,0,0,0,25.51-32.74s0-.06,0-.09C620.41,4592.25,621.51,4533.25,562,4473.88Z" fill="#3e125b"/><path d="M581.93,1265.7a29.94,29.94,0,1,0,30,29.93A30,30,0,0,0,581.93,1265.7Z" fill="#ffe26e"/><path d="M572.31,5847.12A15.74,15.74,0,1,0,588,5862.85,15.74,15.74,0,0,0,572.31,5847.12Z" fill="#54e3a7"/><path d="M574.89,4020.63a11.78,11.78,0,1,0,11.82,11.8A11.8,11.8,0,0,0,574.89,4020.63Z" fill="#ff8a50"/><path d="M574.89,4433.55a11.78,11.78,0,1,0,0,23.56,11.8,11.8,0,0,1,11.82-11.8,11.49,11.49,0,0,0-.27-2.51c-2.17-2.46-4.45-4.86-6.8-7.2-.56-.57-1.13-1.1-1.69-1.63A11.42,11.42,0,0,0,574.89,4433.55Z" fill="#3e125b"/><path d="M715.36,2238.85c-11.73-145.39-123.67-262.54-266.84-282.63,120.46,38.58,209,148.32,215.89,279.64.3,5.48.44,11,.44,16.56,0,171.8-139.57,311.06-311.73,311.06a310.92,310.92,0,0,1-43.64-3.06,311.09,311.09,0,0,0,95.22,14.82c172.15,0,311.7-139.26,311.7-311Q716.4,2251.38,715.36,2238.85Z" fill="#008937"/><path d="M584.09,5457.28a11.78,11.78,0,1,0,11.79,11.77A11.77,11.77,0,0,0,584.09,5457.28Z" fill="#d09aff"/><path d="M582.73,6587.21a9.59,9.59,0,1,0,9.62,9.57A9.58,9.58,0,0,0,582.73,6587.21Z" fill="#9dff1f"/><path d="M586.71,4445.31a11.8,11.8,0,0,0-11.82,11.8A11.81,11.81,0,0,0,586.71,4445.31Z" fill="#3e125b"/><path d="M574.89,4457.11a11.79,11.79,0,0,0,11.82,11.76c.38,0,.74,0,1.13-.06a26.67,26.67,0,0,1,3.8-19.88c-.92-1.16-1.87-2.28-2.85-3.41a9.66,9.66,0,0,0-2.08-.21A11.81,11.81,0,0,1,574.89,4457.11Z" fill="#3e125b"/><path d="M578,4434c.56.53,1.13,1.06,1.69,1.63,2.35,2.34,4.63,4.74,6.8,7.2A11.74,11.74,0,0,0,578,4434Z" fill="#3e125b"/><ellipse cx="599.49" cy="662.69" rx="21.86" ry="21.81" fill="#54e3a7"/><path d="M586.44,4442.8a11.49,11.49,0,0,1,.27,2.51,9.66,9.66,0,0,1,2.08.21C588,4444.6,587.24,4443.71,586.44,4442.8Z" fill="#f42663"/><path d="M591.64,4448.93a26.67,26.67,0,0,0-3.8,19.88A11.76,11.76,0,0,0,598.46,4458C596.3,4454.91,594,4451.89,591.64,4448.93Z" fill="#3e125b"/><path d="M588.79,4445.52c1,1.13,1.93,2.25,2.85,3.41a18.29,18.29,0,0,1,1.3-1.81A10.36,10.36,0,0,0,588.79,4445.52Z" fill="#3e125b"/><path d="M592.94,4447.12a18.29,18.29,0,0,0-1.3,1.81c2.4,3,4.66,6,6.82,9a8.33,8.33,0,0,0,0-.86A11.69,11.69,0,0,0,592.94,4447.12Z" fill="#3e125b"/><path d="M595.17,4444.57a23.26,23.26,0,0,0-2.23,2.55,11.69,11.69,0,0,1,5.55,10,8.33,8.33,0,0,1,0,.86A164.29,164.29,0,0,1,616,4490.35a26.87,26.87,0,1,0-20.81-45.78Z" fill="#3e125b"/><path d="M587.84,4468.81a26.4,26.4,0,0,0,7.33,13.75,26.87,26.87,0,0,0,20.81,7.79A164.29,164.29,0,0,0,598.46,4458,11.76,11.76,0,0,1,587.84,4468.81Z" fill="#3e125b"/><path d="M610.73,1346.71a11.2,11.2,0,1,0,11.22,11.2A11.23,11.23,0,0,0,610.73,1346.71Z" fill="#ff3364"/><path d="M625.78,5173.34a31.47,31.47,0,1,0,31.5,31.47A31.5,31.5,0,0,0,625.78,5173.34Z" fill="#ff4808"/><path d="M608.62,3377.55a23,23,0,1,0,32.51,0A22.89,22.89,0,0,0,608.62,3377.55Z" fill="#f94c43"/><path d="M620.85,3462.32a11.78,11.78,0,1,0,11.79,11.76A11.79,11.79,0,0,0,620.85,3462.32Z" fill="#e0ff78"/><path d="M620.85,3914.53a11.78,11.78,0,1,0,11.79,11.76A11.79,11.79,0,0,0,620.85,3914.53Z" fill="#cdffcd"/><path d="M645.08,6613.88a9.59,9.59,0,1,0,9.62,9.57A9.58,9.58,0,0,0,645.08,6613.88Z" fill="#274bff"/><ellipse cx="674.74" cy="4093.4" rx="31.53" ry="31.47" fill="#4623b0"/><path d="M671.89,6731.09a9.59,9.59,0,1,0,9.62,9.6A9.59,9.59,0,0,0,671.89,6731.09Z" fill="#1deaff"/><path d="M685.67,3699.74a9.59,9.59,0,1,0,9.62,9.57A9.59,9.59,0,0,0,685.67,3699.74Z" fill="#4623b0"/><ellipse cx="689.23" cy="5899.63" rx="11.79" ry="11.76" fill="#4623b0"/><path d="M701.73,6165.37a14.39,14.39,0,1,0,14.4,14.37A14.38,14.38,0,0,0,701.73,6165.37Z" fill="#ffb522"/><path d="M700,817.34a11.2,11.2,0,1,0,11.25,11.2A11.2,11.2,0,0,0,700,817.34Z" fill="#7399ff"/><ellipse cx="710.1" cy="1169.55" rx="11.22" ry="11.2" fill="#cdffcd"/><path d="M448.79-531a402.57,402.57,0,0,0-80.31,8C570.61-502.3,728.3-331.87,728.3-124.67a398.41,398.41,0,0,1-2.67,46.34A394.45,394.45,0,0,1,707.4,3.21C662.27,137,548.23,239.15,407.4,267.71a404.14,404.14,0,0,0,41.39,2.11c174.59,0,323.13-111.26,378.3-266.61a391.58,391.58,0,0,0,16.33-61.1A399.37,399.37,0,0,0,850-130.6C850-351.75,670.41-531,448.79-531Z" fill="#ed43ed"/><path d="M724.39,6360a11.78,11.78,0,1,0,11.78,11.79A11.79,11.79,0,0,0,724.39,6360Z" fill="#ff3324"/><path d="M742.08,3714.56a9.59,9.59,0,1,0,9.62,9.57A9.59,9.59,0,0,0,742.08,3714.56Z" fill="#4623b0"/><ellipse cx="749.53" cy="1545.23" rx="11.22" ry="11.2" fill="#ffe26e"/><path d="M744.25,6121.31a4.8,4.8,0,1,0,4.78,4.8A4.81,4.81,0,0,0,744.25,6121.31Z" fill="#1deaff"/><path d="M759.9,3255.86a14.39,14.39,0,1,0,14.4,14.4A14.43,14.43,0,0,0,759.9,3255.86Z" fill="#e0ff78"/><path d="M753.9,6642.68a4.79,4.79,0,1,0,4.81,4.77A4.8,4.8,0,0,0,753.9,6642.68Z" fill="#ff3324"/><path d="M767.71,5726a11.78,11.78,0,1,0,11.78,11.76A11.79,11.79,0,0,0,767.71,5726Z" fill="#54e3a7"/><path d="M765.83,3692.69a4.79,4.79,0,1,0,4.81,4.77A4.78,4.78,0,0,0,765.83,3692.69Z" fill="#4623b0"/><path d="M782.52,3450.53a11.78,11.78,0,1,0,11.82,11.79A11.79,11.79,0,0,0,782.52,3450.53Z" fill="#e0ff78"/><path d="M782.52,4309.23A11.78,11.78,0,1,0,794.34,4321,11.79,11.79,0,0,0,782.52,4309.23Z" fill="#ffe26e"/><path d="M802.38,3211.8a4.8,4.8,0,1,0,4.81,4.8A4.8,4.8,0,0,0,802.38,3211.8Z" fill="#e0ff78"/><path d="M809.54,3774.38a4.8,4.8,0,1,0,4.78,4.8A4.8,4.8,0,0,0,809.54,3774.38Z" fill="#e0ff78"/><ellipse cx="828.87" cy="1080.66" rx="11.22" ry="11.2" fill="#564bd8"/><path d="M865.89,3821.14a11.78,11.78,0,1,0,11.79,11.76A11.78,11.78,0,0,0,865.89,3821.14Z" fill="#e0ff78"/><ellipse cx="878.34" cy="1811.51" rx="11.22" ry="11.2" fill="#d09aff"/><path d="M906.87,6330.88a14.39,14.39,0,1,0,14.43,14.4A14.4,14.4,0,0,0,906.87,6330.88Z" fill="#9dff1f"/><path d="M926,3998a4.8,4.8,0,1,0,4.78,4.8A4.78,4.78,0,0,0,926,3998Z" fill="#e0ff78"/><path d="M939.71,3731.86a9.59,9.59,0,1,0,9.59,9.6A9.61,9.61,0,0,0,939.71,3731.86Z" fill="#e0ff78"/><path d="M965,3421.4a14.39,14.39,0,0,0-6.85,27s0,0,.05,0c2.77.57,5.53,1.13,8.29,1.63A14.39,14.39,0,0,0,965,3421.4Z" fill="#e0ff78"/><path d="M958.23,3448.48a14.51,14.51,0,0,0,6.8,1.69c.51,0,1,0,1.49-.06C963.76,3449.61,961,3449.05,958.23,3448.48Z" fill="#e0ff78"/><ellipse cx="977.33" cy="695.48" rx="11.22" ry="11.2" fill="#8849c9"/><path d="M981.16,4014.53a14.38,14.38,0,0,0-14.4,14.4,14.19,14.19,0,0,0,4.36,10.28c5.29.92,10.57,1.87,15.89,2.84a14.38,14.38,0,0,0-5.85-27.52Z" fill="#4623b0"/><path d="M971.12,4039.21a14.2,14.2,0,0,0,10,4.09,14.34,14.34,0,0,0,5.85-1.25C981.69,4041.08,976.41,4040.13,971.12,4039.21Z" fill="#3e125b"/><path d="M1004.82,4810.65a11.74,11.74,0,0,0,10.63,16.83,11.83,11.83,0,0,0,8.34-3.41C1017.71,4819.48,1011.35,4815,1004.82,4810.65Z" fill="#431272"/><path d="M1015.45,4804a11.77,11.77,0,0,0-10.63,6.7c6.53,4.35,12.89,8.83,19,13.42a11.77,11.77,0,0,0-8.34-20.12Z" fill="#431272"/><path d="M1021.86,3416.43a11.78,11.78,0,1,0,11.79,11.79A11.78,11.78,0,0,0,1021.86,3416.43Z" fill="#3e125b"/><path d="M1036.71,237.14a8.09,8.09,0,1,0,8.1,8.09A8.12,8.12,0,0,0,1036.71,237.14Z" fill="#54a338"/><path d="M1064.29,3983.77a9.59,9.59,0,1,0,9.62,9.6A9.61,9.61,0,0,0,1064.29,3983.77Z" fill="#e0ff78"/><ellipse cx="1066.4" cy="1791.77" rx="11.22" ry="11.2" fill="#3e125b"/><path d="M1087.51,2703.36a11.78,11.78,0,1,0,11.82,11.79A11.79,11.79,0,0,0,1087.51,2703.36Z" fill="#4623b0"/><path d="M1115.45,4328.28a11.78,11.78,0,1,0,11.79,11.76A11.79,11.79,0,0,0,1115.45,4328.28Z" fill="#3e125b"/><path d="M1122,3782.74a9.59,9.59,0,1,0,9.59,9.57A9.6,9.6,0,0,0,1122,3782.74Z" fill="#e0ff78"/><ellipse cx="1140.24" cy="4722.32" rx="11.79" ry="11.76" fill="#564bd8"/><path d="M1144.25,4186.14a4.79,4.79,0,1,0,4.81,4.8A4.78,4.78,0,0,0,1144.25,4186.14Z" fill="#3e125b"/><ellipse cx="1158.59" cy="130.83" rx="7.1" ry="7.08" fill="#ffe26e"/><path d="M1177.68,4037.23a14.39,14.39,0,1,0,14.4,14.37A14.38,14.38,0,0,0,1177.68,4037.23Z" fill="#e0ff78"/><path d="M1181.42,3723.48a9.59,9.59,0,1,0,9.6,9.57A9.6,9.6,0,0,0,1181.42,3723.48Z" fill="#e0ff78"/><path d="M1212.3,2578.85a11.77,11.77,0,1,0,11.79,11.77A11.79,11.79,0,0,0,1212.3,2578.85Z" fill="#4623b0"/><path d="M1263.11,4160.84a9.6,9.6,0,1,0,9.59,9.6A9.61,9.61,0,0,0,1263.11,4160.84Z" fill="#4623b0"/><path d="M1295.77,4112.31a4.8,4.8,0,1,0,4.78,4.8A4.8,4.8,0,0,0,1295.77,4112.31Z" fill="#3e125b"/><path d="M1307.05,145.14a11.2,11.2,0,1,0,11.22,11.2A11.22,11.22,0,0,0,1307.05,145.14Z" fill="#4623b0"/><path d="M1329.88,3664.22a9.59,9.59,0,1,0,9.59,9.57A9.6,9.6,0,0,0,1329.88,3664.22Z" fill="#ffe76e"/><path d="M1331.4,4122.32a9.6,9.6,0,1,0,9.59,9.6A9.61,9.61,0,0,0,1331.4,4122.32Z" fill="#3e125b"/><path d="M1331.9,3229.67a9.59,9.59,0,1,0,9.59,9.6A9.61,9.61,0,0,0,1331.9,3229.67Z" fill="#e0ff78"/><path d="M1363.25,4216.63a23.07,23.07,0,1,0,23.1,23.08A23.11,23.11,0,0,0,1363.25,4216.63Z" fill="#4623b0"/><path d="M1359.57,3933.85a9.59,9.59,0,1,0,9.59,9.57A9.6,9.6,0,0,0,1359.57,3933.85Z" fill="#e0ff78"/><path d="M1368.27,2610a11.78,11.78,0,1,0,11.82,11.79A11.79,11.79,0,0,0,1368.27,2610Z" fill="#4623b0"/><path d="M1394.25,3256.34a9.59,9.59,0,1,0,9.59,9.6A9.61,9.61,0,0,0,1394.25,3256.34Z" fill="#e0ff78"/><ellipse cx="1421.06" cy="3383.15" rx="9.62" ry="9.6" fill="#300b44"/><path d="M1495.62,3275.6a26.65,26.65,0,1,0,26.69,26.63A26.64,26.64,0,0,0,1495.62,3275.6Zm2.64,14.34a4.81,4.81,0,1,1,4.81,4.8A4.8,4.8,0,0,1,1498.26,3289.94Z" fill="#4623b0"/><path d="M1493,4172a14.39,14.39,0,1,0,14.4,14.37A14.38,14.38,0,0,0,1493,4172Z" fill="#ff8a50"/><path d="M1484.13,4140.1a4.8,4.8,0,1,0,4.78,4.8A4.8,4.8,0,0,0,1484.13,4140.1Z" fill="#e0ff78"/><ellipse cx="1503.07" cy="3289.94" rx="4.81" ry="4.8" fill="#e0ff78"/><path d="M1512,576a11.22,11.22,0,1,0,11.22,11.2A11.24,11.24,0,0,0,1512,576Z" fill="#300b44"/><ellipse cx="1526.82" cy="3387.71" rx="4.81" ry="4.8" fill="#e0ff78"/><ellipse cx="1563.58" cy="3489.82" rx="4.81" ry="4.8" fill="#e0ff78"/><path d="M1566.82,4269.64a23.12,23.12,0,0,0,20.69,23c40.18,4.27,131.65,9.51,210-18.1a23.11,23.11,0,0,0,15-25.87l-.5-2.84a23.09,23.09,0,0,0-28.86-18.28c-34.74,9.63-104.22,24.32-191.78,19.11A23.11,23.11,0,0,0,1566.82,4269.64Z" fill="#4623b0"/><path d="M1583.59,3302.62a11.78,11.78,0,1,0,11.79,11.79A11.79,11.79,0,0,0,1583.59,3302.62Z" fill="#4623b0"/><ellipse cx="1579.73" cy="2911.03" rx="4.81" ry="4.8" fill="#e0ff78"/><path d="M1591.61,3221.46a9.59,9.59,0,1,0,9.62,9.57A9.56,9.56,0,0,0,1591.61,3221.46Z" fill="#e0ff78"/><path d="M1626.8,4052.37a9.59,9.59,0,1,0,9.59,9.57A9.59,9.59,0,0,0,1626.8,4052.37Z" fill="#e0ff78"/><ellipse cx="1621.84" cy="3378.83" rx="4.81" ry="4.8" fill="#e0ff78"/><ellipse cx="1630.54" cy="784.37" rx="11.22" ry="11.2" fill="#300b44"/><path d="M1680.68,2951.83a9.59,9.59,0,1,0,9.62,9.57A9.56,9.56,0,0,0,1680.68,2951.83Z" fill="#e0ff78"/><path d="M1708.18,3509.82a11.78,11.78,0,1,0,11.79,11.79A11.8,11.8,0,0,0,1708.18,3509.82Z" fill="#300b44"/><ellipse cx="1713.38" cy="102.03" rx="7.45" ry="7.44" fill="#54e3a7"/><path d="M1749.12,654.83a11.21,11.21,0,1,0,11.23,11.22A11.25,11.25,0,0,0,1749.12,654.83Z" fill="#300b44"/><path d="M1791.23,2552.93a11.76,11.76,0,1,0,11.78,11.76A11.79,11.79,0,0,0,1791.23,2552.93Z" fill="#54e3a7"/><path d="M1802.33,3798.23a9.59,9.59,0,1,0,9.62,9.6A9.61,9.61,0,0,0,1802.33,3798.23Z" fill="#e0ff78"/><ellipse cx="1808.68" cy="1258.44" rx="11.22" ry="11.2" fill="#564bd8"/><path d="M1832.73,3385.52a11.77,11.77,0,1,0,11.82,11.76A11.78,11.78,0,0,0,1832.73,3385.52Z" fill="#54a338"/><path d="M1895.35,4007.92a11.78,11.78,0,1,0,11.79,11.76A11.79,11.79,0,0,0,1895.35,4007.92Z" fill="#e0ff78"/><ellipse cx="1889.06" cy="3316.6" rx="4.81" ry="4.8" fill="#e0ff78"/><path d="M1895.74,3.21a29.67,29.67,0,0,0-6.83,19,30,30,0,1,0,53.18-19Z" fill="#300b44"/><path d="M1927,3593.91a23.07,23.07,0,1,0,23.1,23.08A23.12,23.12,0,0,0,1927,3593.91Z" fill="#4623b0"/><path d="M1920.15,4390.2a11.77,11.77,0,1,0,11.78,11.77A11.79,11.79,0,0,0,1920.15,4390.2Z" fill="#3e125b"/><ellipse cx="1912.81" cy="3328.45" rx="4.81" ry="4.8" fill="#e0ff78"/><ellipse cx="1927.45" cy="1169.55" rx="11.22" ry="11.2" fill="#ffe26e"/><path d="M1929.56,327.12a7.5,7.5,0,1,0,7.51,7.5A7.49,7.49,0,0,0,1929.56,327.12Z" fill="#a9f4ff"/><path d="M1948.06,5775.09a11.78,11.78,0,1,0,11.81,11.79A11.79,11.79,0,0,0,1948.06,5775.09Z" fill="#ffc257"/><ellipse cx="1983.15" cy="1780.57" rx="11.22" ry="11.2" fill="#a9f4ff"/><path d="M2011.15,2449.37a31.47,31.47,0,1,0,31.53,31.47A31.5,31.5,0,0,0,2011.15,2449.37Z" fill="#6d1370"/><path d="M1998.8,2807.6a11.77,11.77,0,0,0-.09,1.48,15.78,15.78,0,0,0,28.83,8.8Q2013.25,2812.86,1998.8,2807.6Z" fill="#4623b0"/><path d="M2014.48,2793.34a15.7,15.7,0,0,0-15.68,14.26q14.43,5.24,28.74,10.28a15.73,15.73,0,0,0-13.06-24.54Z" fill="#3e125b"/><path d="M2013.73,5302a11.78,11.78,0,1,0,11.79,11.79A11.79,11.79,0,0,0,2013.73,5302Z" fill="#8849c9"/><path d="M2020.12,3914.53a11.78,11.78,0,1,0,11.81,11.76A11.78,11.78,0,0,0,2020.12,3914.53Z" fill="#e0ff78"/><ellipse cx="2028.61" cy="3532.9" rx="4.81" ry="4.8" fill="#e0ff78"/><ellipse cx="2031.58" cy="3387.71" rx="4.81" ry="4.8" fill="#e0ff78"/><path d="M2040.48,3840.34a9.6,9.6,0,1,0,9.6,9.6A9.61,9.61,0,0,0,2040.48,3840.34Z" fill="#e0ff78"/><path d="M2078.64,4316.51a11.77,11.77,0,1,0,11.82,11.77A11.79,11.79,0,0,0,2078.64,4316.51Z" fill="#a9f4ff"/><path d="M2117.74,4369.46a11.78,11.78,0,1,0,11.79,11.79A11.78,11.78,0,0,0,2117.74,4369.46Z" fill="#3e125b"/><ellipse cx="2169.7" cy="4909.11" rx="11.79" ry="11.76" fill="#48ffc4"/><path d="M2188.5,1330.44c-16.6-37.9-27.77-84.24-27.77-140.33,0-131,66.45-194.93,131.3-226.07C2181,992.57,2099,1093.2,2099,1212.9a256.83,256.83,0,0,0,204.27,251.44A303.09,303.09,0,0,1,2188.5,1330.44Z" fill="#803be2"/><path d="M2200.91,4586a11.78,11.78,0,1,0,11.78,11.76A11.79,11.79,0,0,0,2200.91,4586Z" fill="#ff3364"/><path d="M2209.4,3967.27a14.39,14.39,0,1,0,0,28.77,13.9,13.9,0,0,0,5.08-.95q4.32-5.16,8.9-10a13.54,13.54,0,0,0,.45-3.5A14.38,14.38,0,0,0,2209.4,3967.27Z" fill="#431272"/><path d="M2216.7,2891.36a4.79,4.79,0,1,0,4.81,4.8A4.78,4.78,0,0,0,2216.7,2891.36Z" fill="#e0ff78"/><path d="M2214.48,3995.09a14.3,14.3,0,0,0,8.9-10Q2218.8,3989.94,2214.48,3995.09Z" fill="#ffc257"/><path d="M2225.49,3504.9a4.79,4.79,0,1,0,4.81,4.77A4.8,4.8,0,0,0,2225.49,3504.9Z" fill="#3e125b"/><path d="M2229.47,5935.89a11.78,11.78,0,0,0,2.32,16.86Q2230.37,5944.4,2229.47,5935.89Z" fill="#c15899"/><path d="M2241.82,130.59a7.33,7.33,0,1,0,7.37,7.32A7.3,7.3,0,0,0,2241.82,130.59Z" fill="#7399ff"/><path d="M2356.46,955.92a258.84,258.84,0,0,0-64.34,8.09l-.09,0c-64.85,31.14-131.3,95-131.3,226.07,0,56.09,11.17,102.43,27.77,140.33a303.09,303.09,0,0,0,114.75,133.9l0,0a260.2,260.2,0,0,0,53.18,5.48,257.16,257.16,0,0,0,86.22-14.79c99.83-35.35,171.29-130.43,171.29-242.16C2614,1071,2498.68,955.92,2356.46,955.92Z" fill="#6d26bf"/><ellipse cx="2257.23" cy="3669.2" rx="4.81" ry="4.8" fill="#e0ff78"/><path d="M2278,3692.19a9.6,9.6,0,1,0,9.59,9.6A9.6,9.6,0,0,0,2278,3692.19Z" fill="#e0ff78"/><path d="M2298.35,769.28a29.95,29.95,0,1,0,30,29.93A30,30,0,0,0,2298.35,769.28Z" fill="#ff3364"/><path d="M2231.79,5952.75a11.78,11.78,0,0,1-2.32-16.86,327.94,327.94,0,0,1,45.73-206.75,328.84,328.84,0,0,1,215.32-151.23,337.53,337.53,0,0,0-34-1.72,328.34,328.34,0,0,0-328.89,328.18c0,181.27,147.27,328.2,328.89,328.2a330.44,330.44,0,0,0,65.83-6.57C2374.39,6210.83,2255.45,6097.76,2231.79,5952.75Z" fill="#c15899"/><path d="M2294.49,4804a11.77,11.77,0,1,0,11.79,11.76A11.79,11.79,0,0,0,2294.49,4804Z" fill="#cdffcd"/><path d="M2291.26,1715.06a25.59,25.59,0,1,0,36.22,0A25.51,25.51,0,0,0,2291.26,1715.06Z" fill="#54e3a7"/><path d="M2305.09,5162.23a11.78,11.78,0,1,0,11.79,11.77A11.79,11.79,0,0,0,2305.09,5162.23Z" fill="#7399ff"/><path d="M2308.75,3301.37a9.59,9.59,0,1,0,9.62,9.6A9.6,9.6,0,0,0,2308.75,3301.37Z" fill="#48ffc4"/><path d="M2322.17,3638.14a5.93,5.93,0,1,0,5.91,5.93A5.93,5.93,0,0,0,2322.17,3638.14Z" fill="#f94c43"/><path d="M2327.3,4008.81a112.07,112.07,0,0,0-5.91,141.27c-7-24-14.48-77.57,32.72-130.9,37.92-42.87,78.12-44.65,108.38-36.18A112.64,112.64,0,0,0,2327.3,4008.81Z" fill="#f7aa01"/><path d="M2354.11,4019.18c-47.2,53.33-39.69,106.9-32.72,130.9A112.34,112.34,0,1,0,2486,3998.94a111.16,111.16,0,0,0-23.51-15.94C2432.23,3974.53,2392,3976.31,2354.11,4019.18Z" fill="#ffc257"/><path d="M2333.84,4448.84a11.78,11.78,0,1,0,11.78,11.76A11.79,11.79,0,0,0,2333.84,4448.84Z" fill="#ffe26e"/><ellipse cx="2338.02" cy="547.71" rx="11.22" ry="11.2" fill="#d09aff"/><path d="M2346.37,2590.62a11.78,11.78,0,1,0,11.78,11.76A11.79,11.79,0,0,0,2346.37,2590.62Z" fill="#7399ff"/><path d="M2360.82,3789.49a14.39,14.39,0,1,0,14.43,14.37A14.38,14.38,0,0,0,2360.82,3789.49Z" fill="#e0ff78"/><path d="M2394.47,5332a23,23,0,1,0,32.48,0A22.92,22.92,0,0,0,2394.47,5332Z" fill="#54e3a7"/><path d="M2461.06,5224.48a11.78,11.78,0,1,0,11.79,11.8A11.77,11.77,0,0,0,2461.06,5224.48Z" fill="#d09aff"/><path d="M2697.67,5681.2a328.21,328.21,0,0,0-178.77-99.09c-9.32-1.8-18.79-3.23-28.38-4.2a328.14,328.14,0,0,0-261.05,358q.89,8.49,2.32,16.86c23.66,145,142.6,258.08,290.59,273.25a329,329,0,0,0,209-141.34,4.71,4.71,0,0,1-3.14-4.44,4.81,4.81,0,0,1,8.19-3.41,327.69,327.69,0,0,0-38.75-395.61Zm-163.45,420.35a11.78,11.78,0,1,1,11.79-11.76A11.78,11.78,0,0,1,2534.22,6101.55Zm56.3-87.67a4.79,4.79,0,1,1,4.81-4.77A4.8,4.8,0,0,1,2590.52,6013.88Zm23.75,11.85a4.79,4.79,0,1,1,4.81-4.77A4.8,4.8,0,0,1,2614.27,6025.73Z" fill="#b04b8f"/><path d="M2503.79,6490.74a9.59,9.59,0,1,0,9.62,9.6A9.6,9.6,0,0,0,2503.79,6490.74Z" fill="#48ffc4"/><path d="M2490.52,5577.91c9.59,1,19.06,2.4,28.38,4.2a123,123,0,0,0,12.95-9.89A329.62,329.62,0,0,0,2490.52,5577.91Z" fill="#431272"/><path d="M2534.22,6078a11.78,11.78,0,1,0,11.79,11.79A11.79,11.79,0,0,0,2534.22,6078Z" fill="#ffc257"/><path d="M1853.73,4885.58c70.6,327.11,734.95,332.77,712.5,618.25-2.23,28.12-14.07,50.67-34.38,68.39a123,123,0,0,1-12.95,9.89,328,328,0,0,1,217.52,494.7,4.72,4.72,0,0,1,1.43,3.41A4.8,4.8,0,0,1,2733,6085a4.36,4.36,0,0,1-1.67-.33,328.4,328.4,0,0,1-274.82,147.91c-181.62,0-328.89-146.93-328.89-328.2a326,326,0,0,1,52.23-177.52c-172.54,13.72-175.81,136-175.81,136s-20.37,63,60.31,136.06c80.85,73.28,8.28,205.4-97.24,177.31-46.32-12.33-101-31-165.65-57.66-462.12-190.85-777.56-170.46-831.45-50.93-43.5,96.44-8,215.34,343.12,287.64,153.62,31.61,218.61,134.31,205.19,206.73-20.87,112.94-173.42,147.79-283,112.68C952.24,6584,314.5,6513.08-3.32,6617.76v998.1c716.63,160.48,755.41-98.22,755.41-98.22C829.67,7242.91,302.35,7208,437.48,6973.2,574.41,6735.36,1658,7265.85,1944.05,7405.49c67.66,33,140.59,54.4,215.59,61.19,148.07,13.39,368.79-3.94,435.06-208.77,102.62-317.16-768.29-646.82-610.63-879.08,124.44-183.32,673,81.12,898.61,200.68V4660.13C2646,4643.68,1792.86,4603.6,1853.73,4885.58Zm316,35.29a11.77,11.77,0,1,1,11.79-11.76A11.75,11.75,0,0,1,2169.7,4920.87Zm113-105.16a11.8,11.8,0,1,1,11.81,11.77A11.78,11.78,0,0,1,2282.68,4815.71Zm22.41,370.08a11.78,11.78,0,1,1,11.79-11.79A11.8,11.8,0,0,1,2305.09,5185.79Zm156,62.25a11.78,11.78,0,1,1,11.79-11.76A11.76,11.76,0,0,1,2461.06,5248ZM124.23,6734.23a9.61,9.61,0,1,1,9.59,9.6A9.58,9.58,0,0,1,124.23,6734.23Zm18.5,467a4.79,4.79,0,1,1,4.81-4.8A4.8,4.8,0,0,1,142.73,7201.25Zm3-145.18a4.79,4.79,0,1,1,4.81-4.8A4.8,4.8,0,0,1,145.7,7056.07Zm8.49-386.43A11.77,11.77,0,1,1,166,6657.88,11.78,11.78,0,0,1,154.19,6669.64ZM261.5,7260.51a4.79,4.79,0,1,1,4.81-4.8A4.8,4.8,0,0,1,261.5,7260.51Zm-14.22-270.25a23.07,23.07,0,1,1,23.13-23.08A23.09,23.09,0,0,1,247.28,6990.26Zm38,282.11a4.79,4.79,0,1,1,4.81-4.8A4.81,4.81,0,0,1,285.25,7272.37Zm56.32-73.69a11.78,11.78,0,1,1,11.79-11.8A11.8,11.8,0,0,1,341.57,7198.68ZM372,6785.94a9.59,9.59,0,1,1,9.62-9.57A9.6,9.6,0,0,1,372,6785.94Zm210.75-179.56a9.59,9.59,0,1,1,9.62-9.6A9.61,9.61,0,0,1,582.73,6606.38Zm62.35,26.67a9.59,9.59,0,1,1,9.62-9.6A9.61,9.61,0,0,1,645.08,6633.05Zm26.81,117.21a9.59,9.59,0,1,1,9.62-9.57A9.57,9.57,0,0,1,671.89,6750.26Zm82-98a4.79,4.79,0,1,1,4.81-4.8A4.81,4.81,0,0,1,753.9,6652.25Zm1874.59-319.71a23.07,23.07,0,1,1,23.1-23.05A23.11,23.11,0,0,1,2628.49,6332.54Zm101.58-102.37a4.79,4.79,0,1,1,4.81-4.77A4.79,4.79,0,0,1,2730.07,6230.17Z" fill="#6d1370"/><path d="M2590.52,6004.31a4.79,4.79,0,1,0,4.81,4.8A4.8,4.8,0,0,0,2590.52,6004.31Z" fill="#eb29ff"/><path d="M2628.49,6286.41a23.07,23.07,0,1,0,23.1,23.08A23.12,23.12,0,0,0,2628.49,6286.41Z" fill="#ffc257"/><path d="M2614.27,6016.16a4.79,4.79,0,1,0,4.81,4.8A4.8,4.8,0,0,0,2614.27,6016.16Z" fill="#48ffc4"/><path d="M2653.26,2887.27a4.79,4.79,0,1,0,4.81,4.77A4.77,4.77,0,0,0,2653.26,2887.27Z" fill="#4623b0"/><path d="M2691.23,3169.37a23.07,23.07,0,1,0,23.1,23.06A23.09,23.09,0,0,0,2691.23,3169.37Z" fill="#48ffc4"/><path d="M2677,2899.12a4.79,4.79,0,1,0,4.81,4.77A4.78,4.78,0,0,0,2677,2899.12Z" fill="#4623b0"/><path d="M2694.08,127.33a14.39,14.39,0,1,0,14.43,14.37A14.38,14.38,0,0,0,2694.08,127.33Z" fill="#ff8a50"/><path d="M2721.57,6607a11.78,11.78,0,1,0,11.82,11.77A11.79,11.79,0,0,0,2721.57,6607Z" fill="#ffc257"/><path d="M2732.77,295.6a5.91,5.91,0,1,0,5.94,5.92A5.92,5.92,0,0,0,2732.77,295.6Z" fill="#48ffc4"/><path d="M2730.07,6220.6a4.79,4.79,0,1,0,4.81,4.8A4.8,4.8,0,0,0,2730.07,6220.6Z" fill="#ffc257"/><path d="M2728.23,6080.22a4.71,4.71,0,0,0,3.14,4.44c1.75-2.58,3.42-5.21,5.05-7.85a4.81,4.81,0,0,0-8.19,3.41Z" fill="#b04b8f"/><path d="M2731.37,6084.66a4.36,4.36,0,0,0,1.67.33,4.8,4.8,0,0,0,4.81-4.77,4.72,4.72,0,0,0-1.43-3.41C2734.79,6079.45,2733.12,6082.08,2731.37,6084.66Z" fill="#6d1370"/><path d="M2741.94,6532.84a9.59,9.59,0,1,0,9.59,9.6A9.61,9.61,0,0,0,2741.94,6532.84Z" fill="#48ffc4"/><path d="M2746.16,625a9.6,9.6,0,1,0,9.62,9.6A9.57,9.57,0,0,0,2746.16,625Z" fill="#eb29ff"/><path d="M2776.92,234.2a9.59,9.59,0,1,0,9.59,9.6A9.61,9.61,0,0,0,2776.92,234.2Z" fill="#ff3364"/><path d="M2784.31,3490a11.76,11.76,0,1,0,11.82,11.76A11.76,11.76,0,0,0,2784.31,3490Z" fill="#48ffc4"/><path d="M2792.8,3103.57a4.79,4.79,0,1,0,4.81,4.77A4.78,4.78,0,0,0,2792.8,3103.57Z" fill="#4623b0"/><path d="M2795.77,2958.38a4.79,4.79,0,1,0,4.81,4.77A4.78,4.78,0,0,0,2795.77,2958.38Z" fill="#4623b0"/><path d="M2797.7,271.6a4.79,4.79,0,1,0,4.81,4.8A4.78,4.78,0,0,0,2797.7,271.6Z" fill="#ff3364"/><path d="M2804.68,3415.8a9.59,9.59,0,1,0,9.59,9.57A9.61,9.61,0,0,0,2804.68,3415.8Z" fill="#eb29ff"/><path d="M2797.85,3.21h84.83V-104A384.08,384.08,0,0,0,2797.85,3.21Z" fill="#4623b0"/><path d="M2829.44,431.09a4.8,4.8,0,1,0,4.78,4.8A4.8,4.8,0,0,0,2829.44,431.09Z" fill="#300b44"/></g><g clip-path="url(#c)"><path d="M2156.55,8408.93a996.86,996.86,0,0,1,123.54-37.72c90.89-21.57,158.14-25.16,158.14-25.16s220.1-5,446.79,232.18v879H-1V8647.68c282.28,88.53,445.55-74.55,445.55-74.55C518,8515,587.15,8477.7,651.64,8456.24q13-.89,25.24-1.24c103-3.14,169.6,18.9,261.67,68.89,78.74,42.75,155.67,104.56,240,135.94q10,3.73,20.16,6.84a312.87,312.87,0,0,0,32.78,8.21c6.77,1.28,13.51,2.52,20.22,4,47,10.61,286.94,54.67,567.34-79.23a1039.65,1039.65,0,0,0,122.18-68.89q23.57-15.42,47.3-32.74c.06-.06.15-.09.21-.15a634.32,634.32,0,0,1,74.41-46.63A789.52,789.52,0,0,1,2156.55,8408.93Z" fill="#571984"/><path d="M2752.21,8135.71c-51.45,70.34-79,151.35-79,151.35-62-95.5-124.65-124.15-164.49-131.85-26.84-5.19-54.43,1-77.38,15.79-59.41,38.28-108.76,118.13-137.8,173.54,44.72-3.38,92.88-3.14,144.72,1.51,0,0,220.1-5,446.79,232.18V8036.57C2831,8047,2786.36,8089,2752.21,8135.71Z" fill="#d373b5"/><path d="M1836.09,7965.76c-108.32-2.32-190.71,79.73-232.63,132.94-74.94-8.86-211.91-22.1-328.84-17.3-4.89-43.67.84-95.76-2.37-142.22,175.8-3.11,843-13.42,1309.8-1.22a902.25,902.25,0,0,0,138.34-6.93L2885,7910v126.58c-54,10.46-98.66,52.44-132.81,99.14-95.27-1.18-172.26-17.9-172.26-17.9s-183.35-40.41-301-19.64c-87.53,15.44-175,13.9-214.16,12.06-44.95-72.65-111.16-131.73-208.58-143.11a197.82,197.82,0,0,0-20-1.36Z" fill="#63d1be"/><path d="M2265.37,7839.83c164.13,1.51,389.55-55.73,619.65-32.42V7910l-164.63,21a902.25,902.25,0,0,1-138.34,6.93c-466.83-12.2-1134-1.89-1309.8,1.22-3.56-51.14-18-95.44-69.45-114.17-26.16-9.51-45.25-19.94-59.53-31,144.48-2.93,863.1-15.05,1009.12,30.88C2185.41,7835.3,2223.38,7839.5,2265.37,7839.83Z" fill="#89eade"/><path d="M2720.33,7518.88c47.59-7.26,102.19-9.36,164.69-3.67v292.2c-230.1-23.31-455.52,33.93-619.65,32.42-.9-4.21-30.91-152.18,164.07-139.56C2429.44,7700.27,2498.44,7553,2720.33,7518.88Z" fill="#285689"/><path d="M2752.21,8135.71c-51.45,70.34-79,151.35-79,151.35-62-95.5-124.65-124.15-164.49-131.85-26.84-5.19-54.43,1-77.38,15.79-59.41,38.28-108.76,118.13-137.8,173.54a719.76,719.76,0,0,0-142,24.59c-10.07-67.35-33.46-172.68-86.79-258.9,39.13,1.84,126.63,3.38,214.16-12.06,117.7-20.77,301,19.64,301,19.64S2656.94,8134.53,2752.21,8135.71Z" fill="#46b7a0"/><path d="M1876,7602.26c199.92-93.9,353.51-100.92,445.37-91.11,63,6.69,96.89,21.33,96.89,21.33s159.05-68.71,302.11-13.6c-221.89,34.08-290.89,181.39-290.89,181.39-195-12.62-165,135.35-164.07,139.56-42-.33-80-4.53-113-14.93-30.55-153.22-242.61-81.43-376.13-170.43C1810.64,7634.61,1843.9,7617.34,1876,7602.26Z" fill="#c15899"/><path d="M2217.15,7403.12c21.46,7.82,37.91,16.38,52.64,29.86,17.78,16.33,33,39.92,51.54,78.17-91.86-9.81-245.45-2.79-445.37,91.11-137.29-121.63-63-204.62-44.74-221.63,0-.06.09-.09.12-.12l3.14-2.75.45-.36c44.57-38.61,90.71-73.78,208.58-30.28C2127.84,7378.2,2180,7389.58,2217.15,7403.12Z" fill="#38afa5"/><path d="M2064.74,8110.23c53.33,86.22,76.72,191.55,86.79,258.9a646.31,646.31,0,0,0-87,31.38c2.41-413.54-214-433.87-228.32-434.75a197.82,197.82,0,0,1,20,1.36C1953.58,7978.5,2019.79,8037.58,2064.74,8110.23Z" fill="#674378"/><path d="M1603.46,8098.7c41.92-53.21,124.31-135.26,232.63-132.94h.09c14.31.88,230.73,21.21,228.32,434.75a610.64,610.64,0,0,0-104.66,59.5c-34.17-38.73-90.29-82.43-169.33-82.2a282.11,282.11,0,0,0-57,5.63c-30.4,6.32-54.18,17.49-72.8,30.79-4.22-77.9-20-231.2-79-285.57C1586.86,8120.93,1594.16,8110.53,1603.46,8098.7Z" fill="#463353"/><path d="M1138.88,7461.87a370.09,370.09,0,0,1,43.11,11.47c126,41.75,244.42,22.67,345.13,29.45h0c76.6,5.13,142.93,25.22,194.48,98.4a205.54,205.54,0,0,0,54.63,53.28c133.52,89,345.58,17.21,376.13,170.43-146-45.93-864.64-33.81-1009.12-30.88-62.17-48-32.22-107.38-91-152.89-53.92-41.72-99.56-34.34-133-14.46-16.87,10-30.61,23.2-40.71,34.88-24.2-51.41-54.54-93.81-92.55-117.84,51.07-33.63,169.45-98.84,306.74-88.27A372.3,372.3,0,0,1,1138.88,7461.87Z" fill="#285689"/><path d="M1959.84,8460a598.63,598.63,0,0,0-57.07,45.86c-16.74-47.82-61.58-131-169.21-122.43a282.11,282.11,0,0,1,57-5.63C1869.55,8377.58,1925.67,8421.28,1959.84,8460Z" fill="#616bdc"/><path d="M2293.51,8344.54a719.76,719.76,0,0,0-142,24.59,646.31,646.31,0,0,0-87,31.38,610.64,610.64,0,0,0-104.66,59.5,598.63,598.63,0,0,0-57.07,45.86c-10.48,9.51-20.19,19-29.15,28.33a582.5,582.5,0,0,0-54.52,65.48,1039.65,1039.65,0,0,0,122.18-68.89q23.57-15.42,47.3-32.74c.06-.06.15-.09.21-.15a634.32,634.32,0,0,1,74.41-46.63,789.52,789.52,0,0,1,93.35-42.34,996.86,996.86,0,0,1,123.54-37.72c90.89-21.57,158.14-25.16,158.14-25.16C2386.39,8341.4,2338.23,8341.16,2293.51,8344.54Z" fill="#461075"/><path d="M1660.76,8414.23c18.62-13.3,42.4-24.47,72.8-30.79,107.63-8.59,152.47,74.61,169.21,122.43-10.48,9.51-20.19,19-29.15,28.33-74.76,5-145.31,12.27-211,20.95l-.36-2.67s-19.35-26.7-58.84-64.15a166.86,166.86,0,0,1,22.5-40.26v0A161.87,161.87,0,0,1,1660.76,8414.23Z" fill="#495ec4"/><path d="M1834.48,7377.76l-3.14,2.75C1832.82,7379.15,1833.92,7378.23,1834.48,7377.76Z" fill="#c15899"/><path d="M1873.62,8534.2a581.61,581.61,0,0,0-54.52,65.48c-280.4,133.9-520.37,89.84-567.34,79.23-6.71-1.51-13.45-2.75-20.22-4a312.87,312.87,0,0,1-32.78-8.21c-2.43-3.31-5.1-6.9-8-10.66,86-26.79,251.54-71.74,471.85-100.86C1728.31,8546.47,1798.86,8539.18,1873.62,8534.2Z" fill="#3a92a8"/><path d="M1831.22,7380.63c-18.29,17-92.55,100,44.74,221.63-32.06,15.08-65.32,32.35-99.7,52.21a205.54,205.54,0,0,1-54.63-53.28c-51.55-73.18-117.88-93.27-194.48-98.4,27-24.12,85-62.4,181.68-64.59C1767.11,7436.87,1799.27,7408.39,1831.22,7380.63Z" fill="#3a92a8"/><path d="M884.36,8256q42-3.6,81.53-4.09c111.91-1.45,209.77,14.55,294,39.85a889.94,889.94,0,0,1,95.75,34.79v0q8,3.42,15.86,7,23.16,10.48,44.42,21.69c84.47,44.2,146.67,94.4,187.47,133.15,39.49,37.45,58.84,64.15,58.84,64.15l.36,2.67c-220.31,29.12-385.84,74.07-471.85,100.86-65.65-86.2-249.17-282-516.78-206.64-93.29-178.84-282.28-205-282.28-205S247.27,8201-1,8284V8093.1C60.69,8094,126.58,8083,126.58,8083c91.24-10,174.7-41.33,227.76-65.3,36.85-16.63,59-29.75,59-29.75a1364.66,1364.66,0,0,1,162-74.11c13.51-5.09,27.44-10.07,41.54-14.69,121.26-39.94,256.8-56.71,284,52.83,32.42,130.63-554.87,352.35-21.62,304.41C881,8256.21,882.7,8256.07,884.36,8256Z" fill="#c15899"/><path d="M1581.72,8128.66c59.06,54.37,74.82,207.67,79,285.57a161.87,161.87,0,0,0-34.83,33.81c-18-374.79-130.61-328.42-130.61-328.42a75.51,75.51,0,0,1,31-10.28C1548.08,8107,1566.37,8114.5,1581.72,8128.66Z" fill="#88569a"/><path d="M1625.93,8448v0a166.86,166.86,0,0,0-22.5,40.26c-40.8-38.75-103-89-187.47-133.15,1.42-53.42,11.63-195.41,79.36-235.56C1495.32,8119.62,1607.88,8073.25,1625.93,8448Z" fill="#674378"/><path d="M1603.46,8098.7c-9.3,11.83-16.6,22.23-21.74,30-15.35-14.16-33.64-21.63-55.43-19.32a75.51,75.51,0,0,0-31,10.28c-67.73,40.15-77.94,182.14-79.36,235.56q-21.26-11.16-44.42-21.69c18.94-40.42,45.63-126.08-43.83-165-35.69-15.52-48.66-47.94-53.09-87.08C1391.55,8076.6,1528.52,8089.84,1603.46,8098.7Z" fill="#46b7a0"/><path d="M1327.71,8168.48c-35.69-15.52-48.66-47.94-53.09-87.08-4.89-43.67.84-95.76-2.37-142.22-3.56-51.14-18-95.44-69.45-114.17-26.16-9.51-45.25-19.94-59.53-31-62.17-48-32.22-107.38-91-152.89-53.92-41.72-99.56-34.34-133-14.46,0,0,110.39-16.68,118.47,118.34s188.21,95.89,190.61,260.48c.45,30.37,4.25,56.18,10.16,78,14.76,54.91,42.72,85.22,64.13,101.16,42.58,31.67,64.64,84.44,54.16,136.41-.36,1.78-.77,3.56-1.19,5.4v0q8,3.42,15.86,7C1390.48,8293.07,1417.17,8207.41,1327.71,8168.48Z" fill="#8b409d"/><path d="M1006.39,8179c15.12-14.31,34.89-24.62,60.75-26.13h0c86,11.82,158.73,93.86,192.76,138.84-84.27-25.3-182.13-41.3-294-39.85C972.51,8228.69,984.63,8199.65,1006.39,8179Z" fill="#616bdc"/><path d="M1302.71,8184.69c-21.41-15.94-49.37-46.25-64.13-101.16-5.91-21.86-9.71-47.67-10.16-78C1226,7840.9,1045.88,7880,1037.81,7745s-118.47-118.34-118.47-118.34c-16.87,10-30.61,23.2-40.71,34.88,51.6,109.63,75.24,260.29,85.57,361.51a574.92,574.92,0,0,0,12.59,76.41c5.88,24.51,12.83,44.45,20.1,60.63a145.78,145.78,0,0,1,70.25-7.23h0c86,11.82,158.73,93.86,192.76,138.84a889.94,889.94,0,0,1,95.75,34.79c.42-1.84.83-3.62,1.19-5.4C1367.35,8269.13,1345.29,8216.36,1302.71,8184.69Z" fill="#6c3190"/><path d="M1190.78,8656c2.88,3.76,5.55,7.35,8,10.66q-10.15-3.1-20.16-6.84Z" fill="#64249b"/><path d="M1190.78,8656l-12.18,3.82c-84.38-31.38-161.31-93.19-240-135.94-92.07-50-158.64-72-261.67-68.89-1-1.9-1.9-3.76-2.88-5.63C941.61,8374,1125.13,8569.81,1190.78,8656Z" fill="#64249b"/><path d="M996.89,8160.1a145.78,145.78,0,0,1,70.25-7.23c-25.86,1.51-45.63,11.82-60.75,26.13C1003.19,8173.37,1000,8167.09,996.89,8160.1Z" fill="#495ec4"/><path d="M996.89,8160.1c3.12,7,6.3,13.27,9.5,18.9-21.76,20.65-33.88,49.69-40.5,72.86q-39.58.52-81.53,4.09C921.77,8202.91,959.87,8173.37,996.89,8160.1Z" fill="#495ec4"/><path d="M976.79,8099.47c5.88,24.51,12.83,44.45,20.1,60.63-37,13.27-75.12,42.81-112.53,95.85-1.66.12-3.32.26-5,.41-533.25,47.94,54-173.78,21.62-304.41-27.2-109.54-162.74-92.77-284-52.83a230.37,230.37,0,0,1,20.1-26.25c36.46-41.1-7.3-60.54-54.69-39.38,6.44-59.44,14.79-107.59,24.14-146.52,15.2-16.62,18.44-31.38,11.25-41.19,4-12.77,8-24.23,12.15-34.51,14-34.85,28.53-56.15,41.42-69.16,14.13-14.22,26.3-18.52,33.7-19.7,0,0,0,0,0,0,2.52-.15,5-.24,7.51-.24,27.22-.09,51.63,7.67,73.51,21.54,38,24,68.35,66.43,92.55,117.84,51.6,109.63,75.24,260.29,85.57,361.51A575.2,575.2,0,0,0,976.79,8099.47Z" fill="#524080"/><path d="M836.11,7245c-1.57,0-3.14.11-4.66.2A29.1,29.1,0,0,1,836.11,7245Z" fill="#3db283"/><path d="M705.06,7522.41a23.73,23.73,0,0,1,7.51-.24C710.1,7522.17,707.58,7522.26,705.06,7522.41Z" fill="#beddd9"/><path d="M698.61,7522.88c2.17-.21,4.31-.38,6.42-.47-7.4,1.18-19.57,5.48-33.7,19.7-.66-4-1.43-8.44-2.32-13.24A145.18,145.18,0,0,1,698.61,7522.88Z" fill="#45336b"/><path d="M674,8449.37c1,1.87,1.93,3.73,2.88,5.63q-12.25.36-25.24,1.24Q662.91,8452.47,674,8449.37Z" fill="#64249b"/><path d="M669,7528.87c.89,4.8,1.66,9.24,2.32,13.24-12.89,13-27.44,34.31-41.42,69.16l-2-.54c-.39-20.68-1.55-40.06-3.36-58.25A138.65,138.65,0,0,1,669,7528.87Z" fill="#45336b"/><path d="M651.64,8456.24C587.15,8477.7,518,8515,444.57,8573.13c0,0-163.27,163.08-445.55,74.55V8284c248.25-83.06,392.7-39.65,392.7-39.65s189,26.14,282.28,205Q662.9,8452.48,651.64,8456.24Z" fill="#285689"/><path d="M499,7290.41a195.7,195.7,0,0,1,37.68,16.68,203.48,203.48,0,0,1,28.8,20.15c20.36,17.06,37,37.51,50.53,59.14a356.08,356.08,0,0,1,30.85,63.11A477.77,477.77,0,0,1,669,7528.87a138.65,138.65,0,0,0-44.45,23.61c-19.51-196.86-115.82-252.21-153.15-266.43,3.15-.15,6.42-.32,9.8-.44C487.36,7287,493.27,7288.57,499,7290.41Z" fill="#804a89"/><path d="M627.92,7610.73l2,.54c-4.13,10.28-8.2,21.74-12.15,34.51-7.54-10.31-26.57-15.14-55.34-10.93,16-31.82,35.57-61.48,62.14-82.37C626.37,7570.67,627.53,7590.05,627.92,7610.73Z" fill="#45336b"/><path d="M617.76,7645.78c7.19,9.81,4,24.57-11.25,41.19C610.1,7671.92,613.87,7658.23,617.76,7645.78Z" fill="#616bdc"/><path d="M471.41,7286.05c37.33,14.22,133.64,69.57,153.15,266.43-26.57,20.89-46.14,50.55-62.14,82.37a220.61,220.61,0,0,0-33.76,7.88c-90.17,28-173.43,182.88-173.43,182.88s-36.85-183.53,52.64-242-71.58-185.6-227.22,18.73c0,0-44.3-105.66-181.63-50.13V7318.23c75.78,35.11,86.5,156.12,86.5,156.12C239,7243.53,456.6,7281.58,456.6,7281.58a.18.18,0,0,1,.12,0A93.54,93.54,0,0,1,471.41,7286.05Z" fill="#66396f"/><path d="M582.37,7833.49a121.17,121.17,0,0,0-23.28,13.81c-54.15,40.74-26.13-99.09,33.14-147a131.44,131.44,0,0,0,14.28-13.3c3.59-15.05,7.36-28.74,11.25-41.18-7.54-10.32-26.57-15.15-55.34-10.94a220.61,220.61,0,0,0-33.76,7.88c-90.17,28-173.43,182.88-173.43,182.88s-36.85-183.53,52.64-242-71.58-185.6-227.22,18.73c0,0-44.3-105.66-181.63-50.13V7676.3c83.17-.74,270.67,33.69,355.32,341.37,36.85-16.63,59-29.75,59-29.75a1364.66,1364.66,0,0,1,162-74.11c13.51-5.09,27.44-10.07,41.54-14.69a230.37,230.37,0,0,1,20.1-26.25C673.52,7831.77,629.76,7812.33,582.37,7833.49Z" fill="#616bdc"/><path d="M592.23,7700.27a131.44,131.44,0,0,0,14.28-13.3c-9.35,38.93-17.7,87.08-24.14,146.52a121.17,121.17,0,0,0-23.28,13.81C504.94,7888,533,7748.21,592.23,7700.27Z" fill="#45336b"/><path d="M354.34,8017.67c-53.06,24-136.52,55.26-227.76,65.3,0,0-65.89,11-127.56,10.13V7676.3C82.19,7675.56,269.69,7710,354.34,8017.67Z" fill="#6c3190"/></g><ellipse cx="1599.04" cy="7154.78" rx="9.61" ry="9.59" fill="#e0ff78"/><ellipse cx="1830.53" cy="6870.63" rx="9.61" ry="9.59" fill="#e0ff78"/><ellipse cx="1727.85" cy="7507.37" rx="9.61" ry="9.59" fill="#e0ff78"/><ellipse cx="2308.66" cy="6861.04" rx="9.61" ry="9.59" fill="#e0ff78"/><ellipse cx="767.68" cy="7240.71" rx="9.61" ry="9.59" fill="#e0ff78"/><ellipse cx="530.15" cy="7092.56" rx="9.61" ry="9.59" fill="#e0ff78"/><ellipse cx="1186.33" cy="6769.6" rx="4.8" ry="4.79" fill="#e0ff78"/><ellipse cx="1305.1" cy="6680.71" rx="4.8" ry="4.79" fill="#e0ff78"/><ellipse cx="1305.1" cy="6799.23" rx="4.8" ry="4.79" fill="#e0ff78"/><ellipse cx="1281.34" cy="6778.49" rx="4.8" ry="4.79" fill="#e0ff78"/><ellipse cx="776.59" cy="6778.49" rx="4.8" ry="4.79" fill="#e0ff78"/><ellipse cx="895.36" cy="6719.23" rx="4.8" ry="4.79" fill="#e0ff78"/><ellipse cx="919.11" cy="6707.37" rx="4.8" ry="4.79" fill="#e0ff78"/><ellipse cx="1186.33" cy="6618.49" rx="4.8" ry="4.79" fill="#e0ff78"/><ellipse cx="1245.71" cy="6559.23" rx="4.8" ry="4.79" fill="#e0ff78"/><ellipse cx="1394.17" cy="6588.86" rx="4.8" ry="4.79" fill="#e0ff78"/><ellipse cx="1406.05" cy="6609.6" rx="4.8" ry="4.79" fill="#e0ff78"/><ellipse cx="1732.65" cy="6609.6" rx="4.8" ry="4.79" fill="#e0ff78"/><ellipse cx="1792.03" cy="6520.71" rx="4.8" ry="4.79" fill="#e0ff78"/><ellipse cx="1887.05" cy="6279.72" rx="4.8" ry="4.79" fill="#e0ff78"/><ellipse cx="2145.76" cy="6719.23" rx="4.8" ry="4.79" fill="#e0ff78"/><ellipse cx="2014.72" cy="6524.52" rx="4.8" ry="4.79" fill="#e0ff78"/><ellipse cx="2373.99" cy="6431.82" rx="4.8" ry="4.79" fill="#e0ff78"/><ellipse cx="2323.08" cy="6492.21" rx="4.8" ry="4.79" fill="#e0ff78"/><ellipse cx="1123.98" cy="6461.45" rx="4.8" ry="4.79" fill="#e0ff78"/><ellipse cx="1153.67" cy="6491.08" rx="4.8" ry="4.79" fill="#e0ff78"/><ellipse cx="1949.4" cy="6480.08" rx="4.8" ry="4.79" fill="#e0ff78"/><ellipse cx="2026.6" cy="6497" rx="4.8" ry="4.79" fill="#e0ff78"/><ellipse cx="2140" cy="6335.7" rx="4.8" ry="4.79" fill="#e0ff78"/><ellipse cx="2317.57" cy="6671.82" rx="4.8" ry="4.79" fill="#e0ff78"/><ellipse cx="2356.17" cy="6582.93" rx="4.8" ry="4.79" fill="#e0ff78"/><ellipse cx="1643.58" cy="6648.11" rx="4.8" ry="4.79" fill="#e0ff78"/><ellipse cx="2312.77" cy="6983.63" rx="9.61" ry="9.59" fill="#e0ff78"/><ellipse cx="2323.08" cy="7186.56" rx="9.61" ry="9.59" fill="#e0ff78"/><ellipse cx="2109.73" cy="7243.67" rx="4.8" ry="4.79" fill="#e0ff78"/><ellipse cx="1296.32" cy="7172.76" rx="4.8" ry="4.79" fill="#e0ff78"/><ellipse cx="696.42" cy="7228.86" rx="4.8" ry="4.79" fill="#e0ff78"/><ellipse cx="1767.58" cy="7072.52" rx="14.41" ry="14.38" fill="#e0ff78"/><ellipse cx="585.7" cy="7420.56" rx="14.41" ry="14.38" fill="#e0ff78"/><ellipse cx="1012.97" cy="6733.87" rx="14.41" ry="14.38" fill="#e0ff78"/><ellipse cx="1103.06" cy="6648.11" rx="14.41" ry="14.38" fill="#e0ff78"/><ellipse cx="2124.78" cy="6811.23" rx="14.41" ry="14.38" fill="#e0ff78"/><ellipse cx="571.29" cy="6818.4" rx="14.41" ry="14.38" fill="#e0ff78"/><ellipse cx="2257.05" cy="6964.45" rx="14.41" ry="14.38" fill="#e0ff78"/><ellipse cx="560.68" cy="7327.25" rx="4.8" ry="4.79" fill="#e0ff78"/><ellipse cx="711.27" cy="7507.37" rx="4.8" ry="4.79" fill="#e0ff78"/><ellipse cx="1069.9" cy="6769.6" rx="4.8" ry="4.79" fill="#e0ff78"/><ellipse cx="2313.47" cy="7358.69" rx="4.8" ry="4.79" fill="#e0ff78"/><ellipse cx="550.94" cy="7059.97" rx="4.8" ry="4.79" fill="#e0ff78"/><ellipse cx="740.11" cy="7762.25" rx="11.89" ry="11.87" fill="#e0ff78"/><ellipse cx="148.33" cy="7774.12" rx="11.89" ry="11.87" fill="#e0ff78"/><ellipse cx="2648.85" cy="7749.62" rx="11.6" ry="11.58" fill="#e0ff78"/><ellipse cx="2541.27" cy="7713.83" rx="11.6" ry="11.58" fill="#e0ff78"/><ellipse cx="2146.8" cy="7713.83" rx="11.6" ry="11.58" fill="#e0ff78"/><ellipse cx="1683.31" cy="7562.62" rx="9.61" ry="9.59" fill="#e0ff78"/><ellipse cx="2179.08" cy="7960.75" rx="5.8" ry="5.79" fill="#e0ff78"/><ellipse cx="1594.24" cy="7918.18" rx="4.8" ry="4.79" fill="#e0ff78"/><ellipse cx="1594.24" cy="7799.66" rx="4.8" ry="4.79" fill="#e0ff78"/><ellipse cx="1617.99" cy="7820.4" rx="4.8" ry="4.79" fill="#e0ff78"/><ellipse cx="2673.95" cy="7950.02" rx="5.8" ry="5.79" fill="#e0ff78"/><ellipse cx="2530.51" cy="8021.59" rx="5.8" ry="5.79" fill="#e0ff78"/><ellipse cx="2501.82" cy="8035.9" rx="5.8" ry="5.79" fill="#e0ff78"/><ellipse cx="2179.08" cy="8143.26" rx="5.8" ry="5.79" fill="#e0ff78"/><ellipse cx="1653.62" cy="8039.66" rx="4.8" ry="4.79" fill="#e0ff78"/><ellipse cx="1505.16" cy="8010.03" rx="4.8" ry="4.79" fill="#e0ff78"/><ellipse cx="1493.29" cy="7989.29" rx="4.8" ry="4.79" fill="#e0ff78"/><ellipse cx="1166.68" cy="7989.29" rx="4.8" ry="4.79" fill="#e0ff78"/><ellipse cx="787.76" cy="8195.34" rx="5.95" ry="5.93" fill="#e0ff78"/><ellipse cx="799.65" cy="8370.59" rx="5.95" ry="5.93" fill="#e0ff78"/><ellipse cx="349.96" cy="7949.64" rx="5.95" ry="5.93" fill="#e0ff78"/><ellipse cx="512.14" cy="8190.62" rx="5.95" ry="5.93" fill="#e0ff78"/><ellipse cx="67.48" cy="8305.35" rx="5.95" ry="5.93" fill="#e0ff78"/><ellipse cx="130.49" cy="8230.61" rx="5.95" ry="5.93" fill="#e0ff78"/><ellipse cx="2771.95" cy="8223.79" rx="5.8" ry="5.79" fill="#e0ff78"/><ellipse cx="2218.52" cy="8297.14" rx="5.8" ry="5.79" fill="#e0ff78"/><ellipse cx="592.99" cy="8245.63" rx="5.95" ry="5.93" fill="#e0ff78"/><ellipse cx="497.44" cy="8224.68" rx="5.95" ry="5.93" fill="#e0ff78"/><ellipse cx="357.08" cy="8424.32" rx="5.95" ry="5.93" fill="#e0ff78"/><ellipse cx="137.31" cy="8008.31" rx="5.95" ry="5.93" fill="#e0ff78"/><ellipse cx="89.53" cy="8118.33" rx="5.95" ry="5.93" fill="#e0ff78"/><ellipse cx="1255.76" cy="7950.77" rx="4.8" ry="4.79" fill="#e0ff78"/><ellipse cx="143.25" cy="7622.39" rx="11.89" ry="11.87" fill="#e0ff78"/><ellipse cx="2670.36" cy="7774.67" rx="5.8" ry="5.79" fill="#e0ff78"/><ellipse cx="2526.92" cy="7810.45" rx="5.8" ry="5.79" fill="#e0ff78"/><ellipse cx="2526.92" cy="7810.45" rx="5.8" ry="5.79" fill="#e0ff78"/><ellipse cx="2388.45" cy="8003.9" rx="17.41" ry="17.37" fill="#e0ff78"/><ellipse cx="2279.66" cy="8107.47" rx="17.41" ry="17.37" fill="#e0ff78"/><ellipse cx="375.92" cy="7835.77" rx="17.84" ry="17.8" fill="#e0ff78"/><ellipse cx="212.21" cy="7646.12" rx="17.84" ry="17.8" fill="#e0ff78"/><ellipse cx="2319.7" cy="7960.75" rx="5.8" ry="5.79" fill="#e0ff78"/><path d="M2410.18,8343s242.51,25.76,507.33,170.3" fill="none"/></g></svg>