<svg width="225" height="42" viewBox="0 0 225 42" fill="none" xmlns="http://www.w3.org/2000/svg">
<path d="M223 10.4521V32.3263C223 36.9556 218.299 40.6889 212.499 40.6889H207.666V40.4559C207.666 40.4559 217.504 40.1632 217.504 32.607V10.1713C217.504 10.1713 218.532 2.06555 207.35 2.06555H212.475C218.299 2.06555 223 5.82276 223 10.4521Z" fill="#FF6C9F"/>
<path d="M207.35 2.06555C218.526 2.06555 217.504 10.1713 217.504 10.1713V32.607C217.504 40.1812 207.648 40.4738 207.648 40.4738V40.7068H17.8231V40.4738C6.64706 40.4738 7.68044 32.398 7.68044 32.398V9.93836C7.68044 2.36422 17.5304 2.06555 17.5304 2.06555H207.35Z" fill="#F42663"/>
<path d="M17.8233 40.4749V40.7078H12.5011C6.70098 40.7078 2 36.9566 2 32.3452V10.4531C2 5.82376 6.70098 2.09045 12.5011 2.09045H17.5306C17.5306 2.09045 7.6806 2.38912 7.6806 9.96326V32.399C7.6806 32.399 6.64722 40.4749 17.8233 40.4749Z" fill="#C1005A"/>
<path d="M207.35 2.06616H212.475C218.275 2.06616 222.976 5.82337 222.976 10.4288V32.3269C222.976 36.9562 218.275 40.6895 212.475 40.6895H12.5011C6.70098 40.6895 2 36.9383 2 32.3269V10.4527C2 5.82337 6.70098 2.09006 12.5011 2.09006H207.35V2.06616Z" stroke="black" stroke-width="2.45" stroke-linecap="round" stroke-linejoin="round"/>
<path d="M25.1878 28.19C23.4398 28.19 22.0845 27.7403 21.1218 26.841C20.1718 25.9417 19.6652 24.675 19.6018 23.041C19.5892 22.699 19.5828 22.1417 19.5828 21.369C19.5828 20.5837 19.5892 20.0137 19.6018 19.659C19.6652 18.0377 20.1782 16.7773 21.1408 15.878C22.1162 14.966 23.4652 14.51 25.1878 14.51C26.3152 14.51 27.2968 14.7063 28.1328 15.099C28.9688 15.479 29.6148 16.0047 30.0708 16.676C30.5268 17.3347 30.7675 18.082 30.7928 18.918V18.956C30.7928 19.0573 30.7485 19.146 30.6598 19.222C30.5838 19.2853 30.4952 19.317 30.3938 19.317H28.5888C28.4368 19.317 28.3228 19.2853 28.2468 19.222C28.1708 19.1587 28.1075 19.0383 28.0568 18.861C27.8542 18.063 27.5185 17.5057 27.0498 17.189C26.5812 16.8597 25.9542 16.695 25.1688 16.695C23.3448 16.695 22.3948 17.7147 22.3188 19.754C22.3062 20.096 22.2998 20.6217 22.2998 21.331C22.2998 22.0403 22.3062 22.5787 22.3188 22.946C22.3948 24.9853 23.3448 26.005 25.1688 26.005C25.9542 26.005 26.5812 25.8403 27.0498 25.511C27.5312 25.1817 27.8668 24.6243 28.0568 23.839C28.0948 23.6617 28.1518 23.5413 28.2278 23.478C28.3165 23.4147 28.4368 23.383 28.5888 23.383H30.3938C30.5078 23.383 30.6028 23.421 30.6788 23.497C30.7675 23.573 30.8055 23.668 30.7928 23.782C30.7675 24.618 30.5268 25.3717 30.0708 26.043C29.6148 26.7017 28.9688 27.2273 28.1328 27.62C27.2968 28 26.3152 28.19 25.1878 28.19ZM37.4881 28.19C36.0061 28.19 34.8598 27.81 34.0491 27.05C33.2385 26.2773 32.8015 25.226 32.7381 23.896L32.7191 23.06L32.7381 22.224C32.8015 20.9067 33.2448 19.8617 34.0681 19.089C34.8915 18.3163 36.0315 17.93 37.4881 17.93C38.9448 17.93 40.0848 18.3163 40.9081 19.089C41.7315 19.8617 42.1748 20.9067 42.2381 22.224C42.2508 22.376 42.2571 22.6547 42.2571 23.06C42.2571 23.4653 42.2508 23.744 42.2381 23.896C42.1748 25.226 41.7378 26.2773 40.9271 27.05C40.1165 27.81 38.9701 28.19 37.4881 28.19ZM37.4881 26.309C38.1595 26.309 38.6788 26.1 39.0461 25.682C39.4135 25.2513 39.6161 24.6243 39.6541 23.801C39.6668 23.6743 39.6731 23.4273 39.6731 23.06C39.6731 22.6927 39.6668 22.4457 39.6541 22.319C39.6161 21.4957 39.4135 20.875 39.0461 20.457C38.6788 20.0263 38.1595 19.811 37.4881 19.811C36.8168 19.811 36.2975 20.0263 35.9301 20.457C35.5628 20.875 35.3601 21.4957 35.3221 22.319L35.3031 23.06L35.3221 23.801C35.3601 24.6243 35.5628 25.2513 35.9301 25.682C36.2975 26.1 36.8168 26.309 37.4881 26.309ZM45.1183 28C44.9916 28 44.8839 27.9557 44.7953 27.867C44.7066 27.7783 44.6623 27.6707 44.6623 27.544V18.576C44.6623 18.4493 44.7066 18.3417 44.7953 18.253C44.8839 18.1643 44.9916 18.12 45.1183 18.12H46.6763C46.8029 18.12 46.9106 18.1643 46.9993 18.253C47.0879 18.3417 47.1323 18.4493 47.1323 18.576V19.355C47.8796 18.405 48.9373 17.93 50.3053 17.93C51.4706 17.93 52.3953 18.3163 53.0793 19.089C53.7633 19.849 54.1053 20.8877 54.1053 22.205V27.544C54.1053 27.6707 54.0609 27.7783 53.9723 27.867C53.8963 27.9557 53.7886 28 53.6493 28H51.9773C51.8506 28 51.7429 27.9557 51.6543 27.867C51.5656 27.7783 51.5213 27.6707 51.5213 27.544V22.319C51.5213 21.5717 51.3376 20.9953 50.9703 20.59C50.6156 20.172 50.0963 19.963 49.4123 19.963C48.7409 19.963 48.2089 20.172 47.8163 20.59C47.4363 21.008 47.2463 21.5843 47.2463 22.319V27.544C47.2463 27.6707 47.2019 27.7783 47.1133 27.867C47.0373 27.9557 46.9296 28 46.7903 28H45.1183ZM57.2747 28C57.148 28 57.0404 27.9557 56.9517 27.867C56.863 27.7783 56.8187 27.6707 56.8187 27.544V18.576C56.8187 18.4493 56.863 18.3417 56.9517 18.253C57.0404 18.1643 57.148 18.12 57.2747 18.12H58.8327C58.9594 18.12 59.067 18.1643 59.1557 18.253C59.2444 18.3417 59.2887 18.4493 59.2887 18.576V19.355C60.036 18.405 61.0937 17.93 62.4617 17.93C63.627 17.93 64.5517 18.3163 65.2357 19.089C65.9197 19.849 66.2617 20.8877 66.2617 22.205V27.544C66.2617 27.6707 66.2174 27.7783 66.1287 27.867C66.0527 27.9557 65.945 28 65.8057 28H64.1337C64.007 28 63.8994 27.9557 63.8107 27.867C63.722 27.7783 63.6777 27.6707 63.6777 27.544V22.319C63.6777 21.5717 63.494 20.9953 63.1267 20.59C62.772 20.172 62.2527 19.963 61.5687 19.963C60.8974 19.963 60.3654 20.172 59.9727 20.59C59.5927 21.008 59.4027 21.5843 59.4027 22.319V27.544C59.4027 27.6707 59.3584 27.7783 59.2697 27.867C59.1937 27.9557 59.086 28 58.9467 28H57.2747ZM73.2311 28.19C71.8251 28.19 70.7041 27.7847 69.8681 26.974C69.0448 26.1507 68.6078 24.998 68.5571 23.516L68.5381 23.041L68.5571 22.566C68.6205 21.122 69.0638 19.9883 69.8871 19.165C70.7231 18.3417 71.8378 17.93 73.2311 17.93C74.7258 17.93 75.8785 18.386 76.6892 19.298C77.5125 20.21 77.9241 21.426 77.9241 22.946V23.345C77.9241 23.4717 77.8798 23.5793 77.7912 23.668C77.7025 23.7567 77.5885 23.801 77.4491 23.801H71.1411V23.953C71.1665 24.6497 71.3565 25.2387 71.7111 25.72C72.0785 26.1887 72.5788 26.423 73.2121 26.423C73.9595 26.423 74.5611 26.1317 75.0171 25.549C75.1311 25.4097 75.2198 25.321 75.2832 25.283C75.3591 25.245 75.4668 25.226 75.6061 25.226H77.2402C77.3542 25.226 77.4492 25.264 77.5252 25.34C77.6138 25.4033 77.6581 25.4857 77.6581 25.587C77.6581 25.891 77.4745 26.252 77.1071 26.67C76.7525 27.0753 76.2395 27.43 75.5681 27.734C74.8968 28.038 74.1178 28.19 73.2311 28.19ZM75.3401 22.205V22.148C75.3401 21.4007 75.1501 20.799 74.7701 20.343C74.4028 19.887 73.8898 19.659 73.2311 19.659C72.5725 19.659 72.0595 19.887 71.6921 20.343C71.3248 20.799 71.1411 21.4007 71.1411 22.148V22.205H75.3401ZM84.516 28.19C83.1226 28.19 82.008 27.8037 81.172 27.031C80.3486 26.2583 79.9116 25.188 79.861 23.82L79.842 23.06L79.861 22.3C79.9116 20.932 80.3486 19.8617 81.172 19.089C82.008 18.3163 83.1226 17.93 84.516 17.93C85.504 17.93 86.34 18.1073 87.024 18.462C87.7206 18.8167 88.2336 19.2537 88.563 19.773C88.905 20.2797 89.0886 20.761 89.114 21.217C89.1266 21.3437 89.0823 21.4513 88.981 21.54C88.8923 21.6287 88.7846 21.673 88.658 21.673H86.986C86.8593 21.673 86.758 21.6477 86.682 21.597C86.6186 21.5337 86.5553 21.4323 86.492 21.293C86.302 20.799 86.0486 20.4443 85.732 20.229C85.428 20.0137 85.0353 19.906 84.554 19.906C83.908 19.906 83.4013 20.115 83.034 20.533C82.6666 20.9383 82.4703 21.559 82.445 22.395L82.426 23.098L82.445 23.725C82.4956 25.3843 83.1986 26.214 84.554 26.214C85.048 26.214 85.447 26.1063 85.751 25.891C86.055 25.6757 86.302 25.321 86.492 24.827C86.5553 24.6877 86.6186 24.5927 86.682 24.542C86.758 24.4787 86.8593 24.447 86.986 24.447H88.658C88.7846 24.447 88.8923 24.4913 88.981 24.58C89.0823 24.6687 89.1266 24.7763 89.114 24.903C89.0886 25.3463 88.9113 25.8213 88.582 26.328C88.2526 26.8347 87.746 27.2717 87.062 27.639C86.378 28.0063 85.5293 28.19 84.516 28.19ZM95.8605 28C94.7078 28 93.8401 27.7023 93.2575 27.107C92.6875 26.499 92.4025 25.6123 92.4025 24.447V20.134H90.9015C90.7748 20.134 90.6671 20.0897 90.5785 20.001C90.4898 19.8997 90.4455 19.7857 90.4455 19.659V18.576C90.4455 18.4493 90.4898 18.3417 90.5785 18.253C90.6671 18.1643 90.7748 18.12 90.9015 18.12H92.4025V14.966C92.4025 14.8267 92.4468 14.719 92.5355 14.643C92.6241 14.5543 92.7318 14.51 92.8585 14.51H94.3975C94.5368 14.51 94.6445 14.5543 94.7205 14.643C94.8091 14.719 94.8535 14.8267 94.8535 14.966V18.12H97.2285C97.3678 18.12 97.4755 18.1643 97.5515 18.253C97.6401 18.329 97.6845 18.4367 97.6845 18.576V19.659C97.6845 19.7983 97.6401 19.9123 97.5515 20.001C97.4628 20.0897 97.3551 20.134 97.2285 20.134H94.8535V24.257C94.8535 24.8017 94.9485 25.2133 95.1385 25.492C95.3285 25.7707 95.6451 25.91 96.0885 25.91H97.3995C97.5261 25.91 97.6338 25.9543 97.7225 26.043C97.8111 26.1317 97.8555 26.2393 97.8555 26.366V27.544C97.8555 27.6707 97.8111 27.7783 97.7225 27.867C97.6465 27.9557 97.5388 28 97.3995 28H95.8605ZM108.106 28C107.979 28 107.872 27.9557 107.783 27.867C107.694 27.7783 107.65 27.6707 107.65 27.544V23.25L103.166 15.308C103.128 15.2447 103.109 15.175 103.109 15.099C103.109 14.985 103.147 14.89 103.223 14.814C103.299 14.738 103.388 14.7 103.489 14.7H105.18C105.319 14.7 105.433 14.738 105.522 14.814C105.623 14.89 105.699 14.9723 105.75 15.061L108.98 20.59L112.191 15.061C112.343 14.8203 112.539 14.7 112.78 14.7H114.452C114.566 14.7 114.661 14.738 114.737 14.814C114.813 14.89 114.851 14.985 114.851 15.099C114.851 15.175 114.832 15.2447 114.794 15.308L110.31 23.25V27.544C110.31 27.6707 110.266 27.7783 110.177 27.867C110.088 27.9557 109.974 28 109.835 28H108.106ZM119.58 28.19C118.098 28.19 116.952 27.81 116.141 27.05C115.331 26.2773 114.894 25.226 114.83 23.896L114.811 23.06L114.83 22.224C114.894 20.9067 115.337 19.8617 116.16 19.089C116.984 18.3163 118.124 17.93 119.58 17.93C121.037 17.93 122.177 18.3163 123 19.089C123.824 19.8617 124.267 20.9067 124.33 22.224C124.343 22.376 124.349 22.6547 124.349 23.06C124.349 23.4653 124.343 23.744 124.33 23.896C124.267 25.226 123.83 26.2773 123.019 27.05C122.209 27.81 121.062 28.19 119.58 28.19ZM119.58 26.309C120.252 26.309 120.771 26.1 121.138 25.682C121.506 25.2513 121.708 24.6243 121.746 23.801C121.759 23.6743 121.765 23.4273 121.765 23.06C121.765 22.6927 121.759 22.4457 121.746 22.319C121.708 21.4957 121.506 20.875 121.138 20.457C120.771 20.0263 120.252 19.811 119.58 19.811C118.909 19.811 118.39 20.0263 118.022 20.457C117.655 20.875 117.452 21.4957 117.414 22.319L117.395 23.06L117.414 23.801C117.452 24.6243 117.655 25.2513 118.022 25.682C118.39 26.1 118.909 26.309 119.58 26.309ZM130.422 28.19C129.256 28.19 128.338 27.81 127.667 27.05C126.995 26.2773 126.66 25.2323 126.66 23.915V18.576C126.66 18.4493 126.704 18.3417 126.793 18.253C126.881 18.1643 126.989 18.12 127.116 18.12H128.788C128.927 18.12 129.035 18.1643 129.111 18.253C129.199 18.329 129.244 18.4367 129.244 18.576V23.801C129.244 25.3717 129.934 26.157 131.315 26.157C131.973 26.157 132.493 25.948 132.873 25.53C133.265 25.112 133.462 24.5357 133.462 23.801V18.576C133.462 18.4493 133.506 18.3417 133.595 18.253C133.683 18.1643 133.791 18.12 133.918 18.12H135.59C135.729 18.12 135.837 18.1643 135.913 18.253C136.001 18.329 136.046 18.4367 136.046 18.576V27.544C136.046 27.6707 136.001 27.7783 135.913 27.867C135.837 27.9557 135.729 28 135.59 28H134.051C133.924 28 133.816 27.9557 133.728 27.867C133.639 27.7783 133.595 27.6707 133.595 27.544V26.765C132.885 27.715 131.828 28.19 130.422 28.19ZM139.311 28C139.185 28 139.077 27.9557 138.988 27.867C138.9 27.7783 138.855 27.6707 138.855 27.544V18.595C138.855 18.4683 138.9 18.3607 138.988 18.272C139.077 18.1707 139.185 18.12 139.311 18.12H140.85C140.99 18.12 141.104 18.1643 141.192 18.253C141.281 18.3417 141.325 18.4557 141.325 18.595V19.374C141.629 18.9687 142.009 18.6583 142.465 18.443C142.934 18.2277 143.466 18.12 144.061 18.12H144.84C144.98 18.12 145.087 18.1643 145.163 18.253C145.252 18.329 145.296 18.4367 145.296 18.576V19.944C145.296 20.0707 145.252 20.1783 145.163 20.267C145.087 20.3557 144.98 20.4 144.84 20.4H143.358C142.763 20.4 142.294 20.571 141.952 20.913C141.61 21.255 141.439 21.7237 141.439 22.319V27.544C141.439 27.6707 141.395 27.7783 141.306 27.867C141.218 27.9557 141.104 28 140.964 28H139.311ZM153.502 28C153.312 28 153.16 27.9493 153.046 27.848C152.932 27.7467 152.863 27.6073 152.837 27.43L150.576 15.251L150.557 15.099C150.557 14.985 150.595 14.89 150.671 14.814C150.76 14.738 150.855 14.7 150.956 14.7H152.628C152.945 14.7 153.122 14.8267 153.16 15.08L154.737 23.687L156.447 18.12C156.574 17.8033 156.783 17.645 157.074 17.645H158.1C158.417 17.645 158.62 17.8033 158.708 18.12L160.437 23.668L162.014 15.08C162.04 14.9407 162.09 14.8457 162.166 14.795C162.255 14.7317 162.382 14.7 162.546 14.7H164.218C164.32 14.7 164.408 14.738 164.484 14.814C164.56 14.89 164.598 14.985 164.598 15.099C164.598 15.1623 164.592 15.213 164.579 15.251L162.318 27.43C162.255 27.81 162.033 28 161.653 28H160.38C160.203 28 160.057 27.9557 159.943 27.867C159.829 27.7783 159.753 27.6643 159.715 27.525L157.587 21.179L155.459 27.525C155.333 27.8417 155.105 28 154.775 28H153.502ZM169.362 28.19C168.716 28.19 168.12 28.0633 167.576 27.81C167.044 27.544 166.619 27.1893 166.303 26.746C165.999 26.3027 165.847 25.815 165.847 25.283C165.847 24.4217 166.195 23.725 166.892 23.193C167.588 22.661 168.545 22.3 169.761 22.11L172.364 21.73V21.331C172.364 20.7737 172.224 20.3557 171.946 20.077C171.667 19.7983 171.217 19.659 170.597 19.659C170.179 19.659 169.837 19.7413 169.571 19.906C169.317 20.058 169.115 20.21 168.963 20.362C168.811 20.5267 168.709 20.6343 168.659 20.685C168.608 20.837 168.513 20.913 168.374 20.913H166.911C166.797 20.913 166.695 20.875 166.607 20.799C166.531 20.723 166.493 20.6217 166.493 20.495C166.505 20.1783 166.657 19.8173 166.949 19.412C167.253 19.0067 167.715 18.6583 168.336 18.367C168.956 18.0757 169.716 17.93 170.616 17.93C172.11 17.93 173.2 18.2657 173.884 18.937C174.568 19.6083 174.91 20.4887 174.91 21.578V27.544C174.91 27.6707 174.865 27.7783 174.777 27.867C174.701 27.9557 174.593 28 174.454 28H172.915C172.788 28 172.68 27.9557 172.592 27.867C172.503 27.7783 172.459 27.6707 172.459 27.544V26.803C172.18 27.2083 171.781 27.544 171.262 27.81C170.755 28.0633 170.122 28.19 169.362 28.19ZM170.008 26.385C170.704 26.385 171.274 26.157 171.718 25.701C172.161 25.245 172.383 24.58 172.383 23.706V23.307L170.483 23.611C169.748 23.725 169.191 23.9087 168.811 24.162C168.443 24.4153 168.26 24.7257 168.26 25.093C168.26 25.4983 168.431 25.815 168.773 26.043C169.115 26.271 169.526 26.385 170.008 26.385ZM178.122 28C177.996 28 177.888 27.9557 177.799 27.867C177.711 27.7783 177.666 27.6707 177.666 27.544V14.966C177.666 14.8267 177.711 14.719 177.799 14.643C177.888 14.5543 177.996 14.51 178.122 14.51H179.699C179.839 14.51 179.946 14.5543 180.022 14.643C180.111 14.719 180.155 14.8267 180.155 14.966V27.544C180.155 27.6707 180.111 27.7783 180.022 27.867C179.946 27.9557 179.839 28 179.699 28H178.122ZM183.451 28C183.324 28 183.216 27.9557 183.128 27.867C183.039 27.7783 182.995 27.6707 182.995 27.544V14.966C182.995 14.8267 183.039 14.719 183.128 14.643C183.216 14.5543 183.324 14.51 183.451 14.51H185.028C185.167 14.51 185.275 14.5543 185.351 14.643C185.439 14.719 185.484 14.8267 185.484 14.966V27.544C185.484 27.6707 185.439 27.7783 185.351 27.867C185.275 27.9557 185.167 28 185.028 28H183.451ZM192.56 28.19C191.154 28.19 190.033 27.7847 189.197 26.974C188.374 26.1507 187.937 24.998 187.886 23.516L187.867 23.041L187.886 22.566C187.949 21.122 188.393 19.9883 189.216 19.165C190.052 18.3417 191.167 17.93 192.56 17.93C194.055 17.93 195.207 18.386 196.018 19.298C196.841 20.21 197.253 21.426 197.253 22.946V23.345C197.253 23.4717 197.209 23.5793 197.12 23.668C197.031 23.7567 196.917 23.801 196.778 23.801H190.47V23.953C190.495 24.6497 190.685 25.2387 191.04 25.72C191.407 26.1887 191.908 26.423 192.541 26.423C193.288 26.423 193.89 26.1317 194.346 25.549C194.46 25.4097 194.549 25.321 194.612 25.283C194.688 25.245 194.796 25.226 194.935 25.226H196.569C196.683 25.226 196.778 25.264 196.854 25.34C196.943 25.4033 196.987 25.4857 196.987 25.587C196.987 25.891 196.803 26.252 196.436 26.67C196.081 27.0753 195.568 27.43 194.897 27.734C194.226 28.038 193.447 28.19 192.56 28.19ZM194.669 22.205V22.148C194.669 21.4007 194.479 20.799 194.099 20.343C193.732 19.887 193.219 19.659 192.56 19.659C191.901 19.659 191.388 19.887 191.021 20.343C190.654 20.799 190.47 21.4007 190.47 22.148V22.205H194.669ZM203.998 28C202.845 28 201.977 27.7023 201.395 27.107C200.825 26.499 200.54 25.6123 200.54 24.447V20.134H199.039C198.912 20.134 198.804 20.0897 198.716 20.001C198.627 19.8997 198.583 19.7857 198.583 19.659V18.576C198.583 18.4493 198.627 18.3417 198.716 18.253C198.804 18.1643 198.912 18.12 199.039 18.12H200.54V14.966C200.54 14.8267 200.584 14.719 200.673 14.643C200.761 14.5543 200.869 14.51 200.996 14.51H202.535C202.674 14.51 202.782 14.5543 202.858 14.643C202.946 14.719 202.991 14.8267 202.991 14.966V18.12H205.366C205.505 18.12 205.613 18.1643 205.689 18.253C205.777 18.329 205.822 18.4367 205.822 18.576V19.659C205.822 19.7983 205.777 19.9123 205.689 20.001C205.6 20.0897 205.492 20.134 205.366 20.134H202.991V24.257C202.991 24.8017 203.086 25.2133 203.276 25.492C203.466 25.7707 203.782 25.91 204.226 25.91H205.537C205.663 25.91 205.771 25.9543 205.86 26.043C205.948 26.1317 205.993 26.2393 205.993 26.366V27.544C205.993 27.6707 205.948 27.7783 205.86 27.867C205.784 27.9557 205.676 28 205.537 28H203.998Z" fill="#FFF8D4"/>
</svg>
