<svg width="184" height="42" viewBox="0 0 184 42" fill="none" xmlns="http://www.w3.org/2000/svg">
<g clip-path="url(#clip0_997:977)">
<path d="M21 0C16.8466 0 12.7865 1.23163 9.33303 3.53914C5.8796 5.84665 3.18798 9.1264 1.59854 12.9636C0.00909898 16.8009 -0.406771 21.0233 0.403519 25.0969C1.21381 29.1705 3.21386 32.9123 6.15077 35.8492C9.08767 38.7861 12.8295 40.7862 16.9031 41.5965C20.9767 42.4068 25.1991 41.9909 29.0364 40.4015C32.8736 38.812 36.1534 36.1204 38.4609 32.667C40.7684 29.2135 42 25.1534 42 21C42 15.4305 39.7875 10.089 35.8493 6.15076C31.911 2.21249 26.5696 0 21 0ZM10.3586 21.7033L10.4503 21.5657L15.9163 12.996C15.9301 12.965 15.9527 12.9387 15.9811 12.9202C16.0096 12.9017 16.0429 12.8919 16.0768 12.8919C16.1108 12.8919 16.144 12.9017 16.1725 12.9202C16.201 12.9387 16.2235 12.965 16.2374 12.996C17.1547 15.0371 17.9421 17.5828 17.5752 19.1653C17.3223 19.9946 16.9598 20.7865 16.4973 21.5198C16.4361 21.632 16.3673 21.7466 16.2909 21.8639C16.2749 21.89 16.2524 21.9115 16.2256 21.9262C16.1988 21.941 16.1686 21.9484 16.138 21.9479H10.5191C10.4914 21.9447 10.4648 21.9354 10.4411 21.9207C10.4174 21.906 10.3972 21.8863 10.3819 21.863C10.3666 21.8397 10.3566 21.8133 10.3525 21.7857C10.3485 21.7582 10.3506 21.73 10.3586 21.7033ZM34.707 24.6465C34.7071 24.6838 34.6963 24.7203 34.6759 24.7516C34.6556 24.7828 34.6265 24.8074 34.5923 24.8224C33.6487 25.19 32.7996 25.7647 32.1078 26.5042C30.5788 28.6447 29.3939 31.7026 26.7565 31.7026H15.8398C14.9162 31.7006 14.0021 31.5167 13.1495 31.1614C12.297 30.8061 11.5228 30.2863 10.8711 29.6318C10.2195 28.9773 9.7031 28.2009 9.35151 27.3468C8.99992 26.4927 8.81999 25.5778 8.822 24.6542V24.5319C8.82196 24.4825 8.84104 24.435 8.87525 24.3993C8.90945 24.3637 8.95612 24.3427 9.00547 24.3407H15.1212C15.1497 24.3416 15.1777 24.3484 15.2035 24.3606C15.2292 24.3729 15.2522 24.3903 15.2709 24.4119C15.2895 24.4334 15.3035 24.4586 15.312 24.4858C15.3205 24.5131 15.3232 24.5417 15.32 24.5701C15.2788 24.9732 15.3558 25.3796 15.5417 25.7397C15.7173 26.1008 15.9912 26.405 16.332 26.6174C16.6728 26.8297 17.0666 26.9415 17.4682 26.9399H20.526V24.5777H17.4834C17.4492 24.5768 17.4159 24.5666 17.3869 24.5483C17.3579 24.5301 17.3344 24.5044 17.3188 24.4739C17.3032 24.4434 17.296 24.4093 17.2981 24.3751C17.3001 24.3409 17.3114 24.3079 17.3306 24.2796C17.3306 24.2261 17.3994 24.1802 17.4376 24.119C17.7204 23.7139 18.1256 23.0947 18.5231 22.3837C18.8107 21.8911 19.0661 21.3804 19.2876 20.8548C19.3258 20.763 19.364 20.6713 19.3946 20.5795C19.4561 20.4244 19.5097 20.2662 19.5552 20.1056C19.601 19.9756 19.6393 19.838 19.6698 19.7157C19.7693 19.2638 19.818 18.8023 19.8151 18.3396C19.8151 18.1485 19.8151 17.9498 19.8151 17.7663C19.8151 17.5828 19.7769 17.3535 19.7539 17.1547C19.731 16.956 19.7004 16.7878 19.6698 16.6043C19.6393 16.4208 19.5628 16.0539 19.494 15.7863V15.6793C19.4405 15.4882 19.4023 15.3123 19.3411 15.1289C19.1653 14.5326 18.9742 13.9592 18.7678 13.4241C18.6913 13.21 18.5996 13.0036 18.5155 12.8049C18.3932 12.4914 18.2632 12.2162 18.1409 11.9487C18.0797 11.8264 18.0262 11.7193 17.9804 11.6047L17.7969 11.2301C17.7587 11.1383 17.7051 11.0466 17.6746 10.9625L17.3 10.2821C17.289 10.2613 17.2842 10.2376 17.2863 10.2141C17.2884 10.1906 17.2973 10.1682 17.3118 10.1496C17.3264 10.131 17.346 10.1171 17.3683 10.1094C17.3906 10.1017 17.4147 10.1006 17.4376 10.1063L19.731 10.7332L20.0368 10.8173L20.3731 10.9166H20.4955V9.60175C20.4954 9.29069 20.6168 8.99189 20.8339 8.7691C21.051 8.54631 21.3465 8.41715 21.6575 8.40917C21.8141 8.40809 21.9693 8.43868 22.1138 8.49911C22.2583 8.55954 22.3891 8.64856 22.4984 8.76083C22.6088 8.87263 22.696 9.00516 22.7551 9.15078C22.8141 9.29641 22.8438 9.45226 22.8424 9.60939V11.6429L23.087 11.7117H23.1482L23.4004 11.9028L23.6909 12.1398C23.9126 12.3233 24.1802 12.5526 24.4554 12.8202L24.6771 13.0266C25.0517 13.3706 25.4416 13.791 25.8773 14.2344L26.2137 14.632C26.3207 14.7696 26.443 14.8995 26.5424 15.0371C26.6418 15.1747 26.8253 15.4041 26.9552 15.6028L27.1463 15.8857C27.3069 16.1303 27.4521 16.3902 27.5897 16.6502C27.6509 16.7725 27.7044 16.9024 27.7579 17.0324C27.9115 17.3656 28.0293 17.7141 28.1096 18.0721C28.1346 18.1467 28.1525 18.2235 28.1631 18.3014C28.171 18.4109 28.171 18.5207 28.1631 18.6301C28.2038 18.9903 28.1832 19.3548 28.1019 19.708C28.0719 19.8611 28.031 20.0118 27.9796 20.1591C27.9261 20.3043 27.8726 20.4572 27.8114 20.6025C27.6801 20.9077 27.5242 21.2017 27.3451 21.4816C27.284 21.5886 27.2152 21.6957 27.1463 21.8027C27.0775 21.9097 26.9935 22.0091 26.9247 22.1161C26.8559 22.2232 26.7259 22.376 26.6265 22.4984C26.5377 22.6268 26.4407 22.7494 26.336 22.8653C26.1908 23.0411 26.0532 23.2017 25.9079 23.3546C25.7627 23.5075 25.7244 23.561 25.6327 23.6527L25.3575 23.9356L24.9905 24.2872L24.7536 24.5013C24.7202 24.5317 24.6764 24.5481 24.6312 24.5471H22.8424V26.9094H25.1358C25.6514 26.908 26.1498 26.7238 26.5424 26.3895C27.0425 25.9452 27.5197 25.4758 27.972 24.9829C27.9928 24.9557 28.0226 24.9367 28.0561 24.9294L34.447 23.0794C34.475 23.0724 34.5042 23.0719 34.5324 23.0779C34.5606 23.0839 34.5871 23.0961 34.6099 23.1138C34.6327 23.1314 34.6512 23.154 34.6641 23.1798C34.6769 23.2056 34.6837 23.234 34.684 23.2628L34.707 24.6465Z" fill="#2081E2"/>
<path d="M10.5191 21.9938H16.138C16.1686 21.9943 16.1988 21.9868 16.2256 21.9721C16.2524 21.9573 16.2749 21.9358 16.2909 21.9097C16.3673 21.7976 16.4361 21.6829 16.4973 21.5657C16.9624 20.8327 17.3275 20.0409 17.5828 19.2111C17.9498 17.6287 17.1624 15.083 16.245 13.0419C16.2311 13.0109 16.2086 12.9845 16.1801 12.9661C16.1516 12.9476 16.1184 12.9377 16.0845 12.9377C16.0505 12.9377 16.0173 12.9476 15.9888 12.9661C15.9603 12.9845 15.9378 13.0109 15.9239 13.0419L10.4503 21.5657L10.3586 21.7033C10.341 21.7321 10.3314 21.765 10.3307 21.7987C10.33 21.8324 10.3382 21.8657 10.3545 21.8951C10.3708 21.9246 10.3946 21.9493 10.4235 21.9666C10.4524 21.984 10.4854 21.9933 10.5191 21.9938Z" fill="white"/>
<path d="M34.47 23.1099L28.079 24.9599C28.0455 24.9673 28.0157 24.9863 27.9949 25.0135C27.5426 25.5063 27.0655 25.9758 26.5653 26.4201C26.1727 26.7544 25.6743 26.9385 25.1587 26.9399H22.8653V24.5777H24.7077C24.7528 24.5787 24.7966 24.5623 24.83 24.5318L25.067 24.3178L25.4339 23.9661L25.6862 23.6986C25.7779 23.6068 25.8773 23.4998 25.9614 23.4004C26.0455 23.301 26.2443 23.087 26.3895 22.9112C26.4942 22.7953 26.5912 22.6727 26.68 22.5442C26.7794 22.4219 26.8864 22.2919 26.9781 22.162C27.0699 22.032 27.1234 21.9556 27.1998 21.8486C27.2763 21.7415 27.3374 21.6345 27.3986 21.5275C27.578 21.2451 27.734 20.9485 27.8649 20.6407C27.9261 20.4954 27.9796 20.3425 28.0331 20.1973C28.0845 20.05 28.1254 19.8993 28.1554 19.7463C28.2367 19.393 28.2573 19.0285 28.2166 18.6684C28.2245 18.5589 28.2245 18.4491 28.2166 18.3396C28.206 18.2617 28.1881 18.1849 28.1631 18.1103C28.0828 17.7523 27.9649 17.4038 27.8114 17.0706C27.7579 16.9407 27.7044 16.8107 27.6432 16.6884C27.5056 16.4361 27.3604 16.1762 27.1998 15.9239L27.0087 15.6411C26.8788 15.4423 26.7335 15.2588 26.5959 15.0753C26.4583 14.8919 26.3742 14.8078 26.2672 14.6702L25.9308 14.2727C25.5257 13.8216 25.1052 13.4088 24.7306 13.0648L24.463 12.8431C24.1725 12.5755 23.905 12.3462 23.6986 12.1627L23.4081 11.9257L23.1558 11.7346H23.0946L22.85 11.6658V9.60174C22.8514 9.44461 22.8217 9.28875 22.7627 9.14312C22.7036 8.9975 22.6164 8.86498 22.506 8.75317C22.3968 8.64091 22.266 8.55188 22.1215 8.49145C21.9769 8.43102 21.8217 8.40043 21.6651 8.40152C21.5085 8.40252 21.3536 8.43436 21.2093 8.49522C21.065 8.55607 20.9341 8.64476 20.824 8.75621C20.714 8.86766 20.627 8.9997 20.568 9.14477C20.509 9.28985 20.4791 9.44512 20.4802 9.60174V10.9701H20.3578L20.0215 10.8708L19.7157 10.7867L17.4223 10.1598C17.3994 10.1541 17.3753 10.1552 17.353 10.1629C17.3307 10.1706 17.3111 10.1845 17.2965 10.2031C17.282 10.2217 17.2731 10.2441 17.271 10.2676C17.2689 10.2911 17.2736 10.3148 17.2847 10.3356L17.6593 11.016C17.6593 11.1001 17.7433 11.1918 17.7816 11.2836L17.965 11.6582C18.0109 11.7728 18.0644 11.8799 18.1256 12.0022C18.2479 12.2697 18.3779 12.5449 18.5002 12.8584C18.5843 13.0571 18.676 13.2635 18.7524 13.4776C18.9589 14.0127 19.15 14.5861 19.3258 15.1824C19.387 15.3658 19.4252 15.5417 19.4787 15.7328V15.8398C19.5475 16.1074 19.6087 16.3826 19.6545 16.6578C19.7004 16.933 19.7157 17.0247 19.7386 17.2082C19.7615 17.3917 19.7845 17.6134 19.7998 17.8198C19.8151 18.0262 19.7998 18.202 19.7998 18.3931C19.8027 18.8558 19.7539 19.3173 19.6545 19.7692C19.6545 19.8915 19.5857 20.0291 19.5399 20.1591C19.4943 20.3197 19.4408 20.4779 19.3793 20.633C19.3793 20.7248 19.3105 20.8165 19.2723 20.9083C19.0508 21.4339 18.7954 21.9446 18.5078 22.4372C18.1103 23.1482 17.7051 23.7674 17.4223 24.1725C17.4223 24.2337 17.3458 24.2796 17.3152 24.3331C17.2961 24.3614 17.2848 24.3944 17.2828 24.4286C17.2807 24.4628 17.2878 24.4969 17.3035 24.5274C17.3191 24.5579 17.3426 24.5836 17.3716 24.6018C17.4006 24.6201 17.4339 24.6303 17.4681 24.6312H20.4572V26.9934H17.3993C16.9978 26.995 16.604 26.8832 16.2632 26.6709C15.9224 26.4585 15.6484 26.1543 15.4729 25.7932C15.2895 25.4134 15.2256 24.987 15.2894 24.5701C15.2926 24.5417 15.2899 24.513 15.2814 24.4858C15.2729 24.4586 15.2589 24.4334 15.2403 24.4119C15.2216 24.3903 15.1986 24.3729 15.1729 24.3606C15.1471 24.3484 15.1191 24.3416 15.0906 24.3407H8.97487C8.92552 24.3427 8.87885 24.3637 8.84465 24.3993C8.81044 24.435 8.79136 24.4825 8.7914 24.5318V24.6542C8.78939 25.5778 8.96932 26.4927 9.32091 27.3468C9.6725 28.2009 10.1889 28.9773 10.8405 29.6318C11.4922 30.2863 12.2664 30.8061 13.1189 31.1614C13.9715 31.5167 14.8856 31.7006 15.8092 31.7026H26.7564C29.3786 31.7026 30.5788 28.6447 32.1077 26.5042C32.7952 25.7666 33.6389 25.1919 34.577 24.8223C34.6112 24.8074 34.6402 24.7828 34.6606 24.7516C34.681 24.7203 34.6918 24.6838 34.6917 24.6465V23.2934C34.6909 23.2662 34.6844 23.2394 34.6724 23.2149C34.6605 23.1904 34.6435 23.1687 34.6225 23.1513C34.6015 23.134 34.577 23.1213 34.5507 23.1141C34.5244 23.107 34.4969 23.1056 34.47 23.1099Z" fill="white"/>
<path d="M67.6633 12.4073C66.0644 11.5471 64.2728 11.1077 62.4573 11.1307C60.6347 11.1102 58.8364 11.5493 57.2283 12.4073C55.6793 13.234 54.3784 14.4584 53.4595 15.9545C52.527 17.5038 52.0476 19.2836 52.0758 21.0917C52.0379 22.8811 52.5001 24.6455 53.4104 26.1865C54.3206 27.7275 55.6429 28.9839 57.2283 29.8143C58.8364 30.6724 60.6347 31.1115 62.4573 31.091C64.2728 31.1139 66.0644 30.6746 67.6633 29.8143C69.2088 28.9911 70.503 27.7655 71.4092 26.2672C72.3334 24.7063 72.8095 22.9208 72.7853 21.107C72.8125 19.3001 72.336 17.5212 71.4092 15.9698C70.5176 14.4559 69.22 13.2219 67.6633 12.4073ZM66.3178 25.2275C65.8246 25.7375 65.229 26.1374 64.5702 26.4009C63.9115 26.6644 63.2044 26.7856 62.4955 26.7564C61.7736 26.7889 61.053 26.6695 60.3802 26.4062C59.7073 26.1428 59.0971 25.7413 58.589 25.2275C57.5902 24.0914 57.0745 22.6102 57.1518 21.0994C57.0675 19.5853 57.5839 18.0991 58.589 16.9636C59.0971 16.4498 59.7073 16.0483 60.3802 15.7849C61.053 15.5215 61.7736 15.4022 62.4955 15.4346C63.2046 15.404 63.9121 15.5245 64.5711 15.7881C65.23 16.0517 65.8255 16.4524 66.3178 16.9636C66.8212 17.5172 67.21 18.165 67.4619 18.8695C67.7138 19.5741 67.8238 20.3215 67.7856 21.0688C67.8267 21.8245 67.7183 22.5808 67.4664 23.2945C67.2145 24.0082 66.8242 24.6651 66.3178 25.2275Z" fill="white"/>
<path d="M88.9843 16.1532C87.9 15.5023 86.6559 15.1662 85.3913 15.1824C84.363 15.158 83.3445 15.3864 82.4251 15.8475C81.6273 16.2531 80.9439 16.8524 80.4375 17.5905V15.4041H75.522V35.4867H80.4375V28.7211C80.9487 29.4491 81.6313 30.0399 82.4251 30.4412C83.3461 30.8979 84.3635 31.1261 85.3913 31.1063C86.6657 31.1307 87.9202 30.7875 89.0048 30.1178C90.0893 29.4481 90.9581 28.4802 91.507 27.3298C92.1767 26.0277 92.5178 24.5817 92.5009 23.1176C92.5339 21.6645 92.2083 20.2256 91.5529 18.9283C90.9829 17.7745 90.0907 16.8106 88.9843 16.1532ZM86.4233 25.9461C85.7556 26.603 84.8564 26.9711 83.9197 26.9711C82.983 26.9711 82.0838 26.603 81.416 25.9461C81.0716 25.5681 80.8057 25.1254 80.6338 24.6438C80.4619 24.1622 80.3874 23.6512 80.4146 23.1405C80.3862 22.6309 80.4603 22.1208 80.6323 21.6402C80.8043 21.1597 81.0708 20.7184 81.416 20.3425C81.742 20.0093 82.1324 19.7459 82.5635 19.5684C82.9946 19.391 83.4574 19.3032 83.9235 19.3105C84.389 19.2997 84.8516 19.3859 85.282 19.5636C85.7123 19.7412 86.101 20.0065 86.4233 20.3425C86.7793 20.7079 87.0555 21.1433 87.2344 21.6209C87.4134 22.0986 87.4912 22.6082 87.463 23.1176C87.4869 23.6345 87.4072 24.1511 87.2287 24.6368C87.0502 25.1225 86.7763 25.5677 86.4233 25.9461Z" fill="white"/>
<path d="M106.315 16.1227C105.011 15.4935 103.581 15.1668 102.133 15.1668C100.685 15.1668 99.256 15.4935 97.9518 16.1227C96.7414 16.7474 95.7397 17.7118 95.0697 18.8977C94.3805 20.1928 94.0357 21.6433 94.0682 23.1099C94.0334 24.583 94.3895 26.0391 95.1003 27.3298C95.7721 28.5116 96.77 29.475 97.9747 30.1048C99.2761 30.7665 100.72 31.0998 102.179 31.0757C103.395 31.0943 104.601 30.8573 105.719 30.3801C106.725 29.9517 107.62 29.2978 108.333 28.4689C109.03 27.678 109.532 26.7357 109.801 25.7168H104.564C104.347 26.2044 103.984 26.6129 103.526 26.8866C103.068 27.1603 102.536 27.2857 102.003 27.2457C101.234 27.2636 100.486 26.9906 99.9088 26.4813C99.316 25.8933 98.9736 25.0989 98.9532 24.2643H110.084C110.144 23.8055 110.174 23.3433 110.176 22.8806C110.209 21.4503 109.85 20.0382 109.136 18.7983C108.476 17.6508 107.496 16.7208 106.315 16.1227ZM98.9838 21.6422C99.0716 20.88 99.4427 20.1788 100.023 19.6775C100.637 19.2184 101.383 18.9703 102.149 18.9703C102.915 18.9703 103.66 19.2184 104.274 19.6775C104.558 19.9127 104.783 20.2104 104.933 20.5472C105.083 20.884 105.153 21.2509 105.138 21.6192L98.9838 21.6422Z" fill="white"/>
<path d="M122.545 15.2359C121.563 15.2211 120.59 15.4303 119.701 15.8474C118.903 16.1989 118.21 16.7522 117.69 17.4528V15.404H112.767V30.8846H117.729V22.4754C117.655 21.6008 117.929 20.7325 118.493 20.0597C119.111 19.5089 119.909 19.2046 120.737 19.2046C121.564 19.2046 122.363 19.5089 122.98 20.0597C123.577 20.7187 123.888 21.5875 123.844 22.4754V30.8846H128.729V21.8409C128.78 20.9634 128.656 20.0846 128.364 19.2553C128.073 18.426 127.62 17.6627 127.032 17.0094C126.453 16.4116 125.754 15.9441 124.98 15.6383C124.206 15.3324 123.376 15.1952 122.545 15.2359Z" fill="white"/>
<path d="M143.797 20.5337C142.77 20.0575 141.712 19.6489 140.632 19.3105C139.638 19.0309 138.675 18.6518 137.758 18.1791C137.481 18.0449 137.248 17.8351 137.086 17.574C136.923 17.3129 136.838 17.0111 136.84 16.7037C136.82 16.4594 136.859 16.2138 136.953 15.9877C137.047 15.7615 137.195 15.5613 137.383 15.4041C137.788 15.0751 138.299 14.9064 138.82 14.9301C139.435 14.9043 140.038 15.1026 140.517 15.4882C140.737 15.6652 140.916 15.8884 141.04 16.1421C141.164 16.3957 141.231 16.6736 141.236 16.9559H146.587C146.578 16.1231 146.375 15.3039 145.996 14.5624C145.617 13.8209 145.071 13.1775 144.401 12.6826C142.834 11.5981 140.953 11.0607 139.049 11.1536C137.145 11.0537 135.262 11.5918 133.698 12.6826C133.036 13.1678 132.503 13.8087 132.147 14.5487C131.791 15.2886 131.623 16.1049 131.657 16.9254C131.605 17.9781 131.909 19.0178 132.521 19.8762C133.087 20.609 133.818 21.1982 134.654 21.5963C135.688 22.058 136.753 22.4463 137.842 22.7583C138.545 22.9498 139.237 23.182 139.913 23.4539C140.371 23.6271 140.792 23.8866 141.152 24.2184C141.319 24.3684 141.452 24.5525 141.541 24.7582C141.631 24.964 141.675 25.1866 141.672 25.411C141.682 25.6719 141.629 25.9314 141.519 26.1681C141.408 26.4047 141.243 26.6116 141.037 26.7717C140.527 27.1118 139.921 27.278 139.309 27.2457C138.701 27.2895 138.097 27.1162 137.605 26.7565C137.146 26.322 136.873 25.7281 136.84 25.0976H131.604C131.611 26.2766 131.994 27.4227 132.697 28.3695C133.435 29.2944 134.41 30.0023 135.518 30.4183C136.784 30.9006 138.13 31.1368 139.485 31.1139C140.838 31.1591 142.184 30.8977 143.422 30.3495C144.455 29.8815 145.335 29.1316 145.96 28.186C146.553 27.2775 146.862 26.2129 146.847 25.1281C146.889 24.1014 146.576 23.0916 145.96 22.269C145.383 21.5312 144.642 20.9372 143.797 20.5337Z" fill="white"/>
<path d="M161.12 16.1227C159.814 15.494 158.383 15.1675 156.934 15.1675C155.485 15.1675 154.054 15.494 152.749 16.1227C151.541 16.7478 150.542 17.7124 149.874 18.8977C149.179 20.1907 148.831 21.6422 148.865 23.1099C148.829 24.5841 149.188 26.0411 149.905 27.3298C150.574 28.5135 151.573 29.4775 152.779 30.1048C154.078 30.7673 155.519 31.1007 156.976 31.0757C158.192 31.095 159.398 30.858 160.516 30.38C161.523 29.9536 162.418 29.2994 163.13 28.4689C163.827 27.678 164.329 26.7357 164.598 25.7168H159.361C159.145 26.2038 158.784 26.6121 158.327 26.8858C157.87 27.1595 157.339 27.2852 156.808 27.2457C156.036 27.2656 155.285 26.9924 154.706 26.4812C154.115 25.8925 153.775 25.098 153.758 24.2643H164.889C164.94 23.8227 164.968 23.3787 164.973 22.9341C165.005 21.5049 164.648 20.0938 163.941 18.8518C163.287 17.6859 162.307 16.737 161.12 16.1227ZM153.788 21.6421C153.874 20.8811 154.243 20.18 154.821 19.6775C155.436 19.2189 156.182 18.9713 156.95 18.9713C157.717 18.9713 158.463 19.2189 159.079 19.6775C159.361 19.9138 159.586 20.2117 159.736 20.5482C159.885 20.8848 159.956 21.2511 159.942 21.6192L153.788 21.6421Z" fill="white"/>
<path d="M178.611 15.4041V17.5828C178.12 16.8343 177.436 16.2321 176.631 15.8398C175.711 15.3796 174.693 15.1513 173.665 15.1747C172.397 15.1632 171.151 15.5083 170.07 16.1707C168.988 16.833 168.115 17.7859 167.549 18.9206C166.914 20.2242 166.6 21.6604 166.632 23.1099C166.602 24.5666 166.916 26.0098 167.549 27.3222C168.133 28.4721 169.018 29.4419 170.11 30.1278C171.185 30.7732 172.418 31.1092 173.672 31.0987C174.701 31.123 175.719 30.8947 176.639 30.4336C177.45 30.035 178.143 29.4316 178.649 28.6829V30.8846H183.572V15.4041H178.611ZM177.579 25.9461C177.259 26.2783 176.874 26.5407 176.447 26.717C176.021 26.8932 175.563 26.9796 175.102 26.9705C174.638 26.9782 174.176 26.8913 173.747 26.7152C173.317 26.5391 172.928 26.2774 172.602 25.9461C171.904 25.1741 171.542 24.1568 171.593 23.1176C171.563 22.6107 171.637 22.103 171.811 21.6257C171.984 21.1485 172.254 20.7118 172.602 20.3426C172.926 20.0088 173.315 19.745 173.745 19.5674C174.175 19.3899 174.637 19.3025 175.102 19.3105C175.564 19.3015 176.022 19.3886 176.449 19.5663C176.875 19.7439 177.26 20.0083 177.579 20.3426C177.933 20.7137 178.207 21.1534 178.385 21.6346C178.562 22.1159 178.639 22.6284 178.611 23.1405C178.636 23.6535 178.558 24.1664 178.38 24.6484C178.203 25.1304 177.931 25.5718 177.579 25.9461Z" fill="white"/>
</g>
<defs>
<clipPath id="clip0_997:977">
<rect width="183.534" height="42" fill="white"/>
</clipPath>
</defs>
</svg>
