<svg width="957" height="773" viewBox="0 0 957 773" fill="none" xmlns="http://www.w3.org/2000/svg">
<path d="M881.362 413.072C885.321 413.072 888.531 409.863 888.531 405.904C888.531 401.944 885.321 398.735 881.362 398.735C877.403 398.735 874.193 401.944 874.193 405.904C874.193 409.863 877.403 413.072 881.362 413.072Z" fill="#E0FF78"/>
<path d="M866.202 471.784C871.07 471.784 875.016 467.838 875.016 462.969C875.016 458.101 871.07 454.154 866.202 454.154C861.333 454.154 857.386 458.101 857.386 462.969C857.386 467.838 861.333 471.784 866.202 471.784Z" fill="#E0FF78"/>
<path d="M821.019 384.846C822.029 386.205 822.577 387.852 822.583 389.546C822.569 390.747 822.295 391.93 821.778 393.014C821.261 394.099 820.514 395.057 819.59 395.824C818.061 397.054 816.141 397.693 814.181 397.624C812.22 397.555 810.35 396.784 808.911 395.45L760.96 350.409C760.163 349.675 759.525 348.785 759.083 347.796C758.642 346.806 758.407 345.737 758.393 344.653C758.379 343.57 758.586 342.495 759.002 341.494C759.417 340.493 760.033 339.588 760.81 338.833L764.694 334.874C766.139 333.439 768.073 332.602 770.109 332.533C772.145 332.464 774.132 333.166 775.671 334.5C795.546 350.955 813.177 373.936 821.019 384.846Z" fill="#FFC166"/>
<path d="M775.604 524.286C777.457 524.784 779.093 525.883 780.255 527.41C781.417 528.938 782.039 530.807 782.025 532.727C782.021 535.062 781.092 537.301 779.441 538.953C777.79 540.605 775.552 541.536 773.217 541.542C772.043 541.54 770.882 541.302 769.803 540.84C768.724 540.378 767.75 539.703 766.939 538.855C770.203 534.232 773.1 529.361 775.604 524.286Z" fill="#E0FF78"/>
<path d="M773.217 523.911C774.026 523.921 774.83 524.047 775.604 524.286C773.1 529.361 770.203 534.232 766.939 538.855C766.134 538.05 765.495 537.095 765.06 536.043C764.625 534.992 764.401 533.865 764.402 532.726C764.406 530.39 765.336 528.15 766.988 526.498C768.64 524.845 770.88 523.915 773.217 523.911Z" fill="#E0FF78"/>
<path d="M746.809 311.722C748.871 312.967 750.47 314.852 751.362 317.089C752.255 319.326 752.393 321.793 751.755 324.116C751.118 326.439 749.739 328.49 747.83 329.957C745.92 331.425 743.583 332.229 741.175 332.248C739.312 332.245 737.483 331.755 735.869 330.826C694.046 307.673 512.178 213.566 400.216 265.177C389.98 269.884 393.646 285.419 404.923 285.419C430.014 285.269 464.301 287.357 498.207 296.696C494.094 296.181 489.953 295.931 485.808 295.947C476.002 295.935 466.246 297.324 456.833 300.071C409.847 294.69 372.656 304.852 363.018 329.494C356.223 346.705 364.215 367.89 382.661 388.655C382.273 392.352 382.073 396.066 382.062 399.782C382.037 406.351 382.663 412.906 383.933 419.351C376.981 414.011 370.3 408.327 363.916 402.319C309.694 351.307 311.183 307.614 324.181 278.033C336.431 250.248 362.053 230.83 391.401 223.062C445.773 208.65 562.591 201.93 746.809 311.722Z" fill="#FFC166"/>
<path d="M703.901 381.629C707.861 381.629 711.07 378.419 711.07 374.46C711.07 370.501 707.861 367.291 703.901 367.291C699.942 367.291 696.733 370.501 696.733 374.46C696.733 378.419 699.942 381.629 703.901 381.629Z" fill="#E0FF78"/>
<path d="M548.995 317.401C620.024 354.817 680.824 400.381 678.736 466.404C676.641 534.971 522.557 547.97 522.557 547.97C522.557 547.97 349.803 554.323 245.235 459.669C243.284 457.834 242.065 455.354 241.804 452.689C241.542 450.024 242.256 447.354 243.813 445.175C244.815 443.72 246.157 442.532 247.721 441.711C249.286 440.891 251.026 440.465 252.793 440.468C254.792 440.477 256.753 441.019 258.472 442.039C295.064 463.74 441.059 542.425 567.613 503.513C577.543 500.445 576.121 485.808 565.667 485.059C559.995 484.61 553.941 484.012 547.52 483.196C553.097 479.086 558.251 474.431 562.906 469.3C602.79 471.171 633.246 460.71 641.852 438.754C653.271 409.488 622.344 368.713 569.386 338.159C563.625 330.294 556.757 323.302 548.995 317.401Z" fill="#FFC166"/>
<path d="M641.537 156.74C642.331 158.32 642.63 160.103 642.396 161.855C642.162 163.608 641.406 165.249 640.225 166.565C639.045 167.882 637.495 168.812 635.779 169.235C634.062 169.658 632.257 169.554 630.601 168.936C628.944 168.319 627.511 167.217 626.49 165.773C625.469 164.33 624.906 162.613 624.875 160.845C624.844 159.077 625.346 157.341 626.316 155.862C627.286 154.384 628.679 153.232 630.313 152.557C634.069 153.829 637.803 155.244 641.537 156.74Z" fill="#E0FF78"/>
<path d="M641.538 156.74C637.796 155.244 634.055 153.829 630.313 152.557C631.375 152.105 632.519 151.875 633.673 151.884C635.308 151.871 636.914 152.32 638.305 153.179C639.696 154.038 640.817 155.273 641.538 156.74Z" fill="#E0FF78"/>
<path d="M589.665 399.782C589.665 402.095 589.59 404.34 589.44 406.577C588.543 383.05 556.725 353.103 511.317 335.323C468.222 318.367 426.467 317.918 408.246 332.33L407.348 331.881C420.435 316.733 437.618 305.687 456.833 300.071C479.013 302.682 503.438 308.736 528.162 318.442C542.362 324.009 556.139 330.599 569.386 338.159C582.569 356 589.677 377.6 589.665 399.782Z" fill="#FFF2A6"/>
<path d="M588.73 413.147C588.722 413.501 588.672 413.853 588.58 414.195H588.505C588.58 413.813 588.655 413.521 588.73 413.147Z" fill="#FFE76E"/>
<path d="M511.28 335.323C468.185 318.367 426.43 317.918 408.208 332.33C404.629 334.984 401.862 338.583 400.216 342.724C390.653 367.149 424.911 403.337 476.701 423.616C528.491 443.895 578.276 440.64 587.832 416.223L588.505 414.202C588.58 413.828 588.655 413.529 588.73 413.155C589.029 410.992 589.254 408.822 589.403 406.585C588.505 383.05 556.687 353.103 511.28 335.323Z" fill="#F9FFFA"/>
<path d="M573.045 557.151C574.455 557.159 575.832 557.584 577.001 558.374C578.169 559.164 579.077 560.282 579.61 561.588C580.143 562.894 580.277 564.328 579.994 565.71C579.712 567.092 579.026 568.359 578.024 569.351C577.021 570.344 575.747 571.016 574.362 571.284C572.977 571.552 571.544 571.403 570.244 570.857C568.944 570.31 567.835 569.39 567.057 568.213C566.28 567.036 565.869 565.656 565.876 564.245C565.878 563.308 566.066 562.38 566.427 561.515C566.789 560.651 567.319 559.866 567.985 559.207C568.651 558.547 569.441 558.026 570.31 557.674C571.178 557.321 572.108 557.143 573.045 557.151Z" fill="#E0FF78"/>
<path d="M562.891 469.315C558.236 474.446 553.082 479.1 547.506 483.211C502.113 477.606 438.829 461.847 383.933 419.351C382.663 412.906 382.037 406.351 382.063 399.782C382.073 396.066 382.273 392.352 382.661 388.655C403.053 411.568 436.262 433.913 476.671 449.732C507.097 461.622 536.969 468.118 562.891 469.315Z" fill="#FFC166"/>
<path d="M548.995 317.402C534.266 306.008 516.705 298.854 498.207 296.711C494.094 296.196 489.953 295.946 485.808 295.963C476.003 295.946 466.247 297.329 456.833 300.071C479.013 302.682 503.438 308.736 528.162 318.442C542.362 324.009 556.139 330.599 569.386 338.16C563.625 330.294 556.757 323.302 548.995 317.402Z" fill="#FFB899"/>
<path d="M525.917 140.532C527.896 140.532 529.501 138.927 529.501 136.947C529.501 134.968 527.896 133.363 525.917 133.363C523.937 133.363 522.333 134.968 522.333 136.947C522.333 138.927 523.937 140.532 525.917 140.532Z" fill="#E0FF78"/>
<path d="M886.742 481.864C885.545 454.005 873.969 423.085 846.708 389.022C708.533 216.193 503.513 182.362 503.513 182.362C503.513 182.362 256.961 137.995 253.975 285.733C252.029 383.05 347.857 443.925 413.514 474.172C420.009 477.165 426.235 479.851 431.96 482.238C432.627 482.503 433.219 482.928 433.682 483.477C434.145 484.026 434.465 484.681 434.613 485.383C434.762 486.086 434.733 486.814 434.531 487.503C434.33 488.192 433.96 488.821 433.456 489.332C432.952 489.896 432.304 490.312 431.582 490.536C430.86 490.76 430.09 490.783 429.355 490.604C412.874 487.295 396.57 483.156 380.506 478.205C380.023 479.582 379.124 480.774 377.934 481.618C376.743 482.461 375.32 482.913 373.861 482.912C371.959 482.912 370.135 482.157 368.789 480.812C367.444 479.468 366.687 477.645 366.685 475.743C366.668 475.106 366.77 474.472 366.984 473.872C301.709 452.067 258.614 423.983 258.614 423.983C229.431 405.455 208.194 387.009 193.257 369.087C191.756 368.235 190.636 366.844 190.122 365.196C135.368 295.888 172.784 235.312 193.811 210.274C196.915 206.627 198.611 201.99 198.593 197.201C198.616 192.528 196.973 188 193.961 184.428C190.868 180.773 186.573 178.344 181.847 177.577C177.122 176.81 172.279 177.756 168.189 180.244C134.358 201.01 77.8162 280.929 146.758 398.413C209.526 505.615 387.218 569.251 471.769 583.215C527.264 592.404 584.397 589.268 637.804 571.242C696.733 551.397 756.335 511.841 725.857 434.137C693.141 350.634 609.488 305.429 547.498 282.59C541.512 280.428 544.213 271.538 550.409 272.81C624.491 288.42 674.695 314.333 694.562 325.94C694.637 326.014 694.78 326.014 694.854 326.164C700.983 329.674 704.118 331.844 704.118 331.844C921.127 459.939 782.541 564.5 717.341 601.698C711.506 604.992 707.162 610.405 705.208 616.814C703.254 623.224 703.84 630.139 706.844 636.128C709.848 642.118 715.041 646.722 721.347 648.988C727.653 651.255 734.588 651.009 740.718 648.302C784.12 629.004 890.776 572.162 886.742 481.864ZM234.556 435.634L233.284 437.647C232.646 438.714 231.778 439.625 230.744 440.315C229.71 441.005 228.535 441.456 227.305 441.635C226.074 441.814 224.82 441.717 223.631 441.351C222.443 440.984 221.352 440.358 220.436 439.517L169.274 392.689C168.344 391.835 167.616 390.784 167.144 389.612C166.672 388.441 166.468 387.179 166.547 385.918C166.626 384.658 166.986 383.431 167.6 382.328C168.214 381.224 169.068 380.272 170.097 379.541C171.53 378.567 173.222 378.046 174.954 378.044C176.953 378.043 178.887 378.76 180.401 380.065L232.835 424.873C234.356 426.168 235.366 427.963 235.681 429.936C235.997 431.909 235.598 433.929 234.556 435.634ZM573.045 571.414C571.638 571.406 570.264 570.983 569.097 570.196C567.93 569.41 567.022 568.296 566.487 566.994C565.952 565.693 565.814 564.262 566.09 562.882C566.366 561.502 567.045 560.235 568.04 559.24C569.035 558.245 570.302 557.566 571.682 557.29C573.062 557.014 574.493 557.152 575.794 557.687C577.096 558.222 578.21 559.13 578.996 560.297C579.783 561.464 580.206 562.838 580.214 564.245C580.214 565.187 580.028 566.119 579.668 566.988C579.308 567.858 578.78 568.649 578.114 569.314C577.449 569.98 576.658 570.508 575.788 570.868C574.919 571.228 573.987 571.414 573.045 571.414ZM750.281 327.331C749.286 328.838 747.934 330.075 746.345 330.933C744.756 331.791 742.98 332.242 741.174 332.248C739.312 332.245 737.483 331.755 735.869 330.826C694.046 307.674 512.178 213.567 400.216 265.177C389.98 269.884 393.646 285.419 404.923 285.419C430.014 285.269 464.301 287.357 498.207 296.696C516.705 298.839 534.266 305.993 548.995 317.387C620.024 354.802 680.824 400.366 678.736 466.389C676.641 534.956 522.557 547.954 522.557 547.954C522.557 547.954 349.803 554.308 245.235 459.654C243.284 457.819 242.065 455.339 241.804 452.674C241.542 450.009 242.256 447.339 243.813 445.16C244.815 443.705 246.157 442.517 247.721 441.697C249.286 440.876 251.026 440.45 252.793 440.453C254.792 440.461 256.753 441.004 258.472 442.024C295.064 463.725 441.059 542.41 567.612 503.498C577.542 500.43 576.121 485.793 565.667 485.044C559.995 484.595 553.941 483.997 547.52 483.181C502.113 477.606 438.829 461.847 383.933 419.351C376.981 414.011 370.3 408.327 363.916 402.319C309.694 351.307 311.183 307.614 324.181 278.033C336.431 250.248 362.053 230.83 391.401 223.063C445.773 208.65 562.591 201.93 746.772 311.722C748.054 312.492 749.166 313.514 750.042 314.727C750.917 315.939 751.538 317.317 751.866 318.776C752.194 320.235 752.223 321.746 751.95 323.216C751.678 324.687 751.11 326.087 750.281 327.331ZM819.597 395.854C818.069 397.084 816.149 397.723 814.188 397.654C812.228 397.585 810.357 396.813 808.919 395.48L760.967 350.439C760.171 349.705 759.532 348.815 759.091 347.826C758.649 346.836 758.415 345.767 758.401 344.683C758.387 343.6 758.594 342.525 759.009 341.524C759.425 340.523 760.04 339.618 760.818 338.863L764.701 334.904C766.146 333.469 768.081 332.632 770.117 332.563C772.152 332.494 774.139 333.196 775.679 334.53C795.546 350.993 813.177 373.966 821.019 384.876C822.029 386.235 822.577 387.882 822.583 389.576C822.573 390.776 822.301 391.961 821.785 393.045C821.269 394.13 820.523 395.089 819.597 395.854ZM866.201 471.814C864.458 471.814 862.754 471.297 861.304 470.329C859.854 469.36 858.725 467.983 858.057 466.373C857.39 464.762 857.216 462.99 857.556 461.28C857.896 459.57 858.735 457.999 859.968 456.766C861.201 455.533 862.772 454.694 864.482 454.354C866.192 454.014 867.964 454.188 869.575 454.855C871.185 455.522 872.562 456.652 873.531 458.102C874.5 459.552 875.016 461.256 875.016 462.999C875.005 465.331 874.071 467.563 872.42 469.209C870.768 470.855 868.533 471.781 866.201 471.784V471.814Z" fill="#FF8A50"/>
<path d="M569.386 338.159C582.569 356 589.677 377.6 589.665 399.782C589.665 402.095 589.59 404.34 589.441 406.577C589.558 408.789 589.331 411.005 588.767 413.147C588.759 413.501 588.709 413.853 588.617 414.195H588.543L587.869 416.215C578.313 440.632 528.491 443.903 476.738 423.609C424.985 403.314 390.683 367.141 400.254 342.717C401.901 338.581 404.669 334.987 408.246 332.338L407.348 331.889C420.434 316.738 437.618 305.689 456.833 300.071C409.847 294.69 372.656 304.852 363.018 329.494C356.224 346.705 364.215 367.89 382.661 388.655C403.053 411.568 436.262 433.913 476.671 449.732C507.067 461.607 536.939 468.103 562.861 469.3C602.745 471.171 633.202 460.71 641.807 438.754C653.271 409.488 622.344 368.713 569.386 338.159Z" fill="#FFE76E"/>
<path d="M431.96 482.238C432.627 482.503 433.219 482.928 433.682 483.477C434.145 484.026 434.465 484.681 434.613 485.383C434.762 486.086 434.733 486.814 434.531 487.503C434.33 488.192 433.96 488.821 433.456 489.332C426.225 485.099 419.532 480.009 413.521 474.172C420.009 477.157 426.205 479.851 431.96 482.238Z" fill="#F94C43"/>
<path d="M901.23 352.505C898.468 348.097 895.632 343.689 892.721 339.432C838.941 258.764 743.337 196.4 641.538 156.74C642.331 158.32 642.63 160.103 642.396 161.855C642.162 163.608 641.406 165.249 640.225 166.565C639.045 167.882 637.495 168.812 635.779 169.235C634.062 169.658 632.258 169.554 630.601 168.936C628.944 168.319 627.512 167.217 626.49 165.773C625.469 164.33 624.906 162.613 624.875 160.845C624.844 159.077 625.346 157.341 626.316 155.863C627.286 154.384 628.679 153.232 630.313 152.557C572.057 130.856 512.305 116.556 457.402 110.435C382.437 102.144 284.356 97.437 205.036 133.887C146.331 160.826 112.717 193.003 88.8912 239.57C81.5728 253.84 60.3658 249.358 59.6175 233.299C57.2229 184.45 72.2414 140.831 137.292 96.7635C139.454 95.2778 141.284 93.36 142.668 91.1311C144.051 88.9022 144.958 86.4107 145.33 83.8139C145.702 81.2171 145.531 78.5713 144.829 76.0437C144.127 73.516 142.908 71.1614 141.25 69.1286C139.444 66.8806 137.16 65.0638 134.563 63.8107C131.966 62.5576 129.122 61.8997 126.239 61.8849C122.613 61.8842 119.063 62.923 116.01 64.8782C87.7912 82.9498 32.5962 130.377 15.3402 169.065C-0.568764 204.692 0.748255 226.797 0.748255 253.167C0.703356 332.038 47.0834 407.475 107.21 458.562C217.211 552.1 373.18 597.335 459.662 612.197C523.597 623.174 588.947 626.467 651.535 609.361C695.378 597.335 741.092 576.121 766.931 538.855C766.126 538.05 765.488 537.095 765.053 536.043C764.617 534.992 764.394 533.865 764.394 532.726C764.398 530.39 765.328 528.15 766.981 526.498C768.633 524.845 770.873 523.915 773.209 523.911C774.019 523.921 774.823 524.047 775.596 524.286C777.181 521.177 778.603 517.987 779.854 514.73C822.126 406.128 701.357 330.168 694.854 326.157C694.748 326.127 694.649 326.076 694.562 326.007V325.932C674.695 314.356 624.499 288.442 550.409 272.802C544.213 271.53 541.519 280.42 547.498 282.583C609.495 305.451 693.148 350.634 725.857 434.137C756.328 511.811 696.725 551.397 637.796 571.264C584.389 589.268 527.256 592.404 471.762 583.237C387.203 569.274 209.526 505.638 146.713 398.458C77.7714 280.974 134.313 201.055 168.144 180.289C172.234 177.801 177.077 176.855 181.803 177.622C186.528 178.389 190.824 180.818 193.916 184.472C196.929 188.045 198.571 192.573 198.548 197.246C198.568 202.014 196.889 206.632 193.811 210.274C172.859 235.29 135.443 295.865 190.152 365.173C189.852 364.44 189.699 363.654 189.703 362.861C189.713 361.599 190.056 360.361 190.698 359.274C191.339 358.187 192.257 357.289 193.357 356.67C194.457 356.051 195.702 355.733 196.964 355.75C198.226 355.766 199.462 356.115 200.546 356.762C190.296 342.475 183.263 326.136 179.93 308.871C169.177 252.329 199.132 224.993 221.237 212.818C222.422 212.127 223.81 211.865 225.166 212.075C226.522 212.285 227.765 212.954 228.687 213.971C229.608 214.988 230.152 216.291 230.228 217.661C230.303 219.032 229.905 220.386 229.101 221.499C179.661 295.065 227.313 362.135 266 399.483C271.149 404.489 264.803 412.623 258.682 408.889C240.229 397.762 219.545 382.003 203.711 361.088C203.919 361.663 204.018 362.272 204.003 362.884C204.005 364.142 203.674 365.379 203.045 366.47C202.416 367.56 201.511 368.466 200.42 369.095C199.33 369.724 198.093 370.054 196.834 370.053C195.575 370.052 194.339 369.718 193.25 369.087C208.216 387.009 229.401 405.455 258.607 423.983C258.607 423.983 301.702 452.067 366.977 473.872C367.368 472.348 368.258 470.999 369.503 470.038C370.749 469.077 372.28 468.559 373.854 468.567C375.756 468.569 377.579 469.326 378.923 470.671C380.267 472.017 381.022 473.841 381.022 475.743C381.044 476.593 380.864 477.437 380.499 478.205C396.563 483.156 412.867 487.295 429.348 490.604C430.083 490.784 430.852 490.76 431.574 490.536C432.297 490.312 432.944 489.896 433.449 489.332C426.218 485.099 419.525 480.009 413.514 474.172C347.857 443.925 252.029 383.05 253.975 285.733C256.968 137.995 503.513 182.362 503.513 182.362C503.513 182.362 708.548 216.193 846.708 389.022C873.969 423.085 885.545 454.005 886.742 481.864C918.037 554.54 849.028 648.871 817.651 686.212C814.859 689.527 813.071 693.572 812.499 697.87C811.927 702.167 812.595 706.538 814.424 710.469C816.252 714.4 819.166 717.727 822.821 720.058C826.477 722.389 830.722 723.627 835.057 723.627C838.077 723.643 841.069 723.049 843.854 721.882C846.639 720.714 849.159 718.997 851.265 716.832C897.496 669.861 1015.5 535.488 901.23 352.505ZM703.901 381.636C702.483 381.636 701.097 381.216 699.919 380.428C698.74 379.64 697.821 378.521 697.278 377.211C696.736 375.901 696.594 374.459 696.87 373.069C697.147 371.678 697.83 370.401 698.832 369.398C699.835 368.396 701.112 367.713 702.503 367.436C703.893 367.16 705.335 367.302 706.645 367.844C707.955 368.387 709.074 369.306 709.862 370.485C710.65 371.663 711.07 373.049 711.07 374.467C711.07 376.369 710.315 378.192 708.97 379.536C707.626 380.881 705.803 381.636 703.901 381.636ZM83.234 392.015L82.8599 392.24C79.8387 393.982 76.3088 394.628 72.8664 394.069C69.4239 393.51 66.2799 391.78 63.9651 389.172C48.9541 372.148 19.8151 330.467 20.2716 263.097C20.2754 260.331 20.8893 257.6 22.0696 255.098C23.25 252.597 24.9676 250.386 27.1001 248.625C29.2326 246.863 31.7274 245.594 34.4068 244.907C37.0861 244.22 39.884 244.133 42.601 244.651L43.05 244.726C47.3934 245.506 51.3182 247.805 54.1239 251.211C56.9297 254.617 58.4338 258.909 58.3678 263.321C58.2181 276.694 59.0413 297.235 64.1223 318.591C65.027 319.03 65.8269 319.657 66.468 320.432C67.1091 321.206 67.5763 322.109 67.8382 323.08C68.1 324.05 68.1502 325.066 67.9855 326.058C67.8208 327.049 67.445 327.994 66.8835 328.828V328.903C71.291 343.39 77.7863 357.728 87.4994 369.977C88.8183 371.65 89.7612 373.588 90.264 375.658C90.7667 377.728 90.8174 379.882 90.4126 381.973C90.0078 384.064 89.1571 386.044 87.9183 387.777C86.6795 389.51 85.0818 390.955 83.234 392.015ZM116.736 417.181C120.139 417.173 123.469 418.175 126.303 420.06C129.137 421.945 131.349 424.627 132.659 427.769C133.969 430.911 134.317 434.37 133.661 437.71C133.005 441.05 131.373 444.12 128.972 446.533C126.571 448.945 123.509 450.591 120.172 451.264C116.835 451.936 113.374 451.604 110.226 450.309C107.079 449.014 104.385 446.815 102.487 443.99C100.589 441.165 99.5709 437.84 99.562 434.437C99.5561 432.176 99.9957 429.936 100.856 427.845C101.716 425.754 102.979 423.853 104.574 422.251C106.169 420.648 108.064 419.376 110.15 418.506C112.237 417.636 114.475 417.186 116.736 417.181ZM241.127 325.76C239.713 325.767 238.329 325.355 237.151 324.574C235.972 323.793 235.052 322.68 234.508 321.375C233.964 320.07 233.819 318.634 234.093 317.247C234.367 315.86 235.047 314.586 236.047 313.586C237.046 312.587 238.32 311.907 239.707 311.633C241.094 311.359 242.531 311.503 243.836 312.047C245.14 312.592 246.253 313.512 247.034 314.69C247.815 315.869 248.228 317.253 248.22 318.666C248.217 320.546 247.468 322.348 246.138 323.678C244.809 325.007 243.007 325.756 241.127 325.76ZM525.917 140.532C525.444 140.534 524.976 140.442 524.539 140.263C524.102 140.083 523.704 139.819 523.37 139.485C523.035 139.151 522.77 138.754 522.59 138.317C522.409 137.881 522.316 137.413 522.317 136.94C522.331 135.994 522.713 135.09 523.382 134.42C524.052 133.751 524.955 133.369 525.902 133.356C526.374 133.354 526.841 133.445 527.278 133.624C527.715 133.803 528.112 134.067 528.446 134.4C528.781 134.733 529.046 135.129 529.227 135.565C529.408 136.001 529.501 136.468 529.501 136.94C529.509 137.413 529.422 137.883 529.245 138.322C529.068 138.761 528.804 139.16 528.47 139.495C528.135 139.83 527.737 140.095 527.299 140.273C526.86 140.451 526.39 140.539 525.917 140.532ZM881.362 413.072C879.945 413.071 878.559 412.649 877.381 411.861C876.203 411.072 875.286 409.952 874.744 408.642C874.203 407.332 874.062 405.891 874.339 404.501C874.617 403.11 875.3 401.834 876.303 400.832C877.306 399.83 878.583 399.148 879.974 398.872C881.364 398.596 882.805 398.738 884.115 399.281C885.424 399.824 886.543 400.743 887.331 401.922C888.118 403.1 888.538 404.486 888.538 405.904C888.537 406.845 888.351 407.777 887.99 408.646C887.629 409.516 887.1 410.306 886.433 410.971C885.767 411.636 884.976 412.163 884.106 412.522C883.236 412.881 882.304 413.066 881.362 413.065V413.072Z" fill="#F94C43"/>
<path d="M755.587 732.3C755.178 729.936 754.28 727.683 752.95 725.687C751.62 723.69 749.887 721.994 747.863 720.707C745.838 719.419 743.567 718.569 741.195 718.211C738.823 717.854 736.402 717.995 734.088 718.628C708.167 725.797 656.406 736.782 591.162 732.898C587.75 732.682 584.352 733.486 581.4 735.208C578.447 736.931 576.074 739.493 574.584 742.569C573.093 745.645 572.552 749.095 573.03 752.48C573.507 755.864 574.982 759.03 577.266 761.573C580.11 764.741 584.014 766.761 588.243 767.253C618.175 770.388 686.391 774.347 744.796 753.731C748.639 752.335 751.869 749.633 753.921 746.097C755.972 742.561 756.716 738.416 756.021 734.387L755.587 732.3Z" fill="#F94C43"/>
<path d="M218.049 33.9507C219.324 36.8905 221.546 39.319 224.361 40.8488C227.177 42.3787 230.424 42.9218 233.584 42.3916C280.188 34.25 366.154 35.5221 398.57 36.3452H399.019C402.493 36.3466 405.851 35.0925 408.473 32.8139C411.095 30.5354 412.806 27.3859 413.289 23.9458C413.549 22.0236 413.423 20.0689 412.919 18.1958C412.415 16.3227 411.543 14.5687 410.354 13.0362C409.165 11.5037 407.683 10.2234 405.994 9.26994C404.304 8.31652 402.442 7.70908 400.516 7.48308C324.106 -2.08027 258.338 6.51029 227.829 11.8906C225.66 12.275 223.608 13.1509 221.83 14.4512C220.052 15.7515 218.596 17.4417 217.572 19.3921C216.549 21.3425 215.985 23.5014 215.925 25.7033C215.865 27.9052 216.31 30.0916 217.226 32.0949L218.049 33.9507Z" fill="#F94C43"/>
<path d="M381.022 475.743C381.044 476.593 380.864 477.437 380.499 478.205C375.867 476.783 371.384 475.369 366.977 473.872C367.368 472.348 368.258 470.999 369.503 470.038C370.749 469.077 372.28 468.559 373.854 468.567C375.756 468.569 377.579 469.326 378.923 470.671C380.267 472.017 381.022 473.841 381.022 475.743Z" fill="#E0FF78"/>
<path d="M380.498 478.205C380.016 479.582 379.117 480.774 377.926 481.618C376.736 482.461 375.312 482.913 373.854 482.912C371.952 482.912 370.127 482.157 368.782 480.813C367.436 479.468 366.679 477.645 366.677 475.743C366.661 475.106 366.762 474.472 366.977 473.872C371.384 475.369 375.866 476.783 380.498 478.205Z" fill="#E0FF78"/>
<path d="M266 399.483C271.149 404.489 264.803 412.623 258.682 408.889C240.229 397.762 219.545 382.003 203.711 361.095C203.502 360.2 203.117 359.355 202.577 358.611C202.037 357.867 201.354 357.239 200.568 356.762C190.318 342.476 183.287 326.137 179.96 308.871C169.199 252.329 199.154 224.993 221.259 212.818C222.445 212.139 223.827 211.886 225.176 212.101C226.525 212.316 227.76 212.986 228.676 214C229.592 215.014 230.134 216.31 230.211 217.674C230.288 219.038 229.897 220.388 229.101 221.498C179.661 295.064 227.313 362.135 266 399.483Z" fill="#FF8A50"/>
<path d="M241.127 311.497C242.534 311.505 243.907 311.928 245.074 312.715C246.241 313.501 247.15 314.615 247.685 315.917C248.22 317.218 248.358 318.649 248.081 320.029C247.805 321.409 247.127 322.676 246.132 323.671C245.137 324.666 243.869 325.345 242.489 325.621C241.11 325.897 239.679 325.759 238.377 325.224C237.076 324.689 235.962 323.781 235.175 322.614C234.389 321.447 233.965 320.073 233.958 318.666C233.95 317.722 234.13 316.787 234.487 315.913C234.845 315.04 235.372 314.247 236.04 313.579C236.707 312.912 237.5 312.384 238.374 312.027C239.247 311.669 240.183 311.489 241.127 311.497Z" fill="#E0FF78"/>
<path d="M232.835 424.873C234.356 426.168 235.366 427.963 235.681 429.936C235.997 431.909 235.598 433.929 234.556 435.634L233.284 437.647C232.646 438.714 231.778 439.625 230.744 440.315C229.71 441.005 228.535 441.456 227.305 441.635C226.074 441.814 224.82 441.717 223.631 441.351C222.443 440.984 221.352 440.358 220.436 439.518L169.274 392.689C168.344 391.835 167.616 390.784 167.144 389.612C166.672 388.441 166.469 387.179 166.547 385.918C166.626 384.658 166.986 383.431 167.6 382.328C168.215 381.224 169.068 380.272 170.097 379.541C171.53 378.567 173.222 378.046 174.954 378.044C176.953 378.043 178.887 378.76 180.402 380.065L232.835 424.873Z" fill="#FFC166"/>
<path d="M203.711 361.095C203.92 361.668 204.019 362.274 204.003 362.883C204.006 364.143 203.676 365.38 203.047 366.471C202.418 367.562 201.512 368.467 200.421 369.096C199.33 369.724 198.092 370.054 196.833 370.051C195.574 370.048 194.338 369.713 193.25 369.079C192.128 367.74 191.087 366.468 190.115 365.196C189.814 364.462 189.662 363.676 189.666 362.883C189.668 361.614 190.007 360.367 190.649 359.271C191.291 358.176 192.213 357.27 193.319 356.648C194.426 356.025 195.678 355.707 196.948 355.728C198.218 355.748 199.46 356.105 200.546 356.762C201.541 358.251 202.589 359.673 203.711 361.095Z" fill="#E0FF78"/>
<path d="M200.546 356.762C201.332 357.239 202.015 357.867 202.555 358.611C203.094 359.356 203.48 360.2 203.689 361.095C202.589 359.673 201.541 358.251 200.546 356.762Z" fill="#E0FF78"/>
<path d="M190.115 365.173C191.087 366.445 192.127 367.718 193.25 369.057C191.746 368.212 190.624 366.822 190.115 365.173Z" fill="#E0FF78"/>
<path d="M116.736 417.181C120.139 417.173 123.469 418.175 126.303 420.06C129.137 421.945 131.349 424.627 132.659 427.769C133.969 430.911 134.317 434.37 133.661 437.71C133.005 441.05 131.373 444.12 128.972 446.532C126.571 448.945 123.509 450.591 120.172 451.264C116.835 451.936 113.374 451.604 110.226 450.309C107.079 449.014 104.385 446.815 102.487 443.99C100.589 441.165 99.571 437.84 99.5621 434.437C99.5562 432.176 99.9957 429.936 100.856 427.845C101.716 425.754 102.979 423.853 104.574 422.251C106.169 420.648 108.064 419.376 110.15 418.506C112.237 417.636 114.475 417.185 116.736 417.181Z" fill="#FFC166"/>
<path d="M87.4919 369.977C88.8111 371.65 89.7545 373.587 90.2578 375.656C90.7611 377.726 90.8124 379.88 90.4084 381.971C90.0043 384.062 89.1543 386.042 87.9163 387.775C86.6782 389.508 85.0812 390.955 83.234 392.015L82.8598 392.24C79.8386 393.982 76.3088 394.628 72.8663 394.069C69.4239 393.51 66.2799 391.78 63.9651 389.171C48.9541 372.147 19.8151 330.467 20.2715 263.097C20.2754 260.331 20.8893 257.6 22.0696 255.098C23.2499 252.597 24.9676 250.386 27.1001 248.625C29.2326 246.863 31.7274 245.594 34.4068 244.907C37.0861 244.22 39.884 244.133 42.601 244.651L43.05 244.726C47.3934 245.506 51.3182 247.804 54.1239 251.211C56.9297 254.617 58.4338 258.909 58.3678 263.321C58.2181 276.694 59.0413 297.235 64.1223 318.591C63.1392 318.049 62.0346 317.766 60.912 317.768C59.0597 317.828 57.3033 318.606 56.0142 319.938C54.725 321.269 54.0043 323.05 54.0043 324.903C54.0043 326.757 54.725 328.537 56.0142 329.869C57.3033 331.2 59.0597 331.978 60.912 332.038C62.0871 332.028 63.243 331.739 64.284 331.194C65.325 330.649 66.2212 329.863 66.8985 328.903C71.2836 343.39 77.7788 357.728 87.4919 369.977Z" fill="#FF8A50"/>
<path d="M68.0957 324.944C68.0884 326.329 67.6718 327.68 66.8985 328.828C65.8508 325.393 64.9603 321.951 64.1372 318.591C65.3315 319.166 66.3378 320.068 67.0387 321.193C67.7396 322.318 68.1062 323.619 68.0957 324.944Z" fill="#E0FF78"/>
<path d="M66.876 328.828V328.903C66.1988 329.863 65.3025 330.649 64.2615 331.194C63.2205 331.739 62.0647 332.029 60.8895 332.038C59.0372 331.978 57.2808 331.2 55.9917 329.869C54.7026 328.537 53.9818 326.757 53.9818 324.903C53.9818 323.05 54.7026 321.269 55.9917 319.938C57.2808 318.606 59.0372 317.828 60.8895 317.768C62.0121 317.766 63.1168 318.049 64.0998 318.591C64.9379 321.951 65.8508 325.393 66.876 328.828Z" fill="#E0FF78"/>
</svg>
