<svg width="413" height="183" viewBox="0 0 413 183" fill="none" xmlns="http://www.w3.org/2000/svg">
<path d="M395.326 35.767V147.233C395.32 153.009 393.077 158.557 389.069 162.715C385.06 166.873 379.597 169.317 373.825 169.534V168.609C373.825 168.609 387.645 167.442 387.645 136.824V46.1764C387.645 46.1764 389.042 14.4301 374.14 13.4528C379.857 13.7518 385.242 16.2329 389.183 20.3846C393.125 24.5363 395.324 30.0421 395.326 35.767Z" fill="#F792FF"/>
<path d="M38.817 168.609C23.7901 167.77 25.1937 135.879 25.1937 135.879V45.2581C25.1937 16.2207 37.6561 13.6496 38.9154 13.4594C39.1319 13.4594 39.3418 13.4594 39.5714 13.4594H372.992C373.182 13.4594 373.372 13.4594 373.569 13.4594H374.107C389.042 14.4301 387.645 46.1763 387.645 46.1763V136.824C387.645 167.442 373.825 168.629 373.825 168.629V169.554H372.992H39.5648C39.3155 169.554 39.0663 169.554 38.8105 169.554L38.817 168.609Z" fill="#F764FF"/>
<path d="M38.8171 168.609V169.554C33.0312 169.358 27.5472 166.924 23.5215 162.763C19.4957 158.603 17.2427 153.042 17.2375 147.253V35.767C17.2436 29.9602 19.5111 24.384 23.5592 20.2208C27.6073 16.0576 33.1177 13.6348 38.9221 13.4659C37.6102 13.6562 25.2003 16.2273 25.2003 45.2647V135.879C25.2003 135.879 23.7901 167.77 38.8171 168.609Z" fill="#E239E2"/>
<path d="M374.14 13.4528C379.855 13.7517 385.237 16.231 389.179 20.3799C393.12 24.5288 395.32 30.0313 395.326 35.7539V147.233C395.32 153.009 393.077 158.557 389.069 162.715C385.06 166.873 379.597 169.317 373.825 169.534H372.992H39.5648C39.3156 169.534 39.0663 169.534 38.8105 169.534C33.0246 169.339 27.5406 166.904 23.5149 162.744C19.4891 158.583 17.2362 153.022 17.231 147.233V35.767C17.237 29.9602 19.5045 24.384 23.5526 20.2208C27.6007 16.0576 33.1111 13.6348 38.9155 13.4659" stroke="black" stroke-width="5.31" stroke-linecap="round" stroke-linejoin="round"/>
<path d="M38.9286 13.4397C39.145 13.4397 39.3549 13.4397 39.5845 13.4397H372.992C373.182 13.4397 373.373 13.4397 373.569 13.4397H374.107" stroke="black" stroke-width="5.31" stroke-linecap="round" stroke-linejoin="round"/>
<path d="M80.8874 69.2777C82.1459 69.2946 83.3991 69.1108 84.5998 68.7333C85.6179 68.4062 86.5673 67.8948 87.4006 67.2247C88.1537 66.6155 88.7686 65.8531 89.2044 64.988C89.6278 64.1262 89.852 63.1802 89.8603 62.22C89.8733 62.1359 89.8651 62.0499 89.8365 61.9697C89.8079 61.8895 89.7597 61.8177 89.6963 61.7609C89.6329 61.6997 89.5578 61.6519 89.4756 61.6203C89.3933 61.5888 89.3055 61.5741 89.2175 61.5772H86.3249C86.1321 61.5695 85.9418 61.6223 85.7805 61.7281C85.6123 61.8768 85.5049 62.0823 85.4788 62.3053C85.2964 63.399 84.6938 64.3782 83.7996 65.0339C82.9055 65.5548 81.8822 65.8118 80.848 65.7751C79.6485 65.8405 78.4711 65.4331 77.5684 64.6404C76.7617 63.8729 76.3222 62.6267 76.2566 60.8754C76.191 59.1241 76.1976 57.4253 76.2566 55.7658C76.3157 54.1064 76.7551 52.7618 77.5684 52.0009C78.4701 51.2058 79.6476 50.796 80.848 50.8596C81.8816 50.8205 82.905 51.0753 83.7996 51.5942C84.2457 51.9172 84.6237 52.3251 84.9118 52.7944C85.2 53.2638 85.3926 53.7854 85.4788 54.3294C85.5112 54.5466 85.6178 54.7459 85.7805 54.8935C85.9367 55.0116 86.1292 55.0719 86.3249 55.064H89.2044C89.3812 55.0641 89.5518 54.9987 89.6832 54.8804C89.7459 54.8268 89.7948 54.7589 89.8257 54.6824C89.8565 54.6058 89.8684 54.523 89.8603 54.4409C89.8527 53.4785 89.6286 52.5302 89.2044 51.6664C88.7688 50.803 88.1565 50.041 87.4072 49.4297C86.5805 48.7439 85.6328 48.2188 84.613 47.8818C83.4134 47.4988 82.1596 47.3127 80.9005 47.3308C79.2556 47.2851 77.6227 47.6243 76.132 48.3212C74.8662 48.9475 73.8175 49.9392 73.1214 51.1679C72.3891 52.5268 71.9869 54.039 71.9473 55.5822C71.9473 56.4546 71.9473 57.3728 71.9473 58.3239C71.9473 59.275 71.9473 60.167 71.9473 61C71.9817 62.5477 72.377 64.066 73.1017 65.434C73.7927 66.6596 74.8405 67.6457 76.1058 68.261C77.5974 68.9716 79.2357 69.3199 80.8874 69.2777Z" fill="#FFFAE3"/>
<path d="M110.653 58.3764C110.653 57.5019 110.633 56.6273 110.594 55.7528C110.594 54.1305 110.176 52.5357 109.38 51.122C108.643 49.8926 107.556 48.9106 106.258 48.3016C104.817 47.6499 103.248 47.3273 101.667 47.3571C100.085 47.3217 98.5151 47.6446 97.0754 48.3016C95.7911 48.9088 94.7159 49.8835 93.986 51.1023C93.1919 52.5231 92.7784 54.1251 92.7857 55.7528C92.7857 56.6448 92.7529 57.5172 92.7529 58.3764C92.7529 59.2357 92.7529 60.0883 92.7857 61.0001C92.7882 62.6311 93.1962 64.2359 93.9729 65.6702C94.6733 66.8882 95.7376 67.8561 97.0164 68.4381C98.4857 69.0701 100.074 69.3767 101.673 69.3367C103.279 69.3758 104.874 69.0694 106.35 68.4381C107.647 67.8397 108.718 66.8422 109.407 65.5915C110.189 64.1594 110.597 62.5531 110.594 60.9214C110.633 60.0621 110.653 59.2029 110.653 58.3764ZM106.258 60.7836C106.193 62.548 105.747 63.8271 104.946 64.6076C104.047 65.3619 102.91 65.7752 101.736 65.7752C100.562 65.7752 99.4248 65.3619 98.525 64.6076C97.692 63.8271 97.2459 62.548 97.2131 60.7836C97.2131 59.8916 97.2131 59.0651 97.2131 58.3043C97.2131 57.5434 97.2131 56.7301 97.2131 55.8511C97.2122 54.8563 97.4364 53.8741 97.8691 52.9782C98.2197 52.2855 98.7797 51.7209 99.4695 51.3647C100.189 51.0328 100.973 50.861 101.765 50.861C102.558 50.861 103.341 51.0328 104.061 51.3647C104.729 51.7307 105.267 52.2943 105.602 52.9782C106.032 53.8751 106.256 54.8566 106.258 55.8511C106.298 56.7301 106.317 57.5434 106.317 58.3043C106.317 59.0651 106.258 59.8916 106.258 60.7836Z" fill="#FFFAE3"/>
<path d="M117.31 68.4447C118.813 69.0444 120.423 69.328 122.039 69.2777C123.587 69.3107 125.126 69.0526 126.578 68.5168C127.772 68.0873 128.821 67.3331 129.609 66.3392C130.342 65.351 130.723 64.1455 130.691 62.9153C130.732 61.8732 130.465 60.8421 129.924 59.9506C129.327 59.0796 128.494 58.397 127.523 57.9828C126.162 57.3995 124.744 56.9598 123.292 56.671C122.072 56.3431 121.095 56.0151 120.354 55.7593C119.741 55.5614 119.182 55.2247 118.72 54.7754C118.527 54.5317 118.385 54.2506 118.305 53.9498C118.225 53.6489 118.208 53.3347 118.254 53.0269C118.301 52.7191 118.411 52.4242 118.577 52.1608C118.743 51.8973 118.962 51.671 119.219 51.4959C120.023 51.06 120.929 50.8492 121.843 50.8858C122.752 50.8403 123.655 51.0688 124.434 51.5418C124.73 51.7139 124.988 51.9455 125.192 52.222C125.395 52.4986 125.539 52.8141 125.614 53.1488C125.69 53.3434 125.832 53.5057 126.014 53.6079C126.164 53.6866 126.33 53.7293 126.5 53.7325H129.333C129.422 53.7364 129.511 53.7202 129.593 53.685C129.674 53.6498 129.747 53.5965 129.805 53.5292C129.915 53.4089 129.976 53.2523 129.976 53.0897C129.935 52.4127 129.742 51.7537 129.412 51.1613C129.024 50.4538 128.513 49.8209 127.903 49.292C127.162 48.6678 126.31 48.1893 125.391 47.8818C124.262 47.5076 123.078 47.3258 121.889 47.3439C120.434 47.3088 118.988 47.5792 117.645 48.1376C116.549 48.5933 115.601 49.3423 114.903 50.3021C114.311 51.2108 113.98 52.2651 113.948 53.3492C113.915 54.4334 114.182 55.5056 114.719 56.448C115.301 57.2996 116.101 57.9792 117.035 58.4157C118.253 58.9971 119.534 59.4372 120.852 59.7276C121.929 59.9775 122.991 60.2862 124.033 60.6524C124.688 60.8675 125.294 61.2084 125.817 61.656C126.01 61.8355 126.161 62.0545 126.26 62.2979C126.36 62.5413 126.406 62.8034 126.395 63.0662C126.4 63.4597 126.303 63.8479 126.113 64.1928C125.923 64.5377 125.648 64.8275 125.312 65.0339C124.313 65.5891 123.173 65.842 122.033 65.762C121.262 65.7867 120.494 65.6643 119.77 65.4012C119.234 65.2011 118.75 64.8827 118.353 64.4698C118.036 64.1475 117.796 63.7572 117.651 63.3285C117.559 63.1727 117.441 63.0331 117.304 62.9153C117.13 62.7927 116.919 62.7347 116.707 62.7513H113.998C113.913 62.7486 113.828 62.7635 113.749 62.7951C113.67 62.8267 113.598 62.8743 113.539 62.935C113.42 63.0582 113.354 63.223 113.355 63.3941C113.413 64.4256 113.781 65.4155 114.411 66.2342C115.163 67.2169 116.164 67.9802 117.31 68.4447Z" fill="#FFFAE3"/>
<path d="M150.08 55.0968V68.2151C150.074 68.407 150.145 68.5932 150.277 68.7332C150.343 68.8072 150.425 68.8651 150.517 68.9026C150.609 68.9401 150.709 68.9562 150.808 68.9497H153.366C153.468 68.953 153.569 68.9355 153.664 68.8983C153.758 68.8611 153.845 68.8049 153.917 68.7332C153.987 68.6665 154.043 68.5862 154.082 68.4971C154.12 68.408 154.14 68.3121 154.14 68.2151V48.4262C154.146 48.3247 154.13 48.2233 154.094 48.1284C154.057 48.0335 154.002 47.9473 153.93 47.8755C153.858 47.8037 153.772 47.7478 153.677 47.7116C153.582 47.6754 153.48 47.6596 153.379 47.6653H150.991C150.872 47.6513 150.751 47.6647 150.637 47.7045C150.523 47.7442 150.42 47.8093 150.336 47.8949C150.229 47.9981 150.136 48.115 150.06 48.2425L144.124 59.2028L138.221 48.2425C138.145 48.115 138.052 47.9981 137.945 47.8949C137.86 47.8105 137.757 47.7462 137.643 47.7065C137.53 47.6668 137.409 47.6527 137.289 47.6653H134.882C134.781 47.6606 134.68 47.6771 134.586 47.7137C134.491 47.7503 134.405 47.8062 134.334 47.8778C134.262 47.9494 134.206 48.0351 134.17 48.1295C134.133 48.224 134.117 48.325 134.121 48.4262V68.2151C134.119 68.3118 134.138 68.4078 134.175 68.497C134.212 68.5862 134.268 68.6667 134.338 68.7332C134.408 68.8054 134.493 68.8619 134.587 68.8992C134.681 68.9365 134.781 68.9537 134.882 68.9497H137.44C137.537 68.9512 137.633 68.9328 137.722 68.8956C137.811 68.8583 137.892 68.8031 137.958 68.7332C138.026 68.6654 138.08 68.5846 138.116 68.4955C138.152 68.4065 138.17 68.3111 138.168 68.2151V55.0968L142.432 63.2236C142.531 63.4014 142.66 63.5611 142.812 63.6958C143 63.8384 143.233 63.9083 143.468 63.8926H144.714C144.949 63.9059 145.182 63.8363 145.37 63.6958C145.531 63.5651 145.664 63.4048 145.764 63.2236L150.08 55.0968Z" fill="#FFFAE3"/>
<path d="M159.61 68.976H162.47C162.569 68.9825 162.669 68.9664 162.761 68.9289C162.853 68.8914 162.935 68.8335 163.001 68.7595C163.133 68.6195 163.203 68.4332 163.198 68.2413V48.3934C163.202 48.2017 163.131 48.016 163.001 47.8752C162.932 47.8049 162.849 47.7499 162.758 47.7138C162.666 47.6776 162.568 47.6611 162.47 47.6653H159.61C159.514 47.6637 159.419 47.6815 159.33 47.7175C159.241 47.7536 159.16 47.8072 159.092 47.8752C159.022 47.942 158.967 48.0225 158.93 48.1117C158.892 48.2009 158.874 48.2968 158.876 48.3934V68.2151C158.877 68.4094 158.955 68.5953 159.093 68.7327C159.23 68.8701 159.416 68.948 159.61 68.9497V68.976Z" fill="#FFFAE3"/>
<path d="M172.912 52.0009C173.814 51.2058 174.991 50.796 176.192 50.8596C177.225 50.8205 178.249 51.0752 179.143 51.5942C179.589 51.9172 179.967 52.3251 180.256 52.7944C180.544 53.2638 180.736 53.7854 180.822 54.3294C180.857 54.5458 180.964 54.7443 181.124 54.8935C181.283 55.0116 181.477 55.0718 181.675 55.064H184.568C184.742 55.0625 184.91 54.9972 185.04 54.8803C185.102 54.8241 185.15 54.7535 185.179 54.6745C185.207 54.5956 185.216 54.5109 185.204 54.4278C185.196 53.4654 184.972 52.5171 184.548 51.6532C184.112 50.7899 183.5 50.0278 182.751 49.4166C181.92 48.7425 180.97 48.2307 179.95 47.908C178.751 47.5244 177.497 47.3383 176.238 47.357C174.595 47.3097 172.964 47.649 171.476 48.3474C170.207 48.9717 169.155 49.9637 168.458 51.1941C167.72 52.5519 167.309 54.0635 167.258 55.6084C167.258 56.4808 167.258 57.3991 167.258 58.3501C167.258 59.3012 167.258 60.1932 167.258 61.0263C167.295 62.5745 167.692 64.0928 168.419 65.4602C169.106 66.6869 170.152 67.6736 171.417 68.2872C172.914 68.9908 174.557 69.3301 176.211 69.2777C177.47 69.2952 178.723 69.1115 179.924 68.7332C180.943 68.4077 181.892 67.8962 182.725 67.2246C183.475 66.6148 184.088 65.8524 184.522 64.988C184.945 64.1262 185.169 63.1802 185.178 62.22C185.191 62.1359 185.183 62.0498 185.154 61.9697C185.125 61.8895 185.077 61.8177 185.014 61.7609C184.951 61.7005 184.877 61.6531 184.796 61.6216C184.715 61.5901 184.628 61.575 184.542 61.5772H181.649C181.544 61.5654 181.439 61.5752 181.338 61.606C181.238 61.6368 181.145 61.6879 181.065 61.7562C180.985 61.8245 180.92 61.9084 180.873 62.0029C180.827 62.0973 180.801 62.2003 180.796 62.3053C180.614 63.399 180.011 64.3782 179.117 65.0339C178.223 65.5548 177.2 65.8118 176.165 65.7751C174.966 65.8404 173.789 65.4331 172.886 64.6403C172.073 63.8729 171.64 62.6267 171.574 60.8754C171.508 59.1241 171.515 57.4253 171.574 55.7658C171.633 54.1064 172.099 52.7617 172.912 52.0009Z" fill="#FFFAE3"/>
<path d="M196.197 65.4602C196.885 66.6856 197.931 67.6718 199.194 68.2872C200.693 68.9894 202.335 69.3287 203.989 69.2777C205.248 69.2953 206.501 69.1115 207.702 68.7333C208.722 68.4076 209.674 67.8961 210.509 67.2246C211.258 66.6147 211.868 65.8522 212.3 64.988C212.72 64.1251 212.944 63.1798 212.956 62.22C212.966 62.1355 212.955 62.0497 212.926 61.9699C212.896 61.8901 212.848 61.8185 212.785 61.7609C212.722 61.7005 212.648 61.6531 212.567 61.6216C212.486 61.5901 212.4 61.575 212.313 61.5772H209.42C209.225 61.5703 209.033 61.6229 208.869 61.7281C208.707 61.8823 208.605 62.0892 208.581 62.3119C208.401 63.4048 207.8 64.3841 206.908 65.0405C206.013 65.5601 204.99 65.8169 203.956 65.7816C202.757 65.847 201.58 65.4396 200.677 64.6469C199.864 63.8795 199.431 62.6332 199.365 60.882C199.299 59.1307 199.299 57.4318 199.365 55.7724C199.431 54.1129 199.857 52.7683 200.677 52.0074C201.578 51.2123 202.756 50.8026 203.956 50.8662C204.99 50.8289 206.013 51.0835 206.908 51.6008C207.352 51.9234 207.729 52.3304 208.016 52.7986C208.303 53.2668 208.495 53.787 208.581 54.3294C208.616 54.5458 208.722 54.7443 208.882 54.8935C209.042 55.0107 209.236 55.0707 209.433 55.064H212.326C212.413 55.0662 212.499 55.0511 212.58 55.0196C212.662 54.9881 212.736 54.9407 212.798 54.8803C212.86 54.8235 212.908 54.7529 212.937 54.6743C212.967 54.5957 212.978 54.5113 212.969 54.4278C212.958 53.4658 212.734 52.5182 212.313 51.6532C211.88 50.7902 211.269 50.0281 210.522 49.4166C209.689 48.7427 208.737 48.231 207.715 47.908C206.511 47.523 205.253 47.3369 203.989 47.357C202.346 47.3119 200.716 47.651 199.227 48.3474C197.96 48.9733 196.909 49.9649 196.21 51.1941C195.48 52.5536 195.08 54.0658 195.043 55.6084C195.043 56.4808 195.01 57.3991 195.01 58.3501C195.01 59.3012 195.01 60.1932 195.043 61.0263C195.073 62.5745 195.469 64.0937 196.197 65.4602Z" fill="#FFFAE3"/>
<path d="M229.406 68.7005C229.513 68.7976 229.638 68.8721 229.774 68.9195C229.911 68.9668 230.055 68.986 230.2 68.976H232.967C233.134 68.9736 233.294 68.908 233.413 68.7923C233.477 68.7343 233.528 68.6633 233.562 68.5841C233.596 68.5049 233.612 68.4193 233.61 68.3332C233.604 68.2163 233.573 68.1022 233.518 67.9987L229.078 60.2392C230.261 59.831 231.294 59.0769 232.043 58.0747C232.814 56.9819 233.203 55.6657 233.151 54.3294C233.151 52.143 232.441 50.4901 231.019 49.3707C229.603 48.236 227.661 47.6653 225.208 47.6653H217.337C217.241 47.6637 217.146 47.6815 217.057 47.7175C216.968 47.7536 216.887 47.8072 216.819 47.8752C216.677 48.0229 216.599 48.2211 216.602 48.4262V68.2151C216.602 68.3116 216.621 68.4071 216.658 68.4961C216.695 68.5851 216.75 68.6658 216.819 68.7333C216.885 68.8034 216.966 68.8589 217.055 68.8962C217.144 68.9334 217.24 68.9517 217.337 68.9497H220.105C220.205 68.9536 220.304 68.9364 220.397 68.8991C220.49 68.8618 220.574 68.8053 220.643 68.7333C220.774 68.5933 220.845 68.407 220.84 68.2151V60.941H225.07L229.006 68.1561C229.117 68.3528 229.251 68.5356 229.406 68.7005ZM227.884 56.6579C227.102 57.279 226.112 57.5791 225.116 57.4975H220.827V51.0433H225.116C226.123 50.959 227.122 51.2695 227.904 51.9091C228.211 52.2245 228.449 52.6 228.604 53.0121C228.758 53.4241 228.826 53.8637 228.802 54.3032C228.827 54.7386 228.758 55.1743 228.6 55.5806C228.441 55.9869 228.197 56.3544 227.884 56.6579Z" fill="#FFFAE3"/>
<path d="M237.815 68.976H240.675C240.774 68.9825 240.873 68.9664 240.965 68.9289C241.057 68.8914 241.14 68.8335 241.206 68.7595C241.337 68.6195 241.408 68.4332 241.403 68.2413V48.3934C241.407 48.2017 241.336 48.016 241.206 47.8752C241.137 47.8049 241.054 47.7499 240.963 47.7138C240.871 47.6776 240.773 47.6611 240.675 47.6653H237.815C237.719 47.6645 237.623 47.6826 237.534 47.7188C237.445 47.755 237.364 47.8085 237.296 47.8762C237.227 47.9439 237.173 48.0245 237.136 48.1132C237.099 48.202 237.08 48.2972 237.08 48.3934V68.2151C237.078 68.3118 237.097 68.4078 237.134 68.497C237.171 68.5862 237.227 68.6667 237.297 68.7333C237.359 68.8102 237.438 68.8721 237.528 68.9141C237.618 68.9561 237.716 68.9773 237.815 68.976Z" fill="#FFFAE3"/>
<path d="M245.24 51.4106H250.868V68.2151C250.866 68.3118 250.884 68.4078 250.921 68.497C250.958 68.5862 251.014 68.6667 251.084 68.7333C251.151 68.8031 251.231 68.8583 251.32 68.8956C251.41 68.9328 251.506 68.9513 251.602 68.9497H254.403C254.504 68.9529 254.604 68.9354 254.698 68.8981C254.791 68.8609 254.876 68.8048 254.947 68.7333C255.015 68.6656 255.068 68.5846 255.103 68.4954C255.138 68.4063 255.154 68.3108 255.151 68.2151V51.4106H260.752C260.853 51.4146 260.954 51.3974 261.047 51.3601C261.141 51.3228 261.226 51.2663 261.297 51.1941C261.367 51.1276 261.422 51.0471 261.459 50.9579C261.497 50.8687 261.515 50.7726 261.513 50.676V48.4262C261.518 48.325 261.501 48.224 261.465 48.1296C261.428 48.0352 261.372 47.9494 261.301 47.8778C261.229 47.8062 261.143 47.7503 261.049 47.7137C260.954 47.6771 260.853 47.6607 260.752 47.6653H245.24C245.144 47.6637 245.048 47.6815 244.959 47.7175C244.87 47.7536 244.789 47.8072 244.722 47.8752C244.651 47.9478 244.596 48.0342 244.56 48.1289C244.523 48.2237 244.507 48.3249 244.512 48.4262V50.676C244.511 50.7721 244.529 50.8675 244.565 50.9566C244.601 51.0457 244.655 51.1267 244.723 51.195C244.79 51.2633 244.871 51.3176 244.96 51.3546C245.048 51.3916 245.144 51.4106 245.24 51.4106Z" fill="#FFFAE3"/>
<path d="M269.286 68.2151C269.284 68.3118 269.302 68.4078 269.339 68.497C269.376 68.5862 269.432 68.6667 269.502 68.7333C269.569 68.8031 269.649 68.8583 269.739 68.8956C269.828 68.9328 269.924 68.9513 270.02 68.9497H272.821C272.923 68.9531 273.024 68.9356 273.119 68.8984C273.214 68.8611 273.3 68.805 273.372 68.7333C273.44 68.6654 273.494 68.5846 273.53 68.4956C273.566 68.4065 273.583 68.3112 273.582 68.2151V51.4106H279.183C279.284 51.4146 279.385 51.3974 279.479 51.3601C279.572 51.3228 279.657 51.2663 279.728 51.1941C279.798 51.1276 279.853 51.0471 279.891 50.9579C279.928 50.8687 279.946 50.7726 279.944 50.676V48.4262C279.949 48.325 279.932 48.224 279.896 48.1296C279.859 48.0352 279.803 47.9494 279.732 47.8778C279.66 47.8062 279.574 47.7503 279.48 47.7137C279.386 47.6771 279.285 47.6607 279.183 47.6653H263.678C263.581 47.6637 263.486 47.6815 263.397 47.7175C263.308 47.7536 263.227 47.8072 263.159 47.8752C263.089 47.9478 263.033 48.0342 262.997 48.1289C262.961 48.2237 262.945 48.3249 262.949 48.4262V50.676C262.949 50.7721 262.967 50.8675 263.003 50.9566C263.039 51.0457 263.093 51.1267 263.16 51.195C263.228 51.2633 263.309 51.3176 263.397 51.3546C263.486 51.3916 263.581 51.4106 263.678 51.4106H269.305L269.286 68.2151Z" fill="#FFFAE3"/>
<path d="M283.755 68.9759H297.391C297.492 68.9799 297.593 68.9627 297.687 68.9255C297.78 68.8882 297.865 68.8316 297.936 68.7595C298.007 68.6939 298.062 68.6135 298.099 68.5239C298.135 68.4343 298.151 68.3378 298.146 68.2413V66.2473C298.151 66.1465 298.136 66.0456 298.1 65.9512C298.064 65.8568 298.009 65.7709 297.938 65.6992C297.867 65.6275 297.781 65.5715 297.687 65.5349C297.593 65.4982 297.492 65.4817 297.391 65.4865H287.133V59.9112H296.473C296.674 59.9213 296.872 59.8532 297.024 59.721C297.095 59.6509 297.15 59.5668 297.186 59.4742C297.222 59.3816 297.238 59.2825 297.234 59.1831V57.2875C297.239 57.1891 297.223 57.0908 297.187 56.9991C297.151 56.9075 297.095 56.8246 297.024 56.7563C296.95 56.6876 296.864 56.6342 296.769 56.5993C296.674 56.5644 296.574 56.5486 296.473 56.5529H287.133V51.1613H297.129C297.229 51.1654 297.329 51.1488 297.423 51.1127C297.517 51.0766 297.602 51.0217 297.673 50.9514C297.744 50.8858 297.8 50.8054 297.836 50.7158C297.873 50.6262 297.889 50.5297 297.883 50.4332V48.4261C297.888 48.3248 297.872 48.2237 297.836 48.1289C297.799 48.0341 297.744 47.9478 297.673 47.8752C297.601 47.8061 297.516 47.752 297.422 47.716C297.329 47.68 297.229 47.6627 297.129 47.6653H283.755C283.658 47.6635 283.562 47.6812 283.471 47.7172C283.381 47.7533 283.299 47.807 283.23 47.8752C283.161 47.9486 283.106 48.0351 283.07 48.1297C283.034 48.2243 283.017 48.325 283.02 48.4261V68.2151C283.019 68.3118 283.038 68.4077 283.075 68.4972C283.111 68.5868 283.165 68.6681 283.234 68.7365C283.302 68.8049 283.383 68.859 283.473 68.8956C283.562 68.9322 283.658 68.9506 283.755 68.9497V68.9759Z" fill="#FFFAE3"/>
<path d="M314.347 68.1495C314.462 68.3528 314.605 68.5384 314.773 68.7004C314.878 68.798 315.003 68.8729 315.138 68.9203C315.274 68.9677 315.417 68.9866 315.56 68.9759H318.335C318.499 68.9719 318.656 68.9064 318.774 68.7923C318.838 68.7342 318.888 68.6632 318.922 68.584C318.956 68.5048 318.973 68.4193 318.971 68.3331C318.965 68.2163 318.934 68.1021 318.879 67.9986L314.439 60.2392C315.622 59.831 316.654 59.0769 317.403 58.0746C318.174 56.9819 318.564 55.6657 318.512 54.3294C318.512 52.143 317.804 50.4901 316.387 49.3707C314.97 48.2512 313.031 47.6828 310.569 47.6653H302.698C302.602 47.664 302.507 47.682 302.418 47.718C302.329 47.754 302.248 47.8075 302.18 47.8752C302.037 48.0229 301.96 48.2211 301.963 48.4261V68.2151C301.963 68.3115 301.982 68.4071 302.019 68.4961C302.056 68.5851 302.111 68.6657 302.18 68.7332C302.247 68.803 302.327 68.8583 302.416 68.8955C302.505 68.9328 302.601 68.9512 302.698 68.9497H305.466C305.566 68.9544 305.666 68.9376 305.758 68.9002C305.851 68.8628 305.935 68.8059 306.004 68.7332C306.135 68.5932 306.206 68.407 306.2 68.2151V60.941H310.431L314.347 68.1495ZM306.187 51.0432H310.477C311.483 50.959 312.483 51.2695 313.265 51.909C313.575 52.2228 313.817 52.5976 313.975 53.0097C314.133 53.4218 314.204 53.8622 314.183 54.3031C314.208 54.738 314.139 55.1731 313.982 55.5793C313.825 55.9854 313.582 56.3532 313.271 56.6579C312.487 57.2805 311.495 57.5808 310.497 57.4974H306.207L306.187 51.0432Z" fill="#FFFAE3"/>
<path d="M325.104 68.4446C326.609 69.0442 328.221 69.3278 329.84 69.2776C331.385 69.3112 332.922 69.0531 334.372 68.5168C335.566 68.0888 336.616 67.3344 337.402 66.3391C338.138 65.3524 338.52 64.1459 338.484 62.9153C338.524 61.8741 338.26 60.8439 337.724 59.9505C337.124 59.0794 336.289 58.3969 335.316 57.9828C333.956 57.3985 332.538 56.9588 331.086 56.671C329.872 56.343 328.888 56.0151 328.154 55.7593C327.545 55.5583 326.99 55.2193 326.534 54.7688C326.342 54.524 326.203 54.2424 326.124 53.9416C326.045 53.6408 326.029 53.3271 326.077 53.0198C326.124 52.7125 326.234 52.4181 326.399 52.1549C326.565 51.8917 326.782 51.6651 327.039 51.4893C327.842 51.0522 328.749 50.8413 329.662 50.8792C330.57 50.833 331.471 51.0616 332.247 51.5352C332.549 51.7018 332.813 51.9296 333.022 52.2041C333.231 52.4785 333.38 52.7936 333.46 53.129C333.537 53.3237 333.678 53.4859 333.86 53.5882C334.01 53.6669 334.176 53.7096 334.346 53.7128H337.179C337.267 53.7162 337.355 53.6997 337.435 53.6645C337.516 53.6293 337.588 53.5763 337.645 53.5095C337.754 53.3892 337.815 53.2326 337.815 53.07C337.781 52.3919 337.588 51.7315 337.251 51.1416C336.857 50.4325 336.337 49.8013 335.716 49.2788C334.974 48.6606 334.122 48.1868 333.204 47.8817C332.075 47.5075 330.891 47.3257 329.702 47.3439C328.245 47.3105 326.798 47.5808 325.451 48.1375C324.357 48.5917 323.41 49.341 322.716 50.302C322.073 51.2195 321.738 52.3172 321.759 53.4373C321.715 54.4951 321.984 55.5423 322.533 56.448C323.113 57.3009 323.913 57.9808 324.848 58.4157C326.066 58.998 327.347 59.4382 328.665 59.7275C329.742 59.9775 330.804 60.2862 331.847 60.6524C332.496 60.8707 333.097 61.2113 333.618 61.6559C333.808 61.8366 333.957 62.0559 334.056 62.2992C334.154 62.5424 334.199 62.804 334.188 63.0661C334.195 63.4592 334.099 63.8472 333.91 64.1922C333.722 64.5371 333.447 64.8271 333.113 65.0339C332.113 65.5891 330.974 65.842 329.833 65.7619C329.06 65.7861 328.29 65.6637 327.563 65.4012C327.029 65.1973 326.546 64.8795 326.147 64.4698C325.834 64.144 325.594 63.7548 325.445 63.3285C325.352 63.1727 325.235 63.0331 325.097 62.9153C324.926 62.7926 324.717 62.7345 324.507 62.7513H321.798C321.713 62.7486 321.628 62.7635 321.549 62.7951C321.47 62.8267 321.399 62.8743 321.339 62.9349C321.278 62.9944 321.23 63.066 321.198 63.1451C321.167 63.2242 321.152 63.309 321.155 63.3941C321.214 64.4243 321.579 65.4135 322.205 66.2342C322.959 67.214 323.959 67.9766 325.104 68.4446Z" fill="#FFFAE3"/>
<path d="M97.1802 119.278C99.3247 118.534 101.196 117.163 102.552 115.343C103.945 113.365 104.65 110.984 104.559 108.567C104.559 104.631 103.274 101.638 100.702 99.5875C98.1313 97.5366 94.6331 96.5091 90.2078 96.5047H75.9155C75.7406 96.5019 75.567 96.5342 75.4048 96.5995C75.2426 96.6648 75.0951 96.7619 74.971 96.8851C74.8443 97.0162 74.7454 97.1715 74.68 97.3416C74.6146 97.5118 74.5842 97.6934 74.5905 97.8755V133.747C74.5905 134.095 74.7287 134.429 74.9748 134.675C75.2208 134.921 75.5544 135.059 75.9024 135.059H80.9135C81.0921 135.068 81.2705 135.039 81.4368 134.973C81.6031 134.908 81.7535 134.807 81.8777 134.679C82.1123 134.424 82.2392 134.088 82.2319 133.741V120.544H89.893L97.0031 133.603C97.2142 133.966 97.4722 134.299 97.7705 134.594C97.9654 134.767 98.1928 134.899 98.4394 134.984C98.686 135.068 98.9469 135.103 99.207 135.086H104.218C104.518 135.085 104.805 134.968 105.018 134.758C105.133 134.653 105.224 134.525 105.285 134.383C105.346 134.24 105.376 134.086 105.373 133.931C105.366 133.718 105.31 133.509 105.209 133.321L97.1802 119.278ZM95.0288 112.817C93.9269 113.834 92.2543 114.332 90.0176 114.332H82.2451V102.657H90.0176C92.2915 102.657 93.9706 103.18 95.055 104.225C95.6123 104.794 96.0448 105.472 96.3248 106.218C96.6049 106.963 96.7265 107.759 96.6817 108.554C96.7297 109.342 96.6068 110.13 96.3215 110.866C96.0362 111.602 95.5952 112.268 95.0288 112.817Z" fill="#FFFAE3"/>
<path d="M140.32 102.749C138.994 100.535 137.037 98.7694 134.699 97.6788C132.075 96.5535 129.25 95.9733 126.395 95.9733C123.54 95.9733 120.715 96.5535 118.091 97.6788C115.765 98.7778 113.818 100.542 112.496 102.749C111.053 105.305 110.294 108.19 110.292 111.125C110.259 112.739 110.24 114.313 110.24 115.861C110.24 117.409 110.239 118.963 110.292 120.544C110.291 123.498 111.031 126.405 112.443 128.999C113.711 131.206 115.638 132.96 117.953 134.016C123.373 136.177 129.416 136.177 134.836 134.016C137.165 132.967 139.104 131.212 140.379 128.999C141.789 126.404 142.527 123.497 142.524 120.544C142.602 118.963 142.635 117.402 142.635 115.861C142.635 114.319 142.602 112.739 142.524 111.125C142.526 108.189 141.767 105.303 140.32 102.749ZM134.646 120.268C134.541 123.461 133.732 125.765 132.219 127.182C130.594 128.555 128.535 129.308 126.408 129.308C124.28 129.308 122.222 128.555 120.596 127.182C119.092 125.765 118.283 123.461 118.17 120.268C118.17 118.655 118.117 117.153 118.117 115.775C118.117 114.398 118.117 112.922 118.17 111.341C118.169 109.538 118.575 107.758 119.357 106.133C119.987 104.878 121 103.856 122.249 103.215C123.537 102.593 124.952 102.281 126.382 102.303C127.831 102.277 129.266 102.589 130.573 103.215C131.819 103.858 132.829 104.88 133.459 106.133C134.247 107.756 134.653 109.538 134.646 111.341C134.716 112.924 134.753 114.402 134.758 115.775C134.758 117.153 134.718 118.655 134.646 120.268Z" fill="#FFFAE3"/>
<path d="M168.806 97.8952C168.663 97.5287 168.438 97.1991 168.15 96.931C167.796 96.6374 167.343 96.4917 166.884 96.5243H160.876C160.403 96.4892 159.934 96.6345 159.564 96.931C159.257 97.1825 159.03 97.5173 158.908 97.8952L145.633 133.433C145.565 133.591 145.528 133.76 145.521 133.931C145.518 134.087 145.548 134.241 145.611 134.384C145.673 134.527 145.766 134.654 145.882 134.758C146.093 134.967 146.378 135.085 146.676 135.086H151.516C151.718 135.104 151.922 135.082 152.116 135.021C152.309 134.96 152.489 134.862 152.644 134.731C152.849 134.551 153.011 134.327 153.117 134.075L155.74 127.352H172.105L174.69 134.075C174.795 134.327 174.957 134.551 175.162 134.731C175.317 134.862 175.497 134.96 175.691 135.021C175.884 135.082 176.088 135.104 176.29 135.086H181.032C181.177 135.086 181.32 135.058 181.453 135.001C181.586 134.945 181.706 134.862 181.806 134.758C181.913 134.649 181.998 134.52 182.054 134.378C182.11 134.236 182.138 134.084 182.134 133.931C182.131 133.764 182.113 133.597 182.082 133.433L168.806 97.8952ZM157.623 120.983L163.847 103.93L170.124 120.983H157.623Z" fill="#FFFAE3"/>
<path d="M216.662 103.3C215.437 101.065 213.523 99.2866 211.204 98.2297C208.799 97.0884 205.738 96.52 202.022 96.5244H188.588C188.415 96.5225 188.242 96.5552 188.081 96.6205C187.92 96.6858 187.774 96.7824 187.651 96.9048C187.523 97.0354 187.423 97.1904 187.356 97.3606C187.29 97.5307 187.258 97.7126 187.264 97.8952V133.767C187.263 133.941 187.296 134.114 187.363 134.275C187.429 134.436 187.527 134.582 187.651 134.705C187.774 134.827 187.92 134.924 188.081 134.989C188.242 135.055 188.415 135.087 188.588 135.086H202.304C205.977 135.086 208.998 134.545 211.368 133.465C213.65 132.459 215.523 130.708 216.681 128.5C217.862 126.283 218.487 123.465 218.557 120.045C218.632 118.471 218.669 117.057 218.669 115.802C218.669 114.547 218.632 113.115 218.557 111.505C218.614 108.656 217.962 105.836 216.662 103.3ZM210.929 116.989C210.929 117.815 210.883 118.78 210.844 119.881C210.88 121.646 210.551 123.399 209.879 125.03C209.317 126.294 208.308 127.305 207.046 127.87C205.453 128.518 203.74 128.82 202.022 128.756H194.925V102.854H201.753C204.875 102.854 207.153 103.571 208.587 105.005C210.022 106.44 210.774 108.663 210.844 111.676C210.883 112.739 210.909 113.683 210.929 114.51C210.949 115.336 210.942 116.162 210.929 116.989Z" fill="#FFFAE3"/>
<path d="M260.706 96.5243H256.41C256.2 96.5064 255.988 96.5334 255.789 96.6036C255.59 96.6737 255.408 96.7853 255.255 96.931C255.06 97.126 254.893 97.3467 254.757 97.5869L244 117.409L233.368 97.5738C233.23 97.3351 233.062 97.1147 232.869 96.9179C232.716 96.7728 232.534 96.6617 232.335 96.5916C232.136 96.5216 231.925 96.4942 231.715 96.5112H227.359C227.177 96.5041 226.995 96.5342 226.825 96.5996C226.655 96.665 226.5 96.7644 226.369 96.8916C226.241 97.0222 226.141 97.1772 226.075 97.3474C226.008 97.5176 225.977 97.6994 225.982 97.8821V133.754C225.981 133.928 226.015 134.101 226.081 134.262C226.148 134.423 226.245 134.569 226.369 134.692C226.5 134.819 226.655 134.919 226.825 134.984C226.995 135.049 227.177 135.079 227.359 135.072H231.99C232.338 135.072 232.672 134.934 232.918 134.688C233.164 134.442 233.302 134.108 233.302 133.761V109.912L241.035 124.624C241.205 124.944 241.427 125.235 241.691 125.483C242.031 125.74 242.453 125.866 242.878 125.837H245.141C245.555 125.856 245.963 125.731 246.296 125.483C246.586 125.244 246.828 124.952 247.011 124.624L254.724 109.918V133.774C254.72 133.946 254.749 134.118 254.811 134.279C254.873 134.44 254.966 134.587 255.085 134.712C255.209 134.841 255.359 134.941 255.526 135.007C255.692 135.072 255.871 135.102 256.049 135.092H260.673C260.857 135.099 261.039 135.069 261.211 135.004C261.382 134.939 261.538 134.839 261.67 134.712C261.793 134.588 261.889 134.442 261.955 134.281C262.02 134.12 262.053 133.947 262.051 133.774V97.8952C262.059 97.7123 262.029 97.5298 261.963 97.3592C261.897 97.1886 261.795 97.0337 261.666 96.9046C261.536 96.7755 261.381 96.675 261.21 96.6095C261.039 96.544 260.856 96.515 260.673 96.5243H260.706Z" fill="#FFFAE3"/>
<path d="M290.406 97.8952C290.263 97.5287 290.038 97.1991 289.75 96.931C289.396 96.6374 288.943 96.4917 288.484 96.5243H282.476C282.003 96.4892 281.534 96.6345 281.164 96.931C280.857 97.1825 280.629 97.5173 280.508 97.8952L267.233 133.433C267.165 133.591 267.128 133.76 267.121 133.931C267.118 134.087 267.148 134.241 267.211 134.384C267.273 134.527 267.365 134.654 267.482 134.758C267.695 134.968 267.982 135.086 268.282 135.086H273.07C273.272 135.104 273.476 135.082 273.67 135.021C273.863 134.96 274.043 134.862 274.198 134.731C274.403 134.551 274.565 134.327 274.671 134.075L277.262 127.352H293.627L296.211 134.075C296.319 134.326 296.48 134.55 296.683 134.731C296.839 134.862 297.018 134.96 297.212 135.021C297.406 135.082 297.609 135.104 297.811 135.086H302.606C302.751 135.086 302.894 135.058 303.027 135.001C303.16 134.945 303.28 134.862 303.38 134.758C303.487 134.649 303.571 134.52 303.628 134.378C303.684 134.236 303.711 134.084 303.708 133.931C303.705 133.764 303.687 133.597 303.656 133.433L290.406 97.8952ZM279.223 120.983L285.447 103.93L291.724 120.983H279.223Z" fill="#FFFAE3"/>
<path d="M337.402 101.949C336.207 100.112 334.476 98.688 332.443 97.869C330.062 96.9241 327.515 96.4668 324.953 96.5244H310.188C310.015 96.5225 309.842 96.5552 309.681 96.6205C309.52 96.6858 309.374 96.7824 309.25 96.9048C309.123 97.0353 309.022 97.1904 308.956 97.3605C308.889 97.5307 308.858 97.7126 308.863 97.8952V133.767C308.862 133.941 308.896 134.114 308.963 134.275C309.029 134.436 309.127 134.582 309.25 134.705C309.374 134.827 309.52 134.924 309.681 134.989C309.842 135.055 310.015 135.087 310.188 135.086H315.436C315.614 135.094 315.792 135.064 315.958 134.999C316.125 134.933 316.275 134.833 316.4 134.705C316.634 134.45 316.761 134.114 316.754 133.767V120.872H324.966C327.525 120.93 330.07 120.484 332.457 119.56C334.479 118.764 336.21 117.368 337.415 115.559C338.663 113.516 339.276 111.149 339.18 108.757C339.263 106.363 338.645 103.997 337.402 101.949ZM329.577 113.244C328.445 114.271 326.811 114.785 324.677 114.785H316.636V102.637H324.677C326.956 102.637 328.626 103.197 329.689 104.317C330.234 104.914 330.656 105.613 330.93 106.374C331.205 107.135 331.327 107.943 331.289 108.751C331.289 110.731 330.718 112.233 329.577 113.244Z" fill="#FFFAE3"/>
<path d="M50.6825 154.173C50.9121 156.494 49.6003 158.528 47.7506 158.705L46.1043 158.849C47.9474 158.672 49.2658 156.639 49.0296 154.317C48.7935 151.995 47.1209 150.263 45.2712 150.447L46.9241 150.303C48.7738 150.119 50.453 151.851 50.6825 154.173Z" fill="#5AE2A1"/>
<path d="M49.0297 154.317C49.2658 156.639 47.9474 158.672 46.1043 158.849C44.412 159.02 42.8641 157.236 42.4312 155.222C43.5921 155.366 44.5366 155.484 45.0548 155.557C45.1989 155.577 45.3457 155.567 45.4858 155.528C45.6258 155.488 45.7561 155.42 45.8681 155.327C46.0329 155.199 46.1647 155.033 46.2525 154.844C46.3403 154.654 46.3817 154.447 46.3732 154.238C46.3336 153.876 46.1781 153.537 45.9298 153.271C45.6816 153.005 45.3539 152.827 44.9958 152.762L42.7591 152.428C42.9702 151.907 43.3148 151.451 43.7581 151.106C44.2014 150.76 44.7278 150.538 45.2844 150.46C47.1209 150.263 48.8066 151.995 49.0297 154.317Z" fill="#78EFBB"/>
<path d="M22.4717 74.9185L18.3263 73.9477C17.9315 73.858 17.521 73.863 17.1285 73.9624C16.736 74.0618 16.3726 74.2527 16.0681 74.5195C15.7635 74.7863 15.5265 75.1214 15.3763 75.4974C15.2262 75.8735 15.1672 76.2797 15.2041 76.6829C15.9584 84.6588 18.1098 104.166 21.9141 113.886L30.0672 114.45L32.2973 114.608C32.9853 114.643 33.6335 114.941 34.1076 115.441C34.3104 115.648 34.4539 115.906 34.5231 116.187C34.5923 116.469 34.5847 116.764 34.5011 117.041C34.363 117.474 34.079 117.846 33.6976 118.094C33.3161 118.342 32.8607 118.449 32.4088 118.399L29.9425 118.222L26.4334 117.973C26.0336 117.943 25.6328 118.012 25.2655 118.173C24.8982 118.333 24.5756 118.581 24.3256 118.894C24.0756 119.207 23.9057 119.577 23.8307 119.971C23.7557 120.364 23.7777 120.771 23.895 121.154C26.0202 128.015 30.828 143.258 33.6484 149.391C33.8994 149.932 34.2806 150.403 34.7578 150.761C35.2351 151.12 35.7936 151.354 36.3836 151.444L42.7197 152.402L44.9564 152.736C45.3145 152.8 45.6422 152.979 45.8905 153.245C46.1387 153.511 46.2943 153.85 46.3338 154.212C46.3423 154.42 46.301 154.628 46.2131 154.817C46.1253 155.007 45.9935 155.173 45.8288 155.301C45.7167 155.394 45.5865 155.462 45.4464 155.502C45.3063 155.541 45.1595 155.551 45.0154 155.53C44.5104 155.458 43.5659 155.34 42.3918 155.196L35.8326 154.343C34.6972 154.196 33.622 153.747 32.7188 153.043C31.8156 152.34 31.1174 151.407 30.6968 150.342C3.63382 81.9499 11.6294 42.923 16.5816 28.8602C16.8664 28.0531 17.3111 27.3118 17.8891 26.6806C18.4671 26.0494 19.1665 25.5414 19.9454 25.1868C20.7244 24.8322 21.5669 24.6385 22.4224 24.6171C23.278 24.5957 24.1291 24.7472 24.9248 25.0624L28.8275 26.5776L32.1858 27.8894C32.4244 27.9797 32.6408 28.1204 32.8202 28.3017C32.9996 28.4831 33.1379 28.701 33.2256 28.9406C33.3134 29.1801 33.3485 29.4358 33.3287 29.6902C33.3088 29.9445 33.2344 30.1916 33.1106 30.4147V30.4475C32.9016 30.8279 32.562 31.1199 32.1544 31.2694C31.7469 31.4189 31.2991 31.4158 30.8936 31.2608L27.942 30.1327L27.6468 30.0211L22.957 28.2043C22.649 28.086 22.32 28.032 21.9903 28.0455C21.6606 28.0591 21.3371 28.1399 21.0398 28.283C20.7425 28.4262 20.4776 28.6286 20.2613 28.8779C20.0451 29.1271 19.8821 29.418 19.7824 29.7325C17.8147 36.0031 13.0331 53.3454 14.7188 69.2645L23.1538 71.5274L26.9778 72.5572C27.2239 72.6213 27.4503 72.7452 27.6368 72.918C27.8234 73.0909 27.9643 73.3071 28.0469 73.5476V73.5804C28.1481 73.8639 28.1706 74.1696 28.112 74.4649C28.0534 74.7601 27.9158 75.034 27.714 75.2574C27.5121 75.4808 27.2536 75.6453 26.9657 75.7334C26.6779 75.8216 26.3715 75.8301 26.0792 75.758L22.4717 74.9185Z" fill="#B3FFDE"/>
<path d="M36.3115 111.033C38.7384 111.033 40.6996 113.499 40.6996 116.543C40.6996 119.586 38.7318 122.066 36.3115 122.066H34.147C36.5739 122.066 38.5416 119.599 38.5416 116.549C38.5416 113.499 36.5739 111.027 34.147 111.027L36.3115 111.033Z" fill="#5AE2A1"/>
<path d="M35.8589 25.0231C38.1677 25.7643 39.2958 28.7225 38.3644 31.6216C37.433 34.5207 34.8028 36.2786 32.4612 35.5571L30.4082 34.9012C32.7236 35.6358 35.3538 33.8845 36.3114 30.9657C37.2691 28.0469 36.1147 25.1084 33.8058 24.3672L35.8589 25.0231Z" fill="#5AE2A1"/>
<path d="M34.1469 111C36.5738 111 38.5415 113.473 38.5415 116.523C38.5415 119.573 36.5738 122.039 34.1469 122.039C32.1792 122.039 30.546 120.452 29.9688 118.248L32.435 118.425C32.8869 118.476 33.3423 118.368 33.7238 118.12C34.1052 117.873 34.3892 117.501 34.5274 117.067C34.6128 116.784 34.6188 116.482 34.5448 116.195C34.4708 115.909 34.3195 115.648 34.1076 115.441C33.6314 114.925 32.972 114.617 32.271 114.582L30.0409 114.424C30.7231 112.43 32.2972 111 34.1469 111Z" fill="#78EFBB"/>
<path d="M33.8058 24.3409C36.1147 25.0821 37.2428 28.0337 36.3114 30.9394C35.38 33.8451 32.7498 35.5899 30.4082 34.8749C28.8406 34.3699 27.6403 32.5661 27.9157 30.1523L30.8477 31.2805C31.2531 31.4355 31.701 31.4386 32.1085 31.2891C32.516 31.1396 32.8557 30.8476 33.0647 30.4672V30.4344C33.1885 30.2113 33.2629 29.9642 33.2827 29.7099C33.3026 29.4555 33.2675 29.1998 33.1797 28.9603C33.092 28.7207 32.9537 28.5028 32.7743 28.3214C32.5948 28.1401 32.3784 27.9994 32.1398 27.9091L28.7815 26.5973C30.1721 24.3409 32.0742 23.7834 33.8058 24.3409Z" fill="#78EFBB"/>
<path d="M29.8113 68.9234C32.212 69.2776 33.7993 72.0062 33.3532 75.0234C32.9072 78.0406 30.5984 80.192 28.1978 79.8444L26.066 79.5033C28.4667 79.8575 30.7755 77.6995 31.215 74.6823C31.6544 71.6651 30.0802 68.9496 27.6993 68.5823L29.8113 68.9234Z" fill="#5AE2A1"/>
<path d="M27.6993 68.5824C30.0803 68.9497 31.6348 71.6717 31.215 74.6824C30.7952 77.693 28.4667 79.8575 26.0661 79.5033C24.0983 79.2082 22.6488 77.2863 22.4717 74.9119L26.0989 75.7515C26.3912 75.8235 26.6975 75.815 26.9854 75.7269C27.2732 75.6387 27.5318 75.4742 27.7337 75.2509C27.9355 75.0275 28.073 74.7536 28.1317 74.4583C28.1903 74.1631 28.1678 73.8574 28.0666 73.5739V73.5411C27.9839 73.3006 27.8431 73.0843 27.6565 72.9115C27.47 72.7387 27.2436 72.6147 26.9975 72.5506L23.1735 71.5209C24.118 69.6384 25.8824 68.3069 27.6993 68.5693V68.5824Z" fill="#78EFBB"/>
<path d="M28.8209 26.5776C30.1655 24.341 32.1005 23.7834 33.8058 24.341C36.1147 25.0821 37.2428 28.0337 36.3114 30.9394C35.38 33.8451 32.7498 35.5899 30.4082 34.8749C28.8406 34.3699 27.6403 32.5661 27.9157 30.1524" stroke="black" stroke-width="0.75" stroke-linecap="round" stroke-linejoin="round"/>
<path d="M42.7459 152.428L44.9826 152.762C45.3407 152.827 45.6684 153.005 45.9166 153.271C46.1649 153.537 46.3204 153.876 46.36 154.238C46.3685 154.447 46.3271 154.654 46.2393 154.844C46.1515 155.033 46.0197 155.199 45.855 155.327C45.7429 155.42 45.6127 155.488 45.4726 155.528C45.3325 155.567 45.1857 155.577 45.0416 155.557C44.5366 155.484 43.592 155.366 42.418 155.222L35.8588 154.369C34.7234 154.222 33.6482 153.773 32.745 153.07C31.8418 152.366 31.1436 151.433 30.723 150.368C3.63377 81.9499 11.6294 42.923 16.5815 28.8602C16.8663 28.0531 17.311 27.3118 17.889 26.6806C18.467 26.0494 19.1664 25.5414 19.9454 25.1868C20.7243 24.8322 21.5668 24.6385 22.4224 24.6171C23.278 24.5957 24.1291 24.7472 24.9247 25.0624L28.8274 26.5776L32.1857 27.8894C32.4243 27.9797 32.6407 28.1204 32.8201 28.3017C32.9996 28.4831 33.1378 28.701 33.2256 28.9406C33.3133 29.1801 33.3485 29.4358 33.3286 29.6902C33.3088 29.9445 33.2344 30.1916 33.1105 30.4147V30.4475C32.9015 30.8279 32.5619 31.1199 32.1544 31.2694C31.7469 31.4189 31.299 31.4158 30.8935 31.2608L27.9419 30.1327L27.6468 30.0211L22.957 28.2043C22.6489 28.086 22.3199 28.032 21.9902 28.0455C21.6605 28.0591 21.3371 28.1399 21.0397 28.283C20.7424 28.4262 20.4775 28.6286 20.2613 28.8779C20.045 29.1271 19.8821 29.418 19.7824 29.7325C17.8146 36.0031 13.033 53.3454 14.7187 69.2645L23.1538 71.5274L26.9777 72.5572C27.2238 72.6213 27.4502 72.7452 27.6368 72.9181C27.8233 73.0909 27.9642 73.3071 28.0469 73.5476V73.5804C28.1481 73.8639 28.1706 74.1696 28.1119 74.4649C28.0533 74.7601 27.9158 75.034 27.7139 75.2574C27.5121 75.4808 27.2535 75.6453 26.9657 75.7334C26.6778 75.8216 26.3714 75.8301 26.0791 75.758L22.4519 74.9185L18.3066 73.9477C17.9117 73.858 17.5013 73.863 17.1088 73.9624C16.7163 74.0618 16.3529 74.2527 16.0483 74.5195C15.7438 74.7863 15.5067 75.1214 15.3566 75.4974C15.2064 75.8735 15.1474 76.2797 15.1844 76.6829C15.9387 84.6588 18.0901 104.166 21.8944 113.886L30.0474 114.45L32.2775 114.608C32.9725 114.638 33.6286 114.936 34.1075 115.441C34.3103 115.648 34.4538 115.906 34.523 116.187C34.5922 116.469 34.5847 116.764 34.5011 117.041C34.3629 117.474 34.079 117.846 33.6975 118.094C33.3161 118.342 32.8606 118.449 32.4087 118.399L29.9425 118.222L26.4333 117.973C26.0336 117.943 25.6327 118.012 25.2654 118.173C24.8981 118.333 24.5755 118.581 24.3255 118.894C24.0755 119.207 23.9057 119.577 23.8306 119.971C23.7556 120.364 23.7777 120.771 23.8949 121.154C26.0201 128.015 30.828 143.258 33.6484 149.391C33.8994 149.932 34.2805 150.403 34.7578 150.761C35.235 151.12 35.7936 151.354 36.3836 151.444L42.7459 152.428Z" stroke="black" stroke-width="0.75" stroke-linecap="round" stroke-linejoin="round"/>
<path d="M30.4344 34.8553L32.4875 35.5112C34.8028 36.2524 37.433 34.5011 38.3907 31.5757C39.3483 28.6503 38.1939 25.7184 35.8851 24.9772L33.8321 24.3213" stroke="black" stroke-width="0.75" stroke-linecap="round" stroke-linejoin="round"/>
<path d="M27.6993 68.5823C30.0803 68.9496 31.6348 71.6717 31.215 74.6823C30.7952 77.693 28.4667 79.8575 26.0661 79.5033C24.0983 79.2081 22.6488 77.2863 22.4717 74.9119" stroke="black" stroke-width="0.75" stroke-linecap="round" stroke-linejoin="round"/>
<path d="M23.1472 71.5274C24.0917 69.6449 25.8561 68.3134 27.673 68.5758" stroke="black" stroke-width="0.75" stroke-linecap="round" stroke-linejoin="round"/>
<path d="M26.066 79.5033L28.1978 79.8444C30.5984 80.192 32.9072 78.0341 33.3532 75.0234C33.7993 72.0128 32.212 69.2776 29.8113 68.9234L27.6993 68.5823" stroke="black" stroke-width="0.75" stroke-linecap="round" stroke-linejoin="round"/>
<path d="M30.0671 114.45C30.7231 112.43 32.2972 111 34.1469 111C36.5738 111 38.5415 113.473 38.5415 116.523C38.5415 119.573 36.5738 122.039 34.1469 122.039C32.1792 122.039 30.546 120.452 29.9688 118.248" stroke="black" stroke-width="0.75" stroke-linecap="round" stroke-linejoin="round"/>
<path d="M34.1469 122.039H36.3114C38.7382 122.039 40.6994 119.573 40.6994 116.517C40.6994 113.46 38.7317 111.007 36.3114 111.007L34.1469 110.974" stroke="black" stroke-width="0.75" stroke-linecap="round" stroke-linejoin="round"/>
<path d="M42.7459 152.428C42.957 151.907 43.3015 151.451 43.7448 151.105C44.1881 150.76 44.7145 150.537 45.2711 150.46C47.1208 150.276 48.8065 152.008 49.0295 154.33C49.2525 156.652 47.9473 158.685 46.1042 158.862C44.4119 159.033 42.8639 157.249 42.431 155.235" stroke="black" stroke-width="0.75" stroke-linecap="round" stroke-linejoin="round"/>
<path d="M46.1043 158.849L47.7506 158.731C49.6003 158.554 50.9121 156.521 50.6825 154.199C50.453 151.877 48.7738 150.145 46.9241 150.329L45.2712 150.473" stroke="black" stroke-width="0.75" stroke-linecap="round" stroke-linejoin="round"/>
<path d="M45.8681 160.869C43.5396 160.869 41.7687 159.033 40.9225 157.052L35.59 156.396C34.0997 156.202 32.6884 155.613 31.5019 154.69C30.3154 153.768 29.3967 152.545 28.8406 151.149C1.53491 82.1008 9.77975 42.3589 14.5876 28.4732C15.2959 26.3087 16.8339 24.5136 18.8642 23.4817C19.9109 22.9603 21.0555 22.6646 22.2239 22.6138C23.3922 22.563 24.5582 22.7581 25.6463 23.1866L28.1322 24.1573C28.8939 23.2837 29.896 22.6536 31.0134 22.3457C32.1308 22.0378 33.3142 22.0656 34.4159 22.4257L36.4951 23.121C37.3317 23.4036 38.0942 23.8703 38.7265 24.4867C39.3588 25.1031 39.8447 25.8535 40.1486 26.6826C40.8033 28.447 40.856 30.3784 40.2984 32.1758C39.7408 33.9733 38.6042 35.5357 37.0658 36.6197C36.3215 37.1445 35.4669 37.4919 34.5676 37.6352C33.6682 37.7784 32.748 37.7138 31.8775 37.4461L29.8048 36.7902C28.7133 36.3944 27.7627 35.6855 27.072 34.7521C26.3813 33.8188 25.9812 32.7025 25.9218 31.5429L22.2224 30.1261C22.1719 30.1035 22.1171 30.0918 22.0617 30.0918C22.0064 30.0918 21.9516 30.1035 21.901 30.1261C21.8514 30.1502 21.8072 30.1842 21.7711 30.2259C21.7351 30.2676 21.7078 30.3163 21.6911 30.3688C19.7234 36.6197 15.3485 52.6699 16.5816 67.7166L22.2487 69.2383C23.731 67.323 25.8628 66.3195 27.9223 66.6146H27.9945L30.1328 66.9623C31.0042 67.1048 31.8325 67.4411 32.5567 67.9462C33.281 68.4514 33.8827 69.1126 34.3175 69.8811C35.2487 71.5164 35.6128 73.4139 35.353 75.2778C35.0931 77.1416 34.224 78.8672 32.881 80.1855C32.2354 80.8272 31.45 81.311 30.5864 81.5988C29.7227 81.8867 28.8042 81.9709 27.9027 81.845L25.7578 81.5039C23.3834 81.1497 21.4157 79.2082 20.7204 76.5911L17.7097 75.8696C17.6419 75.8596 17.5728 75.8631 17.5064 75.88C17.44 75.8969 17.3776 75.9268 17.3228 75.968C17.2727 76.0113 17.234 76.0663 17.21 76.128C17.186 76.1897 17.1774 76.2564 17.185 76.3222C17.8934 83.8324 19.8874 102.1 23.344 111.965L28.7947 112.352C29.3037 111.365 30.0683 110.532 31.0085 109.942C31.9488 109.351 33.0304 109.023 34.1404 108.993H36.3246C39.8403 108.993 42.7066 112.371 42.7066 116.523C42.7066 120.675 39.8337 124.046 36.3049 124.046H34.1142C32.9086 124.003 31.741 123.613 30.7502 122.925C29.7595 122.237 28.9874 121.278 28.5258 120.163L25.9021 119.967L24.7739 120.491L25.7119 120.203C27.7124 126.703 32.6777 142.504 35.485 148.578C35.5987 148.821 35.7729 149.032 35.9911 149.189C36.2092 149.347 36.4641 149.445 36.7313 149.476L41.7949 150.244C42.6161 149.245 43.7908 148.601 45.0745 148.446L46.7471 148.302C47.4843 148.239 48.2262 148.342 48.9186 148.603C49.6109 148.864 50.236 149.277 50.7481 149.811C51.8615 150.929 52.5464 152.404 52.6831 153.976C52.8471 155.499 52.4936 157.033 51.6795 158.331C51.2806 158.986 50.7366 159.539 50.0894 159.95C49.4423 160.361 48.7094 160.617 47.9474 160.699L46.2748 160.843L45.8681 160.869ZM22.5897 24.5771C21.6009 24.5736 20.6246 24.7981 19.7365 25.233C18.1777 26.0425 16.9998 27.4325 16.457 29.1029C11.7081 42.7918 3.6076 81.9893 30.6706 150.381C31.0944 151.455 31.7979 152.395 32.708 153.104C33.6181 153.814 34.7015 154.266 35.8458 154.415L41.749 155.17C41.9311 155.193 42.1029 155.267 42.2454 155.383C42.3878 155.499 42.4953 155.652 42.5558 155.826C43.0477 157.308 44.2939 158.895 45.8353 158.895L47.7309 158.738C48.1961 158.682 48.6423 158.52 49.0347 158.264C49.4271 158.008 49.7553 157.665 49.9938 157.262C50.5649 156.337 50.8097 155.247 50.6891 154.166C50.598 153.051 50.1201 152.002 49.3379 151.201C49.0276 150.872 48.6474 150.616 48.2251 150.452C47.8029 150.289 47.3494 150.222 46.8979 150.257L45.2253 150.401C44.7688 150.461 44.3313 150.621 43.9444 150.871C43.5575 151.12 43.2311 151.453 42.9887 151.844C42.8807 151.997 42.7334 152.117 42.5624 152.192C42.3914 152.267 42.2032 152.294 42.0179 152.27L36.3836 151.418C35.7989 151.333 35.2447 151.103 34.7715 150.749C34.2984 150.395 33.9213 149.928 33.6747 149.391C30.8215 143.186 25.8037 127.313 23.836 120.773C23.7352 120.44 23.7165 120.086 23.7816 119.744C23.8467 119.401 23.9936 119.079 24.2099 118.806C24.4239 118.528 24.7043 118.309 25.0252 118.168C25.346 118.027 25.6972 117.969 26.0464 117.999L29.267 118.235C29.4577 118.249 29.6401 118.319 29.7917 118.435C29.9432 118.552 30.0573 118.71 30.1196 118.891C30.8411 120.859 32.4153 122.092 34.1273 122.092H36.318C38.7515 122.092 40.7389 119.599 40.7389 116.536C40.7389 113.473 38.7711 110.974 36.3115 110.974H34.1273C33.2816 111.022 32.4678 111.313 31.7844 111.814C31.1011 112.315 30.5775 113.003 30.2771 113.795C30.2011 113.983 30.0658 114.141 29.8918 114.245C29.7178 114.349 29.5145 114.394 29.3129 114.372L22.5701 113.899C22.3787 113.885 22.1956 113.816 22.0431 113.699C21.8905 113.583 21.7751 113.424 21.7108 113.244C18.0443 103.32 15.9519 84.2456 15.2238 76.5124C15.1895 76.1348 15.245 75.7545 15.3858 75.4026C15.5267 75.0506 15.7489 74.737 16.0343 74.4875C16.3197 74.238 16.6601 74.0595 17.0277 73.9669C17.3953 73.8742 17.7796 73.8699 18.1492 73.9543L21.7699 74.7742C21.957 74.8159 22.1275 74.9124 22.2595 75.0514C22.3915 75.1905 22.4791 75.3657 22.511 75.5547C22.8915 77.6668 24.3148 79.2607 26.053 79.4902L28.2044 79.8313C28.8084 79.9084 29.4221 79.8476 29.9992 79.6533C30.5764 79.459 31.102 79.1364 31.5364 78.7097C32.5551 77.6983 33.2139 76.3807 33.4118 74.959C33.6097 73.5372 33.3356 72.0898 32.6318 70.8387C32.3403 70.3234 31.9377 69.8794 31.4533 69.5391C30.9688 69.1987 30.4147 68.9705 29.831 68.871L27.7256 68.5365H27.6862C26.1776 68.32 24.5378 69.2317 23.4752 70.8584C23.3641 71.0356 23.1988 71.1722 23.0038 71.2479C22.8087 71.3235 22.5945 71.3342 22.393 71.2782L15.4075 69.4023C15.2135 69.3505 15.0402 69.2402 14.9112 69.0865C14.7821 68.9328 14.7034 68.743 14.686 68.543C13.2167 52.9323 17.7885 36.2065 19.8152 29.7457C19.9107 29.4359 20.0696 29.1493 20.2819 28.9042C20.4942 28.6592 20.7553 28.461 21.0484 28.3224C21.3427 28.174 21.6655 28.0908 21.9948 28.0784C22.3242 28.0659 22.6524 28.1245 22.9571 28.2502L27.2533 29.8966C27.4416 29.9651 27.6049 30.0887 27.7219 30.2513C27.8389 30.4139 27.9041 30.608 27.9092 30.8083C27.9092 32.776 28.9259 34.3961 30.4673 34.8881L32.54 35.5768C33.1273 35.7516 33.7471 35.7887 34.3511 35.6852C34.9552 35.5817 35.5272 35.3403 36.0229 34.9799C37.1824 34.1436 38.0389 32.9534 38.4635 31.5883C38.8882 30.2232 38.858 28.7571 38.3776 27.4107C38.1779 26.8504 37.855 26.342 37.4327 25.9232C37.0104 25.5043 36.4995 25.1855 35.9376 24.9903L33.8124 24.2688C32.9744 24.0025 32.0723 24.0173 31.2435 24.3109C30.4147 24.6046 29.7045 25.161 29.221 25.8955C29.0946 26.0716 28.9133 26.2007 28.7055 26.2624C28.4977 26.3242 28.2752 26.3151 28.0732 26.2366L24.9248 25.0231C24.1811 24.73 23.3891 24.5787 22.5897 24.5771Z" fill="black"/>
<path d="M361.881 154.173C361.645 156.494 362.956 158.528 364.806 158.705L366.459 158.849C364.609 158.672 363.298 156.639 363.527 154.317C363.757 151.995 365.436 150.263 367.286 150.447L365.633 150.303C363.789 150.119 362.104 151.851 361.881 154.173Z" fill="#5AE2A1"/>
<path d="M363.527 154.317C363.297 156.639 364.609 158.672 366.459 158.849C368.145 159.02 369.693 157.236 370.126 155.222C368.965 155.366 368.02 155.484 367.502 155.557C367.358 155.577 367.211 155.567 367.071 155.528C366.931 155.488 366.801 155.42 366.689 155.327C366.524 155.199 366.392 155.033 366.304 154.844C366.216 154.654 366.175 154.447 366.184 154.238C366.221 153.875 366.377 153.534 366.627 153.267C366.877 153.001 367.207 152.823 367.568 152.762L369.798 152.428C369.586 151.907 369.242 151.451 368.799 151.106C368.355 150.76 367.829 150.538 367.272 150.46C365.436 150.263 363.75 151.995 363.527 154.317Z" fill="#78EFBB"/>
<path d="M390.085 74.9185L394.237 73.9477C394.631 73.8577 395.042 73.8626 395.434 73.962C395.826 74.0613 396.189 74.2524 396.494 74.5193C396.798 74.7863 397.034 75.1216 397.183 75.4977C397.333 75.8738 397.391 76.28 397.353 76.6829C396.605 84.6588 394.447 104.166 390.643 113.886L382.483 114.45L380.253 114.608C379.555 114.646 378.898 114.954 378.423 115.467C378.221 115.675 378.079 115.933 378.009 116.214C377.94 116.495 377.947 116.79 378.029 117.067C378.167 117.5 378.45 117.871 378.83 118.118C379.21 118.365 379.664 118.474 380.115 118.425L382.588 118.248L386.097 117.999C386.497 117.97 386.898 118.038 387.265 118.199C387.632 118.359 387.955 118.607 388.205 118.92C388.455 119.234 388.625 119.603 388.7 119.997C388.775 120.391 388.753 120.797 388.635 121.18C386.517 128.041 381.702 143.284 378.882 149.417C378.632 149.959 378.251 150.431 377.774 150.789C377.296 151.147 376.737 151.382 376.147 151.47L369.811 152.428L367.581 152.762C367.22 152.823 366.89 153.001 366.64 153.267C366.39 153.534 366.234 153.875 366.197 154.238C366.188 154.447 366.23 154.654 366.317 154.844C366.405 155.033 366.537 155.199 366.702 155.327C366.814 155.42 366.944 155.488 367.084 155.528C367.224 155.567 367.371 155.577 367.515 155.557C368.02 155.484 368.965 155.366 370.139 155.222L376.731 154.369C377.865 154.222 378.94 153.773 379.842 153.07C380.744 152.366 381.441 151.433 381.86 150.368C408.923 81.9499 400.927 42.923 395.982 28.8602C395.695 28.0556 395.249 27.3168 394.671 26.6877C394.093 26.0586 393.394 25.5519 392.617 25.1977C391.839 24.8435 390.999 24.6491 390.145 24.6258C389.291 24.6026 388.441 24.7511 387.645 25.0624L383.71 26.5776L380.345 27.8894C380.107 27.9813 379.892 28.1229 379.714 28.3047C379.536 28.4865 379.399 28.7043 379.312 28.9435C379.225 29.1827 379.19 29.4377 379.21 29.6915C379.23 29.9452 379.304 30.1918 379.426 30.4147V30.4475C379.635 30.8279 379.975 31.1199 380.383 31.2694C380.79 31.4189 381.238 31.4159 381.643 31.2608L384.582 30.1261L384.871 30.0146L389.613 28.2043C389.921 28.086 390.25 28.032 390.58 28.0455C390.909 28.0591 391.233 28.1399 391.53 28.283C391.827 28.4262 392.092 28.6286 392.308 28.8779C392.525 29.1271 392.688 29.418 392.787 29.7326C394.755 36.0031 399.53 53.3455 397.851 69.2645L389.416 71.5274L385.592 72.5572C385.346 72.6223 385.121 72.7467 384.934 72.9193C384.748 73.092 384.607 73.3077 384.523 73.5476V73.5804C384.424 73.8638 384.403 74.1686 384.463 74.4629C384.522 74.7571 384.66 75.0298 384.861 75.2526C385.062 75.4753 385.32 75.6397 385.607 75.7287C385.893 75.8176 386.199 75.8277 386.491 75.758L390.085 74.9185Z" fill="#B3FFDE"/>
<path d="M376.252 111.033C373.818 111.033 371.851 113.499 371.851 116.543C371.851 119.586 373.818 122.066 376.252 122.066H378.41C375.983 122.066 374.022 119.599 374.022 116.549C374.022 113.499 375.989 111.027 378.41 111.027L376.252 111.033Z" fill="#5AE2A1"/>
<path d="M376.691 25.0231C374.389 25.7643 373.267 28.7225 374.199 31.6216C375.13 34.5207 377.754 36.2786 380.063 35.5571L382.116 34.9012C379.807 35.6358 377.183 33.8845 376.252 30.9657C375.32 28.0469 376.442 25.1084 378.744 24.3672L376.691 25.0231Z" fill="#5AE2A1"/>
<path d="M378.41 111C375.983 111 374.022 113.473 374.022 116.523C374.022 119.573 375.989 122.039 378.41 122.039C380.378 122.039 382.011 120.452 382.588 118.248L380.115 118.425C379.664 118.474 379.21 118.365 378.83 118.118C378.45 117.871 378.167 117.499 378.029 117.067C377.947 116.79 377.94 116.495 378.009 116.214C378.079 115.933 378.221 115.675 378.423 115.467C378.898 114.954 379.555 114.646 380.253 114.608L382.483 114.45C381.834 112.43 380.253 111 378.41 111Z" fill="#78EFBB"/>
<path d="M378.744 24.3409C376.442 25.0821 375.32 28.0337 376.252 30.9394C377.183 33.8451 379.807 35.5899 382.116 34.8749C383.683 34.3699 384.89 32.5595 384.621 30.1458L381.683 31.2805C381.277 31.4355 380.829 31.4386 380.422 31.2891C380.014 31.1396 379.675 30.8476 379.466 30.4672V30.4344C379.343 30.2115 379.269 29.9649 379.249 29.7112C379.23 29.4574 379.264 29.2024 379.351 28.9632C379.438 28.724 379.575 28.5062 379.754 28.3244C379.932 28.1426 380.147 28.001 380.384 27.9091L383.749 26.5973C382.398 24.3409 380.489 23.7834 378.744 24.3409Z" fill="#78EFBB"/>
<path d="M382.745 68.9234C380.345 69.2776 378.764 72.0062 379.203 75.0234C379.643 78.0406 381.958 80.192 384.359 79.8444L386.497 79.5033C384.09 79.8575 381.788 77.6996 381.342 74.6824C380.896 71.6652 382.476 68.9366 384.877 68.5758L382.745 68.9234Z" fill="#5AE2A1"/>
<path d="M384.877 68.5758C382.476 68.9365 380.896 71.6651 381.342 74.6823C381.788 77.6995 384.09 79.8575 386.497 79.5033C388.465 79.2082 389.908 77.2863 390.085 74.9119L386.458 75.7515C386.166 75.8212 385.86 75.8111 385.574 75.7221C385.287 75.6332 385.03 75.4687 384.828 75.246C384.627 75.0233 384.489 74.7505 384.43 74.4563C384.37 74.1621 384.391 73.8573 384.49 73.5738V73.5411C384.574 73.3012 384.715 73.0854 384.901 72.9128C385.088 72.7401 385.314 72.6158 385.559 72.5506L389.383 71.5208C388.465 69.6449 386.687 68.3134 384.877 68.5758Z" fill="#78EFBB"/>
<path d="M383.71 26.5776C382.398 24.341 380.463 23.7834 378.718 24.341C376.416 25.0821 375.294 28.0337 376.226 30.9394C377.157 33.8451 379.781 35.5899 382.09 34.8749C383.657 34.3699 384.864 32.5596 384.595 30.1458" stroke="black" stroke-width="0.75" stroke-linecap="round" stroke-linejoin="round"/>
<path d="M369.811 152.428L367.581 152.762C367.22 152.823 366.89 153.001 366.64 153.267C366.39 153.534 366.234 153.875 366.197 154.238C366.188 154.447 366.23 154.654 366.317 154.844C366.405 155.033 366.537 155.199 366.702 155.327C366.814 155.42 366.944 155.488 367.084 155.528C367.224 155.567 367.371 155.577 367.515 155.557C368.02 155.484 368.965 155.366 370.139 155.222L376.731 154.369C377.865 154.222 378.94 153.773 379.842 153.07C380.744 152.366 381.441 151.433 381.86 150.368C408.923 81.9499 400.927 42.923 395.982 28.8602C395.695 28.0556 395.249 27.3168 394.671 26.6877C394.093 26.0586 393.394 25.5519 392.617 25.1977C391.839 24.8435 390.999 24.6491 390.145 24.6258C389.291 24.6026 388.441 24.7511 387.645 25.0624L383.71 26.5776L380.345 27.8894C380.107 27.9813 379.892 28.1229 379.714 28.3047C379.536 28.4865 379.399 28.7043 379.312 28.9435C379.225 29.1827 379.19 29.4377 379.21 29.6915C379.23 29.9452 379.304 30.1918 379.426 30.4147V30.4475C379.635 30.8279 379.975 31.1199 380.383 31.2694C380.79 31.4189 381.238 31.4159 381.643 31.2608L384.582 30.1261L384.871 30.0146L389.613 28.2043C389.921 28.086 390.25 28.032 390.58 28.0455C390.909 28.0591 391.233 28.1399 391.53 28.283C391.827 28.4262 392.092 28.6286 392.308 28.8779C392.525 29.1271 392.688 29.418 392.787 29.7326C394.755 36.0031 399.53 53.3455 397.851 69.2645L389.416 71.5274L385.592 72.5572C385.346 72.6223 385.121 72.7467 384.934 72.9193C384.748 73.092 384.607 73.3077 384.523 73.5476V73.5804C384.424 73.8638 384.403 74.1686 384.463 74.4629C384.522 74.7571 384.66 75.0298 384.861 75.2526C385.062 75.4753 385.32 75.6397 385.607 75.7287C385.893 75.8176 386.199 75.8277 386.491 75.758L390.118 74.9185L394.27 73.9477C394.664 73.8577 395.075 73.8626 395.467 73.962C395.859 74.0613 396.222 74.2524 396.526 74.5193C396.83 74.7863 397.067 75.1216 397.216 75.4977C397.366 75.8738 397.423 76.28 397.385 76.6829C396.638 84.6588 394.48 104.166 390.675 113.886L382.516 114.45L380.286 114.608C379.587 114.646 378.931 114.954 378.456 115.467C378.254 115.675 378.111 115.933 378.042 116.214C377.973 116.495 377.98 116.79 378.062 117.067C378.2 117.5 378.483 117.871 378.863 118.118C379.243 118.365 379.697 118.474 380.148 118.425L382.621 118.248L386.13 117.999C386.53 117.97 386.931 118.038 387.298 118.199C387.665 118.359 387.988 118.607 388.238 118.92C388.488 119.234 388.658 119.603 388.733 119.997C388.808 120.391 388.786 120.797 388.668 121.18C386.55 128.041 381.735 143.284 378.915 149.417C378.665 149.959 378.284 150.431 377.807 150.789C377.329 151.147 376.77 151.382 376.18 151.47L369.811 152.428Z" stroke="black" stroke-width="0.75" stroke-linecap="round" stroke-linejoin="round"/>
<path d="M382.116 34.8553L380.063 35.5112C377.754 36.2524 375.13 34.5011 374.199 31.5757C373.267 28.6503 374.389 25.7184 376.691 24.9772L378.744 24.3213" stroke="black" stroke-width="0.75" stroke-linecap="round" stroke-linejoin="round"/>
<path d="M389.409 71.5274C388.465 69.6449 386.687 68.3134 384.877 68.5758C382.476 68.9365 380.896 71.6651 381.342 74.6823C381.788 77.6995 384.09 79.8575 386.497 79.5033C388.465 79.2081 389.908 77.2863 390.085 74.9119" stroke="black" stroke-width="0.75" stroke-linecap="round" stroke-linejoin="round"/>
<path d="M386.497 79.5033L384.359 79.8444C381.958 80.192 379.65 78.0341 379.203 75.0234C378.757 72.0128 380.345 69.2776 382.745 68.9234L384.877 68.5758" stroke="black" stroke-width="0.75" stroke-linecap="round" stroke-linejoin="round"/>
<path d="M382.483 114.45C381.827 112.43 380.253 111 378.41 111C375.983 111 374.022 113.473 374.022 116.523C374.022 119.573 375.989 122.039 378.41 122.039C380.378 122.039 382.011 120.452 382.588 118.248" stroke="black" stroke-width="0.75" stroke-linecap="round" stroke-linejoin="round"/>
<path d="M378.41 122.039H376.252C373.818 122.039 371.851 119.573 371.851 116.517C371.851 113.46 373.818 111.007 376.252 111.007L378.41 110.974" stroke="black" stroke-width="0.75" stroke-linecap="round" stroke-linejoin="round"/>
<path d="M369.811 152.428C369.6 151.907 369.255 151.451 368.812 151.105C368.368 150.76 367.842 150.537 367.285 150.46C365.436 150.276 363.75 152.008 363.527 154.33C363.304 156.652 364.609 158.685 366.459 158.862C368.145 159.033 369.693 157.249 370.125 155.235" stroke="black" stroke-width="0.75" stroke-linecap="round" stroke-linejoin="round"/>
<path d="M366.459 158.849L364.806 158.705C362.956 158.528 361.645 156.494 361.881 154.173C362.117 151.851 363.789 150.119 365.633 150.303L367.286 150.447" stroke="black" stroke-width="0.75" stroke-linecap="round" stroke-linejoin="round"/>
<path d="M366.689 160.869H366.282L364.623 160.699C363.858 160.618 363.122 160.362 362.472 159.95C361.823 159.538 361.277 158.982 360.877 158.325C360.063 157.027 359.71 155.493 359.874 153.969C360.019 152.393 360.716 150.918 361.841 149.804C362.357 149.273 362.984 148.862 363.677 148.602C364.369 148.341 365.111 148.236 365.849 148.296L367.502 148.44C368.8 148.585 369.99 149.229 370.821 150.237L375.878 149.47C376.139 149.434 376.387 149.332 376.6 149.175C376.812 149.018 376.981 148.811 377.091 148.571C379.912 142.445 384.884 126.624 386.891 120.111L384.044 120.183C383.58 121.294 382.806 122.248 381.816 122.931C380.825 123.615 379.659 124 378.456 124.04H376.291C372.749 124.04 369.876 120.669 369.876 116.517C369.876 112.365 372.743 108.987 376.272 108.987H378.43C379.542 109.015 380.626 109.341 381.569 109.932C382.512 110.523 383.278 111.356 383.788 112.345L389.239 111.958C392.722 102.027 394.722 83.5634 395.431 75.9811L394.985 74.8267L395.201 75.7843L391.869 76.5648C391.597 77.7861 390.975 78.9017 390.079 79.7753C389.184 80.6489 388.053 81.2427 386.825 81.4842L384.694 81.8187C383.791 81.9412 382.873 81.8553 382.008 81.5677C381.144 81.28 380.358 80.7982 379.709 80.1592C378.366 78.8409 377.496 77.1154 377.237 75.2515C376.977 73.3876 377.341 71.4902 378.272 69.8548C378.708 69.0835 379.311 68.4201 380.038 67.9137C380.764 67.4073 381.596 67.0709 382.47 66.9295L384.595 66.5884H384.667C385.76 66.4886 386.86 66.6786 387.856 67.1392C388.852 67.5998 389.709 68.3147 390.341 69.212L396.008 67.6903C397.241 52.6043 392.86 36.5934 390.898 30.3426C390.883 30.2913 390.857 30.2438 390.822 30.2031C390.787 30.1625 390.744 30.1296 390.695 30.1064C390.643 30.0837 390.588 30.0719 390.531 30.0719C390.475 30.0719 390.419 30.0837 390.367 30.1064L386.635 31.4839C386.392 34.0223 384.917 36.0425 382.739 36.7312L380.686 37.3871C379.816 37.6592 378.895 37.7262 377.995 37.5829C377.095 37.4395 376.24 37.0896 375.498 36.5606C373.958 35.4776 372.82 33.9155 372.261 32.118C371.702 30.3205 371.754 28.3886 372.408 26.6235C372.713 25.7918 373.2 25.0393 373.835 24.4216C374.47 23.8039 375.235 23.337 376.075 23.0554L378.128 22.3995C379.231 22.0358 380.416 22.0054 381.536 22.3123C382.656 22.6191 383.661 23.2495 384.425 24.1245L386.687 23.2456C388.769 22.3997 391.099 22.3997 393.181 23.2456C394.272 23.6901 395.255 24.3624 396.065 25.2176C396.875 26.0727 397.493 27.091 397.877 28.2043C402.731 42.0703 411.133 81.8122 383.71 151.103C383.154 152.499 382.235 153.722 381.048 154.644C379.862 155.567 378.451 156.156 376.96 156.35L371.628 157.006C370.788 159.033 369.017 160.869 366.689 160.869ZM365.377 150.25C364.553 150.272 363.771 150.616 363.199 151.208C362.444 152.007 361.971 153.031 361.853 154.125C361.734 155.218 361.977 156.32 362.543 157.262C362.781 157.668 363.11 158.013 363.503 158.27C363.897 158.528 364.346 158.69 364.813 158.744L366.466 158.889C368.256 158.889 369.496 157.308 369.988 155.832C370.05 155.659 370.159 155.506 370.302 155.39C370.446 155.274 370.619 155.2 370.801 155.176L376.704 154.422C377.848 154.272 378.93 153.819 379.838 153.109C380.747 152.4 381.45 151.46 381.873 150.388C409.061 81.7072 400.822 42.5163 396.021 28.8602C395.726 28.0099 395.253 27.2324 394.633 26.5797C394.013 25.927 393.261 25.4142 392.427 25.0756C390.81 24.4361 389.009 24.4502 387.402 25.1149L384.477 26.2366C384.279 26.315 384.06 26.326 383.855 26.2679C383.65 26.2098 383.47 26.0859 383.342 25.9152C382.122 24.3213 380.502 23.731 378.751 24.295L376.704 24.951C376.141 25.1472 375.628 25.467 375.203 25.8869C374.779 26.3067 374.454 26.8161 374.251 27.3778C373.771 28.7243 373.741 30.1904 374.165 31.5555C374.59 32.9206 375.447 34.1108 376.606 34.9471C377.103 35.3076 377.676 35.549 378.281 35.6525C378.886 35.756 379.507 35.7188 380.096 35.544L382.149 34.8881C383.703 34.3896 384.707 32.7891 384.72 30.8017C384.725 30.6014 384.79 30.4073 384.907 30.2447C385.024 30.0821 385.187 29.9585 385.376 29.89L389.613 28.2437C389.915 28.1285 390.238 28.0762 390.562 28.09C390.885 28.1039 391.202 28.1835 391.494 28.3241C391.786 28.4647 392.045 28.6633 392.258 28.9077C392.47 29.1521 392.63 29.4373 392.728 29.7457C394.755 36.2064 399.327 52.9323 397.858 68.5496C397.84 68.7496 397.762 68.9393 397.633 69.093C397.503 69.2468 397.33 69.357 397.136 69.4088L390.151 71.2847C389.949 71.3407 389.735 71.3301 389.54 71.2544C389.345 71.1788 389.18 71.0422 389.068 70.8649C388.012 69.2383 386.353 68.2938 384.857 68.543H384.818L382.726 68.8775C382.14 68.9748 381.583 69.202 381.096 69.5425C380.609 69.883 380.204 70.3281 379.912 70.8453C379.208 72.0963 378.934 73.5438 379.132 74.9655C379.33 76.3873 379.989 77.7049 381.007 78.7162C381.439 79.1519 381.966 79.4825 382.546 79.6827C383.126 79.8828 383.744 79.9471 384.352 79.8706L386.478 79.5361C388.229 79.2738 389.652 77.6799 390.033 75.6006C390.065 75.4116 390.152 75.2364 390.284 75.0973C390.416 74.9583 390.587 74.8618 390.774 74.8201L394.709 73.9018C395.043 73.8273 395.389 73.8317 395.72 73.9149C396.052 73.998 396.359 74.1575 396.618 74.3806C396.872 74.6043 397.07 74.8849 397.196 75.1994C397.321 75.514 397.37 75.8537 397.34 76.191C396.611 84.016 394.513 103.28 390.82 113.276C390.755 113.457 390.64 113.615 390.487 113.732C390.335 113.848 390.152 113.918 389.961 113.932L383.218 114.405C383.017 114.419 382.817 114.372 382.644 114.268C382.472 114.165 382.335 114.011 382.254 113.827C381.952 113.033 381.427 112.344 380.741 111.843C380.055 111.343 379.238 111.052 378.39 111.007H376.232C373.779 111.007 371.792 113.499 371.792 116.569C371.792 119.639 373.759 122.125 376.226 122.125H378.39C380.115 122.125 381.67 120.872 382.411 118.924C382.473 118.743 382.587 118.585 382.739 118.468C382.89 118.351 383.073 118.282 383.264 118.268L386.543 118.025C386.883 118.005 387.224 118.066 387.535 118.204C387.847 118.342 388.121 118.553 388.334 118.819C388.545 119.083 388.688 119.396 388.75 119.729C388.812 120.062 388.79 120.405 388.688 120.728C386.674 127.287 381.67 143.193 378.803 149.424C378.557 149.961 378.18 150.428 377.707 150.782C377.233 151.135 376.679 151.365 376.094 151.451L370.46 152.303C370.275 152.331 370.085 152.305 369.913 152.23C369.742 152.154 369.595 152.032 369.489 151.877C369.246 151.484 368.917 151.15 368.528 150.901C368.139 150.651 367.698 150.492 367.24 150.434L365.587 150.29C365.507 150.271 365.426 150.258 365.344 150.25H365.377Z" fill="black"/>
</svg>
