<svg width="1440" height="1610" viewBox="0 0 1440 1610" fill="none" xmlns="http://www.w3.org/2000/svg">
<path d="M1352.3 844.61C1381.17 837.715 1410.41 832.411 1439.86 828.72V1659.02H0V979.742C47.0213 945.327 91.5607 922.392 133.542 908.393C140.058 907.954 146.346 907.636 152.46 907.462C229.568 905.086 279.381 921.643 348.286 959.122C407.241 991.168 464.818 1037.54 527.934 1061.05C532.913 1062.92 537.935 1064.63 543 1066.18C551.069 1068.67 559.266 1070.73 567.555 1072.34C572.625 1073.32 577.665 1074.25 582.689 1075.37C617.815 1083.32 797.403 1116.36 1007.25 1015.95C1038.87 1000.8 1069.42 983.537 1098.71 964.267C1110.46 956.579 1122.25 948.402 1134.08 939.735C1134.13 939.69 1134.19 939.667 1134.23 939.621C1151.97 926.693 1170.57 915.007 1189.92 904.647C1212.49 892.555 1235.83 881.939 1259.78 872.866C1289.97 861.433 1320.87 851.995 1352.3 844.61V844.61Z" fill="#571984"/>
<path d="M1439.86 823.627V828.72C1410.41 832.411 1381.17 837.716 1352.3 844.611C1355.12 838.701 1358.47 831.944 1362.32 824.611C1388.12 822.698 1414.02 822.369 1439.86 823.627V823.627Z" fill="#461075"/>
<path d="M1439.86 714.904V823.627C1414.02 822.374 1388.12 822.708 1362.32 824.626C1379.7 791.339 1406.89 746.277 1439.86 714.904Z" fill="#D373B5"/>
<path d="M1439.86 636.246V714.904C1406.89 746.277 1379.71 791.331 1362.32 824.626C1326.37 827.183 1290.77 833.369 1256.06 843.089C1248.53 792.61 1231.04 713.573 1191.11 648.89C1220.4 650.268 1285.88 651.44 1351.38 639.863C1378.09 635.133 1409.32 634.642 1439.86 636.246Z" fill="#46B7A0"/>
<path d="M1020.02 540.561C938.936 538.813 877.295 600.341 845.9 640.264C789.813 633.62 687.318 623.692 599.813 627.286C596.143 594.514 600.434 555.453 598.035 520.592C713 518.564 1108.74 512.412 1439.86 517.013V636.223C1409.32 634.619 1378.09 635.111 1351.38 639.84C1285.88 651.418 1220.4 650.244 1191.11 648.867C1157.47 594.385 1107.92 550.096 1035.01 541.568C1030.06 540.973 1025.08 540.63 1020.08 540.539L1020.02 540.561Z" fill="#63D1BE"/>
<path d="M1341.25 446.132C1371.52 446.443 1404.62 444.021 1439.86 440.487V517.035C1108.74 512.434 713.001 518.548 598.035 520.614C595.372 482.28 584.573 449.061 546.065 434.994C526.466 427.843 512.157 420.019 501.465 411.756C609.454 409.554 1147.41 400.466 1256.7 434.933C1281.41 442.727 1309.83 445.83 1341.25 446.132Z" fill="#89EADE"/>
<path d="M1439.86 340.981V440.487C1404.62 444.021 1371.54 446.442 1341.25 446.132C1340.63 443.173 1320.72 344.757 1439.86 340.981Z" fill="#32609B"/>
<path d="M1383.16 199.645C1408.58 202.354 1427.69 206.796 1439.86 210.33V340.981C1320.72 344.765 1340.63 443.174 1341.25 446.163C1309.83 445.89 1281.41 442.758 1256.7 434.964C1233.84 320.059 1075.14 373.875 975.212 307.127C1000.94 292.243 1025.83 279.288 1049.83 267.998C1199.49 197.534 1314.43 192.267 1383.16 199.645Z" fill="#C15899"/>
<path d="M1362.29 824.626C1358.45 831.958 1355.1 838.715 1352.28 844.625C1320.86 852.021 1289.97 861.47 1259.79 872.911C1258.97 864.845 1257.75 854.75 1256.01 843.09C1290.72 833.368 1326.33 827.181 1362.29 824.626V824.626Z" fill="#461075"/>
<path d="M1344.57 141.023C1357.88 153.267 1369.27 170.936 1383.16 199.645C1314.43 192.267 1199.49 197.534 1049.86 267.967C947.449 177.065 1002.29 114.94 1016.2 101.872C1016.25 101.835 1016.31 101.792 1016.35 101.743C1017.26 100.941 1018.19 100.139 1019.13 99.3138C1052.48 70.3851 1087.01 44.0141 1175.22 76.6128C1238.33 99.9494 1277.38 108.455 1305.17 118.633C1321.24 124.489 1333.54 130.891 1344.57 141.023Z" fill="#38AFA5"/>
<path d="M1256.06 843.097C1257.77 854.72 1259 864.852 1259.84 872.919C1235.9 881.992 1212.56 892.608 1189.99 904.7C1190.58 891.549 1190.91 878.862 1190.96 866.638C1212.07 857.232 1233.82 849.364 1256.06 843.097Z" fill="#461075"/>
<path d="M1191.11 648.89C1231.04 713.573 1248.53 792.61 1256.06 843.09C1233.81 849.346 1212.05 857.203 1190.93 866.6C1192.76 556.474 1030.79 541.219 1020.08 540.561C1025.08 540.652 1030.06 540.995 1035.01 541.59C1107.92 550.118 1157.47 594.423 1191.11 648.89Z" fill="#674378"/>
<path d="M845.9 640.301C877.295 600.378 938.974 538.851 1020.02 540.599H1020.08C1030.79 541.272 1192.76 556.49 1190.93 866.638C1163.41 878.89 1137.17 893.845 1112.61 911.283C1087.05 882.241 1045.04 849.445 985.889 849.627C971.577 849.572 957.297 850.979 943.272 853.826C920.518 858.555 902.72 866.955 888.789 876.936C885.634 818.541 873.86 703.546 829.646 662.791C833.482 656.949 838.946 649.132 845.9 640.301Z" fill="#463353"/>
<path d="M1190.93 866.6C1190.87 878.823 1190.54 891.511 1189.96 904.662C1170.61 915.023 1152 926.709 1134.27 939.637C1134.23 939.682 1134.16 939.705 1134.12 939.75C1127.68 929.715 1120.49 920.182 1112.61 911.238C1137.17 893.802 1163.41 878.85 1190.93 866.6V866.6Z" fill="#461075"/>
<path d="M788.792 193.372C846.119 197.216 895.759 212.289 934.335 267.165C945.339 282.914 959.199 296.458 975.197 307.096C1075.08 373.845 1233.8 320.028 1256.69 434.933C1147.39 400.465 609.454 409.553 501.465 411.778C455.004 375.759 477.379 331.25 433.43 297.145C393.075 265.856 358.926 271.418 333.924 286.302C321.302 293.786 311.019 303.706 303.467 312.454C285.352 273.9 262.605 242.081 234.206 224.064C272.42 198.843 361.014 149.96 463.759 157.89C475.342 158.777 486.859 160.387 498.242 162.71C509.154 164.92 519.922 167.793 530.485 171.314C624.747 202.596 713.424 188.287 788.792 193.372Z" fill="#285689"/>
<path d="M1112.58 911.238C1120.47 920.183 1127.66 929.715 1134.1 939.751C1122.28 948.418 1110.48 956.595 1098.72 964.283L1098.54 964.01C1090.83 964.366 1083.19 964.767 1075.59 965.19C1074.06 958.555 1072.16 952.012 1069.9 945.592C1083.41 933.283 1097.67 921.81 1112.58 911.238V911.238Z" fill="#461075"/>
<path d="M1075.61 965.19C1083.18 964.744 1090.85 964.366 1098.56 964.01L1098.74 964.283C1069.46 983.553 1038.9 1000.82 1007.29 1015.97C1019.67 998.62 1033.3 982.206 1048.08 966.855C1057.17 966.235 1066.35 965.68 1075.61 965.19Z" fill="#461075"/>
<path d="M1112.58 911.238C1097.67 921.81 1083.41 933.283 1069.9 945.592C1057.34 909.732 1023.74 847.358 943.249 853.805C957.275 850.957 971.555 849.549 985.866 849.605C1045.04 849.4 1087.05 882.196 1112.58 911.238Z" fill="#616BDC"/>
<path d="M1069.92 945.592C1072.19 952.012 1074.09 958.555 1075.61 965.19C1066.35 965.695 1057.17 966.25 1048.08 966.855C1054.8 959.833 1062.08 952.745 1069.92 945.592Z" fill="#461075"/>
<path d="M888.782 876.891C902.72 866.91 920.518 858.511 943.264 853.782C1023.78 847.335 1057.36 909.709 1069.91 945.569C1062.07 952.702 1054.79 959.79 1048.07 966.832C992.124 970.57 939.33 976.012 890.174 982.542L889.909 980.544C889.909 980.544 875.426 960.545 845.892 932.441C850.066 921.633 855.728 911.46 862.714 902.218C870.082 892.514 878.87 883.977 888.782 876.891V876.891Z" fill="#495EC4"/>
<path d="M1019.13 99.314C1018.19 100.139 1017.26 100.941 1016.35 101.743C1018.06 100.139 1019.13 99.314 1019.13 99.314Z" fill="#C15899"/>
<path d="M1048.08 966.855C1033.3 982.205 1019.67 998.62 1007.29 1015.97C797.441 1116.38 617.853 1083.31 582.727 1075.38C577.68 1074.25 572.64 1073.32 567.593 1072.35C559.304 1070.74 551.107 1068.69 543.038 1066.19C541.222 1063.71 539.254 1061.02 537.083 1058.2C601.455 1038.13 725.335 1004.43 890.204 982.579C939.337 976.034 992.132 970.593 1048.08 966.855Z" fill="#3A92A8"/>
<path d="M1016.2 101.872C1002.29 114.94 947.449 177.065 1049.86 267.967C1025.86 279.257 1000.98 292.182 975.243 307.096C959.245 296.458 945.384 282.914 934.381 267.165C895.789 212.282 846.165 197.216 788.837 193.372C809.079 175.287 852.4 146.555 924.786 144.943C968.266 143.959 992.329 122.719 1016.2 101.872Z" fill="#3A92A8"/>
<path d="M705.577 832.601C768.822 865.752 815.39 903.421 845.9 932.485C875.411 960.589 889.917 980.589 889.917 980.589L890.182 982.586C725.312 1004.43 601.433 1038.14 537.06 1058.2C487.913 993.566 350.572 846.759 150.326 903.262C110.372 826.449 46.9305 787.184 0 767.654V534.409C20.8925 524.458 47.5283 512.571 76.5478 501.568C86.6648 497.747 97.0846 494.039 107.641 490.551C198.445 460.638 299.842 448.062 320.175 530.209C344.435 628.194 -95.1096 794.449 303.997 758.498C305.26 758.384 306.509 758.278 307.78 758.187C328.71 756.386 349.051 755.365 368.8 755.123C452.544 754.033 525.808 766.035 588.841 785.005C613.217 792.326 637.15 801.045 660.523 811.119C664.526 812.829 668.484 814.584 672.366 816.339C683.903 821.606 694.973 827.027 705.577 832.601Z" fill="#C15899"/>
<path d="M829.638 662.73C873.852 703.501 885.634 818.497 888.782 876.876C878.871 883.969 870.085 892.515 862.721 902.226C849.388 624.653 767.067 655.118 765.016 655.92C772.074 651.702 779.969 649.078 788.148 648.232C804.463 646.507 818.144 652.106 829.638 662.73Z" fill="#88569A"/>
<path d="M862.721 902.241C855.735 911.484 850.073 921.656 845.899 932.463C815.389 903.421 768.822 865.753 705.577 832.579C706.644 792.519 714.294 686.036 764.978 655.927C767.067 655.133 849.388 624.668 862.721 902.241Z" fill="#674378"/>
<path d="M845.9 640.302C838.946 649.17 833.482 656.949 829.638 662.768C818.144 652.174 804.463 646.545 788.148 648.285C779.969 649.131 772.074 651.755 765.016 655.973V655.973C714.317 686.082 706.682 792.565 705.615 832.625C695.021 827.05 683.941 821.63 672.373 816.363C686.554 786.05 706.531 721.814 639.578 692.62C612.874 680.975 603.158 656.662 599.851 627.309C687.318 623.692 789.813 633.62 845.9 640.302Z" fill="#46B7A0"/>
<path d="M639.54 692.597C706.493 721.79 686.516 786.026 672.335 816.34C668.454 814.584 664.496 812.829 660.493 811.119C660.803 809.742 661.098 808.38 661.363 807.025C669.203 768.055 652.722 728.502 620.834 704.75C604.815 692.794 583.877 670.085 572.837 628.89C581.615 628.202 590.634 627.664 599.813 627.286C603.12 656.639 612.836 680.951 639.54 692.597Z" fill="#8B409D"/>
<path d="M620.835 704.75C652.722 728.502 669.203 768.055 661.363 807.025C661.099 808.38 660.803 809.742 660.493 811.119L548.615 631.312L551.46 630.979C558.392 630.155 565.55 629.466 572.837 628.891C583.877 670.085 604.838 692.794 620.835 704.75Z" fill="#6C3190"/>
<path d="M548.615 631.312L660.493 811.119C637.12 801.046 613.187 792.327 588.811 785.006C563.371 751.279 508.888 689.752 444.584 680.861C426.87 678.345 408.808 680.215 391.986 686.309C386.545 674.202 381.324 659.219 376.943 640.824C424.743 640.597 486.581 638.508 548.615 631.312Z" fill="#6C3190"/>
<path d="M501.465 411.778C512.157 420.042 526.436 427.866 546.065 435.017C584.574 449.084 595.372 482.303 598.035 520.637C600.434 555.445 596.143 594.536 599.813 627.332C590.635 627.71 581.615 628.247 572.837 628.936C568.418 612.516 565.573 593.159 565.27 570.405C563.469 446.972 428.663 476.325 422.617 375.071C416.571 273.817 333.939 286.28 333.939 286.28C358.91 271.365 393.091 265.849 433.445 297.123C477.379 331.228 455.011 375.737 501.465 411.778Z" fill="#8B409D"/>
<path d="M565.24 570.359C565.573 593.113 568.418 612.47 572.807 628.89C565.52 629.465 558.361 630.154 551.43 630.979L548.585 631.312L333.939 286.279C333.939 286.279 416.556 273.748 422.602 375.025C428.648 476.302 563.439 446.926 565.24 570.359Z" fill="#6C3190"/>
<path d="M399.099 700.504C410.411 689.729 425.228 681.995 444.561 680.83C508.881 689.721 563.363 751.249 588.788 784.975C525.755 766.005 452.492 754.003 368.748 755.093C373.727 737.727 382.792 715.971 399.099 700.504Z" fill="#616BDC"/>
<path d="M333.939 286.279L548.63 631.334C486.581 638.53 424.758 640.619 376.935 640.846C372.522 621.983 369.374 602.847 367.514 583.564C359.781 507.659 342.097 394.669 303.482 312.454C311.019 303.676 321.302 293.733 333.939 286.279Z" fill="#6C3190"/>
<path d="M537.06 1058.18C539.217 1061 541.199 1063.69 543.015 1066.18C537.971 1064.63 532.949 1062.92 527.949 1061.05L537.06 1058.18Z" fill="#64249B"/>
<path d="M537.06 1058.18L527.98 1061.05C464.833 1037.54 407.286 991.168 348.332 959.122C279.427 921.643 229.613 905.086 152.505 907.462C151.817 906.039 151.083 904.64 150.356 903.24C350.587 846.737 487.912 993.545 537.06 1058.18Z" fill="#64249B"/>
<path d="M391.963 686.309C408.785 680.215 426.847 678.345 444.561 680.861C425.227 681.996 410.411 689.729 399.099 700.535C396.7 696.297 394.301 691.553 391.963 686.309Z" fill="#495EC4"/>
<path d="M391.963 686.309C394.301 691.553 396.7 696.259 399.099 700.504C382.792 715.949 373.726 737.727 368.77 755.123C349.015 755.39 328.675 756.412 307.75 758.187C335.748 718.415 364.26 696.236 391.963 686.309Z" fill="#495EC4"/>
<path d="M303.467 312.431C342.059 394.646 359.765 507.66 367.499 583.542C369.359 602.824 372.506 621.961 376.92 640.824C381.301 659.219 386.522 674.171 391.963 686.309C364.26 696.237 335.748 718.415 307.75 758.195C306.509 758.286 305.26 758.392 303.966 758.506C-95.1096 794.449 344.435 628.194 320.175 530.209C299.842 448.062 198.407 460.638 107.641 490.551C112.174 483.639 117.202 477.063 122.684 470.876C149.97 440.056 117.213 425.474 81.7539 441.365C86.5514 396.795 92.7942 360.708 99.7936 331.507C111.144 319.044 113.588 307.981 108.216 300.626C111.167 291.046 114.216 282.465 117.296 274.739C127.761 248.611 138.65 232.629 148.321 222.875C158.915 212.213 167.995 208.99 173.542 208.097C173.571 208.089 173.603 208.089 173.632 208.097C175.494 208.014 177.363 207.945 179.187 207.945C199.565 207.877 217.824 213.697 234.206 224.079C262.643 242.08 285.352 273.877 303.467 312.431Z" fill="#524080"/>
<path d="M271.648 0.0120275C270.467 0.0120275 269.287 0.102519 268.152 0.17041C269.311 0.026734 270.48 -0.0262024 271.648 0.0120275V0.0120275Z" fill="#3DB283"/>
<path d="M173.632 208.059C175.464 207.714 177.339 207.663 179.187 207.908C177.363 207.908 175.494 207.976 173.632 208.059Z" fill="#BEDDD9"/>
<path d="M168.744 208.437C170.364 208.286 171.968 208.15 173.542 208.082C168.01 208.975 158.9 212.198 148.321 222.86C147.837 219.833 147.254 216.527 146.588 212.932C153.797 210.668 161.223 209.161 168.744 208.437V208.437Z" fill="#45336B"/>
<path d="M150.326 903.24C151.083 904.64 151.786 906.039 152.475 907.462C146.346 907.644 140.058 907.954 133.557 908.393C139.192 906.506 144.782 904.789 150.326 903.24Z" fill="#64249B"/>
<path d="M146.588 212.933C147.254 216.527 147.836 219.864 148.321 222.86C138.68 232.614 127.791 248.588 117.296 274.725L115.828 274.301C115.54 258.788 114.67 244.237 113.316 230.616C123.222 222.722 134.502 216.727 146.588 212.933V212.933Z" fill="#45336B"/>
<path d="M133.542 908.393C91.591 922.392 47.0213 945.327 0 979.742V767.654C46.9154 787.184 110.372 826.45 150.326 903.24C144.787 904.799 139.192 906.516 133.542 908.393Z" fill="#285689"/>
<path d="M130.039 153.381C137.259 172.718 142.796 192.643 146.588 212.933C134.513 216.73 123.243 222.725 113.346 230.617C98.9688 85.232 28.8 42.7662 0 31.3476V30.7727C1.93715 30.6819 3.95754 30.5681 6.0536 30.5C10.6543 31.4988 15.0735 32.7249 19.3867 34.1021C29.2081 37.2624 38.6668 41.4551 47.604 46.6102C55.2131 51.0236 62.4262 56.0872 69.1624 61.7441C84.4023 74.5399 96.85 89.8781 106.997 106.094C116.196 121.07 123.913 136.907 130.039 153.381V153.381Z" fill="#804A89"/>
<path d="M81.7538 441.373C117.213 425.482 149.97 440.063 122.684 470.884C117.202 477.071 112.174 483.646 107.641 490.558C97.0467 494.046 86.6648 497.754 76.5477 501.576C78.0157 479.974 79.7511 459.907 81.7538 441.373Z" fill="#616BDC"/>
<path d="M115.858 274.301L117.326 274.725C114.239 282.435 111.19 291.032 108.246 300.611C102.624 292.878 88.3599 289.261 66.8242 292.409C78.8255 268.543 93.4449 246.303 113.354 230.617C114.701 244.237 115.571 258.789 115.858 274.301Z" fill="#45336B"/>
<path d="M108.238 300.611C113.611 307.966 111.189 319.029 99.8163 331.492C102.503 320.217 105.325 309.941 108.238 300.611Z" fill="#616BDC"/>
<path d="M113.346 230.616C93.4373 246.303 78.8179 268.542 66.8166 292.409C58.2555 293.715 49.8101 295.691 41.558 298.318C27.2866 302.745 13.265 311.432 0 322.381V31.3472C28.8 42.7658 98.9461 85.2316 113.346 230.616Z" fill="#66396F"/>
<path d="M66.8242 292.409C88.3599 289.253 102.624 292.878 108.246 300.611C105.333 309.941 102.51 320.187 99.8239 331.492C96.5329 335.082 92.9682 338.412 89.162 341.45C44.8042 377.401 23.8285 482.257 64.3573 451.686C69.7502 447.596 75.5888 444.128 81.7614 441.35C79.7436 459.904 78.0082 479.969 76.5553 501.545C47.5283 512.57 20.8925 524.458 0 534.409V322.381C13.265 311.432 27.2866 302.745 41.558 298.318C49.8125 295.691 58.2605 293.715 66.8242 292.409V292.409Z" fill="#616BDC"/>
<path d="M89.1317 341.473C92.938 338.435 96.5027 335.105 99.7936 331.515C92.7941 360.716 86.5514 396.803 81.7539 441.372C75.5812 444.15 69.7427 447.618 64.3498 451.709C23.7982 482.28 44.774 377.424 89.1317 341.473Z" fill="#45336B"/>
<path d="M0 29.2588C2.05066 29.6371 4.04834 30.0151 6.0536 30.4993C3.98781 30.5674 1.96742 30.6812 0 30.772V29.2588Z" fill="#804A89"/>
</svg>
