<svg width="1440" height="1610" viewBox="0 0 1440 1610" fill="none" xmlns="http://www.w3.org/2000/svg">
<path d="M1352.3 844.61C1381.17 837.715 1410.41 832.411 1439.86 828.72V1659.02H0V979.742C47.0213 945.327 91.5607 922.392 133.542 908.393C140.058 907.954 146.346 907.636 152.46 907.462C229.568 905.086 279.381 921.643 348.286 959.122C407.241 991.168 464.818 1037.54 527.934 1061.05C532.913 1062.92 537.935 1064.63 543 1066.18C551.069 1068.67 559.266 1070.73 567.555 1072.34C572.625 1073.32 577.665 1074.25 582.689 1075.37C617.815 1083.32 797.403 1116.36 1007.25 1015.95C1038.87 1000.8 1069.42 983.537 1098.71 964.267C1110.46 956.579 1122.25 948.402 1134.08 939.735C1134.13 939.69 1134.19 939.667 1134.23 939.621C1151.97 926.693 1170.57 915.007 1189.92 904.647C1212.49 892.555 1235.83 881.939 1259.78 872.866C1289.97 861.433 1320.87 851.995 1352.3 844.61V844.61Z" fill="#571984"/>
<path d="M1439.86 823.627V828.72C1410.41 832.411 1381.17 837.716 1352.3 844.611C1355.12 838.701 1358.47 831.944 1362.32 824.611C1388.12 822.698 1414.02 822.369 1439.86 823.627V823.627Z" fill="#461075"/>
<path d="M1439.86 714.904V823.627C1414.02 822.374 1388.12 822.708 1362.32 824.626C1379.7 791.339 1406.89 746.277 1439.86 714.904Z" fill="#D373B5"/>
<path d="M1439.86 636.246V714.904C1406.89 746.277 1379.71 791.331 1362.32 824.626C1326.37 827.183 1290.77 833.369 1256.06 843.089C1248.53 792.61 1231.04 713.573 1191.11 648.89C1220.4 650.268 1285.88 651.44 1351.38 639.863C1378.09 635.133 1409.32 634.642 1439.86 636.246Z" fill="#46B7A0"/>
<path d="M1020.02 540.561C938.936 538.813 877.295 600.341 845.9 640.264C789.813 633.62 687.318 623.692 599.813 627.286C596.143 594.514 600.434 555.453 598.035 520.592C713 518.564 1108.74 512.412 1439.86 517.013V636.223C1409.32 634.619 1378.09 635.111 1351.38 639.84C1285.88 651.418 1220.4 650.244 1191.11 648.867C1157.47 594.385 1107.92 550.096 1035.01 541.568C1030.06 540.973 1025.08 540.63 1020.08 540.539L1020.02 540.561Z" fill="#63D1BE"/>
<path d="M1341.25 446.132C1371.52 446.443 1404.62 444.021 1439.86 440.487V517.035C1108.74 512.434 713.001 518.548 598.035 520.614C595.372 482.28 584.573 449.061 546.065 434.994C526.466 427.843 512.157 420.019 501.465 411.756C609.454 409.554 1147.41 400.466 1256.7 434.933C1281.41 442.727 1309.83 445.83 1341.25 446.132Z" fill="#89EADE"/>
<path d="M1439.86 340.981V440.487C1404.62 444.021 1371.54 446.442 1341.25 446.132C1340.63 443.173 1320.72 344.757 1439.86 340.981Z" fill="#32609B"/>
<path d="M1383.16 199.645C1408.58 202.354 1427.69 206.796 1439.86 210.33V340.981C1320.72 344.765 1340.63 443.174 1341.25 446.163C1309.83 445.89 1281.41 442.758 1256.7 434.964C1233.84 320.059 1075.14 373.875 975.212 307.127C1000.94 292.243 1025.83 279.288 1049.83 267.998C1199.49 197.534 1314.43 192.267 1383.16 199.645Z" fill="#C15899"/>
<path d="M1362.29 824.626C1358.45 831.958 1355.1 838.715 1352.28 844.625C1320.86 852.021 1289.97 861.47 1259.79 872.911C1258.97 864.845 1257.75 854.75 1256.01 843.09C1290.72 833.368 1326.33 827.181 1362.29 824.626V824.626Z" fill="#461075"/>
<path d="M1344.57 141.023C1357.88 153.267 1369.27 170.936 1383.16 199.645C1314.43 192.267 1199.49 197.534 1049.86 267.967C947.449 177.065 1002.29 114.94 1016.2 101.872C1016.25 101.835 1016.31 101.792 1016.35 101.743C1017.26 100.941 1018.19 100.139 1019.13 99.3138C1052.48 70.3851 1087.01 44.0141 1175.22 76.6128C1238.33 99.9494 1277.38 108.455 1305.17 118.633C1321.24 124.489 1333.54 130.891 1344.57 141.023Z" fill="#38AFA5"/>
<path d="M1256.06 843.097C1257.77 854.72 1259 864.852 1259.84 872.919C1235.9 881.992 1212.56 892.608 1189.99 904.7C1190.58 891.549 1190.91 878.862 1190.96 866.638C1212.07 857.232 1233.82 849.364 1256.06 843.097Z" fill="#461075"/>
<path d="M1191.11 648.89C1231.04 713.573 1248.53 792.61 1256.06 843.09C1233.81 849.346 1212.05 857.203 1190.93 866.6C1192.76 556.474 1030.79 541.219 1020.08 540.561C1025.08 540.652 1030.06 540.995 1035.01 541.59C1107.92 550.118 1157.47 594.423 1191.11 648.89Z" fill="#674378"/>
<path d="M845.9 640.301C877.295 600.378 938.974 538.851 1020.02 540.599H1020.08C1030.79 541.272 1192.76 556.49 1190.93 866.638C1163.41 878.89 1137.17 893.845 1112.61 911.283C1087.05 882.241 1045.04 849.445 985.889 849.627C971.577 849.572 957.297 850.979 943.272 853.826C920.518 858.555 902.72 866.955 888.789 876.936C885.634 818.541 873.86 703.546 829.646 662.791C833.482 656.949 838.946 649.132 845.9 640.301Z" fill="#463353"/>
<path d="M1190.93 866.6C1190.87 878.823 1190.54 891.511 1189.96 904.662C1170.61 915.023 1152 926.709 1134.27 939.637C1134.23 939.682 1134.16 939.705 1134.12 939.75C1127.68 929.715 1120.49 920.182 1112.61 911.238C1137.17 893.802 1163.41 878.85 1190.93 866.6V866.6Z" fill="#461075"/>
<path d="M788.792 193.372C846.119 197.216 895.759 212.289 934.335 267.165C945.339 282.914 959.199 296.458 975.197 307.096C1075.08 373.845 1233.8 320.028 1256.69 434.933C1147.39 400.465 609.454 409.553 501.465 411.778C455.004 375.759 477.379 331.25 433.43 297.145C393.075 265.856 358.926 271.418 333.924 286.302C321.302 293.786 311.019 303.706 303.467 312.454C285.352 273.9 262.605 242.081 234.206 224.064C272.42 198.843 361.014 149.96 463.759 157.89C475.342 158.777 486.859 160.387 498.242 162.71C509.154 164.92 519.922 167.793 530.485 171.314C624.747 202.596 713.424 188.287 788.792 193.372Z" fill="#285689"/>
<path d="M1112.58 911.238C1120.47 920.183 1127.66 929.715 1134.1 939.751C1122.28 948.418 1110.48 956.595 1098.72 964.283L1098.54 964.01C1090.83 964.366 1083.19 964.767 1075.59 965.19C1074.06 958.555 1072.16 952.012 1069.9 945.592C1083.41 933.283 1097.67 921.81 1112.58 911.238V911.238Z" fill="#461075"/>
<path d="M1075.61 965.19C1083.18 964.744 1090.85 964.366 1098.56 964.01L1098.74 964.283C1069.46 983.553 1038.9 1000.82 1007.29 1015.97C1019.67 998.62 1033.3 982.206 1048.08 966.855C1057.17 966.235 1066.35 965.68 1075.61 965.19Z" fill="#461075"/>
<path d="M1112.58 911.238C1097.67 921.81 1083.41 933.283 1069.9 945.592C1057.34 909.732 1023.74 847.358 943.249 853.805C957.275 850.957 971.555 849.549 985.866 849.605C1045.04 849.4 1087.05 882.196 1112.58 911.238Z" fill="#616BDC"/>
<path d="M1069.92 945.592C1072.19 952.012 1074.09 958.555 1075.61 965.19C1066.35 965.695 1057.17 966.25 1048.08 966.855C1054.8 959.833 1062.08 952.745 1069.92 945.592Z" fill="#461075"/>
<path d="M888.782 876.891C902.72 866.91 920.518 858.511 943.264 853.782C1023.78 847.335 1057.36 909.709 1069.91 945.569C1062.07 952.702 1054.79 959.79 1048.07 966.832C992.124 970.57 939.33 976.012 890.174 982.542L889.909 980.544C889.909 980.544 875.426 960.545 845.892 932.441C850.066 921.633 855.728 911.46 862.714 902.218C870.082 892.514 878.87 883.977 888.782 876.891V876.891Z" fill="#495EC4"/>
<path d="M1019.13 99.314C1018.19 100.139 1017.26 100.941 1016.35 101.743C1018.06 100.139 1019.13 99.314 1019.13 99.314Z" fill="#C15899"/>
<path d="M1048.08 966.855C1033.3 982.205 1019.67 998.62 1007.29 1015.97C797.441 1116.38 617.853 1083.31 582.727 1075.38C577.68 1074.25 572.64 1073.32 567.593 1072.35C559.304 1070.74 551.107 1068.69 543.038 1066.19C541.222 1063.71 539.254 1061.02 537.083 1058.2C601.455 1038.13 725.335 1004.43 890.204 982.579C939.337 976.034 992.132 970.593 1048.08 966.855Z" fill="#3A92A8"/>
<path d="M1016.2 101.872C1002.29 114.94 947.449 177.065 1049.86 267.967C1025.86 279.257 1000.98 292.182 975.243 307.096C959.245 296.458 945.384 282.914 934.381 267.165C895.789 212.282 846.165 197.216 788.837 193.372C809.079 175.287 852.4 146.555 924.786 144.943C968.266 143.959 992.329 122.719 1016.2 101.872Z" fill="#3A92A8"/>
<path d="M705.577 832.601C768.822 865.752 815.39 903.421 845.9 932.485C875.411 960.589 889.917 980.589 889.917 980.589L890.182 982.586C725.312 1004.43 601.433 1038.14 537.06 1058.2C487.913 993.566 350.572 846.759 150.326 903.262C110.372 826.449 46.9305 787.184 0 767.654V534.409C20.8925 524.458 47.5283 512.571 76.5478 501.568C86.6648 497.747 97.0846 494.039 107.641 490.551C198.445 460.638 299.842 448.062 320.175 530.209C344.435 628.194 -95.1096 794.449 303.997 758.498C305.26 758.384 306.509 758.278 307.78 758.187C328.71 756.386 349.051 755.365 368.8 755.123C452.544 754.033 525.808 766.035 588.841 785.005C613.217 792.326 637.15 801.045 660.523 811.119C664.526 812.829 668.484 814.584 672.366 816.339C683.903 821.606 694.973 827.027 705.577 832.601Z" fill="#C15899"/>
<path d="M829.638 662.73C873.852 703.501 885.634 818.497 888.782 876.876C878.871 883.969 870.085 892.515 862.721 902.226C849.388 624.653 767.067 655.118 765.016 655.92C772.074 651.702 779.969 649.078 788.148 648.232C804.463 646.507 818.144 652.106 829.638 662.73Z" fill="#88569A"/>
<path d="M862.721 902.241C855.735 911.484 850.073 921.656 845.899 932.463C815.389 903.421 768.822 865.753 705.577 832.579C706.644 792.519 714.294 686.036 764.978 655.927C767.067 655.133 849.388 624.668 862.721 902.241Z" fill="#674378"/>
<path d="M845.9 640.302C838.946 649.17 833.482 656.949 829.638 662.768C818.144 652.174 804.463 646.545 788.148 648.285C779.969 649.131 772.074 651.755 765.016 655.973V655.973C714.317 686.082 706.682 792.565 705.615 832.625C695.021 827.05 683.941 821.63 672.373 816.363C686.554 786.05 706.531 721.814 639.578 692.62C612.874 680.975 603.158 656.662 599.851 627.309C687.318 623.692 789.813 633.62 845.9 640.302Z" fill="#46B7A0"/>
<path d="M639.54 692.597C706.493 721.79 686.516 786.026 672.335 816.34C668.454 814.584 664.496 812.829 660.493 811.119C660.803 809.742 661.098 808.38 661.363 807.025C669.203 768.055 652.722 728.502 620.834 704.75C604.815 692.794 583.877 670.085 572.837 628.89C581.615 628.202 590.634 627.664 599.813 627.286C603.12 656.639 612.836 680.951 639.54 692.597Z" fill="#8B409D"/>
<path d="M620.835 704.75C652.722 728.502 669.203 768.055 661.363 807.025C661.099 808.38 660.803 809.742 660.493 811.119L548.615 631.312L551.46 630.979C558.392 630.155 565.55 629.466 572.837 628.891C583.877 670.085 604.838 692.794 620.835 704.75Z" fill="#6C3190"/>
<path d="M548.615 631.312L660.493 811.119C637.12 801.046 613.187 792.327 588.811 785.006C563.371 751.279 508.888 689.752 444.584 680.861C426.87 678.345 408.808 680.215 391.986 686.309C386.545 674.202 381.324 659.219 376.943 640.824C424.743 640.597 486.581 638.508 548.615 631.312Z" fill="#6C3190"/>
<path d="M501.465 411.778C512.157 420.042 526.436 427.866 546.065 435.017C584.574 449.084 595.372 482.303 598.035 520.637C600.434 555.445 596.143 594.536 599.813 627.332C590.635 627.71 581.615 628.247 572.837 628.936C568.418 612.516 565.573 593.159 565.27 570.405C563.469 446.972 428.663 476.325 422.617 375.071C416.571 273.817 333.939 286.28 333.939 286.28C358.91 271.365 393.091 265.849 433.445 297.123C477.379 331.228 455.011 375.737 501.465 411.778Z" fill="#8B409D"/>
<path d="M565.24 570.359C565.573 593.113 568.418 612.47 572.807 628.89C565.52 629.465 558.361 630.154 551.43 630.979L548.585 631.312L333.939 286.279C333.939 286.279 416.556 273.748 422.602 375.025C428.648 476.302 563.439 446.926 565.24 570.359Z" fill="#6C3190"/>
<path d="M399.099 700.504C410.411 689.729 425.228 681.995 444.561 680.83C508.881 689.721 563.363 751.249 588.788 784.975C525.755 766.005 452.492 754.003 368.748 755.093C373.727 737.727 382.792 715.971 399.099 700.504Z" fill="#616BDC"/>
<path d="M333.939 286.279L548.63 631.334C486.581 638.53 424.758 640.619 376.935 640.846C372.522 621.983 369.374 602.847 367.514 583.564C359.781 507.659 342.097 394.669 303.482 312.454C311.019 303.676 321.302 293.733 333.939 286.279Z" fill="#6C3190"/>
<path d="M537.06 1058.18C539.217 1061 541.199 1063.69 543.015 1066.18C537.971 1064.63 532.949 1062.92 527.949 1061.05L537.06 1058.18Z" fill="#64249B"/>
<path d="M537.06 1058.18L527.98 1061.05C464.833 1037.54 407.286 991.168 348.332 959.122C279.427 921.643 229.613 905.086 152.505 907.462C151.817 906.039 151.083 904.64 150.356 903.24C350.587 846.737 487.912 993.545 537.06 1058.18Z" fill="#64249B"/>
<path d="M391.963 686.309C408.785 680.215 426.847 678.345 444.561 680.861C425.227 681.996 410.411 689.729 399.099 700.535C396.7 696.297 394.301 691.553 391.963 686.309Z" fill="#495EC4"/>
<path d="M391.963 686.309C394.301 691.553 396.7 696.259 399.099 700.504C382.792 715.949 373.726 737.727 368.77 755.123C349.015 755.39 328.675 756.412 307.75 758.187C335.748 718.415 364.26 696.236 391.963 686.309Z" fill="#495EC4"/>
<path d="M303.467 312.431C342.059 394.646 359.765 507.66 367.499 583.542C369.359 602.824 372.506 621.961 376.92 640.824C381.301 659.219 386.522 674.171 391.963 686.309C364.26 696.237 335.748 718.415 307.75 758.195C306.509 758.286 305.26 758.392 303.966 758.506C-95.1096 794.449 344.435 628.194 320.175 530.209C299.842 448.062 198.407 460.638 107.641 490.551C112.174 483.639 117.202 477.063 122.684 470.876C149.97 440.056 117.213 425.474 81.7539 441.365C86.5514 396.795 92.7942 360.708 99.7936 331.507C111.144 319.044 113.588 307.981 108.216 300.626C111.167 291.046 114.216 282.465 117.296 274.739C127.761 248.611 138.65 232.629 148.321 222.875C158.915 212.213 167.995 208.99 173.542 208.097C173.571 208.089 173.603 208.089 173.632 208.097C175.494 208.014 177.363 207.945 179.187 207.945C199.565 207.877 217.824 213.697 234.206 224.079C262.643 242.08 285.352 273.877 303.467 312.431Z" fill="#524080"/>
<path d="M271.648 0.0120275C270.467 0.0120275 269.287 0.102519 268.152 0.17041C269.311 0.026734 270.48 -0.0262024 271.648 0.0120275V0.0120275Z" fill="#3DB283"/>
<path d="M173.632 208.059C175.464 207.714 177.339 207.663 179.187 207.908C177.363 207.908 175.494 207.976 173.632 208.059Z" fill="#BEDDD9"/>
<path d="M168.744 208.437C170.364 208.286 171.968 208.15 173.542 208.082C168.01 208.975 158.9 212.198 148.321 222.86C147.837 219.833 147.254 216.527 146.588 212.932C153.797 210.668 161.223 209.161 168.744 208.437V208.437Z" fill="#45336B"/>
<path d="M150.326 903.24C151.083 904.64 151.786 906.039 152.475 907.462C146.346 907.644 140.058 907.954 133.557 908.393C139.192 906.506 144.782 904.789 150.326 903.24Z" fill="#64249B"/>
<path d="M146.588 212.933C147.254 216.527 147.836 219.864 148.321 222.86C138.68 232.614 127.791 248.588 117.296 274.725L115.828 274.301C115.54 258.788 114.67 244.237 113.316 230.616C123.222 222.722 134.502 216.727 146.588 212.933V212.933Z" fill="#45336B"/>
<path d="M133.542 908.393C91.591 922.392 47.0213 945.327 0 979.742V767.654C46.9154 787.184 110.372 826.45 150.326 903.24C144.787 904.799 139.192 906.516 133.542 908.393Z" fill="#285689"/>
<path d="M130.039 153.381C137.259 172.718 142.796 192.643 146.588 212.933C134.513 216.73 123.243 222.725 113.346 230.617C98.9688 85.232 28.8 42.7662 0 31.3476V30.7727C1.93715 30.6819 3.95754 30.5681 6.0536 30.5C10.6543 31.4988 15.0735 32.7249 19.3867 34.1021C29.2081 37.2624 38.6668 41.4551 47.604 46.6102C55.2131 51.0236 62.4262 56.0872 69.1624 61.7441C84.4023 74.5399 96.85 89.8781 106.997 106.094C116.196 121.07 123.913 136.907 130.039 153.381V153.381Z" fill="#804A89"/>
<path d="M81.7538 441.373C117.213 425.482 149.97 440.063 122.684 470.884C117.202 477.071 112.174 483.646 107.641 490.558C97.0467 494.046 86.6648 497.754 76.5477 501.576C78.0157 479.974 79.7511 459.907 81.7538 441.373Z" fill="#616BDC"/>
<path d="M115.858 274.301L117.326 274.725C114.239 282.435 111.19 291.032 108.246 300.611C102.624 292.878 88.3599 289.261 66.8242 292.409C78.8255 268.543 93.4449 246.303 113.354 230.617C114.701 244.237 115.571 258.789 115.858 274.301Z" fill="#45336B"/>
<path d="M108.238 300.611C113.611 307.966 111.189 319.029 99.8163 331.492C102.503 320.217 105.325 309.941 108.238 300.611Z" fill="#616BDC"/>
<path d="M113.346 230.616C93.4373 246.303 78.8179 268.542 66.8166 292.409C58.2555 293.715 49.8101 295.691 41.558 298.318C27.2866 302.745 13.265 311.432 0 322.381V31.3472C28.8 42.7658 98.9461 85.2316 113.346 230.616Z" fill="#66396F"/>
<path d="M66.8242 292.409C88.3599 289.253 102.624 292.878 108.246 300.611C105.333 309.941 102.51 320.187 99.8239 331.492C96.5329 335.082 92.9682 338.412 89.162 341.45C44.8042 377.401 23.8285 482.257 64.3573 451.686C69.7502 447.596 75.5888 444.128 81.7614 441.35C79.7436 459.904 78.0082 479.969 76.5553 501.545C47.5283 512.57 20.8925 524.458 0 534.409V322.381C13.265 311.432 27.2866 302.745 41.558 298.318C49.8125 295.691 58.2605 293.715 66.8242 292.409V292.409Z" fill="#616BDC"/>
<path d="M89.1317 341.473C92.938 338.435 96.5027 335.105 99.7936 331.515C92.7941 360.716 86.5514 396.803 81.7539 441.372C75.5812 444.15 69.7427 447.618 64.3498 451.709C23.7982 482.28 44.774 377.424 89.1317 341.473Z" fill="#45336B"/>
<path d="M0 29.2588C2.05066 29.6371 4.04834 30.0151 6.0536 30.4993C3.98781 30.5674 1.96742 30.6812 0 30.772V29.2588Z" fill="#804A89"/>
<path d="M445.78 370.217C449.75 370.217 452.968 366.999 452.968 363.029C452.968 359.058 449.75 355.84 445.78 355.84C441.809 355.84 438.591 359.058 438.591 363.029C438.591 366.999 441.809 370.217 445.78 370.217Z" fill="#E0FF78"/>
<path d="M87.9664 377.406C91.9365 377.406 95.155 374.187 95.155 370.217C95.155 366.247 91.9365 363.029 87.9664 363.029C83.9962 363.029 80.7777 366.247 80.7777 370.217C80.7777 374.187 83.9962 377.406 87.9664 377.406Z" fill="#E0FF78"/>
<path d="M1218.97 314.88C1222.94 314.88 1226.16 311.661 1226.16 307.691C1226.16 303.721 1222.94 300.502 1218.97 300.502C1215 300.502 1211.78 303.721 1211.78 307.691C1211.78 311.661 1215 314.88 1218.97 314.88Z" fill="#E0FF78"/>
<path d="M1152.3 292.663C1156.27 292.663 1159.49 289.445 1159.49 285.475C1159.49 281.505 1156.27 278.286 1152.3 278.286C1148.33 278.286 1145.11 281.505 1145.11 285.475C1145.11 289.445 1148.33 292.663 1152.3 292.663Z" fill="#E0FF78"/>
<path d="M907.889 292.663C911.859 292.663 915.077 289.445 915.077 285.475C915.077 281.505 911.859 278.286 907.889 278.286C903.918 278.286 900.7 281.505 900.7 285.475C900.7 289.445 903.918 292.663 907.889 292.663Z" fill="#E0FF78"/>
<path d="M905.664 245.998C909.634 245.998 912.853 242.779 912.853 238.809C912.853 234.839 909.634 231.62 905.664 231.62C901.694 231.62 898.476 234.839 898.476 238.809C898.476 242.779 901.694 245.998 905.664 245.998Z" fill="#E0FF78"/>
<path d="M927.881 442.384C929.866 442.384 931.475 440.774 931.475 438.789C931.475 436.804 929.866 435.195 927.881 435.195C925.896 435.195 924.286 436.804 924.286 438.789C924.286 440.774 925.896 442.384 927.881 442.384Z" fill="#E0FF78"/>
<path d="M839.006 509.049C840.991 509.049 842.601 507.44 842.601 505.455C842.601 503.47 840.991 501.86 839.006 501.86C837.021 501.86 835.412 503.47 835.412 505.455C835.412 507.44 837.021 509.049 839.006 509.049Z" fill="#E0FF78"/>
<path d="M839.006 420.167C840.991 420.167 842.601 418.558 842.601 416.573C842.601 414.588 840.991 412.979 839.006 412.979C837.021 412.979 835.412 414.588 835.412 416.573C835.412 418.558 837.021 420.167 839.006 420.167Z" fill="#E0FF78"/>
<path d="M856.781 435.717C858.766 435.717 860.375 434.108 860.375 432.123C860.375 430.138 858.766 428.528 856.781 428.528C854.796 428.528 853.187 430.138 853.187 432.123C853.187 434.108 854.796 435.717 856.781 435.717Z" fill="#E0FF78"/>
<path d="M1234.52 435.717C1236.5 435.717 1238.11 434.108 1238.11 432.123C1238.11 430.138 1236.5 428.528 1234.52 428.528C1232.53 428.528 1230.92 430.138 1230.92 432.123C1230.92 434.108 1232.53 435.717 1234.52 435.717Z" fill="#E0FF78"/>
<path d="M1145.64 480.158C1147.63 480.158 1149.24 478.549 1149.24 476.564C1149.24 474.579 1147.63 472.97 1145.64 472.97C1143.66 472.97 1142.05 474.579 1142.05 476.564C1142.05 478.549 1143.66 480.158 1145.64 480.158Z" fill="#E0FF78"/>
<path d="M1127.86 489.049C1129.85 489.049 1131.46 487.44 1131.46 485.455C1131.46 483.47 1129.85 481.86 1127.86 481.86C1125.88 481.86 1124.27 483.47 1124.27 485.455C1124.27 487.44 1125.88 489.049 1127.86 489.049Z" fill="#E0FF78"/>
<path d="M927.881 555.708C929.866 555.708 931.475 554.098 931.475 552.113C931.475 550.128 929.866 548.519 927.881 548.519C925.896 548.519 924.286 550.128 924.286 552.113C924.286 554.098 925.896 555.708 927.881 555.708Z" fill="#E0FF78"/>
<path d="M883.44 600.148C885.425 600.148 887.034 598.539 887.034 596.554C887.034 594.569 885.425 592.96 883.44 592.96C881.455 592.96 879.845 594.569 879.845 596.554C879.845 598.539 881.455 600.148 883.44 600.148Z" fill="#E0FF78"/>
<path d="M772.341 577.931C774.326 577.931 775.935 576.322 775.935 574.337C775.935 572.352 774.326 570.743 772.341 570.743C770.356 570.743 768.747 572.352 768.747 574.337C768.747 576.322 770.356 577.931 772.341 577.931Z" fill="#E0FF78"/>
<path d="M763.457 562.374C765.442 562.374 767.052 560.764 767.052 558.779C767.052 556.794 765.442 555.185 763.457 555.185C761.472 555.185 759.863 556.794 759.863 558.779C759.863 560.764 761.472 562.374 763.457 562.374Z" fill="#E0FF78"/>
<path d="M519.035 562.374C521.021 562.374 522.63 560.764 522.63 558.779C522.63 556.794 521.021 555.185 519.035 555.185C517.05 555.185 515.441 556.794 515.441 558.779C515.441 560.764 517.05 562.374 519.035 562.374Z" fill="#E0FF78"/>
<path d="M474.595 629.039C476.58 629.039 478.189 627.43 478.189 625.445C478.189 623.459 476.58 621.85 474.595 621.85C472.61 621.85 471 623.459 471 625.445C471 627.43 472.61 629.039 474.595 629.039Z" fill="#E0FF78"/>
<path d="M403.488 809.762C405.473 809.762 407.082 808.153 407.082 806.167C407.082 804.182 405.473 802.573 403.488 802.573C401.502 802.573 399.893 804.182 399.893 806.167C399.893 808.153 401.502 809.762 403.488 809.762Z" fill="#E0FF78"/>
<path d="M209.878 480.158C211.863 480.158 213.473 478.549 213.473 476.564C213.473 474.579 211.863 472.97 209.878 472.97C207.893 472.97 206.284 474.579 206.284 476.564C206.284 478.549 207.893 480.158 209.878 480.158Z" fill="#E0FF78"/>
<path d="M307.939 626.17C309.924 626.17 311.534 624.561 311.534 622.576C311.534 620.592 309.924 618.982 307.939 618.982C305.954 618.982 304.345 620.592 304.345 622.576C304.345 624.561 305.954 626.17 307.939 626.17Z" fill="#E0FF78"/>
<path d="M39.076 695.697C41.0611 695.697 42.6703 694.088 42.6703 692.103C42.6703 690.117 41.0611 688.508 39.076 688.508C37.0909 688.508 35.4817 690.117 35.4817 692.103C35.4817 694.088 37.0909 695.697 39.076 695.697Z" fill="#E0FF78"/>
<path d="M77.176 650.408C79.1611 650.408 80.7703 648.799 80.7703 646.814C80.7703 644.829 79.1611 643.22 77.176 643.22C75.1909 643.22 73.5817 644.829 73.5817 646.814C73.5817 648.799 75.1909 650.408 77.176 650.408Z" fill="#E0FF78"/>
<path d="M974.546 673.473C976.532 673.473 978.141 671.863 978.141 669.878C978.141 667.893 976.532 666.284 974.546 666.284C972.561 666.284 970.952 667.893 970.952 669.878C970.952 671.863 972.561 673.473 974.546 673.473Z" fill="#E0FF78"/>
<path d="M952.322 651.256C954.307 651.256 955.916 649.647 955.916 647.661C955.916 645.676 954.307 644.067 952.322 644.067C950.337 644.067 948.728 645.676 948.728 647.661C948.728 649.647 950.337 651.256 952.322 651.256Z" fill="#E0FF78"/>
<path d="M356.829 659.504C358.815 659.504 360.424 657.895 360.424 655.909C360.424 653.924 358.815 652.315 356.829 652.315C354.844 652.315 353.235 653.924 353.235 655.909C353.235 657.895 354.844 659.504 356.829 659.504Z" fill="#E0FF78"/>
<path d="M299.055 646.814C301.04 646.814 302.65 645.205 302.65 643.219C302.65 641.234 301.04 639.625 299.055 639.625C297.07 639.625 295.461 641.234 295.461 643.219C295.461 645.205 297.07 646.814 299.055 646.814Z" fill="#E0FF78"/>
<path d="M214.184 767.772C216.169 767.772 217.778 766.163 217.778 764.178C217.778 762.193 216.169 760.583 214.184 760.583C212.199 760.583 210.59 762.193 210.59 764.178C210.59 766.163 212.199 767.772 214.184 767.772Z" fill="#E0FF78"/>
<path d="M81.2999 515.716C83.285 515.716 84.8942 514.107 84.8942 512.122C84.8942 510.137 83.285 508.527 81.2999 508.527C79.3148 508.527 77.7056 510.137 77.7056 512.122C77.7056 514.107 79.3148 515.716 81.2999 515.716Z" fill="#E0FF78"/>
<path d="M52.409 582.373C54.3941 582.373 56.0033 580.764 56.0033 578.779C56.0033 576.794 54.3941 575.185 52.409 575.185C50.4239 575.185 48.8147 576.794 48.8147 578.779C48.8147 580.764 50.4239 582.373 52.409 582.373Z" fill="#E0FF78"/>
<path d="M585.693 533.49C587.678 533.49 589.288 531.881 589.288 529.896C589.288 527.911 587.678 526.302 585.693 526.302C583.708 526.302 582.099 527.911 582.099 529.896C582.099 531.881 583.708 533.49 585.693 533.49Z" fill="#E0FF78"/>
<path d="M84.8942 285.475C88.8644 285.475 92.0829 282.256 92.0829 278.286C92.0829 274.316 88.8644 271.097 84.8942 271.097C80.924 271.097 77.7056 274.316 77.7056 278.286C77.7056 282.256 80.924 285.475 84.8942 285.475Z" fill="#E0FF78"/>
<path d="M1232.3 326.843C1234.29 326.843 1235.9 325.234 1235.9 323.249C1235.9 321.264 1234.29 319.655 1232.3 319.655C1230.32 319.655 1228.71 321.264 1228.71 323.249C1228.71 325.234 1230.32 326.843 1232.3 326.843Z" fill="#E0FF78"/>
<path d="M1143.42 349.06C1145.4 349.06 1147.01 347.45 1147.01 345.465C1147.01 343.48 1145.4 341.871 1143.42 341.871C1141.43 341.871 1139.82 343.48 1139.82 345.465C1139.82 347.45 1141.43 349.06 1143.42 349.06Z" fill="#E0FF78"/>
<path d="M1143.42 349.06C1145.4 349.06 1147.01 347.45 1147.01 345.465C1147.01 343.48 1145.4 341.871 1143.42 341.871C1141.43 341.871 1139.82 343.48 1139.82 345.465C1139.82 347.45 1141.43 349.06 1143.42 349.06Z" fill="#E0FF78"/>
<path d="M1057.62 476.367C1063.57 476.367 1068.4 471.539 1068.4 465.584C1068.4 459.629 1063.57 454.801 1057.62 454.801C1051.66 454.801 1046.83 459.629 1046.83 465.584C1046.83 471.539 1051.66 476.367 1057.62 476.367Z" fill="#E0FF78"/>
<path d="M990.202 540.679C996.158 540.679 1000.99 535.851 1000.99 529.896C1000.99 523.941 996.158 519.113 990.202 519.113C984.247 519.113 979.419 523.941 979.419 529.896C979.419 535.851 984.247 540.679 990.202 540.679Z" fill="#E0FF78"/>
<path d="M225.572 418.358C231.528 418.358 236.355 413.531 236.355 407.575C236.355 401.62 231.528 396.792 225.572 396.792C219.617 396.792 214.789 401.62 214.789 407.575C214.789 413.531 219.617 418.358 225.572 418.358Z" fill="#E0FF78"/>
<path d="M1388.17 412.971C1394.12 412.971 1398.95 408.143 1398.95 402.188C1398.95 396.232 1394.12 391.405 1388.17 391.405C1382.21 391.405 1377.38 396.232 1377.38 402.188C1377.38 408.143 1382.21 412.971 1388.17 412.971Z" fill="#E0FF78"/>
<path d="M126.588 303.446C132.544 303.446 137.371 298.619 137.371 292.663C137.371 286.708 132.544 281.88 126.588 281.88C120.633 281.88 115.805 286.708 115.805 292.663C115.805 298.619 120.633 303.446 126.588 303.446Z" fill="#E0FF78"/>
<path d="M1015.01 442.384C1017 442.384 1018.61 440.774 1018.61 438.789C1018.61 436.804 1017 435.195 1015.01 435.195C1013.03 435.195 1011.42 436.804 1011.42 438.789C1011.42 440.774 1013.03 442.384 1015.01 442.384Z" fill="#E0FF78"/>
</svg>
