<svg width="106" height="48" viewBox="0 0 106 48" fill="none" xmlns="http://www.w3.org/2000/svg">
<path d="M104.366 10.031V38.5455C104.366 39.6253 104.153 40.6946 103.74 41.6921C103.327 42.6897 102.721 43.5962 101.957 44.3597C101.194 45.1232 100.287 45.7289 99.2899 46.1421C98.2923 46.5553 97.2231 46.768 96.1433 46.768H94.2574C94.2574 46.768 100.745 46.3908 100.745 37.5649V11.238C100.745 11.238 101.424 1.80859 94.0311 1.80859H96.1433C98.324 1.80859 100.415 2.67489 101.957 4.21689C103.499 5.7589 104.366 7.85031 104.366 10.031Z" fill="#CC65FC"/>
<path d="M94.0311 1.80859C101.575 1.80859 100.745 11.238 100.745 11.238V37.4895C100.745 46.3154 94.2574 46.6926 94.2574 46.6926H11.8066C4.26312 46.6926 5.0929 37.2632 5.0929 37.2632V10.9363C5.0929 2.18576 11.5803 1.80859 11.5803 1.80859H94.0311Z" fill="#C11AFF"/>
<path d="M11.8067 46.5417H9.54362C7.36289 46.5417 5.27148 45.6754 3.72947 44.1334C2.18746 42.5914 1.32117 40.5 1.32117 38.3193V10.031C1.32117 7.85031 2.18746 5.7589 3.72947 4.21689C5.27148 2.67489 7.36289 1.80859 9.54362 1.80859H11.5804C11.5804 1.80859 5.09293 2.18576 5.09293 10.9363V37.4895C5.09293 37.4895 4.41402 46.5417 11.8067 46.5417Z" fill="#9D0EE0"/>
<path d="M94.0311 1.80859H96.1433C98.324 1.80859 100.415 2.67489 101.957 4.21689C103.499 5.7589 104.366 7.85031 104.366 10.031V38.5455C104.366 39.6253 104.153 40.6946 103.74 41.6921C103.327 42.6897 102.721 43.5962 101.957 44.3597C101.194 45.1232 100.287 45.7289 99.2899 46.1421C98.2923 46.5553 97.2231 46.768 96.1433 46.768H9.54361C8.46383 46.768 7.39461 46.5553 6.39702 46.1421C5.39943 45.7289 4.49299 45.1232 3.72947 44.3597C2.96594 43.5962 2.36028 42.6897 1.94707 41.6921C1.53385 40.6946 1.32117 39.6253 1.32117 38.5455V10.031C1.32117 7.85031 2.18746 5.7589 3.72947 4.21689C5.27148 2.67489 7.36289 1.80859 9.54361 1.80859H94.0311Z" stroke="black" stroke-width="1.69995" stroke-linecap="round" stroke-linejoin="round"/>
<path d="M35.796 32.24C34.932 32.24 34.108 32.136 33.324 31.928C32.556 31.704 31.868 31.368 31.26 30.92C30.652 30.472 30.164 29.92 29.796 29.264C29.444 28.608 29.26 27.832 29.244 26.936C29.244 26.792 29.292 26.672 29.388 26.576C29.484 26.464 29.604 26.408 29.748 26.408H32.028C32.236 26.408 32.388 26.464 32.484 26.576C32.596 26.688 32.684 26.84 32.748 27.032C32.828 27.608 33.012 28.08 33.3 28.448C33.588 28.8 33.948 29.064 34.38 29.24C34.828 29.4 35.324 29.48 35.868 29.48C36.876 29.48 37.644 29.152 38.172 28.496C38.716 27.84 38.988 26.928 38.988 25.76V18.032H30.852C30.676 18.032 30.532 17.976 30.42 17.864C30.324 17.752 30.276 17.616 30.276 17.456V15.776C30.276 15.616 30.324 15.48 30.42 15.368C30.532 15.256 30.676 15.2 30.852 15.2H41.82C41.996 15.2 42.14 15.256 42.252 15.368C42.364 15.48 42.42 15.624 42.42 15.8V25.856C42.42 27.184 42.14 28.328 41.58 29.288C41.036 30.248 40.268 30.984 39.276 31.496C38.3 31.992 37.14 32.24 35.796 32.24ZM52.4843 32.24C51.0603 32.24 49.8363 32.008 48.8123 31.544C47.7883 31.064 46.9883 30.336 46.4123 29.36C45.8363 28.368 45.5243 27.136 45.4763 25.664C45.4603 24.976 45.4523 24.296 45.4523 23.624C45.4523 22.952 45.4603 22.264 45.4763 21.56C45.5243 20.104 45.8443 18.888 46.4363 17.912C47.0283 16.936 47.8363 16.2 48.8603 15.704C49.9003 15.208 51.1083 14.96 52.4843 14.96C53.8603 14.96 55.0683 15.208 56.1083 15.704C57.1483 16.2 57.9643 16.936 58.5563 17.912C59.1483 18.888 59.4683 20.104 59.5163 21.56C59.5483 22.264 59.5643 22.952 59.5643 23.624C59.5643 24.296 59.5483 24.976 59.5163 25.664C59.4683 27.136 59.1563 28.368 58.5803 29.36C58.0043 30.336 57.1962 31.064 56.1562 31.544C55.1323 32.008 53.9083 32.24 52.4843 32.24ZM52.4843 29.48C53.5243 29.48 54.3723 29.176 55.0283 28.568C55.6843 27.944 56.0363 26.936 56.0843 25.544C56.1163 24.84 56.1323 24.192 56.1323 23.6C56.1323 22.992 56.1163 22.344 56.0843 21.656C56.0523 20.728 55.8763 19.976 55.5563 19.4C55.2523 18.808 54.8363 18.384 54.3083 18.128C53.7803 17.856 53.1723 17.72 52.4843 17.72C51.8123 17.72 51.2123 17.856 50.6843 18.128C50.1563 18.384 49.7323 18.808 49.4123 19.4C49.1083 19.976 48.9403 20.728 48.9083 21.656C48.8923 22.344 48.8843 22.992 48.8843 23.6C48.8843 24.192 48.8923 24.84 48.9083 25.544C48.9563 26.936 49.3083 27.944 49.9643 28.568C50.6203 29.176 51.4603 29.48 52.4843 29.48ZM68.1398 32.24C67.2758 32.24 66.4518 32.136 65.6678 31.928C64.8998 31.704 64.2118 31.368 63.6038 30.92C62.9958 30.472 62.5078 29.92 62.1398 29.264C61.7878 28.608 61.6038 27.832 61.5878 26.936C61.5878 26.792 61.6358 26.672 61.7318 26.576C61.8278 26.464 61.9478 26.408 62.0918 26.408H64.3717C64.5798 26.408 64.7318 26.464 64.8278 26.576C64.9398 26.688 65.0278 26.84 65.0918 27.032C65.1718 27.608 65.3558 28.08 65.6438 28.448C65.9318 28.8 66.2918 29.064 66.7238 29.24C67.1718 29.4 67.6678 29.48 68.2118 29.48C69.2198 29.48 69.9878 29.152 70.5158 28.496C71.0598 27.84 71.3318 26.928 71.3318 25.76V18.032H63.1958C63.0198 18.032 62.8758 17.976 62.7638 17.864C62.6678 17.752 62.6198 17.616 62.6198 17.456V15.776C62.6198 15.616 62.6678 15.48 62.7638 15.368C62.8758 15.256 63.0198 15.2 63.1958 15.2H74.1638C74.3398 15.2 74.4838 15.256 74.5958 15.368C74.7078 15.48 74.7638 15.624 74.7638 15.8V25.856C74.7638 27.184 74.4838 28.328 73.9238 29.288C73.3798 30.248 72.6118 30.984 71.6198 31.496C70.6438 31.992 69.4838 32.24 68.1398 32.24Z" fill="#FFF8D4"/>
</svg>
