<svg width="245" height="48" viewBox="0 0 245 48" fill="none" xmlns="http://www.w3.org/2000/svg">
<path d="M243 13.6097V33.3912C243 36.7352 241.642 39.9424 239.226 42.307C236.809 44.6716 233.532 46 230.114 46H218.694C218.694 46 234.127 46 234.127 36.8643V10.4386C234.127 10.4386 235.824 1.0009 218 1.0009H229.96C231.665 0.980921 233.357 1.2923 234.938 1.917C236.52 2.5417 237.958 3.46729 239.171 4.64012C240.384 5.81295 241.347 7.20969 242.005 8.74939C242.662 10.2891 243 11.9411 243 13.6097Z" fill="#CC65FC"/>
<path d="M219.05 1.36621C236.42 1.36621 234.766 10.7652 234.766 10.7652V36.7818C234.766 45.5793 219.727 45.8801 219.727 45.8801H26.1071C8.73773 45.8801 10.392 36.481 10.392 36.481V10.4645C10.392 1.66697 25.4304 1.36621 25.4304 1.36621H219.05Z" fill="#C11AFF"/>
<path d="M26.1072 45.88H14.1516C10.8597 45.9007 7.69136 44.6278 5.32871 42.3355C2.96606 40.0432 1.59807 36.9147 1.51929 33.6237V13.9233C1.51929 10.593 2.84226 7.39902 5.19718 5.0441C7.55209 2.68919 10.746 1.36621 14.0764 1.36621H25.656C25.656 1.36621 10.6175 1.3662 10.6175 10.4645V36.481C10.6175 36.481 9.03851 45.88 26.1072 45.88Z" fill="#9D0EE0"/>
<path d="M219.05 1.36621H230.705C234.036 1.36621 237.23 2.68919 239.584 5.0441C241.939 7.39902 243.262 10.593 243.262 13.9233V33.6237C243.262 36.954 241.939 40.148 239.584 42.5029C237.23 44.8578 234.036 46.1808 230.705 46.1808H14.1516C12.4962 46.1907 10.8553 45.8732 9.32309 45.2466C7.79091 44.62 6.39773 43.6966 5.22372 42.5296C4.04971 41.3626 3.11803 39.9749 2.48228 38.4465C1.84653 36.9181 1.51926 35.2791 1.51929 33.6237V13.9233C1.51929 10.593 2.84226 7.39902 5.19718 5.0441C7.55209 2.68919 10.746 1.36621 14.0764 1.36621H219.05V1.36621Z" stroke="black" stroke-width="2.59985" stroke-linecap="round" stroke-linejoin="round"/>
<path d="M36.7687 31.24C35.9047 31.24 35.0807 31.136 34.2967 30.928C33.5287 30.704 32.8407 30.368 32.2327 29.92C31.6247 29.472 31.1367 28.92 30.7687 28.264C30.4167 27.608 30.2327 26.832 30.2167 25.936C30.2167 25.792 30.2647 25.672 30.3607 25.576C30.4567 25.464 30.5767 25.408 30.7207 25.408H33.0007C33.2087 25.408 33.3607 25.464 33.4567 25.576C33.5687 25.688 33.6567 25.84 33.7207 26.032C33.8007 26.608 33.9847 27.08 34.2727 27.448C34.5607 27.8 34.9207 28.064 35.3527 28.24C35.8007 28.4 36.2967 28.48 36.8407 28.48C37.8487 28.48 38.6167 28.152 39.1447 27.496C39.6887 26.84 39.9607 25.928 39.9607 24.76V17.032H31.8247C31.6487 17.032 31.5047 16.976 31.3927 16.864C31.2967 16.752 31.2487 16.616 31.2487 16.456V14.776C31.2487 14.616 31.2967 14.48 31.3927 14.368C31.5047 14.256 31.6487 14.2 31.8247 14.2H42.7927C42.9687 14.2 43.1127 14.256 43.2247 14.368C43.3367 14.48 43.3927 14.624 43.3927 14.8V24.856C43.3927 26.184 43.1127 27.328 42.5527 28.288C42.0087 29.248 41.2407 29.984 40.2487 30.496C39.2727 30.992 38.1127 31.24 36.7687 31.24ZM52.2329 31.24C50.9529 31.24 49.8729 31.016 48.9929 30.568C48.1289 30.12 47.4649 29.488 47.0009 28.672C46.5529 27.856 46.2969 26.904 46.2329 25.816C46.2169 25.528 46.2089 25.176 46.2089 24.76C46.2089 24.344 46.2169 23.992 46.2329 23.704C46.2969 22.6 46.5609 21.648 47.0249 20.848C47.5049 20.032 48.1769 19.4 49.0409 18.952C49.9209 18.504 50.9849 18.28 52.2329 18.28C53.4809 18.28 54.5369 18.504 55.4009 18.952C56.2809 19.4 56.9529 20.032 57.4169 20.848C57.8969 21.648 58.1689 22.6 58.2329 23.704C58.2489 23.992 58.2569 24.344 58.2569 24.76C58.2569 25.176 58.2489 25.528 58.2329 25.816C58.1689 26.904 57.9049 27.856 57.4409 28.672C56.9929 29.488 56.3289 30.12 55.4489 30.568C54.5849 31.016 53.5129 31.24 52.2329 31.24ZM52.2329 28.864C53.0809 28.864 53.7369 28.6 54.2009 28.072C54.6649 27.528 54.9209 26.736 54.9689 25.696C54.9849 25.456 54.9929 25.144 54.9929 24.76C54.9929 24.376 54.9849 24.064 54.9689 23.824C54.9209 22.8 54.6649 22.016 54.2009 21.472C53.7369 20.928 53.0809 20.656 52.2329 20.656C51.3849 20.656 50.7289 20.928 50.2649 21.472C49.8009 22.016 49.5449 22.8 49.4969 23.824C49.4809 24.064 49.4729 24.376 49.4729 24.76C49.4729 25.144 49.4809 25.456 49.4969 25.696C49.5449 26.736 49.8009 27.528 50.2649 28.072C50.7289 28.6 51.3849 28.864 52.2329 28.864ZM65.644 31.24C64.684 31.24 63.86 31.128 63.172 30.904C62.5 30.68 61.948 30.4 61.516 30.064C61.084 29.728 60.764 29.392 60.556 29.056C60.348 28.72 60.236 28.44 60.22 28.216C60.204 28.04 60.252 27.904 60.364 27.808C60.492 27.696 60.628 27.64 60.772 27.64H62.668C62.732 27.64 62.788 27.648 62.836 27.664C62.884 27.68 62.948 27.728 63.028 27.808C63.236 27.984 63.452 28.168 63.676 28.36C63.916 28.552 64.196 28.72 64.516 28.864C64.836 28.992 65.236 29.056 65.716 29.056C66.34 29.056 66.86 28.936 67.276 28.696C67.708 28.44 67.924 28.08 67.924 27.616C67.924 27.28 67.828 27.008 67.636 26.8C67.46 26.592 67.124 26.408 66.628 26.248C66.132 26.072 65.428 25.888 64.516 25.696C63.62 25.488 62.876 25.224 62.284 24.904C61.692 24.584 61.252 24.184 60.964 23.704C60.676 23.224 60.532 22.664 60.532 22.024C60.532 21.4 60.716 20.808 61.084 20.248C61.468 19.672 62.028 19.2 62.764 18.832C63.516 18.464 64.444 18.28 65.548 18.28C66.412 18.28 67.164 18.392 67.804 18.616C68.444 18.824 68.972 19.088 69.388 19.408C69.82 19.728 70.148 20.056 70.372 20.392C70.596 20.712 70.716 20.992 70.732 21.232C70.748 21.408 70.7 21.552 70.588 21.664C70.476 21.76 70.348 21.808 70.204 21.808H68.428C68.348 21.808 68.276 21.792 68.212 21.76C68.148 21.728 68.084 21.688 68.02 21.64C67.844 21.48 67.652 21.312 67.444 21.136C67.236 20.96 66.98 20.808 66.676 20.68C66.388 20.536 66.004 20.464 65.524 20.464C64.916 20.464 64.452 20.6 64.132 20.872C63.812 21.128 63.652 21.456 63.652 21.856C63.652 22.128 63.724 22.368 63.868 22.576C64.028 22.768 64.34 22.952 64.804 23.128C65.268 23.304 65.972 23.488 66.916 23.68C67.988 23.872 68.836 24.16 69.46 24.544C70.1 24.912 70.548 25.344 70.804 25.84C71.076 26.32 71.212 26.856 71.212 27.448C71.212 28.168 70.996 28.816 70.564 29.392C70.148 29.968 69.524 30.424 68.692 30.76C67.876 31.08 66.86 31.24 65.644 31.24ZM74.2895 31C74.1295 31 73.9935 30.944 73.8815 30.832C73.7695 30.72 73.7135 30.584 73.7135 30.424V14.536C73.7135 14.376 73.7695 14.24 73.8815 14.128C73.9935 14.016 74.1295 13.96 74.2895 13.96H76.4255C76.6015 13.96 76.7375 14.016 76.8335 14.128C76.9455 14.24 77.0015 14.376 77.0015 14.536V20.008C77.4335 19.496 77.9615 19.08 78.5855 18.76C79.2095 18.44 79.9775 18.28 80.8895 18.28C81.8655 18.28 82.7135 18.504 83.4335 18.952C84.1695 19.384 84.7375 20 85.1375 20.8C85.5375 21.6 85.7375 22.56 85.7375 23.68V30.424C85.7375 30.584 85.6815 30.72 85.5695 30.832C85.4575 30.944 85.3215 31 85.1615 31H83.0015C82.8415 31 82.7055 30.944 82.5935 30.832C82.4815 30.72 82.4255 30.584 82.4255 30.424V23.824C82.4255 22.896 82.1935 22.168 81.7295 21.64C81.2815 21.112 80.6255 20.848 79.7615 20.848C78.9295 20.848 78.2575 21.112 77.7455 21.64C77.2495 22.168 77.0015 22.896 77.0015 23.824V30.424C77.0015 30.584 76.9455 30.72 76.8335 30.832C76.7375 30.944 76.6015 31 76.4255 31H74.2895ZM93.4152 31.24C92.4392 31.24 91.5912 31.024 90.8712 30.592C90.1672 30.144 89.6232 29.52 89.2392 28.72C88.8552 27.904 88.6632 26.944 88.6632 25.84V19.096C88.6632 18.936 88.7192 18.8 88.8312 18.688C88.9432 18.576 89.0792 18.52 89.2392 18.52H91.3512C91.5272 18.52 91.6632 18.576 91.7592 18.688C91.8712 18.8 91.9272 18.936 91.9272 19.096V25.696C91.9272 27.68 92.7992 28.672 94.5432 28.672C95.3752 28.672 96.0312 28.408 96.5112 27.88C97.0072 27.352 97.2552 26.624 97.2552 25.696V19.096C97.2552 18.936 97.3112 18.8 97.4232 18.688C97.5352 18.576 97.6712 18.52 97.8312 18.52H99.9432C100.103 18.52 100.239 18.576 100.351 18.688C100.463 18.8 100.519 18.936 100.519 19.096V30.424C100.519 30.584 100.463 30.72 100.351 30.832C100.239 30.944 100.103 31 99.9432 31H97.9992C97.8232 31 97.6792 30.944 97.5672 30.832C97.4712 30.72 97.4232 30.584 97.4232 30.424V29.44C96.9912 30 96.4552 30.44 95.8152 30.76C95.1752 31.08 94.3752 31.24 93.4152 31.24ZM107.313 31.24C106.481 31.24 105.729 31.08 105.057 30.76C104.385 30.424 103.849 29.984 103.449 29.44C103.065 28.88 102.873 28.256 102.873 27.568C102.873 26.448 103.321 25.56 104.217 24.904C105.129 24.232 106.329 23.784 107.817 23.56L111.105 23.08V22.576C111.105 21.904 110.937 21.384 110.601 21.016C110.265 20.648 109.689 20.464 108.873 20.464C108.297 20.464 107.825 20.584 107.457 20.824C107.105 21.048 106.841 21.352 106.665 21.736C106.537 21.944 106.353 22.048 106.113 22.048H104.217C104.041 22.048 103.905 22 103.809 21.904C103.729 21.808 103.689 21.68 103.689 21.52C103.705 21.264 103.809 20.952 104.001 20.584C104.193 20.216 104.497 19.864 104.913 19.528C105.329 19.176 105.865 18.88 106.521 18.64C107.177 18.4 107.969 18.28 108.897 18.28C109.905 18.28 110.753 18.408 111.441 18.664C112.145 18.904 112.705 19.232 113.121 19.648C113.537 20.064 113.841 20.552 114.033 21.112C114.225 21.672 114.321 22.264 114.321 22.888V30.424C114.321 30.584 114.265 30.72 114.153 30.832C114.041 30.944 113.905 31 113.745 31H111.801C111.625 31 111.481 30.944 111.369 30.832C111.273 30.72 111.225 30.584 111.225 30.424V29.488C111.017 29.792 110.737 30.08 110.385 30.352C110.033 30.608 109.601 30.824 109.089 31C108.593 31.16 108.001 31.24 107.313 31.24ZM108.129 28.96C108.689 28.96 109.193 28.84 109.641 28.6C110.105 28.36 110.465 27.992 110.721 27.496C110.993 26.984 111.129 26.344 111.129 25.576V25.072L108.729 25.456C107.785 25.6 107.081 25.832 106.617 26.152C106.153 26.472 105.921 26.864 105.921 27.328C105.921 27.68 106.025 27.984 106.233 28.24C106.457 28.48 106.737 28.664 107.073 28.792C107.409 28.904 107.761 28.96 108.129 28.96ZM129.005 31.24C127.517 31.24 126.269 31.024 125.261 30.592C124.269 30.144 123.509 29.568 122.981 28.864C122.469 28.144 122.197 27.392 122.165 26.608C122.165 26.464 122.213 26.344 122.309 26.248C122.405 26.152 122.525 26.104 122.669 26.104H124.805C125.013 26.104 125.165 26.152 125.261 26.248C125.373 26.328 125.469 26.432 125.549 26.56C125.645 26.864 125.829 27.168 126.101 27.472C126.373 27.76 126.741 28 127.205 28.192C127.685 28.384 128.285 28.48 129.005 28.48C130.157 28.48 131.013 28.288 131.573 27.904C132.149 27.52 132.437 27 132.437 26.344C132.437 25.88 132.285 25.512 131.981 25.24C131.677 24.952 131.205 24.696 130.565 24.472C129.941 24.232 129.109 23.984 128.069 23.728C126.869 23.44 125.861 23.096 125.045 22.696C124.245 22.28 123.637 21.76 123.221 21.136C122.821 20.512 122.621 19.72 122.621 18.76C122.621 17.832 122.869 17.008 123.365 16.288C123.877 15.568 124.597 15 125.525 14.584C126.469 14.168 127.589 13.96 128.885 13.96C129.925 13.96 130.845 14.104 131.645 14.392C132.445 14.664 133.109 15.032 133.637 15.496C134.165 15.944 134.565 16.432 134.837 16.96C135.125 17.472 135.277 17.976 135.293 18.472C135.293 18.6 135.245 18.72 135.149 18.832C135.069 18.928 134.949 18.976 134.789 18.976H132.557C132.429 18.976 132.301 18.944 132.173 18.88C132.045 18.816 131.941 18.696 131.861 18.52C131.765 18.024 131.453 17.6 130.925 17.248C130.397 16.896 129.717 16.72 128.885 16.72C128.021 16.72 127.325 16.88 126.797 17.2C126.269 17.52 126.005 18.016 126.005 18.688C126.005 19.136 126.133 19.512 126.389 19.816C126.661 20.104 127.085 20.36 127.661 20.584C128.253 20.808 129.029 21.048 129.989 21.304C131.349 21.608 132.461 21.96 133.325 22.36C134.189 22.76 134.821 23.272 135.221 23.896C135.621 24.504 135.821 25.28 135.821 26.224C135.821 27.28 135.533 28.184 134.957 28.936C134.397 29.672 133.605 30.24 132.581 30.64C131.557 31.04 130.365 31.24 129.005 31.24ZM143.683 31.24C142.531 31.24 141.515 31.024 140.635 30.592C139.771 30.16 139.091 29.536 138.595 28.72C138.115 27.888 137.851 26.888 137.803 25.72C137.787 25.48 137.779 25.168 137.779 24.784C137.779 24.384 137.787 24.056 137.803 23.8C137.851 22.632 138.115 21.64 138.595 20.824C139.091 19.992 139.771 19.36 140.635 18.928C141.515 18.496 142.531 18.28 143.683 18.28C144.707 18.28 145.579 18.424 146.299 18.712C147.019 19 147.611 19.36 148.075 19.792C148.539 20.224 148.883 20.68 149.107 21.16C149.347 21.624 149.475 22.048 149.491 22.432C149.507 22.608 149.451 22.752 149.323 22.864C149.211 22.96 149.075 23.008 148.915 23.008H146.803C146.643 23.008 146.515 22.968 146.419 22.888C146.339 22.808 146.259 22.688 146.179 22.528C145.939 21.888 145.619 21.44 145.219 21.184C144.835 20.912 144.339 20.776 143.731 20.776C142.931 20.776 142.291 21.032 141.811 21.544C141.347 22.04 141.099 22.832 141.067 23.92C141.035 24.528 141.035 25.088 141.067 25.6C141.099 26.704 141.347 27.504 141.811 28C142.291 28.496 142.931 28.744 143.731 28.744C144.355 28.744 144.859 28.616 145.243 28.36C145.627 28.088 145.939 27.632 146.179 26.992C146.259 26.832 146.339 26.712 146.419 26.632C146.515 26.552 146.643 26.512 146.803 26.512H148.915C149.075 26.512 149.211 26.568 149.323 26.68C149.451 26.776 149.507 26.912 149.491 27.088C149.475 27.376 149.395 27.704 149.251 28.072C149.123 28.424 148.907 28.792 148.603 29.176C148.315 29.544 147.947 29.888 147.499 30.208C147.051 30.512 146.507 30.76 145.867 30.952C145.243 31.144 144.515 31.24 143.683 31.24ZM152.594 31C152.434 31 152.298 30.944 152.186 30.832C152.074 30.72 152.018 30.584 152.018 30.424V14.536C152.018 14.376 152.074 14.24 152.186 14.128C152.298 14.016 152.434 13.96 152.594 13.96H154.73C154.906 13.96 155.042 14.016 155.138 14.128C155.25 14.24 155.306 14.376 155.306 14.536V20.008C155.738 19.496 156.266 19.08 156.89 18.76C157.514 18.44 158.282 18.28 159.194 18.28C160.17 18.28 161.018 18.504 161.738 18.952C162.474 19.384 163.042 20 163.442 20.8C163.842 21.6 164.042 22.56 164.042 23.68V30.424C164.042 30.584 163.986 30.72 163.874 30.832C163.762 30.944 163.626 31 163.466 31H161.306C161.146 31 161.01 30.944 160.898 30.832C160.786 30.72 160.73 30.584 160.73 30.424V23.824C160.73 22.896 160.498 22.168 160.034 21.64C159.586 21.112 158.93 20.848 158.066 20.848C157.234 20.848 156.562 21.112 156.05 21.64C155.554 22.168 155.306 22.896 155.306 23.824V30.424C155.306 30.584 155.25 30.72 155.138 30.832C155.042 30.944 154.906 31 154.73 31H152.594ZM167.664 31C167.504 31 167.368 30.944 167.256 30.832C167.144 30.72 167.088 30.584 167.088 30.424V19.096C167.088 18.936 167.144 18.8 167.256 18.688C167.368 18.576 167.504 18.52 167.664 18.52H169.536C169.696 18.52 169.832 18.576 169.944 18.688C170.056 18.8 170.112 18.936 170.112 19.096V19.912C170.448 19.464 170.896 19.088 171.456 18.784C172.032 18.464 172.712 18.296 173.496 18.28C175.32 18.248 176.592 18.96 177.312 20.416C177.68 19.776 178.208 19.264 178.896 18.88C179.6 18.48 180.376 18.28 181.224 18.28C182.056 18.28 182.808 18.472 183.48 18.856C184.168 19.24 184.704 19.824 185.088 20.608C185.488 21.376 185.688 22.352 185.688 23.536V30.424C185.688 30.584 185.632 30.72 185.52 30.832C185.408 30.944 185.272 31 185.112 31H183.144C182.984 31 182.848 30.944 182.736 30.832C182.624 30.72 182.568 30.584 182.568 30.424V23.728C182.568 23.008 182.464 22.44 182.256 22.024C182.048 21.592 181.768 21.288 181.416 21.112C181.064 20.936 180.672 20.848 180.24 20.848C179.888 20.848 179.536 20.936 179.184 21.112C178.832 21.288 178.544 21.592 178.32 22.024C178.096 22.44 177.984 23.008 177.984 23.728V30.424C177.984 30.584 177.928 30.72 177.816 30.832C177.704 30.944 177.568 31 177.408 31H175.44C175.264 31 175.12 30.944 175.008 30.832C174.912 30.72 174.864 30.584 174.864 30.424V23.728C174.864 23.008 174.752 22.44 174.528 22.024C174.304 21.592 174.016 21.288 173.664 21.112C173.312 20.936 172.936 20.848 172.536 20.848C172.168 20.848 171.808 20.944 171.456 21.136C171.104 21.312 170.816 21.608 170.592 22.024C170.368 22.44 170.256 23.008 170.256 23.728V30.424C170.256 30.584 170.2 30.72 170.088 30.832C169.976 30.944 169.84 31 169.68 31H167.664ZM189.32 31C189.16 31 189.024 30.944 188.912 30.832C188.8 30.72 188.744 30.584 188.744 30.424V19.096C188.744 18.936 188.8 18.8 188.912 18.688C189.024 18.576 189.16 18.52 189.32 18.52H191.312C191.488 18.52 191.624 18.576 191.72 18.688C191.832 18.8 191.888 18.936 191.888 19.096V30.424C191.888 30.584 191.832 30.72 191.72 30.832C191.624 30.944 191.488 31 191.312 31H189.32ZM189.224 16.456C189.048 16.456 188.904 16.408 188.792 16.312C188.696 16.2 188.648 16.056 188.648 15.88V14.152C188.648 13.992 188.696 13.856 188.792 13.744C188.904 13.632 189.048 13.576 189.224 13.576H191.408C191.584 13.576 191.728 13.632 191.84 13.744C191.952 13.856 192.008 13.992 192.008 14.152V15.88C192.008 16.056 191.952 16.2 191.84 16.312C191.728 16.408 191.584 16.456 191.408 16.456H189.224ZM200.712 31C199.752 31 198.944 30.832 198.288 30.496C197.632 30.16 197.144 29.664 196.824 29.008C196.504 28.336 196.344 27.504 196.344 26.512V21.064H194.448C194.288 21.064 194.152 21.008 194.04 20.896C193.928 20.784 193.872 20.648 193.872 20.488V19.096C193.872 18.936 193.928 18.8 194.04 18.688C194.152 18.576 194.288 18.52 194.448 18.52H196.344V14.536C196.344 14.376 196.392 14.24 196.488 14.128C196.6 14.016 196.744 13.96 196.92 13.96H198.864C199.024 13.96 199.16 14.016 199.272 14.128C199.384 14.24 199.44 14.376 199.44 14.536V18.52H202.44C202.6 18.52 202.736 18.576 202.848 18.688C202.96 18.8 203.016 18.936 203.016 19.096V20.488C203.016 20.648 202.96 20.784 202.848 20.896C202.736 21.008 202.6 21.064 202.44 21.064H199.44V26.272C199.44 26.928 199.552 27.44 199.776 27.808C200.016 28.176 200.424 28.36 201 28.36H202.656C202.816 28.36 202.952 28.416 203.064 28.528C203.176 28.64 203.232 28.776 203.232 28.936V30.424C203.232 30.584 203.176 30.72 203.064 30.832C202.952 30.944 202.816 31 202.656 31H200.712ZM205.313 31C205.137 31 204.993 30.944 204.881 30.832C204.785 30.72 204.737 30.584 204.737 30.424V29.056C204.737 28.912 204.769 28.776 204.833 28.648C204.913 28.504 204.993 28.384 205.073 28.288L211.217 21.016H205.505C205.345 21.016 205.209 20.968 205.097 20.872C204.985 20.76 204.929 20.616 204.929 20.44V19.096C204.929 18.936 204.985 18.8 205.097 18.688C205.209 18.576 205.345 18.52 205.505 18.52H214.601C214.777 18.52 214.913 18.576 215.009 18.688C215.121 18.8 215.177 18.936 215.177 19.096V20.56C215.177 20.704 215.145 20.832 215.081 20.944C215.017 21.056 214.937 21.176 214.841 21.304L208.841 28.504H215.105C215.265 28.504 215.401 28.56 215.513 28.672C215.625 28.768 215.681 28.904 215.681 29.08V30.424C215.681 30.584 215.625 30.72 215.513 30.832C215.401 30.944 215.265 31 215.105 31H205.313Z" fill="#FFF8D4"/>
</svg>
