<svg width="195" height="49" viewBox="0 0 195 49" fill="none" xmlns="http://www.w3.org/2000/svg">
<path d="M194 13.2124V35.7876C194 38.7613 192.635 41.6133 190.205 43.716C187.775 45.8187 184.48 47 181.043 47H172.348C172.348 47 186.348 47 186.348 37.8947V11.4064C186.348 11.4064 187.826 2 172 2H181.13C184.552 2.01987 187.825 3.20993 190.236 5.31051C192.647 7.41109 194 10.2517 194 13.2124Z" fill="#CC65FC"/>
<path d="M174.474 1.80664C188.202 1.80664 186.92 11.2355 186.92 11.2355V37.4855C186.92 46.3109 174.776 46.6126 174.776 46.6126H21.8017C7.69614 46.5372 8.97847 37.4855 8.97847 37.4855V11.0092C8.97847 2.18379 21.1228 1.80664 21.1228 1.80664H174.474Z" fill="#C11AFF"/>
<path d="M26 47H15.5573C11.9532 46.9797 8.5051 45.7632 5.96522 43.6159C3.42534 41.4687 1.99992 38.565 2 35.5385V12.4615C1.99992 9.43503 3.42534 6.53135 5.96522 4.38409C8.5051 2.23683 11.9532 1.02031 15.5573 1H24.7176C24.7176 1 9.96947 1.38463 9.96947 10.3846V37.7692C9.96947 37.7692 8.87023 47 26 47Z" fill="#9D0EE0"/>
<path d="M174.474 1.80664H182.394C185.375 1.80664 188.234 2.99077 190.341 5.09853C192.449 7.20628 193.633 10.065 193.633 13.0458V35.6751C193.633 38.6559 192.449 41.5147 190.341 43.6224C188.234 45.7302 185.375 46.9143 182.394 46.9143H13.2026C10.2349 46.8944 7.39547 45.7015 5.30399 43.5959C3.21252 41.4903 2.03875 38.6429 2.03882 35.6751V13.0458C2.03875 10.078 3.21252 7.23067 5.30399 5.12507C7.39547 3.01947 10.2349 1.82656 13.2026 1.80664H174.474Z" stroke="black" stroke-width="2.29993" stroke-linecap="round" stroke-linejoin="round"/>
<path d="M25.3431 32C25.1671 32 25.0231 31.952 24.9111 31.856C24.7991 31.744 24.7431 31.6 24.7431 31.424V15.8C24.7431 15.624 24.7991 15.48 24.9111 15.368C25.0231 15.256 25.1671 15.2 25.3431 15.2H27.2391C27.5751 15.2 27.8151 15.352 27.9591 15.656L32.5911 24.296L37.2711 15.656C37.4311 15.352 37.6711 15.2 37.9911 15.2H39.8631C40.0391 15.2 40.1831 15.256 40.2951 15.368C40.4071 15.48 40.4631 15.624 40.4631 15.8V31.424C40.4631 31.6 40.4071 31.744 40.2951 31.856C40.1831 31.952 40.0391 32 39.8631 32H37.8471C37.6871 32 37.5511 31.944 37.4391 31.832C37.3271 31.72 37.2711 31.584 37.2711 31.424V21.032L33.9111 27.44C33.7031 27.792 33.4311 27.968 33.0951 27.968H32.1111C31.7751 27.968 31.5031 27.792 31.2951 27.44L27.9351 21.032V31.424C27.9351 31.584 27.8791 31.72 27.7671 31.832C27.6711 31.944 27.5351 32 27.3591 32H25.3431ZM47.5322 32.24C46.7162 32.24 45.9642 32.08 45.2762 31.76C44.6042 31.424 44.0682 30.976 43.6682 30.416C43.2842 29.856 43.0922 29.24 43.0922 28.568C43.0922 27.48 43.5322 26.6 44.4122 25.928C45.2922 25.256 46.5002 24.8 48.0362 24.56L51.3242 24.08V23.576C51.3242 22.872 51.1482 22.344 50.7962 21.992C50.4442 21.64 49.8762 21.464 49.0922 21.464C48.5642 21.464 48.1322 21.568 47.7962 21.776C47.4762 21.968 47.2202 22.16 47.0282 22.352C46.8362 22.56 46.7082 22.696 46.6442 22.76C46.5802 22.952 46.4602 23.048 46.2842 23.048H44.4362C44.2922 23.048 44.1642 23 44.0522 22.904C43.9562 22.808 43.9082 22.68 43.9082 22.52C43.9242 22.12 44.1162 21.664 44.4842 21.152C44.8682 20.64 45.4522 20.2 46.2362 19.832C47.0202 19.464 47.9802 19.28 49.1162 19.28C51.0042 19.28 52.3802 19.704 53.2442 20.552C54.1082 21.4 54.5402 22.512 54.5402 23.888V31.424C54.5402 31.584 54.4842 31.72 54.3722 31.832C54.2762 31.944 54.1402 32 53.9642 32H52.0202C51.8602 32 51.7242 31.944 51.6122 31.832C51.5002 31.72 51.4442 31.584 51.4442 31.424V30.488C51.0922 31 50.5882 31.424 49.9322 31.76C49.2922 32.08 48.4922 32.24 47.5322 32.24ZM48.3482 29.96C49.2282 29.96 49.9482 29.672 50.5082 29.096C51.0682 28.52 51.3482 27.68 51.3482 26.576V26.072L48.9482 26.456C48.0202 26.6 47.3162 26.832 46.8362 27.152C46.3722 27.472 46.1402 27.864 46.1402 28.328C46.1402 28.84 46.3562 29.24 46.7882 29.528C47.2202 29.816 47.7402 29.96 48.3482 29.96ZM62.3472 32.24C61.1472 32.24 60.1392 32.064 59.3232 31.712C58.5072 31.344 57.8992 30.92 57.4992 30.44C57.1152 29.944 56.9232 29.52 56.9232 29.168C56.9232 29.008 56.9792 28.88 57.0912 28.784C57.2032 28.688 57.3312 28.64 57.4752 28.64H59.3712C59.5152 28.64 59.6352 28.696 59.7312 28.808C59.7952 28.856 59.9632 29 60.2352 29.24C60.5072 29.496 60.8272 29.696 61.1952 29.84C61.5632 29.984 61.9712 30.056 62.4192 30.056C63.0592 30.056 63.5872 29.928 64.0032 29.672C64.4192 29.416 64.6272 29.064 64.6272 28.616C64.6272 28.28 64.5312 28.008 64.3392 27.8C64.1632 27.592 63.8352 27.408 63.3552 27.248C62.8752 27.072 62.1632 26.888 61.2192 26.696C59.8592 26.408 58.8512 25.968 58.1952 25.376C57.5552 24.784 57.2352 24 57.2352 23.024C57.2352 22.384 57.4272 21.784 57.8112 21.224C58.1952 20.648 58.7632 20.184 59.5152 19.832C60.2832 19.464 61.1952 19.28 62.2512 19.28C63.3232 19.28 64.2512 19.456 65.0352 19.808C65.8192 20.144 66.4112 20.552 66.8112 21.032C67.2272 21.496 67.4352 21.912 67.4352 22.28C67.4352 22.424 67.3792 22.552 67.2672 22.664C67.1712 22.76 67.0512 22.808 66.9072 22.808H65.1312C65.0032 22.808 64.8672 22.752 64.7232 22.64C64.6112 22.56 64.4352 22.408 64.1952 22.184C63.9552 21.96 63.6752 21.784 63.3552 21.656C63.0352 21.528 62.6592 21.464 62.2272 21.464C61.6352 21.464 61.1712 21.592 60.8352 21.848C60.5152 22.104 60.3552 22.44 60.3552 22.856C60.3552 23.16 60.4352 23.408 60.5952 23.6C60.7552 23.792 61.0672 23.976 61.5312 24.152C61.9952 24.328 62.6912 24.504 63.6192 24.68C65.1552 24.984 66.2512 25.456 66.9072 26.096C67.5792 26.736 67.9152 27.52 67.9152 28.448C67.9152 29.568 67.4272 30.48 66.4512 31.184C65.4752 31.888 64.1072 32.24 62.3472 32.24ZM75.9857 32C74.5297 32 73.4337 31.624 72.6977 30.872C71.9777 30.104 71.6177 28.984 71.6177 27.512V22.064H69.7217C69.5617 22.064 69.4257 22.008 69.3137 21.896C69.2017 21.768 69.1457 21.624 69.1457 21.464V20.096C69.1457 19.936 69.2017 19.8 69.3137 19.688C69.4257 19.576 69.5617 19.52 69.7217 19.52H71.6177V15.536C71.6177 15.36 71.6737 15.224 71.7857 15.128C71.8977 15.016 72.0337 14.96 72.1937 14.96H74.1377C74.3137 14.96 74.4497 15.016 74.5457 15.128C74.6577 15.224 74.7137 15.36 74.7137 15.536V19.52H77.7137C77.8897 19.52 78.0257 19.576 78.1217 19.688C78.2337 19.784 78.2897 19.92 78.2897 20.096V21.464C78.2897 21.64 78.2337 21.784 78.1217 21.896C78.0097 22.008 77.8737 22.064 77.7137 22.064H74.7137V27.272C74.7137 27.96 74.8337 28.48 75.0737 28.832C75.3137 29.184 75.7137 29.36 76.2737 29.36H77.9297C78.0897 29.36 78.2257 29.416 78.3377 29.528C78.4497 29.64 78.5057 29.776 78.5057 29.936V31.424C78.5057 31.584 78.4497 31.72 78.3377 31.832C78.2417 31.944 78.1057 32 77.9297 32H75.9857ZM86.0108 32.24C84.2348 32.24 82.8188 31.728 81.7628 30.704C80.7228 29.664 80.1708 28.208 80.1068 26.336L80.0828 25.736L80.1068 25.136C80.1868 23.312 80.7468 21.88 81.7868 20.84C82.8428 19.8 84.2508 19.28 86.0108 19.28C87.8988 19.28 89.3548 19.856 90.3788 21.008C91.4188 22.16 91.9388 23.696 91.9388 25.616V26.12C91.9388 26.28 91.8828 26.416 91.7708 26.528C91.6588 26.64 91.5148 26.696 91.3388 26.696H83.3708V26.888C83.4028 27.768 83.6428 28.512 84.0908 29.12C84.5548 29.712 85.1868 30.008 85.9868 30.008C86.9308 30.008 87.6908 29.64 88.2668 28.904C88.4108 28.728 88.5228 28.616 88.6028 28.568C88.6988 28.52 88.8348 28.496 89.0108 28.496H91.0748C91.2188 28.496 91.3388 28.544 91.4348 28.64C91.5468 28.72 91.6028 28.824 91.6028 28.952C91.6028 29.336 91.3708 29.792 90.9068 30.32C90.4588 30.832 89.8108 31.28 88.9628 31.664C88.1148 32.048 87.1308 32.24 86.0108 32.24ZM88.6748 24.68V24.608C88.6748 23.664 88.4348 22.904 87.9548 22.328C87.4908 21.752 86.8428 21.464 86.0108 21.464C85.1788 21.464 84.5308 21.752 84.0668 22.328C83.6028 22.904 83.3708 23.664 83.3708 24.608V24.68H88.6748ZM95.0623 32C94.9023 32 94.7663 31.944 94.6543 31.832C94.5423 31.72 94.4863 31.584 94.4863 31.424V20.12C94.4863 19.96 94.5423 19.824 94.6543 19.712C94.7663 19.584 94.9023 19.52 95.0623 19.52H97.0063C97.1823 19.52 97.3263 19.576 97.4383 19.688C97.5503 19.8 97.6063 19.944 97.6063 20.12V21.104C97.9903 20.592 98.4703 20.2 99.0463 19.928C99.6383 19.656 100.31 19.52 101.062 19.52H102.046C102.222 19.52 102.358 19.576 102.454 19.688C102.566 19.784 102.622 19.92 102.622 20.096V21.824C102.622 21.984 102.566 22.12 102.454 22.232C102.358 22.344 102.222 22.4 102.046 22.4H100.174C99.4223 22.4 98.8303 22.616 98.3983 23.048C97.9663 23.48 97.7503 24.072 97.7503 24.824V31.424C97.7503 31.584 97.6943 31.72 97.5823 31.832C97.4703 31.944 97.3263 32 97.1503 32H95.0623ZM111.406 32.24C109.758 32.24 108.478 31.672 107.566 30.536V31.424C107.566 31.584 107.51 31.72 107.398 31.832C107.302 31.944 107.166 32 106.99 32H105.094C104.934 32 104.798 31.944 104.686 31.832C104.574 31.72 104.518 31.584 104.518 31.424V15.536C104.518 15.36 104.574 15.224 104.686 15.128C104.798 15.016 104.934 14.96 105.094 14.96H107.134C107.31 14.96 107.446 15.016 107.542 15.128C107.654 15.224 107.71 15.36 107.71 15.536V20.864C108.622 19.808 109.854 19.28 111.406 19.28C113.022 19.28 114.262 19.808 115.126 20.864C115.99 21.92 116.454 23.288 116.518 24.968C116.534 25.16 116.542 25.416 116.542 25.736C116.542 26.072 116.534 26.336 116.518 26.528C116.454 28.256 115.99 29.64 115.126 30.68C114.262 31.72 113.022 32.24 111.406 32.24ZM110.518 29.672C112.246 29.672 113.166 28.608 113.278 26.48C113.294 26.32 113.302 26.08 113.302 25.76C113.302 25.44 113.294 25.2 113.278 25.04C113.166 22.912 112.246 21.848 110.518 21.848C109.622 21.848 108.934 22.136 108.454 22.712C107.99 23.272 107.742 23.952 107.71 24.752L107.686 25.664L107.71 26.6C107.758 27.464 108.006 28.192 108.454 28.784C108.902 29.376 109.59 29.672 110.518 29.672ZM119.789 32C119.629 32 119.493 31.944 119.381 31.832C119.269 31.72 119.213 31.584 119.213 31.424V20.12C119.213 19.96 119.269 19.824 119.381 19.712C119.493 19.584 119.629 19.52 119.789 19.52H121.733C121.909 19.52 122.053 19.576 122.165 19.688C122.277 19.8 122.333 19.944 122.333 20.12V21.104C122.717 20.592 123.197 20.2 123.773 19.928C124.365 19.656 125.037 19.52 125.789 19.52H126.773C126.949 19.52 127.085 19.576 127.181 19.688C127.293 19.784 127.349 19.92 127.349 20.096V21.824C127.349 21.984 127.293 22.12 127.181 22.232C127.085 22.344 126.949 22.4 126.773 22.4H124.901C124.149 22.4 123.557 22.616 123.125 23.048C122.693 23.48 122.477 24.072 122.477 24.824V31.424C122.477 31.584 122.421 31.72 122.309 31.832C122.197 31.944 122.053 32 121.877 32H119.789ZM134.433 32.24C132.657 32.24 131.241 31.728 130.185 30.704C129.145 29.664 128.593 28.208 128.529 26.336L128.505 25.736L128.529 25.136C128.609 23.312 129.169 21.88 130.209 20.84C131.265 19.8 132.673 19.28 134.433 19.28C136.321 19.28 137.777 19.856 138.801 21.008C139.841 22.16 140.361 23.696 140.361 25.616V26.12C140.361 26.28 140.305 26.416 140.193 26.528C140.081 26.64 139.937 26.696 139.761 26.696H131.793V26.888C131.825 27.768 132.065 28.512 132.513 29.12C132.977 29.712 133.609 30.008 134.409 30.008C135.353 30.008 136.113 29.64 136.689 28.904C136.833 28.728 136.945 28.616 137.025 28.568C137.121 28.52 137.257 28.496 137.433 28.496H139.497C139.641 28.496 139.761 28.544 139.857 28.64C139.969 28.72 140.025 28.824 140.025 28.952C140.025 29.336 139.793 29.792 139.329 30.32C138.881 30.832 138.233 31.28 137.385 31.664C136.537 32.048 135.553 32.24 134.433 32.24ZM137.097 24.68V24.608C137.097 23.664 136.857 22.904 136.377 22.328C135.913 21.752 135.265 21.464 134.433 21.464C133.601 21.464 132.953 21.752 132.489 22.328C132.025 22.904 131.793 23.664 131.793 24.608V24.68H137.097ZM145.965 32C145.757 32 145.589 31.952 145.461 31.856C145.349 31.744 145.253 31.592 145.173 31.4L141.741 20.264C141.725 20.216 141.717 20.144 141.717 20.048C141.717 19.904 141.765 19.784 141.861 19.688C141.973 19.576 142.093 19.52 142.221 19.52H143.997C144.173 19.52 144.317 19.568 144.429 19.664C144.541 19.76 144.613 19.864 144.645 19.976L146.997 27.92L149.493 20.048C149.541 19.904 149.621 19.784 149.733 19.688C149.861 19.576 150.021 19.52 150.213 19.52H151.413C151.605 19.52 151.757 19.576 151.869 19.688C151.997 19.784 152.085 19.904 152.133 20.048L154.629 27.92L156.981 19.976C156.997 19.864 157.061 19.76 157.173 19.664C157.301 19.568 157.445 19.52 157.605 19.52H159.381C159.525 19.52 159.645 19.576 159.741 19.688C159.853 19.784 159.909 19.904 159.909 20.048L159.861 20.264L156.429 31.4C156.365 31.592 156.269 31.744 156.141 31.856C156.029 31.952 155.869 32 155.661 32H154.101C153.685 32 153.421 31.8 153.309 31.4L150.813 23.816L148.317 31.4C148.189 31.8 147.917 32 147.501 32H145.965ZM166.667 32.24C165.467 32.24 164.459 32.064 163.643 31.712C162.827 31.344 162.219 30.92 161.819 30.44C161.435 29.944 161.243 29.52 161.243 29.168C161.243 29.008 161.299 28.88 161.411 28.784C161.523 28.688 161.651 28.64 161.795 28.64H163.691C163.835 28.64 163.955 28.696 164.051 28.808C164.115 28.856 164.283 29 164.555 29.24C164.827 29.496 165.147 29.696 165.515 29.84C165.883 29.984 166.291 30.056 166.739 30.056C167.379 30.056 167.907 29.928 168.323 29.672C168.739 29.416 168.947 29.064 168.947 28.616C168.947 28.28 168.851 28.008 168.659 27.8C168.483 27.592 168.155 27.408 167.675 27.248C167.195 27.072 166.483 26.888 165.539 26.696C164.179 26.408 163.171 25.968 162.515 25.376C161.875 24.784 161.555 24 161.555 23.024C161.555 22.384 161.747 21.784 162.131 21.224C162.515 20.648 163.083 20.184 163.835 19.832C164.603 19.464 165.515 19.28 166.571 19.28C167.643 19.28 168.571 19.456 169.355 19.808C170.139 20.144 170.731 20.552 171.131 21.032C171.547 21.496 171.755 21.912 171.755 22.28C171.755 22.424 171.699 22.552 171.587 22.664C171.491 22.76 171.371 22.808 171.227 22.808H169.451C169.323 22.808 169.187 22.752 169.043 22.64C168.931 22.56 168.755 22.408 168.515 22.184C168.275 21.96 167.995 21.784 167.675 21.656C167.355 21.528 166.979 21.464 166.547 21.464C165.955 21.464 165.491 21.592 165.155 21.848C164.835 22.104 164.675 22.44 164.675 22.856C164.675 23.16 164.755 23.408 164.915 23.6C165.075 23.792 165.387 23.976 165.851 24.152C166.315 24.328 167.011 24.504 167.939 24.68C169.475 24.984 170.571 25.456 171.227 26.096C171.899 26.736 172.235 27.52 172.235 28.448C172.235 29.568 171.747 30.48 170.771 31.184C169.795 31.888 168.427 32.24 166.667 32.24Z" fill="#FFF8D4"/>
</svg>
