<svg width="33" height="45" viewBox="0 0 33 45" fill="none" xmlns="http://www.w3.org/2000/svg">
<path d="M27.0573 26.7336C27.0573 20.232 19.5439 12.9745 19.5439 12.9745L30.4383 20.5344C30.7191 20.7535 30.9464 21.0343 31.1028 21.3553C31.2592 21.6763 31.3405 22.0291 31.3405 22.3866C31.3405 22.7442 31.2592 23.0969 31.1028 23.418C30.9464 23.739 30.7191 24.0198 30.4383 24.2388L27.0573 26.7336Z" fill="#FFB3EB"/>
<path d="M27.0574 26.7336L8.04869 40.1147C6.23926 34.6458 5.55263 28.8641 6.03049 23.1201C6.50835 17.3762 8.14071 11.7898 10.8286 6.69971L19.6192 12.9745C19.6192 12.9745 27.3579 20.232 27.0574 26.7336Z" fill="#FF9CE1"/>
<path d="M5.64448 2.91972L10.8287 6.62409C8.14084 11.7142 6.50847 17.3006 6.03061 23.0445C5.55274 28.7885 6.23938 34.5702 8.04882 40.0391L5.64448 41.7779C5.30961 42.0306 4.9115 42.1845 4.49459 42.2223C4.07769 42.2602 3.65846 42.1804 3.28406 41.9921C2.90965 41.8037 2.59476 41.5142 2.37469 41.1559C2.15462 40.7976 2.03809 40.3847 2.03809 39.9635V4.88531C2.03705 4.46213 2.14995 4.04656 2.36472 3.68272C2.57948 3.31888 2.88811 3.02033 3.25792 2.81878C3.62772 2.61723 4.04481 2.52019 4.46502 2.53796C4.88522 2.55573 5.29279 2.68765 5.64448 2.91972V2.91972Z" fill="#F98ADC"/>
<path d="M8.04877 40.1147L5.64445 41.8535C5.30958 42.1062 4.91148 42.2601 4.49457 42.2979C4.07767 42.3358 3.65845 42.256 3.28405 42.0677C2.90964 41.8793 2.59476 41.5898 2.37469 41.2315C2.15462 40.8732 2.03809 40.4603 2.03809 40.0391V4.88531C2.03705 4.46213 2.14995 4.04656 2.36471 3.68272C2.57948 3.31888 2.8881 3.02033 3.25791 2.81878C3.62771 2.61723 4.0448 2.52019 4.46499 2.53796C4.88519 2.55573 5.29277 2.68765 5.64445 2.91972L10.8287 6.62409L19.6192 12.8989L30.5136 20.4588C30.7944 20.6779 31.0216 20.9587 31.178 21.2797C31.3343 21.6007 31.4156 21.9535 31.4156 22.311C31.4156 22.6685 31.3343 23.0213 31.178 23.3423C31.0216 23.6634 30.7944 23.9442 30.5136 24.1632L27.0575 26.5824L8.04877 40.1147Z" stroke="black" stroke-width="3.79901" stroke-linecap="round" stroke-linejoin="round"/>
</svg>
