<svg width="29" height="42" viewBox="0 0 29 42" fill="none" xmlns="http://www.w3.org/2000/svg">
<path d="M26.0309 21.1055C26.3079 21.1012 26.5806 21.1743 26.8188 21.3166C27.0569 21.459 27.2512 21.665 27.38 21.9118C27.5088 22.1586 27.5671 22.4365 27.5484 22.7147C27.5297 22.9929 27.4347 23.2603 27.2741 23.4874L25.8737 25.5226C25.4842 24.4673 24.5482 23.2613 22.3764 23.2613C18.5272 23.2613 18.4074 19.2663 18.4074 19.2663V8.42713C18.4074 2.39698 16.1608 1.03265 16.1608 1.03265H18.7294C19.1266 1.03265 19.5076 1.19148 19.7885 1.4742C20.0694 1.75692 20.2272 2.14037 20.2272 2.54019V19.5377C20.2272 19.9375 20.385 20.3209 20.6658 20.6037C20.9467 20.8864 21.3277 21.0452 21.7249 21.0452L26.0309 21.1055Z" fill="#53F293"/>
<path d="M25.8736 25.4849L15.5317 40.3191C15.3947 40.5243 15.2096 40.6924 14.9928 40.8087C14.776 40.9249 14.5342 40.9857 14.2885 40.9857C14.0429 40.9857 13.801 40.9249 13.5842 40.8087C13.3675 40.6924 13.1824 40.5243 13.0454 40.3191L6.35796 30.7311L6.1258 30.3768C5.1972 28.8693 1.88718 23.1784 5.62406 23.1784C7.60109 23.1784 8.14776 21.1432 8.30503 19.6206V19.304C8.34247 18.4824 8.30503 17.8944 8.30503 17.8944V2.56277C8.30503 2.16295 8.46282 1.7795 8.74371 1.49678C9.02459 1.21407 9.40555 1.05524 9.80277 1.05524H16.1757C16.1757 1.05524 18.4223 2.38941 18.4223 8.44971V19.2663C18.4223 19.2663 18.5421 23.2613 22.3913 23.2613C24.5481 23.2613 25.4617 24.4296 25.8736 25.4849Z" fill="#26D870"/>
<path d="M8.30505 17.8945C8.30505 17.8945 8.34233 18.4824 8.30505 19.304V17.8945Z" fill="#FFE000"/>
<path d="M6.82979 21.1055C7.21685 21.1058 7.58901 20.9553 7.86823 20.6855C8.14745 20.4157 8.31206 20.0475 8.32754 19.6583C8.17028 21.1658 7.6236 23.2161 5.64657 23.2161C1.9022 23.2161 5.21971 28.9296 6.14832 30.4145L1.3031 23.4497C1.15437 23.2256 1.06808 22.9653 1.05321 22.6962C1.03835 22.4271 1.09545 22.1588 1.21857 21.9194C1.34169 21.6801 1.52632 21.4783 1.75325 21.3351C1.98017 21.192 2.24108 21.1127 2.50879 21.1055H6.82979Z" fill="#00B74C"/>
<path d="M8.3051 19.304V2.56277C8.3051 2.16295 8.4629 1.7795 8.74378 1.49678C9.02467 1.21407 9.40562 1.05524 9.80285 1.05524H18.7594C19.1566 1.05524 19.5376 1.21407 19.8184 1.49678C20.0993 1.7795 20.2571 2.16295 20.2571 2.56277V19.5376C20.2571 19.9375 20.4149 20.3209 20.6958 20.6036C20.9767 20.8864 21.3576 21.0452 21.7549 21.0452H26.0309C26.3079 21.0409 26.5806 21.1139 26.8188 21.2563C27.0569 21.3986 27.2512 21.6046 27.38 21.8515C27.5089 22.0983 27.5671 22.3762 27.5484 22.6544C27.5297 22.9325 27.4348 23.2 27.2741 23.4271L25.8737 25.4623L15.5317 40.3191C15.3947 40.5243 15.2097 40.6924 14.9929 40.8087C14.7761 40.9249 14.5342 40.9857 14.2886 40.9857C14.043 40.9857 13.8011 40.9249 13.5843 40.8087C13.3675 40.6924 13.1825 40.5243 13.0455 40.3191L6.35803 30.7311" stroke="black" stroke-width="2.75" stroke-miterlimit="10"/>
<path d="M6.12585 30.3769L1.3031 23.4497C1.15437 23.2256 1.06808 22.9653 1.05321 22.6962C1.03835 22.4271 1.09545 22.1588 1.21857 21.9194C1.34169 21.6801 1.52632 21.4783 1.75325 21.3351C1.98017 21.192 2.24108 21.1127 2.50879 21.1055H6.82979C7.21685 21.1058 7.58901 20.9553 7.86823 20.6855C8.14745 20.4157 8.31206 20.0475 8.32754 19.6583" stroke="black" stroke-width="2.75" stroke-miterlimit="10"/>
<path d="M6.12585 30.3768L6.35801 30.7311" stroke="black" stroke-width="2.75" stroke-miterlimit="10"/>
<path d="M8.30505 19.304V19.5979" stroke="black" stroke-width="2.75" stroke-miterlimit="10"/>
</svg>
