<svg width="33" height="45" viewBox="0 0 33 45" fill="none" xmlns="http://www.w3.org/2000/svg">
<path d="M2.48656 24.3144C2.20576 24.0953 1.97848 23.8145 1.82212 23.4935C1.66576 23.1725 1.58447 22.8197 1.58447 22.4622C1.58447 22.1047 1.66576 21.7519 1.82212 21.4309C1.97848 21.1098 2.20576 20.829 2.48656 20.61L5.86755 18.0396C6.73138 23.2711 9.38987 28.0326 13.3808 31.4963L2.48656 24.3144Z" fill="#F98ADC"/>
<path d="M13.0052 31.7231C9.10735 28.1434 6.58141 23.3009 5.86755 18.0396L24.9513 4.80969C28.6239 15.8603 27.8139 27.9228 22.6973 38.3759L13.6814 32.0255L13.0052 31.7231Z" fill="#FF9CE1"/>
<path d="M27.3556 41.9291L22.6974 38.3759C27.8139 27.9228 28.6239 15.8603 24.9514 4.8097L27.3556 2.91971C27.702 2.69089 28.1028 2.55919 28.5166 2.53819C28.9304 2.51719 29.3423 2.60765 29.7098 2.80024C30.0773 2.99284 30.3871 3.28059 30.6072 3.63381C30.8273 3.98704 30.9498 4.39296 30.962 4.8097V39.9635C30.9631 40.3867 30.8502 40.8022 30.6355 41.1661C30.4207 41.5299 30.112 41.8285 29.7422 42.03C29.3724 42.2316 28.9553 42.3286 28.5351 42.3109C28.1149 42.2931 27.7073 42.1612 27.3556 41.9291V41.9291Z" fill="#FFB3EB"/>
<path d="M13.0052 31.7232L2.48656 24.1632C2.20576 23.9441 1.97848 23.6634 1.82212 23.3423C1.66576 23.0213 1.58447 22.6685 1.58447 22.311C1.58447 21.9535 1.66576 21.6007 1.82212 21.2797C1.97848 20.9586 2.20576 20.6779 2.48656 20.4588L5.86755 18.0396L24.9513 4.8097L27.3556 2.91971C27.702 2.69089 28.1027 2.55919 28.5165 2.53819C28.9304 2.51719 29.3423 2.60765 29.7098 2.80024C30.0773 2.99284 30.387 3.28059 30.6071 3.63381C30.8273 3.98704 30.9498 4.39296 30.962 4.8097V39.9635C30.9371 40.3738 30.8055 40.7702 30.5803 41.1131C30.355 41.4561 30.0441 41.7333 29.6788 41.9171C29.3134 42.101 28.9064 42.1849 28.4987 42.1604C28.0909 42.136 27.6967 42.0041 27.3556 41.7779L22.6973 38.3759L13.6814 32.0256" stroke="black" stroke-width="3.79901" stroke-linecap="round" stroke-linejoin="round"/>
</svg>
